999
dxflib 3.17.0.0
  0
SECTION
  2
HEADER
  9
$ACADVER
  1
AC1015
  9
$HANDSEED
  5
FFFF
  9
$DIMADEC
 70
0
  9
$DIMASZ
 40
5
  9
$DIMAUNIT
 70
0
  9
$DIMAZIN
 70
0
  9
$DIMDEC
 70
4
  9
$DIMDLI
 40
10
  9
$DIMDSEP
 70
46
  9
$DIMEXE
 40
2.5
  9
$DIMEXO
 40
1.25
  9
$DIMGAP
 40
1.25
  9
$DIMLUNIT
 70
2
  9
$DIMSCALE
 40
1.0
  9
$DIMTSZ
 40
0.0
  9
$DIMTXT
 40
5
  9
$DIMZIN
 70
0
  9
$DWGCODEPAGE
  3
ANSI_1252
  9
$EXTMAX
 10
1000.0
 20
1000.0
 30
0.0
  9
$EXTMIN
 10
0.0
 20
0.0
 30
0.0
  9
$FILLMODE
 70
0
  9
$INSUNITS
 70
0
  9
$LTSCALE
 40
1.0
  9
$MAXACTVP
 70
64
  9
$MEASUREMENT
 70
1
  9
$MIRRTEXT
 70
0
  9
$PDMODE
 70
0
  9
$PDSIZE
 40
0.0
  9
$SPLFRAME
 70
1
  0
ENDSEC
  0
SECTION
  2
TABLES
  0
TABLE
  2
VPORT
  5
8
100
AcDbSymbolTable
 70
1
  0
VPORT
  5
30
100
AcDbSymbolTableRecord
100
AcDbViewportTableRecord
  2
*Active
 70
0
 10
0.0
 20
0.0
 11
1.0
 21
1.0
 12
286.3055555555554861
 22
148.5
 13
0.0
 23
0.0
 14
10.0
 24
10.0
 15
10.0
 25
10.0
 16
0.0
 26
0.0
 36
1.0
 17
0.0
 27
0.0
 37
0.0
 40
297.0
 41
1.92798353909465
 42
50.0
 43
0.0
 44
0.0
 50
0.0
 51
0.0
 71
0
 72
100
 73
1
 74
3
 75
1
 76
1
 77
0
 78
0
281
0
 65
1
110
0.0
120
0.0
130
0.0
111
1.0
121
0.0
131
0.0
112
0.0
122
1.0
132
0.0
 79
0
146
0.0
  0
ENDTAB
  0
TABLE
  2
LTYPE
  5
5
100
AcDbSymbolTable
 70
41
  0
LTYPE
  5
16
100
AcDbSymbolTableRecord
100
AcDbLinetypeTableRecord
  2
Continuous
 70
0
  3
Solid line
 72
65
 73
0
 40
0.0
  0
LTYPE
  5
31
100
AcDbSymbolTableRecord
100
AcDbLinetypeTableRecord
  2
ACAD_ISO07W100
 70
0
  3
ISO dot . . . . . . . . . . . . . . . . . . . . 
 72
65
 73
2
 40
3.0
 49
0.0
 74
0
 49
-3.0
 74
0
  0
LTYPE
  5
32
100
AcDbSymbolTableRecord
100
AcDbLinetypeTableRecord
  2
BORDER
 70
0
  3
Border __ __ . __ __ . __ __ . __ __ . __ __ .
 72
65
 73
6
 40
44.4499999999999957
 49
12.6999999999999993
 74
0
 49
-6.3499999999999996
 74
0
 49
12.6999999999999993
 74
0
 49
-6.3499999999999996
 74
0
 49
0.0
 74
0
 49
-6.3499999999999996
 74
0
  0
LTYPE
  5
33
100
AcDbSymbolTableRecord
100
AcDbLinetypeTableRecord
  2
DASHEDX2
 70
0
  3
Dashed (2x) ____  ____  ____  ____  ____  ___
 72
65
 73
2
 40
38.0999999999999943
 49
25.3999999999999986
 74
0
 49
-12.6999999999999993
 74
0
  0
LTYPE
  5
34
100
AcDbSymbolTableRecord
100
AcDbLinetypeTableRecord
  2
ACAD_ISO11W100
 70
0
  3
ISO double-dash dot __ __ . __ __ . __ __ . __ _
 72
65
 73
6
 40
33.0
 49
12.0
 74
0
 49
-3.0
 74
0
 49
12.0
 74
0
 49
-3.0
 74
0
 49
0.0
 74
0
 49
-3.0
 74
0
  0
LTYPE
  5
35
100
AcDbSymbolTableRecord
100
AcDbLinetypeTableRecord
  2
DIVIDEX2
 70
0
  3
Divide (2x) ________  .  .  ________  .  .  _
 72
65
 73
6
 40
63.5
 49
25.3999999999999986
 74
0
 49
-12.6999999999999993
 74
0
 49
0.0
 74
0
 49
-12.6999999999999993
 74
0
 49
0.0
 74
0
 49
-12.6999999999999993
 74
0
  0
LTYPE
  5
36
100
AcDbSymbolTableRecord
100
AcDbLinetypeTableRecord
  2
DASHDOTX2
 70
0
  3
Dash dot (2x) ____  .  ____  .  ____  .  ___
 72
65
 73
4
 40
50.7999999999999972
 49
25.3999999999999986
 74
0
 49
-12.6999999999999993
 74
0
 49
0.0
 74
0
 49
-12.6999999999999993
 74
0
  0
LTYPE
  5
37
100
AcDbSymbolTableRecord
100
AcDbLinetypeTableRecord
  2
ACAD_ISO09W100
 70
0
  3
ISO long-dash double-short-dash ____ __ __ ____
 72
65
 73
6
 40
45.0
 49
24.0
 74
0
 49
-3.0
 74
0
 49
6.0
 74
0
 49
-3.0
 74
0
 49
6.0
 74
0
 49
-3.0
 74
0
  0
LTYPE
  5
38
100
AcDbSymbolTableRecord
100
AcDbLinetypeTableRecord
  2
ACAD_ISO10W100
 70
0
  3
ISO dash dot __ . __ . __ . __ . __ . __ . __ . 
 72
65
 73
4
 40
18.0
 49
12.0
 74
0
 49
-3.0
 74
0
 49
0.0
 74
0
 49
-3.0
 74
0
  0
LTYPE
  5
39
100
AcDbSymbolTableRecord
100
AcDbLinetypeTableRecord
  2
ACAD_ISO15W100
 70
0
  3
ISO double-dash triple-dot __ __ . . . __ __ . .
 72
65
 73
10
 40
39.0
 49
12.0
 74
0
 49
-3.0
 74
0
 49
12.0
 74
0
 49
-3.0
 74
0
 49
0.0
 74
0
 49
-3.0
 74
0
 49
0.0
 74
0
 49
-3.0
 74
0
 49
0.0
 74
0
 49
-3.0
 74
0
  0
LTYPE
  5
3A
100
AcDbSymbolTableRecord
100
AcDbLinetypeTableRecord
  2
ACAD_ISO08W100
 70
0
  3
ISO long-dash short-dash ____ __ ____ __ ____ _
 72
65
 73
4
 40
36.0
 49
24.0
 74
0
 49
-3.0
 74
0
 49
6.0
 74
0
 49
-3.0
 74
0
  0
LTYPE
  5
3B
100
AcDbSymbolTableRecord
100
AcDbLinetypeTableRecord
  2
CENTER
 70
0
  3
Center ____ _ ____ _ ____ _ ____ _ ____ _ ____
 72
65
 73
4
 40
50.8000000000000043
 49
31.75
 74
0
 49
-6.3499999999999996
 74
0
 49
6.3499999999999996
 74
0
 49
-6.3499999999999996
 74
0
  0
LTYPE
  5
3C
100
AcDbSymbolTableRecord
100
AcDbLinetypeTableRecord
  2
HIDDEN
 70
0
  3
Hidden __ __ __ __ __ __ __ __ __ __ __ __ __ __
 72
65
 73
2
 40
9.5249999999999986
 49
6.3499999999999996
 74
0
 49
-3.1749999999999998
 74
0
  0
LTYPE
  5
3D
100
AcDbSymbolTableRecord
100
AcDbLinetypeTableRecord
  2
DASHED2
 70
0
  3
Dashed (.5x) _ _ _ _ _ _ _ _ _ _ _ _ _ _ _ _ _ 
 72
65
 73
2
 40
9.5249999999999986
 49
6.3499999999999996
 74
0
 49
-3.1749999999999998
 74
0
  0
LTYPE
  5
3E
100
AcDbSymbolTableRecord
100
AcDbLinetypeTableRecord
  2
ACAD_ISO03W100
 70
0
  3
ISO dash space __    __    __    __    __    __
 72
65
 73
2
 40
30.0
 49
12.0
 74
0
 49
-18.0
 74
0
  0
LTYPE
  5
3F
100
AcDbSymbolTableRecord
100
AcDbLinetypeTableRecord
  2
CENTER2
 70
0
  3
Center (.5x) ___ _ ___ _ ___ _ ___ _ ___ _ ___
 72
65
 73
4
 40
28.5750000000000028
 49
19.0500000000000007
 74
0
 49
-3.1749999999999998
 74
0
 49
3.1749999999999998
 74
0
 49
-3.1749999999999998
 74
0
  0
LTYPE
  5
40
100
AcDbSymbolTableRecord
100
AcDbLinetypeTableRecord
  2
HIDDENX2
 70
0
  3
Hidden (2x) ____ ____ ____ ____ ____ ____ ____ 
 72
65
 73
2
 40
19.0499999999999972
 49
12.6999999999999993
 74
0
 49
-6.3499999999999996
 74
0
  0
LTYPE
  5
41
100
AcDbSymbolTableRecord
100
AcDbLinetypeTableRecord
  2
PHANTOMX2
 70
0
  3
Phantom (2x) ____________    ____    ____   _
 72
65
 73
6
 40
127.0000000000000142
 49
63.5
 74
0
 49
-12.6999999999999993
 74
0
 49
12.6999999999999993
 74
0
 49
-12.6999999999999993
 74
0
 49
12.6999999999999993
 74
0
 49
-12.6999999999999993
 74
0
  0
LTYPE
  5
42
100
AcDbSymbolTableRecord
100
AcDbLinetypeTableRecord
  2
CENTERX2
 70
0
  3
Center (2x) ________  __  ________  __  _____
 72
65
 73
4
 40
101.6000000000000085
 49
63.5
 74
0
 49
-12.6999999999999993
 74
0
 49
12.6999999999999993
 74
0
 49
-12.6999999999999993
 74
0
  0
LTYPE
  5
43
100
AcDbSymbolTableRecord
100
AcDbLinetypeTableRecord
  2
DOT
 70
0
  3
Dot . . . . . . . . . . . . . . . . . . . . . . . .
 72
65
 73
2
 40
6.3499999999999996
 49
0.0
 74
0
 49
-6.3499999999999996
 74
0
  0
LTYPE
  5
44
100
AcDbSymbolTableRecord
100
AcDbLinetypeTableRecord
  2
ACAD_ISO05W100
 70
0
  3
ISO long-dash double-dot ____ .. ____ .. ____ . 
 72
65
 73
6
 40
33.0
 49
24.0
 74
0
 49
-3.0
 74
0
 49
0.0
 74
0
 49
-3.0
 74
0
 49
0.0
 74
0
 49
-3.0
 74
0
  0
LTYPE
  5
45
100
AcDbSymbolTableRecord
100
AcDbLinetypeTableRecord
  2
BORDERX2
 70
0
  3
Border (2x) ____  ____  .  ____  ____  .  ___
 72
65
 73
6
 40
88.8999999999999915
 49
25.3999999999999986
 74
0
 49
-12.6999999999999993
 74
0
 49
25.3999999999999986
 74
0
 49
-12.6999999999999993
 74
0
 49
0.0
 74
0
 49
-12.6999999999999993
 74
0
  0
LTYPE
  5
46
100
AcDbSymbolTableRecord
100
AcDbLinetypeTableRecord
  2
ACAD_ISO13W100
 70
0
  3
ISO double-dash double-dot __ __ . . __ __ . . _
 72
65
 73
8
 40
36.0
 49
12.0
 74
0
 49
-3.0
 74
0
 49
12.0
 74
0
 49
-3.0
 74
0
 49
0.0
 74
0
 49
-3.0
 74
0
 49
0.0
 74
0
 49
-3.0
 74
0
  0
LTYPE
  5
47
100
AcDbSymbolTableRecord
100
AcDbLinetypeTableRecord
  2
PHANTOM
 70
0
  3
Phantom ______  __  __  ______  __  __  ______ 
 72
65
 73
6
 40
63.5000000000000071
 49
31.75
 74
0
 49
-6.3499999999999996
 74
0
 49
6.3499999999999996
 74
0
 49
-6.3499999999999996
 74
0
 49
6.3499999999999996
 74
0
 49
-6.3499999999999996
 74
0
  0
LTYPE
  5
48
100
AcDbSymbolTableRecord
100
AcDbLinetypeTableRecord
  2
DASHDOT2
 70
0
  3
Dash dot (.5x) _._._._._._._._._._._._._._._.
 72
65
 73
4
 40
12.6999999999999993
 49
6.3499999999999996
 74
0
 49
-3.1749999999999998
 74
0
 49
0.0
 74
0
 49
-3.1749999999999998
 74
0
  0
LTYPE
  5
49
100
AcDbSymbolTableRecord
100
AcDbLinetypeTableRecord
  2
DOT2
 70
0
  3
Dot (.5x) ........................................
 72
65
 73
2
 40
3.1749999999999998
 49
0.0
 74
0
 49
-3.1749999999999998
 74
0
  0
LTYPE
  5
4A
100
AcDbSymbolTableRecord
100
AcDbLinetypeTableRecord
  2
ACAD_ISO06W100
 70
0
  3
ISO long-dash triple-dot ____ ... ____ ... ____
 72
65
 73
8
 40
36.0
 49
24.0
 74
0
 49
-3.0
 74
0
 49
0.0
 74
0
 49
-3.0
 74
0
 49
0.0
 74
0
 49
-3.0
 74
0
 49
0.0
 74
0
 49
-3.0
 74
0
  0
LTYPE
  5
4B
100
AcDbSymbolTableRecord
100
AcDbLinetypeTableRecord
  2
ACAD_ISO14W100
 70
0
  3
ISO dash triple-dot __ . . . __ . . . __ . . . _
 72
65
 73
8
 40
24.0
 49
12.0
 74
0
 49
-3.0
 74
0
 49
0.0
 74
0
 49
-3.0
 74
0
 49
0.0
 74
0
 49
-3.0
 74
0
 49
0.0
 74
0
 49
-3.0
 74
0
  0
LTYPE
  5
4C
100
AcDbSymbolTableRecord
100
AcDbLinetypeTableRecord
  2
DOTX2
 70
0
  3
Dot (2x) .  .  .  .  .  .  .  .  .  .  .  .  .  .
 72
65
 73
2
 40
12.6999999999999993
 49
0.0
 74
0
 49
-12.6999999999999993
 74
0
  0
LTYPE
  5
4D
100
AcDbSymbolTableRecord
100
AcDbLinetypeTableRecord
  2
DIVIDE2
 70
0
  3
Divide (.5x) __..__..__..__..__..__..__..__.._
 72
65
 73
6
 40
15.875
 49
6.3499999999999996
 74
0
 49
-3.1749999999999998
 74
0
 49
0.0
 74
0
 49
-3.1749999999999998
 74
0
 49
0.0
 74
0
 49
-3.1749999999999998
 74
0
  0
LTYPE
  5
4E
100
AcDbSymbolTableRecord
100
AcDbLinetypeTableRecord
  2
DIVIDE
 70
0
  3
Divide ____ . . ____ . . ____ . . ____ . . ____
 72
65
 73
6
 40
31.75
 49
12.6999999999999993
 74
0
 49
-6.3499999999999996
 74
0
 49
0.0
 74
0
 49
-6.3499999999999996
 74
0
 49
0.0
 74
0
 49
-6.3499999999999996
 74
0
  0
LTYPE
  5
4F
100
AcDbSymbolTableRecord
100
AcDbLinetypeTableRecord
  2
ACAD_ISO02W100
 70
0
  3
ISO dash __ __ __ __ __ __ __ __ __ __ __ __ __
 72
65
 73
2
 40
15.0
 49
12.0
 74
0
 49
-3.0
 74
0
  0
LTYPE
  5
50
100
AcDbSymbolTableRecord
100
AcDbLinetypeTableRecord
  2
HIDDEN2
 70
0
  3
Hidden (.5x) _ _ _ _ _ _ _ _ _ _ _ _ _ _ _ _ _ 
 72
65
 73
2
 40
4.7624999999999993
 49
3.1749999999999998
 74
0
 49
-1.5874999999999999
 74
0
  0
LTYPE
  5
51
100
AcDbSymbolTableRecord
100
AcDbLinetypeTableRecord
  2
PHANTOM2
 70
0
  3
Phantom (.5x) ___ _ _ ___ _ _ ___ _ _ ___ _ _
 72
65
 73
6
 40
31.7500000000000036
 49
15.875
 74
0
 49
-3.1749999999999998
 74
0
 49
3.1749999999999998
 74
0
 49
-3.1749999999999998
 74
0
 49
3.1749999999999998
 74
0
 49
-3.1749999999999998
 74
0
  0
LTYPE
  5
52
100
AcDbSymbolTableRecord
100
AcDbLinetypeTableRecord
  2
ACAD_ISO04W100
 70
0
  3
ISO long-dash dot ____ . ____ . ____ . ____ . _
 72
65
 73
4
 40
30.0
 49
24.0
 74
0
 49
-3.0
 74
0
 49
0.0
 74
0
 49
-3.0
 74
0
  0
LTYPE
  5
53
100
AcDbSymbolTableRecord
100
AcDbLinetypeTableRecord
  2
BORDER2
 70
0
  3
Border (.5x) __.__.__.__.__.__.__.__.__.__.__.
 72
65
 73
6
 40
22.2249999999999979
 49
6.3499999999999996
 74
0
 49
-3.1749999999999998
 74
0
 49
6.3499999999999996
 74
0
 49
-3.1749999999999998
 74
0
 49
0.0
 74
0
 49
-3.1749999999999998
 74
0
  0
LTYPE
  5
14
100
AcDbSymbolTableRecord
100
AcDbLinetypeTableRecord
  2
BYBLOCK
 70
0
  3

 72
65
 73
0
 40
0.0
  0
LTYPE
  5
15
100
AcDbSymbolTableRecord
100
AcDbLinetypeTableRecord
  2
BYLAYER
 70
0
  3

 72
65
 73
0
 40
0.0
  0
LTYPE
  5
54
100
AcDbSymbolTableRecord
100
AcDbLinetypeTableRecord
  2
ACAD_ISO12W100
 70
0
  3
ISO dash double-dot __ . . __ . . __ . . __ . . 
 72
65
 73
6
 40
21.0
 49
12.0
 74
0
 49
-3.0
 74
0
 49
0.0
 74
0
 49
-3.0
 74
0
 49
0.0
 74
0
 49
-3.0
 74
0
  0
LTYPE
  5
55
100
AcDbSymbolTableRecord
100
AcDbLinetypeTableRecord
  2
DASHED
 70
0
  3
Dashed __ __ __ __ __ __ __ __ __ __ __ __ __ _
 72
65
 73
2
 40
19.0499999999999972
 49
12.6999999999999993
 74
0
 49
-6.3499999999999996
 74
0
  0
LTYPE
  5
56
100
AcDbSymbolTableRecord
100
AcDbLinetypeTableRecord
  2
DASHDOT
 70
0
  3
Dash dot __ . __ . __ . __ . __ . __ . __ . __
 72
65
 73
4
 40
25.3999999999999986
 49
12.6999999999999993
 74
0
 49
-6.3499999999999996
 74
0
 49
0.0
 74
0
 49
-6.3499999999999996
 74
0
  0
ENDTAB
  0
TABLE
  2
LAYER
  5
2
100
AcDbSymbolTable
 70
3
  0
LAYER
  5
57
100
AcDbSymbolTableRecord
100
AcDbLayerTableRecord
  2
medidas
 70
0
 62
1
420
16711680
  6
Continuous
370
25
390
F
  0
LAYER
  5
10
100
AcDbSymbolTableRecord
100
AcDbLayerTableRecord
  2
0
 70
0
 62
7
420
16777215
  6
Continuous
370
5
390
F
  0
LAYER
  5
58
100
AcDbSymbolTableRecord
100
AcDbLayerTableRecord
  2
anotacoes
 70
0
 62
5
420
255
  6
Continuous
370
25
390
F
  0
ENDTAB
  0
TABLE
  2
STYLE
  5
3
100
AcDbSymbolTable
 70
3
  0
STYLE
  5
59
100
AcDbSymbolTableRecord
100
AcDbTextStyleTableRecord
  2
Standard
 70
0
 40
0.0
 41
1.0
 50
0.0
 71
0
 42
2.5
  3

  4

1001
ACAD
1000
txt
1071
0
  0
STYLE
  5
5A
100
AcDbSymbolTableRecord
100
AcDbTextStyleTableRecord
  2
textstyle0
 70
0
 40
0.0
 41
1.0
 50
0.0
 71
0
 42
5.0
  3

  4

1001
ACAD
1000
Liberation Sans
1071
0
  0
STYLE
  5
5B
100
AcDbSymbolTableRecord
100
AcDbTextStyleTableRecord
  2
textstyle1
 70
0
 40
0.0
 41
1.0
 50
0.0
 71
0
 42
5.0
  3

  4

1001
ACAD
1000
Liberation Sans
1071
0
  0
ENDTAB
  0
TABLE
  2
VIEW
  5
6
100
AcDbSymbolTable
 70
0
  0
ENDTAB
  0
TABLE
  2
UCS
  5
7
100
AcDbSymbolTable
 70
0
  0
ENDTAB
  0
TABLE
  2
APPID
  5
9
100
AcDbSymbolTable
 70
1
  0
APPID
  5
12
100
AcDbSymbolTableRecord
100
AcDbRegAppTableRecord
  2
ACAD
 70
0
  0
APPID
  5
5C
100
AcDbSymbolTableRecord
100
AcDbRegAppTableRecord
  2
QCAD
 70
0
  0
ENDTAB
  0
TABLE
  2
DIMSTYLE
  5
A
100
AcDbSymbolTable
 70
1
100
AcDbDimStyleTable
 71
0
  0
DIMSTYLE
105
27
100
AcDbSymbolTableRecord
100
AcDbDimStyleTableRecord
  2
Standard
 41
5.0
 42
1.25
 43
3.75
 44
2.5
 70
0
 73
0
 74
0
 77
1
 78
8
140
5.0
141
2.5
143
0.03937007874016
147
1.25
171
3
172
1
271
2
272
2
274
3
278
44
283
0
284
8
340
59
  0
ENDTAB
  0
TABLE
  2
BLOCK_RECORD
  5
1
100
AcDbSymbolTable
 70
1
  0
BLOCK_RECORD
  5
1F
100
AcDbSymbolTableRecord
100
AcDbBlockTableRecord
  2
*Model_Space
340
22
  0
BLOCK_RECORD
  5
1B
100
AcDbSymbolTableRecord
100
AcDbBlockTableRecord
  2
*Paper_Space
340
1E
  0
BLOCK_RECORD
  5
23
100
AcDbSymbolTableRecord
100
AcDbBlockTableRecord
  2
*Paper_Space0
340
26
  0
ENDTAB
  0
ENDSEC
  0
SECTION
  2
BLOCKS
  0
BLOCK
  5
20
100
AcDbEntity
  8
0
100
AcDbBlockBegin
  2
*Model_Space
 70
0
 10
0.0
 20
0.0
 30
0.0
  3
*Model_Space
  1

  0
ENDBLK
  5
21
100
AcDbEntity
  8
0
100
AcDbBlockEnd
  0
BLOCK
  5
1C
100
AcDbEntity
 67
1
  8
0
100
AcDbBlockBegin
  2
*Paper_Space
 70
0
 10
0.0
 20
0.0
 30
0.0
  3
*Paper_Space
  1

  0
ENDBLK
  5
1D
100
AcDbEntity
 67
1
  8
0
100
AcDbBlockEnd
  0
BLOCK
  5
24
100
AcDbEntity
  8
0
100
AcDbBlockBegin
  2
*Paper_Space0
 70
0
 10
0.0
 20
0.0
 30
0.0
  3
*Paper_Space0
  1

  0
ENDBLK
  5
25
100
AcDbEntity
  8
0
100
AcDbBlockEnd
  0
ENDSEC
  0
SECTION
  2
ENTITIES
  0
LINE
  5
5D
100
AcDbEntity
  8
0
 62
0
370
-1
 48
1.0
  6
BYLAYER
100
AcDbLine
 10
0.0
 20
189.8947979999999518
 30
0.0
 11
222.7341320000000735
 21
189.8947979999999518
 31
0.0
  0
LINE
  5
5E
100
AcDbEntity
  8
0
 62
0
370
-1
 48
1.0
  6
BYLAYER
100
AcDbLine
 10
2.9999999999999716
 20
134.2225060000000099
 30
0.0
 11
117.8283159999999867
 21
134.2225060000000099
 31
0.0
  0
LINE
  5
5F
100
AcDbEntity
  8
0
 62
0
370
-1
 48
1.0
  6
BYLAYER
100
AcDbLine
 10
225.7341320000000451
 20
186.8947979999999518
 30
0.0
 11
225.7341320000000451
 21
160.0
 31
0.0
  0
LINE
  5
60
100
AcDbEntity
  8
0
 62
0
370
-1
 48
1.0
  6
BYLAYER
100
AcDbLine
 10
343.5624480000000176
 20
104.3277080000000154
 30
0.0
 11
343.5624480000000176
 21
3.0
 31
0.0
  0
LINE
  5
61
100
AcDbEntity
  8
0
 62
0
370
-1
 48
1.0
  6
BYLAYER
100
AcDbLine
 10
340.5624480000000176
 20
0.0
 30
0.0
 11
3.0000000000000568
 21
0.0
 31
0.0
  0
LINE
  5
62
100
AcDbEntity
  8
0
 62
0
370
-1
 48
1.0
  6
BYLAYER
100
AcDbLine
 10
-0.0000000000000284
 20
2.9999999999999982
 30
0.0
 11
-0.0000000000000284
 21
131.2225060000000667
 31
0.0
  0
LINE
  5
63
100
AcDbEntity
  8
0
 62
0
370
-1
 48
1.0
  6
BYLAYER
100
AcDbLine
 10
319.6125189999999634
 20
20.9508339999999826
 30
0.0
 11
333.5125189999999975
 21
20.9508339999999826
 31
0.0
  0
LINE
  5
64
100
AcDbEntity
  8
0
 62
0
370
-1
 48
1.0
  6
BYLAYER
100
AcDbLine
 10
333.5125189999999975
 20
20.9508339999999826
 30
0.0
 11
333.5125189999999975
 21
7.0505139999999837
 31
0.0
  0
LINE
  5
65
100
AcDbEntity
  8
0
 62
0
370
-1
 48
1.0
  6
BYLAYER
100
AcDbLine
 10
333.5125189999999975
 20
7.0505139999999837
 30
0.0
 11
319.6125189999999634
 21
7.0505139999999837
 31
0.0
  0
LINE
  5
66
100
AcDbEntity
  8
0
 62
0
370
-1
 48
1.0
  6
BYLAYER
100
AcDbLine
 10
319.6125189999999634
 20
7.0505139999999837
 30
0.0
 11
319.6125189999999634
 21
20.9508339999999826
 31
0.0
  0
LINE
  5
67
100
AcDbEntity
  8
0
 62
0
370
-1
 48
1.0
  6
BYLAYER
100
AcDbLine
 10
300.5625190000000089
 20
20.9508339999999826
 30
0.0
 11
314.4625189999999861
 21
20.9508339999999826
 31
0.0
  0
LINE
  5
68
100
AcDbEntity
  8
0
 62
0
370
-1
 48
1.0
  6
BYLAYER
100
AcDbLine
 10
314.4625189999999861
 20
20.9508339999999826
 30
0.0
 11
314.4625189999999861
 21
7.0505139999999837
 31
0.0
  0
LINE
  5
69
100
AcDbEntity
  8
0
 62
0
370
-1
 48
1.0
  6
BYLAYER
100
AcDbLine
 10
314.4625189999999861
 20
7.0505139999999837
 30
0.0
 11
300.5625190000000089
 21
7.0505139999999837
 31
0.0
  0
LINE
  5
6A
100
AcDbEntity
  8
0
 62
0
370
-1
 48
1.0
  6
BYLAYER
100
AcDbLine
 10
300.5625190000000089
 20
7.0505139999999837
 30
0.0
 11
300.5625190000000089
 21
20.9508339999999826
 31
0.0
  0
LINE
  5
6B
100
AcDbEntity
  8
0
 62
0
370
-1
 48
1.0
  6
BYLAYER
100
AcDbLine
 10
281.5125189999999975
 20
20.9508339999999826
 30
0.0
 11
295.4125189999999748
 21
20.9508339999999826
 31
0.0
  0
LINE
  5
6C
100
AcDbEntity
  8
0
 62
0
370
-1
 48
1.0
  6
BYLAYER
100
AcDbLine
 10
295.4125189999999748
 20
20.9508339999999826
 30
0.0
 11
295.4125189999999748
 21
7.0505139999999837
 31
0.0
  0
LINE
  5
6D
100
AcDbEntity
  8
0
 62
0
370
-1
 48
1.0
  6
BYLAYER
100
AcDbLine
 10
295.4125189999999748
 20
7.0505139999999837
 30
0.0
 11
281.5125189999999975
 21
7.0505139999999837
 31
0.0
  0
LINE
  5
6E
100
AcDbEntity
  8
0
 62
0
370
-1
 48
1.0
  6
BYLAYER
100
AcDbLine
 10
281.5125189999999975
 20
7.0505139999999837
 30
0.0
 11
281.5125189999999975
 21
20.9508339999999826
 31
0.0
  0
LINE
  5
6F
100
AcDbEntity
  8
0
 62
0
370
-1
 48
1.0
  6
BYLAYER
100
AcDbLine
 10
155.3065189999999802
 20
25.7146339999999824
 30
0.0
 11
155.3065189999999802
 21
21.0142339999999841
 31
0.0
  0
LINE
  5
70
100
AcDbEntity
  8
0
 62
0
370
-1
 48
1.0
  6
BYLAYER
100
AcDbLine
 10
155.3065189999999802
 20
21.0142339999999841
 30
0.0
 11
115.5815189999999859
 21
21.0142339999999841
 31
0.0
  0
LINE
  5
71
100
AcDbEntity
  8
0
 62
0
370
-1
 48
1.0
  6
BYLAYER
100
AcDbLine
 10
115.5815189999999859
 20
21.0142339999999841
 30
0.0
 11
115.5815189999999859
 21
24.2443339999999843
 31
0.0
  0
LINE
  5
72
100
AcDbEntity
  8
0
 62
0
370
-1
 48
1.0
  6
BYLAYER
100
AcDbLine
 10
115.5815189999999859
 20
24.2443339999999843
 30
0.0
 11
108.9315189999999802
 21
24.2443339999999843
 31
0.0
  0
LINE
  5
73
100
AcDbEntity
  8
0
 62
0
370
-1
 48
1.0
  6
BYLAYER
100
AcDbLine
 10
108.9315189999999802
 20
24.2443339999999843
 30
0.0
 11
108.9315189999999802
 21
21.0142339999999841
 31
0.0
  0
LINE
  5
74
100
AcDbEntity
  8
0
 62
0
370
-1
 48
1.0
  6
BYLAYER
100
AcDbLine
 10
108.9315189999999802
 20
21.0142339999999841
 30
0.0
 11
108.1055189999999868
 21
21.0142339999999841
 31
0.0
  0
LINE
  5
75
100
AcDbEntity
  8
0
 62
0
370
-1
 48
1.0
  6
BYLAYER
100
AcDbLine
 10
108.1055189999999868
 20
21.0142339999999841
 30
0.0
 11
108.1055189999999868
 21
18.3146339999999839
 31
0.0
  0
LINE
  5
76
100
AcDbEntity
  8
0
 62
0
370
-1
 48
1.0
  6
BYLAYER
100
AcDbLine
 10
108.1055189999999868
 20
18.3146339999999839
 30
0.0
 11
108.9315189999999802
 21
18.3146339999999839
 31
0.0
  0
LINE
  5
77
100
AcDbEntity
  8
0
 62
0
370
-1
 48
1.0
  6
BYLAYER
100
AcDbLine
 10
108.9315189999999802
 20
18.3146339999999839
 30
0.0
 11
108.9315189999999802
 21
12.0445339999999845
 31
0.0
  0
LINE
  5
78
100
AcDbEntity
  8
0
 62
0
370
-1
 48
1.0
  6
BYLAYER
100
AcDbLine
 10
108.9315189999999802
 20
12.0445339999999845
 30
0.0
 11
110.6565189999999745
 21
12.0445339999999845
 31
0.0
  0
LINE
  5
79
100
AcDbEntity
  8
0
 62
0
370
-1
 48
1.0
  6
BYLAYER
100
AcDbLine
 10
110.6565189999999745
 20
12.0445339999999845
 30
0.0
 11
110.6565189999999745
 21
10.8442339999999842
 31
0.0
  0
LINE
  5
7A
100
AcDbEntity
  8
0
 62
0
370
-1
 48
1.0
  6
BYLAYER
100
AcDbLine
 10
110.6565189999999745
 20
10.8442339999999842
 30
0.0
 11
113.8565189999999774
 21
10.8442339999999842
 31
0.0
  0
LINE
  5
7B
100
AcDbEntity
  8
0
 62
0
370
-1
 48
1.0
  6
BYLAYER
100
AcDbLine
 10
113.8565189999999774
 20
10.8442339999999842
 30
0.0
 11
113.8565189999999774
 21
12.0445339999999845
 31
0.0
  0
LINE
  5
7C
100
AcDbEntity
  8
0
 62
0
370
-1
 48
1.0
  6
BYLAYER
100
AcDbLine
 10
113.8565189999999774
 20
12.0445339999999845
 30
0.0
 11
115.5815189999999859
 21
12.0445339999999845
 31
0.0
  0
LINE
  5
7D
100
AcDbEntity
  8
0
 62
0
370
-1
 48
1.0
  6
BYLAYER
100
AcDbLine
 10
115.5815189999999859
 20
12.0445339999999845
 30
0.0
 11
115.5815189999999859
 21
16.5135339999999822
 31
0.0
  0
LINE
  5
7E
100
AcDbEntity
  8
0
 62
0
370
-1
 48
1.0
  6
BYLAYER
100
AcDbLine
 10
115.5815189999999859
 20
16.5135339999999822
 30
0.0
 11
155.3065189999999802
 21
16.5135339999999822
 31
0.0
  0
LINE
  5
7F
100
AcDbEntity
  8
0
 62
0
370
-1
 48
1.0
  6
BYLAYER
100
AcDbLine
 10
155.3065189999999802
 20
16.5135339999999822
 30
0.0
 11
155.3065189999999802
 21
11.8144339999999843
 31
0.0
  0
LINE
  5
80
100
AcDbEntity
  8
0
 62
0
370
-1
 48
1.0
  6
BYLAYER
100
AcDbLine
 10
155.3065189999999802
 20
11.8144339999999843
 30
0.0
 11
169.2065189999999859
 21
11.8144339999999843
 31
0.0
  0
LINE
  5
81
100
AcDbEntity
  8
0
 62
0
370
-1
 48
1.0
  6
BYLAYER
100
AcDbLine
 10
169.2065189999999859
 20
11.8144339999999843
 30
0.0
 11
169.2065189999999859
 21
16.5135339999999822
 31
0.0
  0
LINE
  5
82
100
AcDbEntity
  8
0
 62
0
370
-1
 48
1.0
  6
BYLAYER
100
AcDbLine
 10
169.2065189999999859
 20
16.5135339999999822
 30
0.0
 11
208.9315189999999802
 21
16.5135339999999822
 31
0.0
  0
LINE
  5
83
100
AcDbEntity
  8
0
 62
0
370
-1
 48
1.0
  6
BYLAYER
100
AcDbLine
 10
208.9315189999999802
 20
16.5135339999999822
 30
0.0
 11
208.9315189999999802
 21
12.0445339999999845
 31
0.0
  0
LINE
  5
84
100
AcDbEntity
  8
0
 62
0
370
-1
 48
1.0
  6
BYLAYER
100
AcDbLine
 10
208.9315189999999802
 20
12.0445339999999845
 30
0.0
 11
210.6565189999999745
 21
12.0445339999999845
 31
0.0
  0
LINE
  5
85
100
AcDbEntity
  8
0
 62
0
370
-1
 48
1.0
  6
BYLAYER
100
AcDbLine
 10
210.6565189999999745
 20
12.0445339999999845
 30
0.0
 11
210.6565189999999745
 21
10.8442339999999842
 31
0.0
  0
LINE
  5
86
100
AcDbEntity
  8
0
 62
0
370
-1
 48
1.0
  6
BYLAYER
100
AcDbLine
 10
210.6565189999999745
 20
10.8442339999999842
 30
0.0
 11
213.8565189999999916
 21
10.8442339999999842
 31
0.0
  0
LINE
  5
87
100
AcDbEntity
  8
0
 62
0
370
-1
 48
1.0
  6
BYLAYER
100
AcDbLine
 10
213.8565189999999916
 20
10.8442339999999842
 30
0.0
 11
213.8565189999999916
 21
12.0445339999999845
 31
0.0
  0
LINE
  5
88
100
AcDbEntity
  8
0
 62
0
370
-1
 48
1.0
  6
BYLAYER
100
AcDbLine
 10
213.8565189999999916
 20
12.0445339999999845
 30
0.0
 11
215.5815189999999859
 21
12.0445339999999845
 31
0.0
  0
LINE
  5
89
100
AcDbEntity
  8
0
 62
0
370
-1
 48
1.0
  6
BYLAYER
100
AcDbLine
 10
215.5815189999999859
 20
12.0445339999999845
 30
0.0
 11
215.5815189999999859
 21
18.3146339999999839
 31
0.0
  0
LINE
  5
8A
100
AcDbEntity
  8
0
 62
0
370
-1
 48
1.0
  6
BYLAYER
100
AcDbLine
 10
215.5815189999999859
 20
18.3146339999999839
 30
0.0
 11
216.4055189999999698
 21
18.3146339999999839
 31
0.0
  0
LINE
  5
8B
100
AcDbEntity
  8
0
 62
0
370
-1
 48
1.0
  6
BYLAYER
100
AcDbLine
 10
216.4055189999999698
 20
18.3146339999999839
 30
0.0
 11
216.4055189999999698
 21
21.0142339999999841
 31
0.0
  0
LINE
  5
8C
100
AcDbEntity
  8
0
 62
0
370
-1
 48
1.0
  6
BYLAYER
100
AcDbLine
 10
216.4055189999999698
 20
21.0142339999999841
 30
0.0
 11
215.5815189999999859
 21
21.0142339999999841
 31
0.0
  0
LINE
  5
8D
100
AcDbEntity
  8
0
 62
0
370
-1
 48
1.0
  6
BYLAYER
100
AcDbLine
 10
215.5815189999999859
 20
21.0142339999999841
 30
0.0
 11
215.5815189999999859
 21
24.2443339999999843
 31
0.0
  0
LINE
  5
8E
100
AcDbEntity
  8
0
 62
0
370
-1
 48
1.0
  6
BYLAYER
100
AcDbLine
 10
215.5815189999999859
 20
24.2443339999999843
 30
0.0
 11
208.9315189999999802
 21
24.2443339999999843
 31
0.0
  0
LINE
  5
8F
100
AcDbEntity
  8
0
 62
0
370
-1
 48
1.0
  6
BYLAYER
100
AcDbLine
 10
208.9315189999999802
 20
24.2443339999999843
 30
0.0
 11
208.9315189999999802
 21
21.0142339999999841
 31
0.0
  0
LINE
  5
90
100
AcDbEntity
  8
0
 62
0
370
-1
 48
1.0
  6
BYLAYER
100
AcDbLine
 10
208.9315189999999802
 20
21.0142339999999841
 30
0.0
 11
169.2065189999999859
 21
21.0142339999999841
 31
0.0
  0
LINE
  5
91
100
AcDbEntity
  8
0
 62
0
370
-1
 48
1.0
  6
BYLAYER
100
AcDbLine
 10
169.2065189999999859
 20
21.0142339999999841
 30
0.0
 11
169.2065189999999859
 21
25.7146339999999824
 31
0.0
  0
LINE
  5
92
100
AcDbEntity
  8
0
 62
0
370
-1
 48
1.0
  6
BYLAYER
100
AcDbLine
 10
169.2065189999999859
 20
25.7146339999999824
 30
0.0
 11
155.3065189999999802
 21
25.7146339999999824
 31
0.0
  0
LINE
  5
93
100
AcDbEntity
  8
0
 62
0
370
-1
 48
1.0
  6
BYLAYER
100
AcDbLine
 10
250.5565189999999802
 20
25.7146339999999824
 30
0.0
 11
264.4565189999999575
 21
25.7146339999999824
 31
0.0
  0
LINE
  5
94
100
AcDbEntity
  8
0
 62
0
370
-1
 48
1.0
  6
BYLAYER
100
AcDbLine
 10
264.4565189999999575
 20
25.7146339999999824
 30
0.0
 11
264.4565189999999575
 21
11.8144339999999843
 31
0.0
  0
LINE
  5
95
100
AcDbEntity
  8
0
 62
0
370
-1
 48
1.0
  6
BYLAYER
100
AcDbLine
 10
264.4565189999999575
 20
11.8144339999999843
 30
0.0
 11
250.5565189999999802
 21
11.8144339999999843
 31
0.0
  0
LINE
  5
96
100
AcDbEntity
  8
0
 62
0
370
-1
 48
1.0
  6
BYLAYER
100
AcDbLine
 10
250.5565189999999802
 20
11.8144339999999843
 30
0.0
 11
250.5565189999999802
 21
25.7146339999999824
 31
0.0
  0
LINE
  5
97
100
AcDbEntity
  8
0
 62
0
370
-1
 48
1.0
  6
BYLAYER
100
AcDbLine
 10
226.743518999999992
 20
25.7146339999999824
 30
0.0
 11
240.642518999999993
 21
25.7146339999999824
 31
0.0
  0
LINE
  5
98
100
AcDbEntity
  8
0
 62
0
370
-1
 48
1.0
  6
BYLAYER
100
AcDbLine
 10
240.642518999999993
 20
25.7146339999999824
 30
0.0
 11
240.642518999999993
 21
11.8144339999999843
 31
0.0
  0
LINE
  5
99
100
AcDbEntity
  8
0
 62
0
370
-1
 48
1.0
  6
BYLAYER
100
AcDbLine
 10
240.642518999999993
 20
11.8144339999999843
 30
0.0
 11
226.743518999999992
 21
11.8144339999999843
 31
0.0
  0
LINE
  5
9A
100
AcDbEntity
  8
0
 62
0
370
-1
 48
1.0
  6
BYLAYER
100
AcDbLine
 10
226.743518999999992
 20
11.8144339999999843
 30
0.0
 11
226.743518999999992
 21
25.7146339999999824
 31
0.0
  0
LINE
  5
9B
100
AcDbEntity
  8
0
 62
0
370
-1
 48
1.0
  6
BYLAYER
100
AcDbLine
 10
83.8686189999999812
 20
25.7146339999999824
 30
0.0
 11
97.7674189999999754
 21
25.7146339999999824
 31
0.0
  0
LINE
  5
9C
100
AcDbEntity
  8
0
 62
0
370
-1
 48
1.0
  6
BYLAYER
100
AcDbLine
 10
97.7674189999999754
 20
25.7146339999999824
 30
0.0
 11
97.7674189999999754
 21
11.8144339999999843
 31
0.0
  0
LINE
  5
9D
100
AcDbEntity
  8
0
 62
0
370
-1
 48
1.0
  6
BYLAYER
100
AcDbLine
 10
97.7674189999999754
 20
11.8144339999999843
 30
0.0
 11
83.8686189999999812
 21
11.8144339999999843
 31
0.0
  0
LINE
  5
9E
100
AcDbEntity
  8
0
 62
0
370
-1
 48
1.0
  6
BYLAYER
100
AcDbLine
 10
83.8686189999999812
 20
11.8144339999999843
 30
0.0
 11
83.8686189999999812
 21
25.7146339999999824
 31
0.0
  0
LINE
  5
9F
100
AcDbEntity
  8
0
 62
0
370
-1
 48
1.0
  6
BYLAYER
100
AcDbLine
 10
60.0561189999999812
 20
25.7146339999999824
 30
0.0
 11
73.9563189999999793
 21
25.7146339999999824
 31
0.0
  0
LINE
  5
A0
100
AcDbEntity
  8
0
 62
0
370
-1
 48
1.0
  6
BYLAYER
100
AcDbLine
 10
73.9563189999999793
 20
25.7146339999999824
 30
0.0
 11
73.9563189999999793
 21
11.8144339999999843
 31
0.0
  0
LINE
  5
A1
100
AcDbEntity
  8
0
 62
0
370
-1
 48
1.0
  6
BYLAYER
100
AcDbLine
 10
73.9563189999999793
 20
11.8144339999999843
 30
0.0
 11
60.0561189999999812
 21
11.8144339999999843
 31
0.0
  0
LINE
  5
A2
100
AcDbEntity
  8
0
 62
0
370
-1
 48
1.0
  6
BYLAYER
100
AcDbLine
 10
60.0561189999999812
 20
11.8144339999999843
 30
0.0
 11
60.0561189999999812
 21
25.7146339999999824
 31
0.0
  0
LINE
  5
A3
100
AcDbEntity
  8
0
 62
0
370
-1
 48
1.0
  6
BYLAYER
100
AcDbLine
 10
36.2436189999999812
 20
25.7146339999999824
 30
0.0
 11
50.1424189999999896
 21
25.7146339999999824
 31
0.0
  0
LINE
  5
A4
100
AcDbEntity
  8
0
 62
0
370
-1
 48
1.0
  6
BYLAYER
100
AcDbLine
 10
50.1424189999999896
 20
25.7146339999999824
 30
0.0
 11
50.1424189999999896
 21
11.8144339999999843
 31
0.0
  0
LINE
  5
A5
100
AcDbEntity
  8
0
 62
0
370
-1
 48
1.0
  6
BYLAYER
100
AcDbLine
 10
50.1424189999999896
 20
11.8144339999999843
 30
0.0
 11
36.2436189999999812
 21
11.8144339999999843
 31
0.0
  0
LINE
  5
A6
100
AcDbEntity
  8
0
 62
0
370
-1
 48
1.0
  6
BYLAYER
100
AcDbLine
 10
36.2436189999999812
 20
11.8144339999999843
 30
0.0
 11
36.2436189999999812
 21
25.7146339999999824
 31
0.0
  0
LINE
  5
A7
100
AcDbEntity
  8
0
 62
0
370
-1
 48
1.0
  6
BYLAYER
100
AcDbLine
 10
12.4311189999999954
 20
25.7146339999999824
 30
0.0
 11
26.3313189999999793
 21
25.7146339999999824
 31
0.0
  0
LINE
  5
A8
100
AcDbEntity
  8
0
 62
0
370
-1
 48
1.0
  6
BYLAYER
100
AcDbLine
 10
26.3313189999999793
 20
25.7146339999999824
 30
0.0
 11
26.3313189999999793
 21
11.8144339999999843
 31
0.0
  0
LINE
  5
A9
100
AcDbEntity
  8
0
 62
0
370
-1
 48
1.0
  6
BYLAYER
100
AcDbLine
 10
26.3313189999999793
 20
11.8144339999999843
 30
0.0
 11
12.4311189999999954
 21
11.8144339999999843
 31
0.0
  0
LINE
  5
AA
100
AcDbEntity
  8
0
 62
0
370
-1
 48
1.0
  6
BYLAYER
100
AcDbLine
 10
12.4311189999999954
 20
11.8144339999999843
 30
0.0
 11
12.4311189999999954
 21
25.7146339999999824
 31
0.0
  0
LINE
  5
AB
100
AcDbEntity
  8
0
 62
0
370
-1
 48
1.0
  6
BYLAYER
100
AcDbLine
 10
300.5625190000000089
 20
40.0007339999999871
 30
0.0
 11
314.4625189999999861
 21
40.0007339999999871
 31
0.0
  0
LINE
  5
AC
100
AcDbEntity
  8
0
 62
0
370
-1
 48
1.0
  6
BYLAYER
100
AcDbLine
 10
314.4625189999999861
 20
40.0007339999999871
 30
0.0
 11
314.4625189999999861
 21
26.1005339999999855
 31
0.0
  0
LINE
  5
AD
100
AcDbEntity
  8
0
 62
0
370
-1
 48
1.0
  6
BYLAYER
100
AcDbLine
 10
314.4625189999999861
 20
26.1005339999999855
 30
0.0
 11
300.5625190000000089
 21
26.1005339999999855
 31
0.0
  0
LINE
  5
AE
100
AcDbEntity
  8
0
 62
0
370
-1
 48
1.0
  6
BYLAYER
100
AcDbLine
 10
300.5625190000000089
 20
26.1005339999999855
 30
0.0
 11
300.5625190000000089
 21
40.0007339999999871
 31
0.0
  0
LINE
  5
AF
100
AcDbEntity
  8
0
 62
0
370
-1
 48
1.0
  6
BYLAYER
100
AcDbLine
 10
260.0815189999999575
 20
44.7646339999999867
 30
0.0
 11
260.0815189999999575
 21
40.0642339999999848
 31
0.0
  0
LINE
  5
B0
100
AcDbEntity
  8
0
 62
0
370
-1
 48
1.0
  6
BYLAYER
100
AcDbLine
 10
260.0815189999999575
 20
40.0642339999999848
 30
0.0
 11
258.4565189999999575
 21
40.0642339999999848
 31
0.0
  0
LINE
  5
B1
100
AcDbEntity
  8
0
 62
0
370
-1
 48
1.0
  6
BYLAYER
100
AcDbLine
 10
258.4565189999999575
 20
40.0642339999999848
 30
0.0
 11
258.4565189999999575
 21
43.2942339999999817
 31
0.0
  0
LINE
  5
B2
100
AcDbEntity
  8
0
 62
0
370
-1
 48
1.0
  6
BYLAYER
100
AcDbLine
 10
258.4565189999999575
 20
43.2942339999999817
 30
0.0
 11
251.8045189999999707
 21
43.2942339999999817
 31
0.0
  0
LINE
  5
B3
100
AcDbEntity
  8
0
 62
0
370
-1
 48
1.0
  6
BYLAYER
100
AcDbLine
 10
251.8045189999999707
 20
43.2942339999999817
 30
0.0
 11
251.8045189999999707
 21
40.0642339999999848
 31
0.0
  0
LINE
  5
B4
100
AcDbEntity
  8
0
 62
0
370
-1
 48
1.0
  6
BYLAYER
100
AcDbLine
 10
251.8045189999999707
 20
40.0642339999999848
 30
0.0
 11
250.9805189999999868
 21
40.0642339999999848
 31
0.0
  0
LINE
  5
B5
100
AcDbEntity
  8
0
 62
0
370
-1
 48
1.0
  6
BYLAYER
100
AcDbLine
 10
250.9805189999999868
 20
40.0642339999999848
 30
0.0
 11
250.9805189999999868
 21
37.3647339999999843
 31
0.0
  0
LINE
  5
B6
100
AcDbEntity
  8
0
 62
0
370
-1
 48
1.0
  6
BYLAYER
100
AcDbLine
 10
250.9805189999999868
 20
37.3647339999999843
 30
0.0
 11
251.8045189999999707
 21
37.3647339999999843
 31
0.0
  0
LINE
  5
B7
100
AcDbEntity
  8
0
 62
0
370
-1
 48
1.0
  6
BYLAYER
100
AcDbLine
 10
251.8045189999999707
 20
37.3647339999999843
 30
0.0
 11
251.8045189999999707
 21
31.0945339999999817
 31
0.0
  0
LINE
  5
B8
100
AcDbEntity
  8
0
 62
0
370
-1
 48
1.0
  6
BYLAYER
100
AcDbLine
 10
251.8045189999999707
 20
31.0945339999999817
 30
0.0
 11
253.5315189999999745
 21
31.0945339999999817
 31
0.0
  0
LINE
  5
B9
100
AcDbEntity
  8
0
 62
0
370
-1
 48
1.0
  6
BYLAYER
100
AcDbLine
 10
253.5315189999999745
 20
31.0945339999999817
 30
0.0
 11
253.5315189999999745
 21
29.8943339999999829
 31
0.0
  0
LINE
  5
BA
100
AcDbEntity
  8
0
 62
0
370
-1
 48
1.0
  6
BYLAYER
100
AcDbLine
 10
253.5315189999999745
 20
29.8943339999999829
 30
0.0
 11
256.729518999999982
 21
29.8943339999999829
 31
0.0
  0
LINE
  5
BB
100
AcDbEntity
  8
0
 62
0
370
-1
 48
1.0
  6
BYLAYER
100
AcDbLine
 10
256.729518999999982
 20
29.8943339999999829
 30
0.0
 11
256.729518999999982
 21
31.0945339999999817
 31
0.0
  0
LINE
  5
BC
100
AcDbEntity
  8
0
 62
0
370
-1
 48
1.0
  6
BYLAYER
100
AcDbLine
 10
256.729518999999982
 20
31.0945339999999817
 30
0.0
 11
258.4565189999999575
 21
31.0945339999999817
 31
0.0
  0
LINE
  5
BD
100
AcDbEntity
  8
0
 62
0
370
-1
 48
1.0
  6
BYLAYER
100
AcDbLine
 10
258.4565189999999575
 20
31.0945339999999817
 30
0.0
 11
258.4565189999999575
 21
35.5635339999999829
 31
0.0
  0
LINE
  5
BE
100
AcDbEntity
  8
0
 62
0
370
-1
 48
1.0
  6
BYLAYER
100
AcDbLine
 10
258.4565189999999575
 20
35.5635339999999829
 30
0.0
 11
260.0815189999999575
 21
35.5635339999999829
 31
0.0
  0
LINE
  5
BF
100
AcDbEntity
  8
0
 62
0
370
-1
 48
1.0
  6
BYLAYER
100
AcDbLine
 10
260.0815189999999575
 20
35.5635339999999829
 30
0.0
 11
260.0815189999999575
 21
30.864433999999985
 31
0.0
  0
LINE
  5
C0
100
AcDbEntity
  8
0
 62
0
370
-1
 48
1.0
  6
BYLAYER
100
AcDbLine
 10
260.0815189999999575
 20
30.864433999999985
 30
0.0
 11
273.9815189999999916
 21
30.864433999999985
 31
0.0
  0
LINE
  5
C1
100
AcDbEntity
  8
0
 62
0
370
-1
 48
1.0
  6
BYLAYER
100
AcDbLine
 10
273.9815189999999916
 20
30.864433999999985
 30
0.0
 11
273.9815189999999916
 21
35.5635339999999829
 31
0.0
  0
LINE
  5
C2
100
AcDbEntity
  8
0
 62
0
370
-1
 48
1.0
  6
BYLAYER
100
AcDbLine
 10
273.9815189999999916
 20
35.5635339999999829
 30
0.0
 11
275.6065189999999916
 21
35.5635339999999829
 31
0.0
  0
LINE
  5
C3
100
AcDbEntity
  8
0
 62
0
370
-1
 48
1.0
  6
BYLAYER
100
AcDbLine
 10
275.6065189999999916
 20
35.5635339999999829
 30
0.0
 11
275.6065189999999916
 21
31.0945339999999817
 31
0.0
  0
LINE
  5
C4
100
AcDbEntity
  8
0
 62
0
370
-1
 48
1.0
  6
BYLAYER
100
AcDbLine
 10
275.6065189999999916
 20
31.0945339999999817
 30
0.0
 11
277.3315189999999575
 21
31.0945339999999817
 31
0.0
  0
LINE
  5
C5
100
AcDbEntity
  8
0
 62
0
370
-1
 48
1.0
  6
BYLAYER
100
AcDbLine
 10
277.3315189999999575
 20
31.0945339999999817
 30
0.0
 11
277.3315189999999575
 21
29.8943339999999829
 31
0.0
  0
LINE
  5
C6
100
AcDbEntity
  8
0
 62
0
370
-1
 48
1.0
  6
BYLAYER
100
AcDbLine
 10
277.3315189999999575
 20
29.8943339999999829
 30
0.0
 11
280.531519000000003
 21
29.8943339999999829
 31
0.0
  0
LINE
  5
C7
100
AcDbEntity
  8
0
 62
0
370
-1
 48
1.0
  6
BYLAYER
100
AcDbLine
 10
280.531519000000003
 20
29.8943339999999829
 30
0.0
 11
280.531519000000003
 21
31.0945339999999817
 31
0.0
  0
LINE
  5
C8
100
AcDbEntity
  8
0
 62
0
370
-1
 48
1.0
  6
BYLAYER
100
AcDbLine
 10
280.531519000000003
 20
31.0945339999999817
 30
0.0
 11
282.2565189999999689
 21
31.0945339999999817
 31
0.0
  0
LINE
  5
C9
100
AcDbEntity
  8
0
 62
0
370
-1
 48
1.0
  6
BYLAYER
100
AcDbLine
 10
282.2565189999999689
 20
31.0945339999999817
 30
0.0
 11
282.2565189999999689
 21
37.3647339999999843
 31
0.0
  0
LINE
  5
CA
100
AcDbEntity
  8
0
 62
0
370
-1
 48
1.0
  6
BYLAYER
100
AcDbLine
 10
282.2565189999999689
 20
37.3647339999999843
 30
0.0
 11
283.0805189999999811
 21
37.3647339999999843
 31
0.0
  0
LINE
  5
CB
100
AcDbEntity
  8
0
 62
0
370
-1
 48
1.0
  6
BYLAYER
100
AcDbLine
 10
283.0805189999999811
 20
37.3647339999999843
 30
0.0
 11
283.0805189999999811
 21
40.0642339999999848
 31
0.0
  0
LINE
  5
CC
100
AcDbEntity
  8
0
 62
0
370
-1
 48
1.0
  6
BYLAYER
100
AcDbLine
 10
283.0805189999999811
 20
40.0642339999999848
 30
0.0
 11
282.2565189999999689
 21
40.0642339999999848
 31
0.0
  0
LINE
  5
CD
100
AcDbEntity
  8
0
 62
0
370
-1
 48
1.0
  6
BYLAYER
100
AcDbLine
 10
282.2565189999999689
 20
40.0642339999999848
 30
0.0
 11
282.2565189999999689
 21
43.2942339999999817
 31
0.0
  0
LINE
  5
CE
100
AcDbEntity
  8
0
 62
0
370
-1
 48
1.0
  6
BYLAYER
100
AcDbLine
 10
282.2565189999999689
 20
43.2942339999999817
 30
0.0
 11
275.6065189999999916
 21
43.2942339999999817
 31
0.0
  0
LINE
  5
CF
100
AcDbEntity
  8
0
 62
0
370
-1
 48
1.0
  6
BYLAYER
100
AcDbLine
 10
275.6065189999999916
 20
43.2942339999999817
 30
0.0
 11
275.6065189999999916
 21
40.0642339999999848
 31
0.0
  0
LINE
  5
D0
100
AcDbEntity
  8
0
 62
0
370
-1
 48
1.0
  6
BYLAYER
100
AcDbLine
 10
275.6065189999999916
 20
40.0642339999999848
 30
0.0
 11
273.9815189999999916
 21
40.0642339999999848
 31
0.0
  0
LINE
  5
D1
100
AcDbEntity
  8
0
 62
0
370
-1
 48
1.0
  6
BYLAYER
100
AcDbLine
 10
273.9815189999999916
 20
40.0642339999999848
 30
0.0
 11
273.9815189999999916
 21
44.7646339999999867
 31
0.0
  0
LINE
  5
D2
100
AcDbEntity
  8
0
 62
0
370
-1
 48
1.0
  6
BYLAYER
100
AcDbLine
 10
273.9815189999999916
 20
44.7646339999999867
 30
0.0
 11
260.0815189999999575
 21
44.7646339999999867
 31
0.0
  0
LINE
  5
D3
100
AcDbEntity
  8
0
 62
0
370
-1
 48
1.0
  6
BYLAYER
100
AcDbLine
 10
21.9561189999999726
 20
44.7646339999999867
 30
0.0
 11
21.9561189999999726
 21
40.0642339999999848
 31
0.0
  0
LINE
  5
D4
100
AcDbEntity
  8
0
 62
0
370
-1
 48
1.0
  6
BYLAYER
100
AcDbLine
 10
21.9561189999999726
 20
40.0642339999999848
 30
0.0
 11
20.3313189999999793
 21
40.0642339999999848
 31
0.0
  0
LINE
  5
D5
100
AcDbEntity
  8
0
 62
0
370
-1
 48
1.0
  6
BYLAYER
100
AcDbLine
 10
20.3313189999999793
 20
40.0642339999999848
 30
0.0
 11
20.3313189999999793
 21
43.2942339999999817
 31
0.0
  0
LINE
  5
D6
100
AcDbEntity
  8
0
 62
0
370
-1
 48
1.0
  6
BYLAYER
100
AcDbLine
 10
20.3313189999999793
 20
43.2942339999999817
 30
0.0
 11
13.681018999999992
 21
43.2942339999999817
 31
0.0
  0
LINE
  5
D7
100
AcDbEntity
  8
0
 62
0
370
-1
 48
1.0
  6
BYLAYER
100
AcDbLine
 10
13.681018999999992
 20
43.2942339999999817
 30
0.0
 11
13.681018999999992
 21
40.0642339999999848
 31
0.0
  0
LINE
  5
D8
100
AcDbEntity
  8
0
 62
0
370
-1
 48
1.0
  6
BYLAYER
100
AcDbLine
 10
13.681018999999992
 20
40.0642339999999848
 30
0.0
 11
12.8555189999999868
 21
40.0642339999999848
 31
0.0
  0
LINE
  5
D9
100
AcDbEntity
  8
0
 62
0
370
-1
 48
1.0
  6
BYLAYER
100
AcDbLine
 10
12.8555189999999868
 20
40.0642339999999848
 30
0.0
 11
12.8555189999999868
 21
37.3647339999999843
 31
0.0
  0
LINE
  5
DA
100
AcDbEntity
  8
0
 62
0
370
-1
 48
1.0
  6
BYLAYER
100
AcDbLine
 10
12.8555189999999868
 20
37.3647339999999843
 30
0.0
 11
13.681018999999992
 21
37.3647339999999843
 31
0.0
  0
LINE
  5
DB
100
AcDbEntity
  8
0
 62
0
370
-1
 48
1.0
  6
BYLAYER
100
AcDbLine
 10
13.681018999999992
 20
37.3647339999999843
 30
0.0
 11
13.681018999999992
 21
31.0945339999999817
 31
0.0
  0
LINE
  5
DC
100
AcDbEntity
  8
0
 62
0
370
-1
 48
1.0
  6
BYLAYER
100
AcDbLine
 10
13.681018999999992
 20
31.0945339999999817
 30
0.0
 11
15.406218999999993
 21
31.0945339999999817
 31
0.0
  0
LINE
  5
DD
100
AcDbEntity
  8
0
 62
0
370
-1
 48
1.0
  6
BYLAYER
100
AcDbLine
 10
15.406218999999993
 20
31.0945339999999817
 30
0.0
 11
15.406218999999993
 21
29.8943339999999829
 31
0.0
  0
LINE
  5
DE
100
AcDbEntity
  8
0
 62
0
370
-1
 48
1.0
  6
BYLAYER
100
AcDbLine
 10
15.406218999999993
 20
29.8943339999999829
 30
0.0
 11
18.606018999999975
 21
29.8943339999999829
 31
0.0
  0
LINE
  5
DF
100
AcDbEntity
  8
0
 62
0
370
-1
 48
1.0
  6
BYLAYER
100
AcDbLine
 10
18.606018999999975
 20
29.8943339999999829
 30
0.0
 11
18.606018999999975
 21
31.0945339999999817
 31
0.0
  0
LINE
  5
E0
100
AcDbEntity
  8
0
 62
0
370
-1
 48
1.0
  6
BYLAYER
100
AcDbLine
 10
18.606018999999975
 20
31.0945339999999817
 30
0.0
 11
20.3313189999999793
 21
31.0945339999999817
 31
0.0
  0
LINE
  5
E1
100
AcDbEntity
  8
0
 62
0
370
-1
 48
1.0
  6
BYLAYER
100
AcDbLine
 10
20.3313189999999793
 20
31.0945339999999817
 30
0.0
 11
20.3313189999999793
 21
35.5635339999999829
 31
0.0
  0
LINE
  5
E2
100
AcDbEntity
  8
0
 62
0
370
-1
 48
1.0
  6
BYLAYER
100
AcDbLine
 10
20.3313189999999793
 20
35.5635339999999829
 30
0.0
 11
21.9561189999999726
 21
35.5635339999999829
 31
0.0
  0
LINE
  5
E3
100
AcDbEntity
  8
0
 62
0
370
-1
 48
1.0
  6
BYLAYER
100
AcDbLine
 10
21.9561189999999726
 20
35.5635339999999829
 30
0.0
 11
21.9561189999999726
 21
30.864433999999985
 31
0.0
  0
LINE
  5
E4
100
AcDbEntity
  8
0
 62
0
370
-1
 48
1.0
  6
BYLAYER
100
AcDbLine
 10
21.9561189999999726
 20
30.864433999999985
 30
0.0
 11
35.856318999999985
 21
30.864433999999985
 31
0.0
  0
LINE
  5
E5
100
AcDbEntity
  8
0
 62
0
370
-1
 48
1.0
  6
BYLAYER
100
AcDbLine
 10
35.856318999999985
 20
30.864433999999985
 30
0.0
 11
35.856318999999985
 21
35.5635339999999829
 31
0.0
  0
LINE
  5
E6
100
AcDbEntity
  8
0
 62
0
370
-1
 48
1.0
  6
BYLAYER
100
AcDbLine
 10
35.856318999999985
 20
35.5635339999999829
 30
0.0
 11
37.4812189999999816
 21
35.5635339999999829
 31
0.0
  0
LINE
  5
E7
100
AcDbEntity
  8
0
 62
0
370
-1
 48
1.0
  6
BYLAYER
100
AcDbLine
 10
37.4812189999999816
 20
35.5635339999999829
 30
0.0
 11
37.4812189999999816
 21
31.0945339999999817
 31
0.0
  0
LINE
  5
E8
100
AcDbEntity
  8
0
 62
0
370
-1
 48
1.0
  6
BYLAYER
100
AcDbLine
 10
37.4812189999999816
 20
31.0945339999999817
 30
0.0
 11
39.2063189999999793
 21
31.0945339999999817
 31
0.0
  0
LINE
  5
E9
100
AcDbEntity
  8
0
 62
0
370
-1
 48
1.0
  6
BYLAYER
100
AcDbLine
 10
39.2063189999999793
 20
31.0945339999999817
 30
0.0
 11
39.2063189999999793
 21
29.8943339999999829
 31
0.0
  0
LINE
  5
EA
100
AcDbEntity
  8
0
 62
0
370
-1
 48
1.0
  6
BYLAYER
100
AcDbLine
 10
39.2063189999999793
 20
29.8943339999999829
 30
0.0
 11
42.4063189999999821
 21
29.8943339999999829
 31
0.0
  0
LINE
  5
EB
100
AcDbEntity
  8
0
 62
0
370
-1
 48
1.0
  6
BYLAYER
100
AcDbLine
 10
42.4063189999999821
 20
29.8943339999999829
 30
0.0
 11
42.4063189999999821
 21
31.0945339999999817
 31
0.0
  0
LINE
  5
EC
100
AcDbEntity
  8
0
 62
0
370
-1
 48
1.0
  6
BYLAYER
100
AcDbLine
 10
42.4063189999999821
 20
31.0945339999999817
 30
0.0
 11
44.1314189999999797
 21
31.0945339999999817
 31
0.0
  0
LINE
  5
ED
100
AcDbEntity
  8
0
 62
0
370
-1
 48
1.0
  6
BYLAYER
100
AcDbLine
 10
44.1314189999999797
 20
31.0945339999999817
 30
0.0
 11
44.1314189999999797
 21
37.3647339999999843
 31
0.0
  0
LINE
  5
EE
100
AcDbEntity
  8
0
 62
0
370
-1
 48
1.0
  6
BYLAYER
100
AcDbLine
 10
44.1314189999999797
 20
37.3647339999999843
 30
0.0
 11
44.9555189999999811
 21
37.3647339999999843
 31
0.0
  0
LINE
  5
EF
100
AcDbEntity
  8
0
 62
0
370
-1
 48
1.0
  6
BYLAYER
100
AcDbLine
 10
44.9555189999999811
 20
37.3647339999999843
 30
0.0
 11
44.9555189999999811
 21
40.0642339999999848
 31
0.0
  0
LINE
  5
F0
100
AcDbEntity
  8
0
 62
0
370
-1
 48
1.0
  6
BYLAYER
100
AcDbLine
 10
44.9555189999999811
 20
40.0642339999999848
 30
0.0
 11
44.1314189999999797
 21
40.0642339999999848
 31
0.0
  0
LINE
  5
F1
100
AcDbEntity
  8
0
 62
0
370
-1
 48
1.0
  6
BYLAYER
100
AcDbLine
 10
44.1314189999999797
 20
40.0642339999999848
 30
0.0
 11
44.1314189999999797
 21
43.2942339999999817
 31
0.0
  0
LINE
  5
F2
100
AcDbEntity
  8
0
 62
0
370
-1
 48
1.0
  6
BYLAYER
100
AcDbLine
 10
44.1314189999999797
 20
43.2942339999999817
 30
0.0
 11
37.4812189999999816
 21
43.2942339999999817
 31
0.0
  0
LINE
  5
F3
100
AcDbEntity
  8
0
 62
0
370
-1
 48
1.0
  6
BYLAYER
100
AcDbLine
 10
37.4812189999999816
 20
43.2942339999999817
 30
0.0
 11
37.4812189999999816
 21
40.0642339999999848
 31
0.0
  0
LINE
  5
F4
100
AcDbEntity
  8
0
 62
0
370
-1
 48
1.0
  6
BYLAYER
100
AcDbLine
 10
37.4812189999999816
 20
40.0642339999999848
 30
0.0
 11
35.856318999999985
 21
40.0642339999999848
 31
0.0
  0
LINE
  5
F5
100
AcDbEntity
  8
0
 62
0
370
-1
 48
1.0
  6
BYLAYER
100
AcDbLine
 10
35.856318999999985
 20
40.0642339999999848
 30
0.0
 11
35.856318999999985
 21
44.7646339999999867
 31
0.0
  0
LINE
  5
F6
100
AcDbEntity
  8
0
 62
0
370
-1
 48
1.0
  6
BYLAYER
100
AcDbLine
 10
35.856318999999985
 20
44.7646339999999867
 30
0.0
 11
21.9561189999999726
 21
44.7646339999999867
 31
0.0
  0
LINE
  5
F7
100
AcDbEntity
  8
0
 62
0
370
-1
 48
1.0
  6
BYLAYER
100
AcDbLine
 10
224.3625189999999918
 20
44.7646339999999867
 30
0.0
 11
238.2625189999999691
 21
44.7646339999999867
 31
0.0
  0
LINE
  5
F8
100
AcDbEntity
  8
0
 62
0
370
-1
 48
1.0
  6
BYLAYER
100
AcDbLine
 10
238.2625189999999691
 20
44.7646339999999867
 30
0.0
 11
238.2625189999999691
 21
30.864433999999985
 31
0.0
  0
LINE
  5
F9
100
AcDbEntity
  8
0
 62
0
370
-1
 48
1.0
  6
BYLAYER
100
AcDbLine
 10
238.2625189999999691
 20
30.864433999999985
 30
0.0
 11
224.3625189999999918
 21
30.864433999999985
 31
0.0
  0
LINE
  5
FA
100
AcDbEntity
  8
0
 62
0
370
-1
 48
1.0
  6
BYLAYER
100
AcDbLine
 10
224.3625189999999918
 20
30.864433999999985
 30
0.0
 11
224.3625189999999918
 21
44.7646339999999867
 31
0.0
  0
LINE
  5
FB
100
AcDbEntity
  8
0
 62
0
370
-1
 48
1.0
  6
BYLAYER
100
AcDbLine
 10
205.3125189999999805
 20
44.7646339999999867
 30
0.0
 11
219.2125189999999861
 21
44.7646339999999867
 31
0.0
  0
LINE
  5
FC
100
AcDbEntity
  8
0
 62
0
370
-1
 48
1.0
  6
BYLAYER
100
AcDbLine
 10
219.2125189999999861
 20
44.7646339999999867
 30
0.0
 11
219.2125189999999861
 21
30.864433999999985
 31
0.0
  0
LINE
  5
FD
100
AcDbEntity
  8
0
 62
0
370
-1
 48
1.0
  6
BYLAYER
100
AcDbLine
 10
219.2125189999999861
 20
30.864433999999985
 30
0.0
 11
205.3125189999999805
 21
30.864433999999985
 31
0.0
  0
LINE
  5
FE
100
AcDbEntity
  8
0
 62
0
370
-1
 48
1.0
  6
BYLAYER
100
AcDbLine
 10
205.3125189999999805
 20
30.864433999999985
 30
0.0
 11
205.3125189999999805
 21
44.7646339999999867
 31
0.0
  0
LINE
  5
FF
100
AcDbEntity
  8
0
 62
0
370
-1
 48
1.0
  6
BYLAYER
100
AcDbLine
 10
186.2625189999999691
 20
44.7646339999999867
 30
0.0
 11
200.1625189999999748
 21
44.7646339999999867
 31
0.0
  0
LINE
  5
100
100
AcDbEntity
  8
0
 62
0
370
-1
 48
1.0
  6
BYLAYER
100
AcDbLine
 10
200.1625189999999748
 20
44.7646339999999867
 30
0.0
 11
200.1625189999999748
 21
30.864433999999985
 31
0.0
  0
LINE
  5
101
100
AcDbEntity
  8
0
 62
0
370
-1
 48
1.0
  6
BYLAYER
100
AcDbLine
 10
200.1625189999999748
 20
30.864433999999985
 30
0.0
 11
186.2625189999999691
 21
30.864433999999985
 31
0.0
  0
LINE
  5
102
100
AcDbEntity
  8
0
 62
0
370
-1
 48
1.0
  6
BYLAYER
100
AcDbLine
 10
186.2625189999999691
 20
30.864433999999985
 30
0.0
 11
186.2625189999999691
 21
44.7646339999999867
 31
0.0
  0
LINE
  5
103
100
AcDbEntity
  8
0
 62
0
370
-1
 48
1.0
  6
BYLAYER
100
AcDbLine
 10
167.2125189999999861
 20
44.7646339999999867
 30
0.0
 11
181.1125189999999918
 21
44.7646339999999867
 31
0.0
  0
LINE
  5
104
100
AcDbEntity
  8
0
 62
0
370
-1
 48
1.0
  6
BYLAYER
100
AcDbLine
 10
181.1125189999999918
 20
44.7646339999999867
 30
0.0
 11
181.1125189999999918
 21
30.864433999999985
 31
0.0
  0
LINE
  5
105
100
AcDbEntity
  8
0
 62
0
370
-1
 48
1.0
  6
BYLAYER
100
AcDbLine
 10
181.1125189999999918
 20
30.864433999999985
 30
0.0
 11
167.2125189999999861
 21
30.864433999999985
 31
0.0
  0
LINE
  5
106
100
AcDbEntity
  8
0
 62
0
370
-1
 48
1.0
  6
BYLAYER
100
AcDbLine
 10
167.2125189999999861
 20
30.864433999999985
 30
0.0
 11
167.2125189999999861
 21
44.7646339999999867
 31
0.0
  0
LINE
  5
107
100
AcDbEntity
  8
0
 62
0
370
-1
 48
1.0
  6
BYLAYER
100
AcDbLine
 10
148.1625189999999748
 20
44.7646339999999867
 30
0.0
 11
162.0625189999999805
 21
44.7646339999999867
 31
0.0
  0
LINE
  5
108
100
AcDbEntity
  8
0
 62
0
370
-1
 48
1.0
  6
BYLAYER
100
AcDbLine
 10
162.0625189999999805
 20
44.7646339999999867
 30
0.0
 11
162.0625189999999805
 21
30.864433999999985
 31
0.0
  0
LINE
  5
109
100
AcDbEntity
  8
0
 62
0
370
-1
 48
1.0
  6
BYLAYER
100
AcDbLine
 10
162.0625189999999805
 20
30.864433999999985
 30
0.0
 11
148.1625189999999748
 21
30.864433999999985
 31
0.0
  0
LINE
  5
10A
100
AcDbEntity
  8
0
 62
0
370
-1
 48
1.0
  6
BYLAYER
100
AcDbLine
 10
148.1625189999999748
 20
30.864433999999985
 30
0.0
 11
148.1625189999999748
 21
44.7646339999999867
 31
0.0
  0
LINE
  5
10B
100
AcDbEntity
  8
0
 62
0
370
-1
 48
1.0
  6
BYLAYER
100
AcDbLine
 10
129.1125189999999918
 20
44.7646339999999867
 30
0.0
 11
143.0125189999999691
 21
44.7646339999999867
 31
0.0
  0
LINE
  5
10C
100
AcDbEntity
  8
0
 62
0
370
-1
 48
1.0
  6
BYLAYER
100
AcDbLine
 10
143.0125189999999691
 20
44.7646339999999867
 30
0.0
 11
143.0125189999999691
 21
30.864433999999985
 31
0.0
  0
LINE
  5
10D
100
AcDbEntity
  8
0
 62
0
370
-1
 48
1.0
  6
BYLAYER
100
AcDbLine
 10
143.0125189999999691
 20
30.864433999999985
 30
0.0
 11
129.1125189999999918
 21
30.864433999999985
 31
0.0
  0
LINE
  5
10E
100
AcDbEntity
  8
0
 62
0
370
-1
 48
1.0
  6
BYLAYER
100
AcDbLine
 10
129.1125189999999918
 20
30.864433999999985
 30
0.0
 11
129.1125189999999918
 21
44.7646339999999867
 31
0.0
  0
LINE
  5
10F
100
AcDbEntity
  8
0
 62
0
370
-1
 48
1.0
  6
BYLAYER
100
AcDbLine
 10
110.0625189999999805
 20
44.7646339999999867
 30
0.0
 11
123.9625189999999861
 21
44.7646339999999867
 31
0.0
  0
LINE
  5
110
100
AcDbEntity
  8
0
 62
0
370
-1
 48
1.0
  6
BYLAYER
100
AcDbLine
 10
123.9625189999999861
 20
44.7646339999999867
 30
0.0
 11
123.9625189999999861
 21
30.864433999999985
 31
0.0
  0
LINE
  5
111
100
AcDbEntity
  8
0
 62
0
370
-1
 48
1.0
  6
BYLAYER
100
AcDbLine
 10
123.9625189999999861
 20
30.864433999999985
 30
0.0
 11
110.0625189999999805
 21
30.864433999999985
 31
0.0
  0
LINE
  5
112
100
AcDbEntity
  8
0
 62
0
370
-1
 48
1.0
  6
BYLAYER
100
AcDbLine
 10
110.0625189999999805
 20
30.864433999999985
 30
0.0
 11
110.0625189999999805
 21
44.7646339999999867
 31
0.0
  0
LINE
  5
113
100
AcDbEntity
  8
0
 62
0
370
-1
 48
1.0
  6
BYLAYER
100
AcDbLine
 10
91.01241899999998
 20
44.7646339999999867
 30
0.0
 11
104.9125189999999748
 21
44.7646339999999867
 31
0.0
  0
LINE
  5
114
100
AcDbEntity
  8
0
 62
0
370
-1
 48
1.0
  6
BYLAYER
100
AcDbLine
 10
104.9125189999999748
 20
44.7646339999999867
 30
0.0
 11
104.9125189999999748
 21
30.864433999999985
 31
0.0
  0
LINE
  5
115
100
AcDbEntity
  8
0
 62
0
370
-1
 48
1.0
  6
BYLAYER
100
AcDbLine
 10
104.9125189999999748
 20
30.864433999999985
 30
0.0
 11
91.01241899999998
 21
30.864433999999985
 31
0.0
  0
LINE
  5
116
100
AcDbEntity
  8
0
 62
0
370
-1
 48
1.0
  6
BYLAYER
100
AcDbLine
 10
91.01241899999998
 20
30.864433999999985
 30
0.0
 11
91.01241899999998
 21
44.7646339999999867
 31
0.0
  0
LINE
  5
117
100
AcDbEntity
  8
0
 62
0
370
-1
 48
1.0
  6
BYLAYER
100
AcDbLine
 10
71.9624189999999828
 20
44.7646339999999867
 30
0.0
 11
85.8625189999999776
 21
44.7646339999999867
 31
0.0
  0
LINE
  5
118
100
AcDbEntity
  8
0
 62
0
370
-1
 48
1.0
  6
BYLAYER
100
AcDbLine
 10
85.8625189999999776
 20
44.7646339999999867
 30
0.0
 11
85.8625189999999776
 21
30.864433999999985
 31
0.0
  0
LINE
  5
119
100
AcDbEntity
  8
0
 62
0
370
-1
 48
1.0
  6
BYLAYER
100
AcDbLine
 10
85.8625189999999776
 20
30.864433999999985
 30
0.0
 11
71.9624189999999828
 21
30.864433999999985
 31
0.0
  0
LINE
  5
11A
100
AcDbEntity
  8
0
 62
0
370
-1
 48
1.0
  6
BYLAYER
100
AcDbLine
 10
71.9624189999999828
 20
30.864433999999985
 30
0.0
 11
71.9624189999999828
 21
44.7646339999999867
 31
0.0
  0
LINE
  5
11B
100
AcDbEntity
  8
0
 62
0
370
-1
 48
1.0
  6
BYLAYER
100
AcDbLine
 10
52.9124189999999714
 20
44.7646339999999867
 30
0.0
 11
66.8125189999999805
 21
44.7646339999999867
 31
0.0
  0
LINE
  5
11C
100
AcDbEntity
  8
0
 62
0
370
-1
 48
1.0
  6
BYLAYER
100
AcDbLine
 10
66.8125189999999805
 20
44.7646339999999867
 30
0.0
 11
66.8125189999999805
 21
30.864433999999985
 31
0.0
  0
LINE
  5
11D
100
AcDbEntity
  8
0
 62
0
370
-1
 48
1.0
  6
BYLAYER
100
AcDbLine
 10
66.8125189999999805
 20
30.864433999999985
 30
0.0
 11
52.9124189999999714
 21
30.864433999999985
 31
0.0
  0
LINE
  5
11E
100
AcDbEntity
  8
0
 62
0
370
-1
 48
1.0
  6
BYLAYER
100
AcDbLine
 10
52.9124189999999714
 20
30.864433999999985
 30
0.0
 11
52.9124189999999714
 21
44.7646339999999867
 31
0.0
  0
LINE
  5
11F
100
AcDbEntity
  8
0
 62
0
370
-1
 48
1.0
  6
BYLAYER
100
AcDbLine
 10
264.8435189999999579
 20
63.8146339999999839
 30
0.0
 11
264.8435189999999579
 21
59.114233999999982
 31
0.0
  0
LINE
  5
120
100
AcDbEntity
  8
0
 62
0
370
-1
 48
1.0
  6
BYLAYER
100
AcDbLine
 10
264.8435189999999579
 20
59.114233999999982
 30
0.0
 11
263.2175189999999816
 21
59.114233999999982
 31
0.0
  0
LINE
  5
121
100
AcDbEntity
  8
0
 62
0
370
-1
 48
1.0
  6
BYLAYER
100
AcDbLine
 10
263.2175189999999816
 20
59.114233999999982
 30
0.0
 11
263.2175189999999816
 21
62.3442339999999859
 31
0.0
  0
LINE
  5
122
100
AcDbEntity
  8
0
 62
0
370
-1
 48
1.0
  6
BYLAYER
100
AcDbLine
 10
263.2175189999999816
 20
62.3442339999999859
 30
0.0
 11
256.5675190000000043
 21
62.3442339999999859
 31
0.0
  0
LINE
  5
123
100
AcDbEntity
  8
0
 62
0
370
-1
 48
1.0
  6
BYLAYER
100
AcDbLine
 10
256.5675190000000043
 20
62.3442339999999859
 30
0.0
 11
256.5675190000000043
 21
59.114233999999982
 31
0.0
  0
LINE
  5
124
100
AcDbEntity
  8
0
 62
0
370
-1
 48
1.0
  6
BYLAYER
100
AcDbLine
 10
256.5675190000000043
 20
59.114233999999982
 30
0.0
 11
255.7415189999999825
 21
59.114233999999982
 31
0.0
  0
LINE
  5
125
100
AcDbEntity
  8
0
 62
0
370
-1
 48
1.0
  6
BYLAYER
100
AcDbLine
 10
255.7415189999999825
 20
59.114233999999982
 30
0.0
 11
255.7415189999999825
 21
56.4147339999999815
 31
0.0
  0
LINE
  5
126
100
AcDbEntity
  8
0
 62
0
370
-1
 48
1.0
  6
BYLAYER
100
AcDbLine
 10
255.7415189999999825
 20
56.4147339999999815
 30
0.0
 11
256.5675190000000043
 21
56.4147339999999815
 31
0.0
  0
LINE
  5
127
100
AcDbEntity
  8
0
 62
0
370
-1
 48
1.0
  6
BYLAYER
100
AcDbLine
 10
256.5675190000000043
 20
56.4147339999999815
 30
0.0
 11
256.5675190000000043
 21
50.144533999999986
 31
0.0
  0
LINE
  5
128
100
AcDbEntity
  8
0
 62
0
370
-1
 48
1.0
  6
BYLAYER
100
AcDbLine
 10
256.5675190000000043
 20
50.144533999999986
 30
0.0
 11
258.2925189999999702
 21
50.144533999999986
 31
0.0
  0
LINE
  5
129
100
AcDbEntity
  8
0
 62
0
370
-1
 48
1.0
  6
BYLAYER
100
AcDbLine
 10
258.2925189999999702
 20
50.144533999999986
 30
0.0
 11
258.2925189999999702
 21
48.9443339999999836
 31
0.0
  0
LINE
  5
12A
100
AcDbEntity
  8
0
 62
0
370
-1
 48
1.0
  6
BYLAYER
100
AcDbLine
 10
258.2925189999999702
 20
48.9443339999999836
 30
0.0
 11
261.493518999999992
 21
48.9443339999999836
 31
0.0
  0
LINE
  5
12B
100
AcDbEntity
  8
0
 62
0
370
-1
 48
1.0
  6
BYLAYER
100
AcDbLine
 10
261.493518999999992
 20
48.9443339999999836
 30
0.0
 11
261.493518999999992
 21
50.144533999999986
 31
0.0
  0
LINE
  5
12C
100
AcDbEntity
  8
0
 62
0
370
-1
 48
1.0
  6
BYLAYER
100
AcDbLine
 10
261.493518999999992
 20
50.144533999999986
 30
0.0
 11
263.2175189999999816
 21
50.144533999999986
 31
0.0
  0
LINE
  5
12D
100
AcDbEntity
  8
0
 62
0
370
-1
 48
1.0
  6
BYLAYER
100
AcDbLine
 10
263.2175189999999816
 20
50.144533999999986
 30
0.0
 11
263.2175189999999816
 21
54.6135339999999871
 31
0.0
  0
LINE
  5
12E
100
AcDbEntity
  8
0
 62
0
370
-1
 48
1.0
  6
BYLAYER
100
AcDbLine
 10
263.2175189999999816
 20
54.6135339999999871
 30
0.0
 11
264.8435189999999579
 21
54.6135339999999871
 31
0.0
  0
LINE
  5
12F
100
AcDbEntity
  8
0
 62
0
370
-1
 48
1.0
  6
BYLAYER
100
AcDbLine
 10
264.8435189999999579
 20
54.6135339999999871
 30
0.0
 11
264.8435189999999579
 21
49.914533999999982
 31
0.0
  0
LINE
  5
130
100
AcDbEntity
  8
0
 62
0
370
-1
 48
1.0
  6
BYLAYER
100
AcDbLine
 10
264.8435189999999579
 20
49.914533999999982
 30
0.0
 11
278.7425189999999589
 21
49.914533999999982
 31
0.0
  0
LINE
  5
131
100
AcDbEntity
  8
0
 62
0
370
-1
 48
1.0
  6
BYLAYER
100
AcDbLine
 10
278.7425189999999589
 20
49.914533999999982
 30
0.0
 11
278.7425189999999589
 21
54.6135339999999871
 31
0.0
  0
LINE
  5
132
100
AcDbEntity
  8
0
 62
0
370
-1
 48
1.0
  6
BYLAYER
100
AcDbLine
 10
278.7425189999999589
 20
54.6135339999999871
 30
0.0
 11
280.368518999999992
 21
54.6135339999999871
 31
0.0
  0
LINE
  5
133
100
AcDbEntity
  8
0
 62
0
370
-1
 48
1.0
  6
BYLAYER
100
AcDbLine
 10
280.368518999999992
 20
54.6135339999999871
 30
0.0
 11
280.368518999999992
 21
50.144533999999986
 31
0.0
  0
LINE
  5
134
100
AcDbEntity
  8
0
 62
0
370
-1
 48
1.0
  6
BYLAYER
100
AcDbLine
 10
280.368518999999992
 20
50.144533999999986
 30
0.0
 11
282.0925189999999816
 21
50.144533999999986
 31
0.0
  0
LINE
  5
135
100
AcDbEntity
  8
0
 62
0
370
-1
 48
1.0
  6
BYLAYER
100
AcDbLine
 10
282.0925189999999816
 20
50.144533999999986
 30
0.0
 11
282.0925189999999816
 21
48.9443339999999836
 31
0.0
  0
LINE
  5
136
100
AcDbEntity
  8
0
 62
0
370
-1
 48
1.0
  6
BYLAYER
100
AcDbLine
 10
282.0925189999999816
 20
48.9443339999999836
 30
0.0
 11
285.2935190000000034
 21
48.9443339999999836
 31
0.0
  0
LINE
  5
137
100
AcDbEntity
  8
0
 62
0
370
-1
 48
1.0
  6
BYLAYER
100
AcDbLine
 10
285.2935190000000034
 20
48.9443339999999836
 30
0.0
 11
285.2935190000000034
 21
50.144533999999986
 31
0.0
  0
LINE
  5
138
100
AcDbEntity
  8
0
 62
0
370
-1
 48
1.0
  6
BYLAYER
100
AcDbLine
 10
285.2935190000000034
 20
50.144533999999986
 30
0.0
 11
287.017518999999993
 21
50.144533999999986
 31
0.0
  0
LINE
  5
139
100
AcDbEntity
  8
0
 62
0
370
-1
 48
1.0
  6
BYLAYER
100
AcDbLine
 10
287.017518999999993
 20
50.144533999999986
 30
0.0
 11
287.017518999999993
 21
56.4147339999999815
 31
0.0
  0
LINE
  5
13A
100
AcDbEntity
  8
0
 62
0
370
-1
 48
1.0
  6
BYLAYER
100
AcDbLine
 10
287.017518999999993
 20
56.4147339999999815
 30
0.0
 11
287.8425189999999816
 21
56.4147339999999815
 31
0.0
  0
LINE
  5
13B
100
AcDbEntity
  8
0
 62
0
370
-1
 48
1.0
  6
BYLAYER
100
AcDbLine
 10
287.8425189999999816
 20
56.4147339999999815
 30
0.0
 11
287.8425189999999816
 21
59.114233999999982
 31
0.0
  0
LINE
  5
13C
100
AcDbEntity
  8
0
 62
0
370
-1
 48
1.0
  6
BYLAYER
100
AcDbLine
 10
287.8425189999999816
 20
59.114233999999982
 30
0.0
 11
287.017518999999993
 21
59.114233999999982
 31
0.0
  0
LINE
  5
13D
100
AcDbEntity
  8
0
 62
0
370
-1
 48
1.0
  6
BYLAYER
100
AcDbLine
 10
287.017518999999993
 20
59.114233999999982
 30
0.0
 11
287.017518999999993
 21
62.3442339999999859
 31
0.0
  0
LINE
  5
13E
100
AcDbEntity
  8
0
 62
0
370
-1
 48
1.0
  6
BYLAYER
100
AcDbLine
 10
287.017518999999993
 20
62.3442339999999859
 30
0.0
 11
280.368518999999992
 21
62.3442339999999859
 31
0.0
  0
LINE
  5
13F
100
AcDbEntity
  8
0
 62
0
370
-1
 48
1.0
  6
BYLAYER
100
AcDbLine
 10
280.368518999999992
 20
62.3442339999999859
 30
0.0
 11
280.368518999999992
 21
59.114233999999982
 31
0.0
  0
LINE
  5
140
100
AcDbEntity
  8
0
 62
0
370
-1
 48
1.0
  6
BYLAYER
100
AcDbLine
 10
280.368518999999992
 20
59.114233999999982
 30
0.0
 11
278.7425189999999589
 21
59.114233999999982
 31
0.0
  0
LINE
  5
141
100
AcDbEntity
  8
0
 62
0
370
-1
 48
1.0
  6
BYLAYER
100
AcDbLine
 10
278.7425189999999589
 20
59.114233999999982
 30
0.0
 11
278.7425189999999589
 21
63.8146339999999839
 31
0.0
  0
LINE
  5
142
100
AcDbEntity
  8
0
 62
0
370
-1
 48
1.0
  6
BYLAYER
100
AcDbLine
 10
278.7425189999999589
 20
63.8146339999999839
 30
0.0
 11
264.8435189999999579
 21
63.8146339999999839
 31
0.0
  0
LINE
  5
143
100
AcDbEntity
  8
0
 62
0
370
-1
 48
1.0
  6
BYLAYER
100
AcDbLine
 10
319.6125189999999634
 20
63.8146339999999839
 30
0.0
 11
333.5125189999999975
 21
63.8146339999999839
 31
0.0
  0
LINE
  5
144
100
AcDbEntity
  8
0
 62
0
370
-1
 48
1.0
  6
BYLAYER
100
AcDbLine
 10
333.5125189999999975
 20
63.8146339999999839
 30
0.0
 11
333.5125189999999975
 21
49.914533999999982
 31
0.0
  0
LINE
  5
145
100
AcDbEntity
  8
0
 62
0
370
-1
 48
1.0
  6
BYLAYER
100
AcDbLine
 10
333.5125189999999975
 20
49.914533999999982
 30
0.0
 11
319.6125189999999634
 21
49.914533999999982
 31
0.0
  0
LINE
  5
146
100
AcDbEntity
  8
0
 62
0
370
-1
 48
1.0
  6
BYLAYER
100
AcDbLine
 10
319.6125189999999634
 20
49.914533999999982
 30
0.0
 11
319.6125189999999634
 21
63.8146339999999839
 31
0.0
  0
LINE
  5
147
100
AcDbEntity
  8
0
 62
0
370
-1
 48
1.0
  6
BYLAYER
100
AcDbLine
 10
300.5625190000000089
 20
63.8146339999999839
 30
0.0
 11
314.4625189999999861
 21
63.8146339999999839
 31
0.0
  0
LINE
  5
148
100
AcDbEntity
  8
0
 62
0
370
-1
 48
1.0
  6
BYLAYER
100
AcDbLine
 10
314.4625189999999861
 20
63.8146339999999839
 30
0.0
 11
314.4625189999999861
 21
49.914533999999982
 31
0.0
  0
LINE
  5
149
100
AcDbEntity
  8
0
 62
0
370
-1
 48
1.0
  6
BYLAYER
100
AcDbLine
 10
314.4625189999999861
 20
49.914533999999982
 30
0.0
 11
300.5625190000000089
 21
49.914533999999982
 31
0.0
  0
LINE
  5
14A
100
AcDbEntity
  8
0
 62
0
370
-1
 48
1.0
  6
BYLAYER
100
AcDbLine
 10
300.5625190000000089
 20
49.914533999999982
 30
0.0
 11
300.5625190000000089
 21
63.8146339999999839
 31
0.0
  0
LINE
  5
14B
100
AcDbEntity
  8
0
 62
0
370
-1
 48
1.0
  6
BYLAYER
100
AcDbLine
 10
233.8875189999999691
 20
63.8146339999999839
 30
0.0
 11
247.7875189999999748
 21
63.8146339999999839
 31
0.0
  0
LINE
  5
14C
100
AcDbEntity
  8
0
 62
0
370
-1
 48
1.0
  6
BYLAYER
100
AcDbLine
 10
247.7875189999999748
 20
63.8146339999999839
 30
0.0
 11
247.7875189999999748
 21
49.914533999999982
 31
0.0
  0
LINE
  5
14D
100
AcDbEntity
  8
0
 62
0
370
-1
 48
1.0
  6
BYLAYER
100
AcDbLine
 10
247.7875189999999748
 20
49.914533999999982
 30
0.0
 11
233.8875189999999691
 21
49.914533999999982
 31
0.0
  0
LINE
  5
14E
100
AcDbEntity
  8
0
 62
0
370
-1
 48
1.0
  6
BYLAYER
100
AcDbLine
 10
233.8875189999999691
 20
49.914533999999982
 30
0.0
 11
233.8875189999999691
 21
63.8146339999999839
 31
0.0
  0
LINE
  5
14F
100
AcDbEntity
  8
0
 62
0
370
-1
 48
1.0
  6
BYLAYER
100
AcDbLine
 10
214.8375189999999861
 20
63.8146339999999839
 30
0.0
 11
228.7375189999999918
 21
63.8146339999999839
 31
0.0
  0
LINE
  5
150
100
AcDbEntity
  8
0
 62
0
370
-1
 48
1.0
  6
BYLAYER
100
AcDbLine
 10
228.7375189999999918
 20
63.8146339999999839
 30
0.0
 11
228.7375189999999918
 21
49.914533999999982
 31
0.0
  0
LINE
  5
151
100
AcDbEntity
  8
0
 62
0
370
-1
 48
1.0
  6
BYLAYER
100
AcDbLine
 10
228.7375189999999918
 20
49.914533999999982
 30
0.0
 11
214.8375189999999861
 21
49.914533999999982
 31
0.0
  0
LINE
  5
152
100
AcDbEntity
  8
0
 62
0
370
-1
 48
1.0
  6
BYLAYER
100
AcDbLine
 10
214.8375189999999861
 20
49.914533999999982
 30
0.0
 11
214.8375189999999861
 21
63.8146339999999839
 31
0.0
  0
LINE
  5
153
100
AcDbEntity
  8
0
 62
0
370
-1
 48
1.0
  6
BYLAYER
100
AcDbLine
 10
195.7875189999999748
 20
63.8146339999999839
 30
0.0
 11
209.6875189999999805
 21
63.8146339999999839
 31
0.0
  0
LINE
  5
154
100
AcDbEntity
  8
0
 62
0
370
-1
 48
1.0
  6
BYLAYER
100
AcDbLine
 10
209.6875189999999805
 20
63.8146339999999839
 30
0.0
 11
209.6875189999999805
 21
49.914533999999982
 31
0.0
  0
LINE
  5
155
100
AcDbEntity
  8
0
 62
0
370
-1
 48
1.0
  6
BYLAYER
100
AcDbLine
 10
209.6875189999999805
 20
49.914533999999982
 30
0.0
 11
195.7875189999999748
 21
49.914533999999982
 31
0.0
  0
LINE
  5
156
100
AcDbEntity
  8
0
 62
0
370
-1
 48
1.0
  6
BYLAYER
100
AcDbLine
 10
195.7875189999999748
 20
49.914533999999982
 30
0.0
 11
195.7875189999999748
 21
63.8146339999999839
 31
0.0
  0
LINE
  5
157
100
AcDbEntity
  8
0
 62
0
370
-1
 48
1.0
  6
BYLAYER
100
AcDbLine
 10
176.7375189999999918
 20
63.8146339999999839
 30
0.0
 11
190.6375189999999691
 21
63.8146339999999839
 31
0.0
  0
LINE
  5
158
100
AcDbEntity
  8
0
 62
0
370
-1
 48
1.0
  6
BYLAYER
100
AcDbLine
 10
190.6375189999999691
 20
63.8146339999999839
 30
0.0
 11
190.6375189999999691
 21
49.914533999999982
 31
0.0
  0
LINE
  5
159
100
AcDbEntity
  8
0
 62
0
370
-1
 48
1.0
  6
BYLAYER
100
AcDbLine
 10
190.6375189999999691
 20
49.914533999999982
 30
0.0
 11
176.7375189999999918
 21
49.914533999999982
 31
0.0
  0
LINE
  5
15A
100
AcDbEntity
  8
0
 62
0
370
-1
 48
1.0
  6
BYLAYER
100
AcDbLine
 10
176.7375189999999918
 20
49.914533999999982
 30
0.0
 11
176.7375189999999918
 21
63.8146339999999839
 31
0.0
  0
LINE
  5
15B
100
AcDbEntity
  8
0
 62
0
370
-1
 48
1.0
  6
BYLAYER
100
AcDbLine
 10
157.6875189999999805
 20
63.8146339999999839
 30
0.0
 11
171.5875189999999861
 21
63.8146339999999839
 31
0.0
  0
LINE
  5
15C
100
AcDbEntity
  8
0
 62
0
370
-1
 48
1.0
  6
BYLAYER
100
AcDbLine
 10
171.5875189999999861
 20
63.8146339999999839
 30
0.0
 11
171.5875189999999861
 21
49.914533999999982
 31
0.0
  0
LINE
  5
15D
100
AcDbEntity
  8
0
 62
0
370
-1
 48
1.0
  6
BYLAYER
100
AcDbLine
 10
171.5875189999999861
 20
49.914533999999982
 30
0.0
 11
157.6875189999999805
 21
49.914533999999982
 31
0.0
  0
LINE
  5
15E
100
AcDbEntity
  8
0
 62
0
370
-1
 48
1.0
  6
BYLAYER
100
AcDbLine
 10
157.6875189999999805
 20
49.914533999999982
 30
0.0
 11
157.6875189999999805
 21
63.8146339999999839
 31
0.0
  0
LINE
  5
15F
100
AcDbEntity
  8
0
 62
0
370
-1
 48
1.0
  6
BYLAYER
100
AcDbLine
 10
138.6375189999999691
 20
63.8146339999999839
 30
0.0
 11
152.5375189999999748
 21
63.8146339999999839
 31
0.0
  0
LINE
  5
160
100
AcDbEntity
  8
0
 62
0
370
-1
 48
1.0
  6
BYLAYER
100
AcDbLine
 10
152.5375189999999748
 20
63.8146339999999839
 30
0.0
 11
152.5375189999999748
 21
49.914533999999982
 31
0.0
  0
LINE
  5
161
100
AcDbEntity
  8
0
 62
0
370
-1
 48
1.0
  6
BYLAYER
100
AcDbLine
 10
152.5375189999999748
 20
49.914533999999982
 30
0.0
 11
138.6375189999999691
 21
49.914533999999982
 31
0.0
  0
LINE
  5
162
100
AcDbEntity
  8
0
 62
0
370
-1
 48
1.0
  6
BYLAYER
100
AcDbLine
 10
138.6375189999999691
 20
49.914533999999982
 30
0.0
 11
138.6375189999999691
 21
63.8146339999999839
 31
0.0
  0
LINE
  5
163
100
AcDbEntity
  8
0
 62
0
370
-1
 48
1.0
  6
BYLAYER
100
AcDbLine
 10
119.5875189999999861
 20
63.8146339999999839
 30
0.0
 11
133.4875189999999918
 21
63.8146339999999839
 31
0.0
  0
LINE
  5
164
100
AcDbEntity
  8
0
 62
0
370
-1
 48
1.0
  6
BYLAYER
100
AcDbLine
 10
133.4875189999999918
 20
63.8146339999999839
 30
0.0
 11
133.4875189999999918
 21
49.914533999999982
 31
0.0
  0
LINE
  5
165
100
AcDbEntity
  8
0
 62
0
370
-1
 48
1.0
  6
BYLAYER
100
AcDbLine
 10
133.4875189999999918
 20
49.914533999999982
 30
0.0
 11
119.5875189999999861
 21
49.914533999999982
 31
0.0
  0
LINE
  5
166
100
AcDbEntity
  8
0
 62
0
370
-1
 48
1.0
  6
BYLAYER
100
AcDbLine
 10
119.5875189999999861
 20
49.914533999999982
 30
0.0
 11
119.5875189999999861
 21
63.8146339999999839
 31
0.0
  0
LINE
  5
167
100
AcDbEntity
  8
0
 62
0
370
-1
 48
1.0
  6
BYLAYER
100
AcDbLine
 10
100.5375189999999748
 20
63.8146339999999839
 30
0.0
 11
114.4375189999999805
 21
63.8146339999999839
 31
0.0
  0
LINE
  5
168
100
AcDbEntity
  8
0
 62
0
370
-1
 48
1.0
  6
BYLAYER
100
AcDbLine
 10
114.4375189999999805
 20
63.8146339999999839
 30
0.0
 11
114.4375189999999805
 21
49.914533999999982
 31
0.0
  0
LINE
  5
169
100
AcDbEntity
  8
0
 62
0
370
-1
 48
1.0
  6
BYLAYER
100
AcDbLine
 10
114.4375189999999805
 20
49.914533999999982
 30
0.0
 11
100.5375189999999748
 21
49.914533999999982
 31
0.0
  0
LINE
  5
16A
100
AcDbEntity
  8
0
 62
0
370
-1
 48
1.0
  6
BYLAYER
100
AcDbLine
 10
100.5375189999999748
 20
49.914533999999982
 30
0.0
 11
100.5375189999999748
 21
63.8146339999999839
 31
0.0
  0
LINE
  5
16B
100
AcDbEntity
  8
0
 62
0
370
-1
 48
1.0
  6
BYLAYER
100
AcDbLine
 10
81.4874189999999743
 20
63.8146339999999839
 30
0.0
 11
95.3875189999999833
 21
63.8146339999999839
 31
0.0
  0
LINE
  5
16C
100
AcDbEntity
  8
0
 62
0
370
-1
 48
1.0
  6
BYLAYER
100
AcDbLine
 10
95.3875189999999833
 20
63.8146339999999839
 30
0.0
 11
95.3875189999999833
 21
49.914533999999982
 31
0.0
  0
LINE
  5
16D
100
AcDbEntity
  8
0
 62
0
370
-1
 48
1.0
  6
BYLAYER
100
AcDbLine
 10
95.3875189999999833
 20
49.914533999999982
 30
0.0
 11
81.4874189999999743
 21
49.914533999999982
 31
0.0
  0
LINE
  5
16E
100
AcDbEntity
  8
0
 62
0
370
-1
 48
1.0
  6
BYLAYER
100
AcDbLine
 10
81.4874189999999743
 20
49.914533999999982
 30
0.0
 11
81.4874189999999743
 21
63.8146339999999839
 31
0.0
  0
LINE
  5
16F
100
AcDbEntity
  8
0
 62
0
370
-1
 48
1.0
  6
BYLAYER
100
AcDbLine
 10
62.4374189999999771
 20
63.8146339999999839
 30
0.0
 11
76.3375189999999861
 21
63.8146339999999839
 31
0.0
  0
LINE
  5
170
100
AcDbEntity
  8
0
 62
0
370
-1
 48
1.0
  6
BYLAYER
100
AcDbLine
 10
76.3375189999999861
 20
63.8146339999999839
 30
0.0
 11
76.3375189999999861
 21
49.914533999999982
 31
0.0
  0
LINE
  5
171
100
AcDbEntity
  8
0
 62
0
370
-1
 48
1.0
  6
BYLAYER
100
AcDbLine
 10
76.3375189999999861
 20
49.914533999999982
 30
0.0
 11
62.4374189999999771
 21
49.914533999999982
 31
0.0
  0
LINE
  5
172
100
AcDbEntity
  8
0
 62
0
370
-1
 48
1.0
  6
BYLAYER
100
AcDbLine
 10
62.4374189999999771
 20
49.914533999999982
 30
0.0
 11
62.4374189999999771
 21
63.8146339999999839
 31
0.0
  0
LINE
  5
173
100
AcDbEntity
  8
0
 62
0
370
-1
 48
1.0
  6
BYLAYER
100
AcDbLine
 10
43.38741899999998
 20
63.8146339999999839
 30
0.0
 11
57.2875189999999748
 21
63.8146339999999839
 31
0.0
  0
LINE
  5
174
100
AcDbEntity
  8
0
 62
0
370
-1
 48
1.0
  6
BYLAYER
100
AcDbLine
 10
57.2875189999999748
 20
63.8146339999999839
 30
0.0
 11
57.2875189999999748
 21
49.914533999999982
 31
0.0
  0
LINE
  5
175
100
AcDbEntity
  8
0
 62
0
370
-1
 48
1.0
  6
BYLAYER
100
AcDbLine
 10
57.2875189999999748
 20
49.914533999999982
 30
0.0
 11
43.38741899999998
 21
49.914533999999982
 31
0.0
  0
LINE
  5
176
100
AcDbEntity
  8
0
 62
0
370
-1
 48
1.0
  6
BYLAYER
100
AcDbLine
 10
43.38741899999998
 20
49.914533999999982
 30
0.0
 11
43.38741899999998
 21
63.8146339999999839
 31
0.0
  0
LINE
  5
177
100
AcDbEntity
  8
0
 62
0
370
-1
 48
1.0
  6
BYLAYER
100
AcDbLine
 10
17.193618999999984
 20
63.8146339999999839
 30
0.0
 11
31.0924189999999783
 21
63.8146339999999839
 31
0.0
  0
LINE
  5
178
100
AcDbEntity
  8
0
 62
0
370
-1
 48
1.0
  6
BYLAYER
100
AcDbLine
 10
31.0924189999999783
 20
63.8146339999999839
 30
0.0
 11
31.0924189999999783
 21
49.914533999999982
 31
0.0
  0
LINE
  5
179
100
AcDbEntity
  8
0
 62
0
370
-1
 48
1.0
  6
BYLAYER
100
AcDbLine
 10
31.0924189999999783
 20
49.914533999999982
 30
0.0
 11
17.193618999999984
 21
49.914533999999982
 31
0.0
  0
LINE
  5
17A
100
AcDbEntity
  8
0
 62
0
370
-1
 48
1.0
  6
BYLAYER
100
AcDbLine
 10
17.193618999999984
 20
49.914533999999982
 30
0.0
 11
17.193618999999984
 21
63.8146339999999839
 31
0.0
  0
LINE
  5
17B
100
AcDbEntity
  8
0
 62
0
370
-1
 48
1.0
  6
BYLAYER
100
AcDbLine
 10
319.6125189999999634
 20
82.864633999999981
 30
0.0
 11
333.5125189999999975
 21
82.864633999999981
 31
0.0
  0
LINE
  5
17C
100
AcDbEntity
  8
0
 62
0
370
-1
 48
1.0
  6
BYLAYER
100
AcDbLine
 10
333.5125189999999975
 20
82.864633999999981
 30
0.0
 11
333.5125189999999975
 21
68.9645339999999862
 31
0.0
  0
LINE
  5
17D
100
AcDbEntity
  8
0
 62
0
370
-1
 48
1.0
  6
BYLAYER
100
AcDbLine
 10
333.5125189999999975
 20
68.9645339999999862
 30
0.0
 11
319.6125189999999634
 21
68.9645339999999862
 31
0.0
  0
LINE
  5
17E
100
AcDbEntity
  8
0
 62
0
370
-1
 48
1.0
  6
BYLAYER
100
AcDbLine
 10
319.6125189999999634
 20
68.9645339999999862
 30
0.0
 11
319.6125189999999634
 21
82.864633999999981
 31
0.0
  0
LINE
  5
17F
100
AcDbEntity
  8
0
 62
0
370
-1
 48
1.0
  6
BYLAYER
100
AcDbLine
 10
300.5625190000000089
 20
82.864633999999981
 30
0.0
 11
314.4625189999999861
 21
82.864633999999981
 31
0.0
  0
LINE
  5
180
100
AcDbEntity
  8
0
 62
0
370
-1
 48
1.0
  6
BYLAYER
100
AcDbLine
 10
314.4625189999999861
 20
82.864633999999981
 30
0.0
 11
314.4625189999999861
 21
68.9645339999999862
 31
0.0
  0
LINE
  5
181
100
AcDbEntity
  8
0
 62
0
370
-1
 48
1.0
  6
BYLAYER
100
AcDbLine
 10
314.4625189999999861
 20
68.9645339999999862
 30
0.0
 11
300.5625190000000089
 21
68.9645339999999862
 31
0.0
  0
LINE
  5
182
100
AcDbEntity
  8
0
 62
0
370
-1
 48
1.0
  6
BYLAYER
100
AcDbLine
 10
300.5625190000000089
 20
68.9645339999999862
 30
0.0
 11
300.5625190000000089
 21
82.864633999999981
 31
0.0
  0
LINE
  5
183
100
AcDbEntity
  8
0
 62
0
370
-1
 48
1.0
  6
BYLAYER
100
AcDbLine
 10
271.9875189999999634
 20
82.864633999999981
 30
0.0
 11
285.8875189999999975
 21
82.864633999999981
 31
0.0
  0
LINE
  5
184
100
AcDbEntity
  8
0
 62
0
370
-1
 48
1.0
  6
BYLAYER
100
AcDbLine
 10
285.8875189999999975
 20
82.864633999999981
 30
0.0
 11
285.8875189999999975
 21
68.9645339999999862
 31
0.0
  0
LINE
  5
185
100
AcDbEntity
  8
0
 62
0
370
-1
 48
1.0
  6
BYLAYER
100
AcDbLine
 10
285.8875189999999975
 20
68.9645339999999862
 30
0.0
 11
271.9875189999999634
 21
68.9645339999999862
 31
0.0
  0
LINE
  5
186
100
AcDbEntity
  8
0
 62
0
370
-1
 48
1.0
  6
BYLAYER
100
AcDbLine
 10
271.9875189999999634
 20
68.9645339999999862
 30
0.0
 11
271.9875189999999634
 21
82.864633999999981
 31
0.0
  0
LINE
  5
187
100
AcDbEntity
  8
0
 62
0
370
-1
 48
1.0
  6
BYLAYER
100
AcDbLine
 10
248.1745189999999752
 20
82.864633999999981
 30
0.0
 11
262.0755189999999857
 21
82.864633999999981
 31
0.0
  0
LINE
  5
188
100
AcDbEntity
  8
0
 62
0
370
-1
 48
1.0
  6
BYLAYER
100
AcDbLine
 10
262.0755189999999857
 20
82.864633999999981
 30
0.0
 11
262.0755189999999857
 21
68.9645339999999862
 31
0.0
  0
LINE
  5
189
100
AcDbEntity
  8
0
 62
0
370
-1
 48
1.0
  6
BYLAYER
100
AcDbLine
 10
262.0755189999999857
 20
68.9645339999999862
 30
0.0
 11
248.1745189999999752
 21
68.9645339999999862
 31
0.0
  0
LINE
  5
18A
100
AcDbEntity
  8
0
 62
0
370
-1
 48
1.0
  6
BYLAYER
100
AcDbLine
 10
248.1745189999999752
 20
68.9645339999999862
 30
0.0
 11
248.1745189999999752
 21
82.864633999999981
 31
0.0
  0
LINE
  5
18B
100
AcDbEntity
  8
0
 62
0
370
-1
 48
1.0
  6
BYLAYER
100
AcDbLine
 10
229.1245189999999923
 20
82.864633999999981
 30
0.0
 11
243.0255189999999743
 21
82.864633999999981
 31
0.0
  0
LINE
  5
18C
100
AcDbEntity
  8
0
 62
0
370
-1
 48
1.0
  6
BYLAYER
100
AcDbLine
 10
243.0255189999999743
 20
82.864633999999981
 30
0.0
 11
243.0255189999999743
 21
68.9645339999999862
 31
0.0
  0
LINE
  5
18D
100
AcDbEntity
  8
0
 62
0
370
-1
 48
1.0
  6
BYLAYER
100
AcDbLine
 10
243.0255189999999743
 20
68.9645339999999862
 30
0.0
 11
229.1245189999999923
 21
68.9645339999999862
 31
0.0
  0
LINE
  5
18E
100
AcDbEntity
  8
0
 62
0
370
-1
 48
1.0
  6
BYLAYER
100
AcDbLine
 10
229.1245189999999923
 20
68.9645339999999862
 30
0.0
 11
229.1245189999999923
 21
82.864633999999981
 31
0.0
  0
LINE
  5
18F
100
AcDbEntity
  8
0
 62
0
370
-1
 48
1.0
  6
BYLAYER
100
AcDbLine
 10
210.0745189999999809
 20
82.864633999999981
 30
0.0
 11
223.9755189999999914
 21
82.864633999999981
 31
0.0
  0
LINE
  5
190
100
AcDbEntity
  8
0
 62
0
370
-1
 48
1.0
  6
BYLAYER
100
AcDbLine
 10
223.9755189999999914
 20
82.864633999999981
 30
0.0
 11
223.9755189999999914
 21
68.9645339999999862
 31
0.0
  0
LINE
  5
191
100
AcDbEntity
  8
0
 62
0
370
-1
 48
1.0
  6
BYLAYER
100
AcDbLine
 10
223.9755189999999914
 20
68.9645339999999862
 30
0.0
 11
210.0745189999999809
 21
68.9645339999999862
 31
0.0
  0
LINE
  5
192
100
AcDbEntity
  8
0
 62
0
370
-1
 48
1.0
  6
BYLAYER
100
AcDbLine
 10
210.0745189999999809
 20
68.9645339999999862
 30
0.0
 11
210.0745189999999809
 21
82.864633999999981
 31
0.0
  0
LINE
  5
193
100
AcDbEntity
  8
0
 62
0
370
-1
 48
1.0
  6
BYLAYER
100
AcDbLine
 10
191.0245189999999695
 20
82.864633999999981
 30
0.0
 11
204.92551899999998
 21
82.864633999999981
 31
0.0
  0
LINE
  5
194
100
AcDbEntity
  8
0
 62
0
370
-1
 48
1.0
  6
BYLAYER
100
AcDbLine
 10
204.92551899999998
 20
82.864633999999981
 30
0.0
 11
204.92551899999998
 21
68.9645339999999862
 31
0.0
  0
LINE
  5
195
100
AcDbEntity
  8
0
 62
0
370
-1
 48
1.0
  6
BYLAYER
100
AcDbLine
 10
204.92551899999998
 20
68.9645339999999862
 30
0.0
 11
191.0245189999999695
 21
68.9645339999999862
 31
0.0
  0
LINE
  5
196
100
AcDbEntity
  8
0
 62
0
370
-1
 48
1.0
  6
BYLAYER
100
AcDbLine
 10
191.0245189999999695
 20
68.9645339999999862
 30
0.0
 11
191.0245189999999695
 21
82.864633999999981
 31
0.0
  0
LINE
  5
197
100
AcDbEntity
  8
0
 62
0
370
-1
 48
1.0
  6
BYLAYER
100
AcDbLine
 10
171.9745189999999866
 20
82.864633999999981
 30
0.0
 11
185.8755189999999686
 21
82.864633999999981
 31
0.0
  0
LINE
  5
198
100
AcDbEntity
  8
0
 62
0
370
-1
 48
1.0
  6
BYLAYER
100
AcDbLine
 10
185.8755189999999686
 20
82.864633999999981
 30
0.0
 11
185.8755189999999686
 21
68.9645339999999862
 31
0.0
  0
LINE
  5
199
100
AcDbEntity
  8
0
 62
0
370
-1
 48
1.0
  6
BYLAYER
100
AcDbLine
 10
185.8755189999999686
 20
68.9645339999999862
 30
0.0
 11
171.9745189999999866
 21
68.9645339999999862
 31
0.0
  0
LINE
  5
19A
100
AcDbEntity
  8
0
 62
0
370
-1
 48
1.0
  6
BYLAYER
100
AcDbLine
 10
171.9745189999999866
 20
68.9645339999999862
 30
0.0
 11
171.9745189999999866
 21
82.864633999999981
 31
0.0
  0
LINE
  5
19B
100
AcDbEntity
  8
0
 62
0
370
-1
 48
1.0
  6
BYLAYER
100
AcDbLine
 10
152.9245189999999752
 20
82.864633999999981
 30
0.0
 11
166.8255189999999857
 21
82.864633999999981
 31
0.0
  0
LINE
  5
19C
100
AcDbEntity
  8
0
 62
0
370
-1
 48
1.0
  6
BYLAYER
100
AcDbLine
 10
166.8255189999999857
 20
82.864633999999981
 30
0.0
 11
166.8255189999999857
 21
68.9645339999999862
 31
0.0
  0
LINE
  5
19D
100
AcDbEntity
  8
0
 62
0
370
-1
 48
1.0
  6
BYLAYER
100
AcDbLine
 10
166.8255189999999857
 20
68.9645339999999862
 30
0.0
 11
152.9245189999999752
 21
68.9645339999999862
 31
0.0
  0
LINE
  5
19E
100
AcDbEntity
  8
0
 62
0
370
-1
 48
1.0
  6
BYLAYER
100
AcDbLine
 10
152.9245189999999752
 20
68.9645339999999862
 30
0.0
 11
152.9245189999999752
 21
82.864633999999981
 31
0.0
  0
LINE
  5
19F
100
AcDbEntity
  8
0
 62
0
370
-1
 48
1.0
  6
BYLAYER
100
AcDbLine
 10
133.8745189999999923
 20
82.864633999999981
 30
0.0
 11
147.7755189999999743
 21
82.864633999999981
 31
0.0
  0
LINE
  5
1A0
100
AcDbEntity
  8
0
 62
0
370
-1
 48
1.0
  6
BYLAYER
100
AcDbLine
 10
147.7755189999999743
 20
82.864633999999981
 30
0.0
 11
147.7755189999999743
 21
68.9645339999999862
 31
0.0
  0
LINE
  5
1A1
100
AcDbEntity
  8
0
 62
0
370
-1
 48
1.0
  6
BYLAYER
100
AcDbLine
 10
147.7755189999999743
 20
68.9645339999999862
 30
0.0
 11
133.8745189999999923
 21
68.9645339999999862
 31
0.0
  0
LINE
  5
1A2
100
AcDbEntity
  8
0
 62
0
370
-1
 48
1.0
  6
BYLAYER
100
AcDbLine
 10
133.8745189999999923
 20
68.9645339999999862
 30
0.0
 11
133.8745189999999923
 21
82.864633999999981
 31
0.0
  0
LINE
  5
1A3
100
AcDbEntity
  8
0
 62
0
370
-1
 48
1.0
  6
BYLAYER
100
AcDbLine
 10
114.8235189999999761
 20
82.864633999999981
 30
0.0
 11
128.7235189999999818
 21
82.864633999999981
 31
0.0
  0
LINE
  5
1A4
100
AcDbEntity
  8
0
 62
0
370
-1
 48
1.0
  6
BYLAYER
100
AcDbLine
 10
128.7235189999999818
 20
82.864633999999981
 30
0.0
 11
128.7235189999999818
 21
68.9645339999999862
 31
0.0
  0
LINE
  5
1A5
100
AcDbEntity
  8
0
 62
0
370
-1
 48
1.0
  6
BYLAYER
100
AcDbLine
 10
128.7235189999999818
 20
68.9645339999999862
 30
0.0
 11
114.8235189999999761
 21
68.9645339999999862
 31
0.0
  0
LINE
  5
1A6
100
AcDbEntity
  8
0
 62
0
370
-1
 48
1.0
  6
BYLAYER
100
AcDbLine
 10
114.8235189999999761
 20
68.9645339999999862
 30
0.0
 11
114.8235189999999761
 21
82.864633999999981
 31
0.0
  0
LINE
  5
1A7
100
AcDbEntity
  8
0
 62
0
370
-1
 48
1.0
  6
BYLAYER
100
AcDbLine
 10
95.7749189999999828
 20
82.864633999999981
 30
0.0
 11
109.67551899999998
 21
82.864633999999981
 31
0.0
  0
LINE
  5
1A8
100
AcDbEntity
  8
0
 62
0
370
-1
 48
1.0
  6
BYLAYER
100
AcDbLine
 10
109.67551899999998
 20
82.864633999999981
 30
0.0
 11
109.67551899999998
 21
68.9645339999999862
 31
0.0
  0
LINE
  5
1A9
100
AcDbEntity
  8
0
 62
0
370
-1
 48
1.0
  6
BYLAYER
100
AcDbLine
 10
109.67551899999998
 20
68.9645339999999862
 30
0.0
 11
95.7749189999999828
 21
68.9645339999999862
 31
0.0
  0
LINE
  5
1AA
100
AcDbEntity
  8
0
 62
0
370
-1
 48
1.0
  6
BYLAYER
100
AcDbLine
 10
95.7749189999999828
 20
68.9645339999999862
 30
0.0
 11
95.7749189999999828
 21
82.864633999999981
 31
0.0
  0
LINE
  5
1AB
100
AcDbEntity
  8
0
 62
0
370
-1
 48
1.0
  6
BYLAYER
100
AcDbLine
 10
76.7249189999999857
 20
82.864633999999981
 30
0.0
 11
90.6250189999999805
 21
82.864633999999981
 31
0.0
  0
LINE
  5
1AC
100
AcDbEntity
  8
0
 62
0
370
-1
 48
1.0
  6
BYLAYER
100
AcDbLine
 10
90.6250189999999805
 20
82.864633999999981
 30
0.0
 11
90.6250189999999805
 21
68.9645339999999862
 31
0.0
  0
LINE
  5
1AD
100
AcDbEntity
  8
0
 62
0
370
-1
 48
1.0
  6
BYLAYER
100
AcDbLine
 10
90.6250189999999805
 20
68.9645339999999862
 30
0.0
 11
76.7249189999999857
 21
68.9645339999999862
 31
0.0
  0
LINE
  5
1AE
100
AcDbEntity
  8
0
 62
0
370
-1
 48
1.0
  6
BYLAYER
100
AcDbLine
 10
76.7249189999999857
 20
68.9645339999999862
 30
0.0
 11
76.7249189999999857
 21
82.864633999999981
 31
0.0
  0
LINE
  5
1AF
100
AcDbEntity
  8
0
 62
0
370
-1
 48
1.0
  6
BYLAYER
100
AcDbLine
 10
57.6749189999999885
 20
82.864633999999981
 30
0.0
 11
71.5750189999999833
 21
82.864633999999981
 31
0.0
  0
LINE
  5
1B0
100
AcDbEntity
  8
0
 62
0
370
-1
 48
1.0
  6
BYLAYER
100
AcDbLine
 10
71.5750189999999833
 20
82.864633999999981
 30
0.0
 11
71.5750189999999833
 21
68.9645339999999862
 31
0.0
  0
LINE
  5
1B1
100
AcDbEntity
  8
0
 62
0
370
-1
 48
1.0
  6
BYLAYER
100
AcDbLine
 10
71.5750189999999833
 20
68.9645339999999862
 30
0.0
 11
57.6749189999999885
 21
68.9645339999999862
 31
0.0
  0
LINE
  5
1B2
100
AcDbEntity
  8
0
 62
0
370
-1
 48
1.0
  6
BYLAYER
100
AcDbLine
 10
57.6749189999999885
 20
68.9645339999999862
 30
0.0
 11
57.6749189999999885
 21
82.864633999999981
 31
0.0
  0
LINE
  5
1B3
100
AcDbEntity
  8
0
 62
0
370
-1
 48
1.0
  6
BYLAYER
100
AcDbLine
 10
38.6249189999999771
 20
82.864633999999981
 30
0.0
 11
52.5250189999999861
 21
82.864633999999981
 31
0.0
  0
LINE
  5
1B4
100
AcDbEntity
  8
0
 62
0
370
-1
 48
1.0
  6
BYLAYER
100
AcDbLine
 10
52.5250189999999861
 20
82.864633999999981
 30
0.0
 11
52.5250189999999861
 21
68.9645339999999862
 31
0.0
  0
LINE
  5
1B5
100
AcDbEntity
  8
0
 62
0
370
-1
 48
1.0
  6
BYLAYER
100
AcDbLine
 10
52.5250189999999861
 20
68.9645339999999862
 30
0.0
 11
38.6249189999999771
 21
68.9645339999999862
 31
0.0
  0
LINE
  5
1B6
100
AcDbEntity
  8
0
 62
0
370
-1
 48
1.0
  6
BYLAYER
100
AcDbLine
 10
38.6249189999999771
 20
68.9645339999999862
 30
0.0
 11
38.6249189999999771
 21
82.864633999999981
 31
0.0
  0
LINE
  5
1B7
100
AcDbEntity
  8
0
 62
0
370
-1
 48
1.0
  6
BYLAYER
100
AcDbLine
 10
14.8123189999999738
 20
82.864633999999981
 30
0.0
 11
28.7126189999999895
 21
82.864633999999981
 31
0.0
  0
LINE
  5
1B8
100
AcDbEntity
  8
0
 62
0
370
-1
 48
1.0
  6
BYLAYER
100
AcDbLine
 10
28.7126189999999895
 20
82.864633999999981
 30
0.0
 11
28.7126189999999895
 21
68.9645339999999862
 31
0.0
  0
LINE
  5
1B9
100
AcDbEntity
  8
0
 62
0
370
-1
 48
1.0
  6
BYLAYER
100
AcDbLine
 10
28.7126189999999895
 20
68.9645339999999862
 30
0.0
 11
14.8123189999999738
 21
68.9645339999999862
 31
0.0
  0
LINE
  5
1BA
100
AcDbEntity
  8
0
 62
0
370
-1
 48
1.0
  6
BYLAYER
100
AcDbLine
 10
14.8123189999999738
 20
68.9645339999999862
 30
0.0
 11
14.8123189999999738
 21
82.864633999999981
 31
0.0
  0
LINE
  5
1BB
100
AcDbEntity
  8
0
 62
0
370
-1
 48
1.0
  6
BYLAYER
100
AcDbLine
 10
267.2245189999999866
 20
101.9142339999999791
 30
0.0
 11
267.2245189999999866
 21
97.2142339999999905
 31
0.0
  0
LINE
  5
1BC
100
AcDbEntity
  8
0
 62
0
370
-1
 48
1.0
  6
BYLAYER
100
AcDbLine
 10
267.2245189999999866
 20
97.2142339999999905
 30
0.0
 11
265.5995189999999866
 21
97.2142339999999905
 31
0.0
  0
LINE
  5
1BD
100
AcDbEntity
  8
0
 62
0
370
-1
 48
1.0
  6
BYLAYER
100
AcDbLine
 10
265.5995189999999866
 20
97.2142339999999905
 30
0.0
 11
265.5995189999999866
 21
100.4442339999999803
 31
0.0
  0
LINE
  5
1BE
100
AcDbEntity
  8
0
 62
0
370
-1
 48
1.0
  6
BYLAYER
100
AcDbLine
 10
265.5995189999999866
 20
100.4442339999999803
 30
0.0
 11
258.9495190000000093
 21
100.4442339999999803
 31
0.0
  0
LINE
  5
1BF
100
AcDbEntity
  8
0
 62
0
370
-1
 48
1.0
  6
BYLAYER
100
AcDbLine
 10
258.9495190000000093
 20
100.4442339999999803
 30
0.0
 11
258.9495190000000093
 21
97.2142339999999905
 31
0.0
  0
LINE
  5
1C0
100
AcDbEntity
  8
0
 62
0
370
-1
 48
1.0
  6
BYLAYER
100
AcDbLine
 10
258.9495190000000093
 20
97.2142339999999905
 30
0.0
 11
258.125518999999997
 21
97.2142339999999905
 31
0.0
  0
LINE
  5
1C1
100
AcDbEntity
  8
0
 62
0
370
-1
 48
1.0
  6
BYLAYER
100
AcDbLine
 10
258.125518999999997
 20
97.2142339999999905
 30
0.0
 11
258.125518999999997
 21
94.51473399999999
 31
0.0
  0
LINE
  5
1C2
100
AcDbEntity
  8
0
 62
0
370
-1
 48
1.0
  6
BYLAYER
100
AcDbLine
 10
258.125518999999997
 20
94.51473399999999
 30
0.0
 11
258.9495190000000093
 21
94.51473399999999
 31
0.0
  0
LINE
  5
1C3
100
AcDbEntity
  8
0
 62
0
370
-1
 48
1.0
  6
BYLAYER
100
AcDbLine
 10
258.9495190000000093
 20
94.51473399999999
 30
0.0
 11
258.9495190000000093
 21
88.2445339999999874
 31
0.0
  0
LINE
  5
1C4
100
AcDbEntity
  8
0
 62
0
370
-1
 48
1.0
  6
BYLAYER
100
AcDbLine
 10
258.9495190000000093
 20
88.2445339999999874
 30
0.0
 11
260.6745189999999752
 21
88.2445339999999874
 31
0.0
  0
LINE
  5
1C5
100
AcDbEntity
  8
0
 62
0
370
-1
 48
1.0
  6
BYLAYER
100
AcDbLine
 10
260.6745189999999752
 20
88.2445339999999874
 30
0.0
 11
260.6745189999999752
 21
87.0443339999999779
 31
0.0
  0
LINE
  5
1C6
100
AcDbEntity
  8
0
 62
0
370
-1
 48
1.0
  6
BYLAYER
100
AcDbLine
 10
260.6745189999999752
 20
87.0443339999999779
 30
0.0
 11
263.8745189999999639
 21
87.0443339999999779
 31
0.0
  0
LINE
  5
1C7
100
AcDbEntity
  8
0
 62
0
370
-1
 48
1.0
  6
BYLAYER
100
AcDbLine
 10
263.8745189999999639
 20
87.0443339999999779
 30
0.0
 11
263.8745189999999639
 21
88.2445339999999874
 31
0.0
  0
LINE
  5
1C8
100
AcDbEntity
  8
0
 62
0
370
-1
 48
1.0
  6
BYLAYER
100
AcDbLine
 10
263.8745189999999639
 20
88.2445339999999874
 30
0.0
 11
265.5995189999999866
 21
88.2445339999999874
 31
0.0
  0
LINE
  5
1C9
100
AcDbEntity
  8
0
 62
0
370
-1
 48
1.0
  6
BYLAYER
100
AcDbLine
 10
265.5995189999999866
 20
88.2445339999999874
 30
0.0
 11
265.5995189999999866
 21
92.7135339999999815
 31
0.0
  0
LINE
  5
1CA
100
AcDbEntity
  8
0
 62
0
370
-1
 48
1.0
  6
BYLAYER
100
AcDbLine
 10
265.5995189999999866
 20
92.7135339999999815
 30
0.0
 11
267.2245189999999866
 21
92.7135339999999815
 31
0.0
  0
LINE
  5
1CB
100
AcDbEntity
  8
0
 62
0
370
-1
 48
1.0
  6
BYLAYER
100
AcDbLine
 10
267.2245189999999866
 20
92.7135339999999815
 30
0.0
 11
267.2245189999999866
 21
88.0145339999999834
 31
0.0
  0
LINE
  5
1CC
100
AcDbEntity
  8
0
 62
0
370
-1
 48
1.0
  6
BYLAYER
100
AcDbLine
 10
267.2245189999999866
 20
88.0145339999999834
 30
0.0
 11
281.125518999999997
 21
88.0145339999999834
 31
0.0
  0
LINE
  5
1CD
100
AcDbEntity
  8
0
 62
0
370
-1
 48
1.0
  6
BYLAYER
100
AcDbLine
 10
281.125518999999997
 20
88.0145339999999834
 30
0.0
 11
281.125518999999997
 21
92.7135339999999815
 31
0.0
  0
LINE
  5
1CE
100
AcDbEntity
  8
0
 62
0
370
-1
 48
1.0
  6
BYLAYER
100
AcDbLine
 10
281.125518999999997
 20
92.7135339999999815
 30
0.0
 11
282.7495189999999639
 21
92.7135339999999815
 31
0.0
  0
LINE
  5
1CF
100
AcDbEntity
  8
0
 62
0
370
-1
 48
1.0
  6
BYLAYER
100
AcDbLine
 10
282.7495189999999639
 20
92.7135339999999815
 30
0.0
 11
282.7495189999999639
 21
88.2445339999999874
 31
0.0
  0
LINE
  5
1D0
100
AcDbEntity
  8
0
 62
0
370
-1
 48
1.0
  6
BYLAYER
100
AcDbLine
 10
282.7495189999999639
 20
88.2445339999999874
 30
0.0
 11
284.4755189999999629
 21
88.2445339999999874
 31
0.0
  0
LINE
  5
1D1
100
AcDbEntity
  8
0
 62
0
370
-1
 48
1.0
  6
BYLAYER
100
AcDbLine
 10
284.4755189999999629
 20
88.2445339999999874
 30
0.0
 11
284.4755189999999629
 21
87.0443339999999779
 31
0.0
  0
LINE
  5
1D2
100
AcDbEntity
  8
0
 62
0
370
-1
 48
1.0
  6
BYLAYER
100
AcDbLine
 10
284.4755189999999629
 20
87.0443339999999779
 30
0.0
 11
287.6755190000000084
 21
87.0443339999999779
 31
0.0
  0
LINE
  5
1D3
100
AcDbEntity
  8
0
 62
0
370
-1
 48
1.0
  6
BYLAYER
100
AcDbLine
 10
287.6755190000000084
 20
87.0443339999999779
 30
0.0
 11
287.6755190000000084
 21
88.2445339999999874
 31
0.0
  0
LINE
  5
1D4
100
AcDbEntity
  8
0
 62
0
370
-1
 48
1.0
  6
BYLAYER
100
AcDbLine
 10
287.6755190000000084
 20
88.2445339999999874
 30
0.0
 11
289.4005189999999743
 21
88.2445339999999874
 31
0.0
  0
LINE
  5
1D5
100
AcDbEntity
  8
0
 62
0
370
-1
 48
1.0
  6
BYLAYER
100
AcDbLine
 10
289.4005189999999743
 20
88.2445339999999874
 30
0.0
 11
289.4005189999999743
 21
94.51473399999999
 31
0.0
  0
LINE
  5
1D6
100
AcDbEntity
  8
0
 62
0
370
-1
 48
1.0
  6
BYLAYER
100
AcDbLine
 10
289.4005189999999743
 20
94.51473399999999
 30
0.0
 11
290.2255189999999629
 21
94.51473399999999
 31
0.0
  0
LINE
  5
1D7
100
AcDbEntity
  8
0
 62
0
370
-1
 48
1.0
  6
BYLAYER
100
AcDbLine
 10
290.2255189999999629
 20
94.51473399999999
 30
0.0
 11
290.2255189999999629
 21
97.2142339999999905
 31
0.0
  0
LINE
  5
1D8
100
AcDbEntity
  8
0
 62
0
370
-1
 48
1.0
  6
BYLAYER
100
AcDbLine
 10
290.2255189999999629
 20
97.2142339999999905
 30
0.0
 11
289.4005189999999743
 21
97.2142339999999905
 31
0.0
  0
LINE
  5
1D9
100
AcDbEntity
  8
0
 62
0
370
-1
 48
1.0
  6
BYLAYER
100
AcDbLine
 10
289.4005189999999743
 20
97.2142339999999905
 30
0.0
 11
289.4005189999999743
 21
100.4442339999999803
 31
0.0
  0
LINE
  5
1DA
100
AcDbEntity
  8
0
 62
0
370
-1
 48
1.0
  6
BYLAYER
100
AcDbLine
 10
289.4005189999999743
 20
100.4442339999999803
 30
0.0
 11
282.7495189999999639
 21
100.4442339999999803
 31
0.0
  0
LINE
  5
1DB
100
AcDbEntity
  8
0
 62
0
370
-1
 48
1.0
  6
BYLAYER
100
AcDbLine
 10
282.7495189999999639
 20
100.4442339999999803
 30
0.0
 11
282.7495189999999639
 21
97.2142339999999905
 31
0.0
  0
LINE
  5
1DC
100
AcDbEntity
  8
0
 62
0
370
-1
 48
1.0
  6
BYLAYER
100
AcDbLine
 10
282.7495189999999639
 20
97.2142339999999905
 30
0.0
 11
281.125518999999997
 21
97.2142339999999905
 31
0.0
  0
LINE
  5
1DD
100
AcDbEntity
  8
0
 62
0
370
-1
 48
1.0
  6
BYLAYER
100
AcDbLine
 10
281.125518999999997
 20
97.2142339999999905
 30
0.0
 11
281.125518999999997
 21
101.9142339999999791
 31
0.0
  0
LINE
  5
1DE
100
AcDbEntity
  8
0
 62
0
370
-1
 48
1.0
  6
BYLAYER
100
AcDbLine
 10
281.125518999999997
 20
101.9142339999999791
 30
0.0
 11
267.2245189999999866
 21
101.9142339999999791
 31
0.0
  0
LINE
  5
1DF
100
AcDbEntity
  8
0
 62
0
370
-1
 48
1.0
  6
BYLAYER
100
AcDbLine
 10
319.6125189999999634
 20
101.9142339999999791
 30
0.0
 11
333.5125189999999975
 21
101.9142339999999791
 31
0.0
  0
LINE
  5
1E0
100
AcDbEntity
  8
0
 62
0
370
-1
 48
1.0
  6
BYLAYER
100
AcDbLine
 10
333.5125189999999975
 20
101.9142339999999791
 30
0.0
 11
333.5125189999999975
 21
88.0145339999999834
 31
0.0
  0
LINE
  5
1E1
100
AcDbEntity
  8
0
 62
0
370
-1
 48
1.0
  6
BYLAYER
100
AcDbLine
 10
333.5125189999999975
 20
88.0145339999999834
 30
0.0
 11
319.6125189999999634
 21
88.0145339999999834
 31
0.0
  0
LINE
  5
1E2
100
AcDbEntity
  8
0
 62
0
370
-1
 48
1.0
  6
BYLAYER
100
AcDbLine
 10
319.6125189999999634
 20
88.0145339999999834
 30
0.0
 11
319.6125189999999634
 21
101.9142339999999791
 31
0.0
  0
LINE
  5
1E3
100
AcDbEntity
  8
0
 62
0
370
-1
 48
1.0
  6
BYLAYER
100
AcDbLine
 10
300.5625190000000089
 20
101.9142339999999791
 30
0.0
 11
314.4625189999999861
 21
101.9142339999999791
 31
0.0
  0
LINE
  5
1E4
100
AcDbEntity
  8
0
 62
0
370
-1
 48
1.0
  6
BYLAYER
100
AcDbLine
 10
314.4625189999999861
 20
101.9142339999999791
 30
0.0
 11
314.4625189999999861
 21
88.0145339999999834
 31
0.0
  0
LINE
  5
1E5
100
AcDbEntity
  8
0
 62
0
370
-1
 48
1.0
  6
BYLAYER
100
AcDbLine
 10
314.4625189999999861
 20
88.0145339999999834
 30
0.0
 11
300.5625190000000089
 21
88.0145339999999834
 31
0.0
  0
LINE
  5
1E6
100
AcDbEntity
  8
0
 62
0
370
-1
 48
1.0
  6
BYLAYER
100
AcDbLine
 10
300.5625190000000089
 20
88.0145339999999834
 30
0.0
 11
300.5625190000000089
 21
101.9142339999999791
 31
0.0
  0
LINE
  5
1E7
100
AcDbEntity
  8
0
 62
0
370
-1
 48
1.0
  6
BYLAYER
100
AcDbLine
 10
238.6495189999999695
 20
101.9142339999999791
 30
0.0
 11
252.55051899999998
 21
101.9142339999999791
 31
0.0
  0
LINE
  5
1E8
100
AcDbEntity
  8
0
 62
0
370
-1
 48
1.0
  6
BYLAYER
100
AcDbLine
 10
252.55051899999998
 20
101.9142339999999791
 30
0.0
 11
252.55051899999998
 21
88.0145339999999834
 31
0.0
  0
LINE
  5
1E9
100
AcDbEntity
  8
0
 62
0
370
-1
 48
1.0
  6
BYLAYER
100
AcDbLine
 10
252.55051899999998
 20
88.0145339999999834
 30
0.0
 11
238.6495189999999695
 21
88.0145339999999834
 31
0.0
  0
LINE
  5
1EA
100
AcDbEntity
  8
0
 62
0
370
-1
 48
1.0
  6
BYLAYER
100
AcDbLine
 10
238.6495189999999695
 20
88.0145339999999834
 30
0.0
 11
238.6495189999999695
 21
101.9142339999999791
 31
0.0
  0
LINE
  5
1EB
100
AcDbEntity
  8
0
 62
0
370
-1
 48
1.0
  6
BYLAYER
100
AcDbLine
 10
219.5995189999999866
 20
101.9142339999999791
 30
0.0
 11
233.5005189999999686
 21
101.9142339999999791
 31
0.0
  0
LINE
  5
1EC
100
AcDbEntity
  8
0
 62
0
370
-1
 48
1.0
  6
BYLAYER
100
AcDbLine
 10
233.5005189999999686
 20
101.9142339999999791
 30
0.0
 11
233.5005189999999686
 21
88.0145339999999834
 31
0.0
  0
LINE
  5
1ED
100
AcDbEntity
  8
0
 62
0
370
-1
 48
1.0
  6
BYLAYER
100
AcDbLine
 10
233.5005189999999686
 20
88.0145339999999834
 30
0.0
 11
219.5995189999999866
 21
88.0145339999999834
 31
0.0
  0
LINE
  5
1EE
100
AcDbEntity
  8
0
 62
0
370
-1
 48
1.0
  6
BYLAYER
100
AcDbLine
 10
219.5995189999999866
 20
88.0145339999999834
 30
0.0
 11
219.5995189999999866
 21
101.9142339999999791
 31
0.0
  0
LINE
  5
1EF
100
AcDbEntity
  8
0
 62
0
370
-1
 48
1.0
  6
BYLAYER
100
AcDbLine
 10
200.5495189999999752
 20
101.9142339999999791
 30
0.0
 11
214.4505189999999857
 21
101.9142339999999791
 31
0.0
  0
LINE
  5
1F0
100
AcDbEntity
  8
0
 62
0
370
-1
 48
1.0
  6
BYLAYER
100
AcDbLine
 10
214.4505189999999857
 20
101.9142339999999791
 30
0.0
 11
214.4505189999999857
 21
88.0145339999999834
 31
0.0
  0
LINE
  5
1F1
100
AcDbEntity
  8
0
 62
0
370
-1
 48
1.0
  6
BYLAYER
100
AcDbLine
 10
214.4505189999999857
 20
88.0145339999999834
 30
0.0
 11
200.5495189999999752
 21
88.0145339999999834
 31
0.0
  0
LINE
  5
1F2
100
AcDbEntity
  8
0
 62
0
370
-1
 48
1.0
  6
BYLAYER
100
AcDbLine
 10
200.5495189999999752
 20
88.0145339999999834
 30
0.0
 11
200.5495189999999752
 21
101.9142339999999791
 31
0.0
  0
LINE
  5
1F3
100
AcDbEntity
  8
0
 62
0
370
-1
 48
1.0
  6
BYLAYER
100
AcDbLine
 10
181.4995189999999923
 20
101.9142339999999791
 30
0.0
 11
195.4005189999999743
 21
101.9142339999999791
 31
0.0
  0
LINE
  5
1F4
100
AcDbEntity
  8
0
 62
0
370
-1
 48
1.0
  6
BYLAYER
100
AcDbLine
 10
195.4005189999999743
 20
101.9142339999999791
 30
0.0
 11
195.4005189999999743
 21
88.0145339999999834
 31
0.0
  0
LINE
  5
1F5
100
AcDbEntity
  8
0
 62
0
370
-1
 48
1.0
  6
BYLAYER
100
AcDbLine
 10
195.4005189999999743
 20
88.0145339999999834
 30
0.0
 11
181.4995189999999923
 21
88.0145339999999834
 31
0.0
  0
LINE
  5
1F6
100
AcDbEntity
  8
0
 62
0
370
-1
 48
1.0
  6
BYLAYER
100
AcDbLine
 10
181.4995189999999923
 20
88.0145339999999834
 30
0.0
 11
181.4995189999999923
 21
101.9142339999999791
 31
0.0
  0
LINE
  5
1F7
100
AcDbEntity
  8
0
 62
0
370
-1
 48
1.0
  6
BYLAYER
100
AcDbLine
 10
162.4495189999999809
 20
101.9142339999999791
 30
0.0
 11
176.3505189999999914
 21
101.9142339999999791
 31
0.0
  0
LINE
  5
1F8
100
AcDbEntity
  8
0
 62
0
370
-1
 48
1.0
  6
BYLAYER
100
AcDbLine
 10
176.3505189999999914
 20
101.9142339999999791
 30
0.0
 11
176.3505189999999914
 21
88.0145339999999834
 31
0.0
  0
LINE
  5
1F9
100
AcDbEntity
  8
0
 62
0
370
-1
 48
1.0
  6
BYLAYER
100
AcDbLine
 10
176.3505189999999914
 20
88.0145339999999834
 30
0.0
 11
162.4495189999999809
 21
88.0145339999999834
 31
0.0
  0
LINE
  5
1FA
100
AcDbEntity
  8
0
 62
0
370
-1
 48
1.0
  6
BYLAYER
100
AcDbLine
 10
162.4495189999999809
 20
88.0145339999999834
 30
0.0
 11
162.4495189999999809
 21
101.9142339999999791
 31
0.0
  0
LINE
  5
1FB
100
AcDbEntity
  8
0
 62
0
370
-1
 48
1.0
  6
BYLAYER
100
AcDbLine
 10
143.3995189999999695
 20
101.9142339999999791
 30
0.0
 11
157.30051899999998
 21
101.9142339999999791
 31
0.0
  0
LINE
  5
1FC
100
AcDbEntity
  8
0
 62
0
370
-1
 48
1.0
  6
BYLAYER
100
AcDbLine
 10
157.30051899999998
 20
101.9142339999999791
 30
0.0
 11
157.30051899999998
 21
88.0145339999999834
 31
0.0
  0
LINE
  5
1FD
100
AcDbEntity
  8
0
 62
0
370
-1
 48
1.0
  6
BYLAYER
100
AcDbLine
 10
157.30051899999998
 20
88.0145339999999834
 30
0.0
 11
143.3995189999999695
 21
88.0145339999999834
 31
0.0
  0
LINE
  5
1FE
100
AcDbEntity
  8
0
 62
0
370
-1
 48
1.0
  6
BYLAYER
100
AcDbLine
 10
143.3995189999999695
 20
88.0145339999999834
 30
0.0
 11
143.3995189999999695
 21
101.9142339999999791
 31
0.0
  0
LINE
  5
1FF
100
AcDbEntity
  8
0
 62
0
370
-1
 48
1.0
  6
BYLAYER
100
AcDbLine
 10
124.3495189999999866
 20
101.9142339999999791
 30
0.0
 11
138.2505189999999686
 21
101.9142339999999791
 31
0.0
  0
LINE
  5
200
100
AcDbEntity
  8
0
 62
0
370
-1
 48
1.0
  6
BYLAYER
100
AcDbLine
 10
138.2505189999999686
 20
101.9142339999999791
 30
0.0
 11
138.2505189999999686
 21
88.0145339999999834
 31
0.0
  0
LINE
  5
201
100
AcDbEntity
  8
0
 62
0
370
-1
 48
1.0
  6
BYLAYER
100
AcDbLine
 10
138.2505189999999686
 20
88.0145339999999834
 30
0.0
 11
124.3495189999999866
 21
88.0145339999999834
 31
0.0
  0
LINE
  5
202
100
AcDbEntity
  8
0
 62
0
370
-1
 48
1.0
  6
BYLAYER
100
AcDbLine
 10
124.3495189999999866
 20
88.0145339999999834
 30
0.0
 11
124.3495189999999866
 21
101.9142339999999791
 31
0.0
  0
LINE
  5
203
100
AcDbEntity
  8
0
 62
0
370
-1
 48
1.0
  6
BYLAYER
100
AcDbLine
 10
105.2985189999999847
 20
101.9142339999999791
 30
0.0
 11
119.1985189999999761
 21
101.9142339999999791
 31
0.0
  0
LINE
  5
204
100
AcDbEntity
  8
0
 62
0
370
-1
 48
1.0
  6
BYLAYER
100
AcDbLine
 10
119.1985189999999761
 20
101.9142339999999791
 30
0.0
 11
119.1985189999999761
 21
88.0145339999999834
 31
0.0
  0
LINE
  5
205
100
AcDbEntity
  8
0
 62
0
370
-1
 48
1.0
  6
BYLAYER
100
AcDbLine
 10
119.1985189999999761
 20
88.0145339999999834
 30
0.0
 11
105.2985189999999847
 21
88.0145339999999834
 31
0.0
  0
LINE
  5
206
100
AcDbEntity
  8
0
 62
0
370
-1
 48
1.0
  6
BYLAYER
100
AcDbLine
 10
105.2985189999999847
 20
88.0145339999999834
 30
0.0
 11
105.2985189999999847
 21
101.9142339999999791
 31
0.0
  0
LINE
  5
207
100
AcDbEntity
  8
0
 62
0
370
-1
 48
1.0
  6
BYLAYER
100
AcDbLine
 10
86.2485189999999875
 20
101.9142339999999791
 30
0.0
 11
100.1500189999999861
 21
101.9142339999999791
 31
0.0
  0
LINE
  5
208
100
AcDbEntity
  8
0
 62
0
370
-1
 48
1.0
  6
BYLAYER
100
AcDbLine
 10
100.1500189999999861
 20
101.9142339999999791
 30
0.0
 11
100.1500189999999861
 21
88.0145339999999834
 31
0.0
  0
LINE
  5
209
100
AcDbEntity
  8
0
 62
0
370
-1
 48
1.0
  6
BYLAYER
100
AcDbLine
 10
100.1500189999999861
 20
88.0145339999999834
 30
0.0
 11
86.2485189999999875
 21
88.0145339999999834
 31
0.0
  0
LINE
  5
20A
100
AcDbEntity
  8
0
 62
0
370
-1
 48
1.0
  6
BYLAYER
100
AcDbLine
 10
86.2485189999999875
 20
88.0145339999999834
 30
0.0
 11
86.2485189999999875
 21
101.9142339999999791
 31
0.0
  0
LINE
  5
20B
100
AcDbEntity
  8
0
 62
0
370
-1
 48
1.0
  6
BYLAYER
100
AcDbLine
 10
67.1985189999999761
 20
101.9142339999999791
 30
0.0
 11
81.1000189999999748
 21
101.9142339999999791
 31
0.0
  0
LINE
  5
20C
100
AcDbEntity
  8
0
 62
0
370
-1
 48
1.0
  6
BYLAYER
100
AcDbLine
 10
81.1000189999999748
 20
101.9142339999999791
 30
0.0
 11
81.1000189999999748
 21
88.0145339999999834
 31
0.0
  0
LINE
  5
20D
100
AcDbEntity
  8
0
 62
0
370
-1
 48
1.0
  6
BYLAYER
100
AcDbLine
 10
81.1000189999999748
 20
88.0145339999999834
 30
0.0
 11
67.1985189999999761
 21
88.0145339999999834
 31
0.0
  0
LINE
  5
20E
100
AcDbEntity
  8
0
 62
0
370
-1
 48
1.0
  6
BYLAYER
100
AcDbLine
 10
67.1985189999999761
 20
88.0145339999999834
 30
0.0
 11
67.1985189999999761
 21
101.9142339999999791
 31
0.0
  0
LINE
  5
20F
100
AcDbEntity
  8
0
 62
0
370
-1
 48
1.0
  6
BYLAYER
100
AcDbLine
 10
48.148518999999979
 20
101.9142339999999791
 30
0.0
 11
62.0500189999999776
 21
101.9142339999999791
 31
0.0
  0
LINE
  5
210
100
AcDbEntity
  8
0
 62
0
370
-1
 48
1.0
  6
BYLAYER
100
AcDbLine
 10
62.0500189999999776
 20
101.9142339999999791
 30
0.0
 11
62.0500189999999776
 21
88.0145339999999834
 31
0.0
  0
LINE
  5
211
100
AcDbEntity
  8
0
 62
0
370
-1
 48
1.0
  6
BYLAYER
100
AcDbLine
 10
62.0500189999999776
 20
88.0145339999999834
 30
0.0
 11
48.148518999999979
 21
88.0145339999999834
 31
0.0
  0
LINE
  5
212
100
AcDbEntity
  8
0
 62
0
370
-1
 48
1.0
  6
BYLAYER
100
AcDbLine
 10
48.148518999999979
 20
88.0145339999999834
 30
0.0
 11
48.148518999999979
 21
101.9142339999999791
 31
0.0
  0
LINE
  5
213
100
AcDbEntity
  8
0
 62
0
370
-1
 48
1.0
  6
BYLAYER
100
AcDbLine
 10
29.0998189999999965
 20
101.9142339999999791
 30
0.0
 11
43.0000189999999805
 21
101.9142339999999791
 31
0.0
  0
LINE
  5
214
100
AcDbEntity
  8
0
 62
0
370
-1
 48
1.0
  6
BYLAYER
100
AcDbLine
 10
43.0000189999999805
 20
101.9142339999999791
 30
0.0
 11
43.0000189999999805
 21
88.0145339999999834
 31
0.0
  0
LINE
  5
215
100
AcDbEntity
  8
0
 62
0
370
-1
 48
1.0
  6
BYLAYER
100
AcDbLine
 10
43.0000189999999805
 20
88.0145339999999834
 30
0.0
 11
29.0998189999999965
 21
88.0145339999999834
 31
0.0
  0
LINE
  5
216
100
AcDbEntity
  8
0
 62
0
370
-1
 48
1.0
  6
BYLAYER
100
AcDbLine
 10
29.0998189999999965
 20
88.0145339999999834
 30
0.0
 11
29.0998189999999965
 21
101.9142339999999791
 31
0.0
  0
LINE
  5
217
100
AcDbEntity
  8
0
 62
0
370
-1
 48
1.0
  6
BYLAYER
100
AcDbLine
 10
10.0498289999999884
 20
101.9142339999999791
 30
0.0
 11
23.9501189999999724
 21
101.9142339999999791
 31
0.0
  0
LINE
  5
218
100
AcDbEntity
  8
0
 62
0
370
-1
 48
1.0
  6
BYLAYER
100
AcDbLine
 10
23.9501189999999724
 20
101.9142339999999791
 30
0.0
 11
23.9501189999999724
 21
88.0145339999999834
 31
0.0
  0
LINE
  5
219
100
AcDbEntity
  8
0
 62
0
370
-1
 48
1.0
  6
BYLAYER
100
AcDbLine
 10
23.9501189999999724
 20
88.0145339999999834
 30
0.0
 11
10.0498289999999884
 21
88.0145339999999834
 31
0.0
  0
LINE
  5
21A
100
AcDbEntity
  8
0
 62
0
370
-1
 48
1.0
  6
BYLAYER
100
AcDbLine
 10
10.0498289999999884
 20
88.0145339999999834
 30
0.0
 11
10.0498289999999884
 21
101.9142339999999791
 31
0.0
  0
LINE
  5
21B
100
AcDbEntity
  8
0
 62
0
370
-1
 48
1.0
  6
BYLAYER
100
AcDbLine
 10
95.7749189999999828
 20
125.7252339999999862
 30
0.0
 11
109.67551899999998
 21
125.7252339999999862
 31
0.0
  0
LINE
  5
21C
100
AcDbEntity
  8
0
 62
0
370
-1
 48
1.0
  6
BYLAYER
100
AcDbLine
 10
109.67551899999998
 20
125.7252339999999862
 30
0.0
 11
109.67551899999998
 21
111.8252339999999805
 31
0.0
  0
LINE
  5
21D
100
AcDbEntity
  8
0
 62
0
370
-1
 48
1.0
  6
BYLAYER
100
AcDbLine
 10
109.67551899999998
 20
111.8252339999999805
 30
0.0
 11
95.7749189999999828
 21
111.8252339999999805
 31
0.0
  0
LINE
  5
21E
100
AcDbEntity
  8
0
 62
0
370
-1
 48
1.0
  6
BYLAYER
100
AcDbLine
 10
95.7749189999999828
 20
111.8252339999999805
 30
0.0
 11
95.7749189999999828
 21
125.7252339999999862
 31
0.0
  0
LINE
  5
21F
100
AcDbEntity
  8
0
 62
0
370
-1
 48
1.0
  6
BYLAYER
100
AcDbLine
 10
76.7249189999999857
 20
125.7252339999999862
 30
0.0
 11
90.6250189999999805
 21
125.7252339999999862
 31
0.0
  0
LINE
  5
220
100
AcDbEntity
  8
0
 62
0
370
-1
 48
1.0
  6
BYLAYER
100
AcDbLine
 10
90.6250189999999805
 20
125.7252339999999862
 30
0.0
 11
90.6250189999999805
 21
111.8252339999999805
 31
0.0
  0
LINE
  5
221
100
AcDbEntity
  8
0
 62
0
370
-1
 48
1.0
  6
BYLAYER
100
AcDbLine
 10
90.6250189999999805
 20
111.8252339999999805
 30
0.0
 11
76.7249189999999857
 21
111.8252339999999805
 31
0.0
  0
LINE
  5
222
100
AcDbEntity
  8
0
 62
0
370
-1
 48
1.0
  6
BYLAYER
100
AcDbLine
 10
76.7249189999999857
 20
111.8252339999999805
 30
0.0
 11
76.7249189999999857
 21
125.7252339999999862
 31
0.0
  0
LINE
  5
223
100
AcDbEntity
  8
0
 62
0
370
-1
 48
1.0
  6
BYLAYER
100
AcDbLine
 10
57.6749189999999885
 20
125.7252339999999862
 30
0.0
 11
71.5750189999999833
 21
125.7252339999999862
 31
0.0
  0
LINE
  5
224
100
AcDbEntity
  8
0
 62
0
370
-1
 48
1.0
  6
BYLAYER
100
AcDbLine
 10
71.5750189999999833
 20
125.7252339999999862
 30
0.0
 11
71.5750189999999833
 21
111.8252339999999805
 31
0.0
  0
LINE
  5
225
100
AcDbEntity
  8
0
 62
0
370
-1
 48
1.0
  6
BYLAYER
100
AcDbLine
 10
71.5750189999999833
 20
111.8252339999999805
 30
0.0
 11
57.6749189999999885
 21
111.8252339999999805
 31
0.0
  0
LINE
  5
226
100
AcDbEntity
  8
0
 62
0
370
-1
 48
1.0
  6
BYLAYER
100
AcDbLine
 10
57.6749189999999885
 20
111.8252339999999805
 30
0.0
 11
57.6749189999999885
 21
125.7252339999999862
 31
0.0
  0
LINE
  5
227
100
AcDbEntity
  8
0
 62
0
370
-1
 48
1.0
  6
BYLAYER
100
AcDbLine
 10
38.6249189999999771
 20
125.7252339999999862
 30
0.0
 11
52.5250189999999861
 21
125.7252339999999862
 31
0.0
  0
LINE
  5
228
100
AcDbEntity
  8
0
 62
0
370
-1
 48
1.0
  6
BYLAYER
100
AcDbLine
 10
52.5250189999999861
 20
125.7252339999999862
 30
0.0
 11
52.5250189999999861
 21
111.8252339999999805
 31
0.0
  0
LINE
  5
229
100
AcDbEntity
  8
0
 62
0
370
-1
 48
1.0
  6
BYLAYER
100
AcDbLine
 10
52.5250189999999861
 20
111.8252339999999805
 30
0.0
 11
38.6249189999999771
 21
111.8252339999999805
 31
0.0
  0
LINE
  5
22A
100
AcDbEntity
  8
0
 62
0
370
-1
 48
1.0
  6
BYLAYER
100
AcDbLine
 10
38.6249189999999771
 20
111.8252339999999805
 30
0.0
 11
38.6249189999999771
 21
125.7252339999999862
 31
0.0
  0
LINE
  5
22B
100
AcDbEntity
  8
0
 62
0
370
-1
 48
1.0
  6
BYLAYER
100
AcDbLine
 10
10.0498289999999884
 20
125.7252339999999862
 30
0.0
 11
23.9501189999999724
 21
125.7252339999999862
 31
0.0
  0
LINE
  5
22C
100
AcDbEntity
  8
0
 62
0
370
-1
 48
1.0
  6
BYLAYER
100
AcDbLine
 10
23.9501189999999724
 20
125.7252339999999862
 30
0.0
 11
23.9501189999999724
 21
111.8252339999999805
 31
0.0
  0
LINE
  5
22D
100
AcDbEntity
  8
0
 62
0
370
-1
 48
1.0
  6
BYLAYER
100
AcDbLine
 10
23.9501189999999724
 20
111.8252339999999805
 30
0.0
 11
10.0498289999999884
 21
111.8252339999999805
 31
0.0
  0
LINE
  5
22E
100
AcDbEntity
  8
0
 62
0
370
-1
 48
1.0
  6
BYLAYER
100
AcDbLine
 10
10.0498289999999884
 20
111.8252339999999805
 30
0.0
 11
10.0498289999999884
 21
125.7252339999999862
 31
0.0
  0
CIRCLE
  5
22F
100
AcDbEntity
  8
0
 62
256
370
-1
 48
1.0
  6
BYLAYER
100
AcDbCircle
 10
3.9999999999999716
 20
130.2225059999999814
 30
0.0
 40
1.1000000000000001
  0
CIRCLE
  5
230
100
AcDbEntity
  8
0
 62
256
370
-1
 48
1.0
  6
BYLAYER
100
AcDbCircle
 10
3.9999999999999716
 20
4.0
 30
0.0
 40
1.1000000000000001
  0
CIRCLE
  5
231
100
AcDbEntity
  8
0
 62
256
370
-1
 48
1.0
  6
BYLAYER
100
AcDbCircle
 10
113.8750660000000039
 20
130.2225059999999814
 30
0.0
 40
1.1000000000000001
  0
CIRCLE
  5
232
100
AcDbEntity
  8
0
 62
256
370
-1
 48
1.0
  6
BYLAYER
100
AcDbCircle
 10
113.8750660000000039
 20
107.3277080000000012
 30
0.0
 40
1.1000000000000001
  0
CIRCLE
  5
233
100
AcDbEntity
  8
0
 62
256
370
-1
 48
1.0
  6
BYLAYER
100
AcDbCircle
 10
171.7812239999999804
 20
4.0
 30
0.0
 40
1.1000000000000001
  0
CIRCLE
  5
234
100
AcDbEntity
  8
0
 62
256
370
-1
 48
1.0
  6
BYLAYER
100
AcDbCircle
 10
339.5624480000000176
 20
4.0
 30
0.0
 40
1.1000000000000001
  0
CIRCLE
  5
235
100
AcDbEntity
  8
0
 62
256
370
-1
 48
1.0
  6
BYLAYER
100
AcDbCircle
 10
339.5624480000000176
 20
101.3277199999999993
 30
0.0
 40
1.1000000000000001
  0
CIRCLE
  5
236
100
AcDbEntity
  8
0
 62
256
370
-1
 48
1.0
  6
BYLAYER
100
AcDbCircle
 10
221.7341320000000451
 20
162.9999999999999716
 30
0.0
 40
1.1000000000000001
  0
CIRCLE
  5
237
100
AcDbEntity
  8
0
 62
256
370
-1
 48
1.0
  6
BYLAYER
100
AcDbCircle
 10
102.8672120000000234
 20
162.9999999999999716
 30
0.0
 40
1.1000000000000001
  0
CIRCLE
  5
238
100
AcDbEntity
  8
0
 62
256
370
-1
 48
1.0
  6
BYLAYER
100
AcDbCircle
 10
102.8672120000000234
 20
185.8947979999999518
 30
0.0
 40
1.1000000000000001
  0
CIRCLE
  5
239
100
AcDbEntity
  8
0
 62
256
370
-1
 48
1.0
  6
BYLAYER
100
AcDbCircle
 10
221.7341320000000451
 20
185.8947979999999518
 30
0.0
 40
1.1000000000000001
  0
CIRCLE
  5
23A
100
AcDbEntity
  8
0
 62
256
370
-1
 48
1.0
  6
BYLAYER
100
AcDbCircle
 10
3.0
 20
185.8947979999999518
 30
0.0
 40
1.1000000000000001
  0
CIRCLE
  5
23B
100
AcDbEntity
  8
0
 62
256
370
-1
 48
1.0
  6
BYLAYER
100
AcDbCircle
 10
3.0
 20
162.9999999999999716
 30
0.0
 40
1.1000000000000001
  0
LINE
  5
23C
100
AcDbEntity
  8
0
 62
256
370
-1
 48
1.0
  6
BYLAYER
100
AcDbLine
 10
117.8283159999999725
 20
104.3277080000000012
 30
0.0
 11
343.5624480000000176
 21
104.3277080000000012
 31
0.0
  0
LINE
  5
23D
100
AcDbEntity
  8
0
 62
256
370
-1
 48
1.0
  6
BYLAYER
100
AcDbLine
 10
117.8283159999999725
 20
104.3277080000000012
 30
0.0
 11
117.8283159999999725
 21
134.2225060000000099
 31
0.0
  0
LINE
  5
23E
100
AcDbEntity
  8
0
 62
256
370
-1
 48
1.0
  6
BYLAYER
100
AcDbLine
 10
225.7341320000000451
 20
160.0
 30
0.0
 11
0.0
 21
160.0
 31
0.0
  0
LINE
  5
23F
100
AcDbEntity
  8
0
 62
256
370
-1
 48
1.0
  6
BYLAYER
100
AcDbLine
 10
0.0
 20
189.8947979999999518
 30
0.0
 11
0.0
 21
160.0
 31
0.0
  0
ARC
  5
240
100
AcDbEntity
  8
0
 62
256
370
-1
 48
1.0
  6
BYLAYER
100
AcDbCircle
 10
2.9999999999999716
 20
131.2225060000000099
 30
0.0
 40
3.0
100
AcDbArc
 50
90.0
 51
180.0
  0
ARC
  5
241
100
AcDbEntity
  8
0
 62
256
370
-1
 48
1.0
  6
BYLAYER
100
AcDbCircle
 10
2.9999999999999716
 20
2.9999999999999982
 30
0.0
 40
3.0
100
AcDbArc
 50
180.0
 51
270.0000000000005116
  0
ARC
  5
242
100
AcDbEntity
  8
0
 62
256
370
-1
 48
1.0
  6
BYLAYER
100
AcDbCircle
 10
340.5624480000000176
 20
3.0000000000000036
 30
0.0
 40
3.0
100
AcDbArc
 50
270.0
 51
360.0
  0
ARC
  5
243
100
AcDbEntity
  8
0
 62
256
370
-1
 48
1.0
  6
BYLAYER
100
AcDbCircle
 10
222.7341320000000451
 20
186.8947979999999518
 30
0.0
 40
3.0
100
AcDbArc
 50
0.0
 51
89.9999999999994742
  0
MTEXT
  5
244
100
AcDbEntity
  8
anotacoes
 62
256
370
-1
 48
1.0
  6
BYLAYER
100
AcDbMText
 10
0.0000000000000113
 20
189.8947979999999518
 30
0.0
 40
5.0
 41
0.0
 71
7
 72
1
  1
Acr\U+00edlico 2mm transparente
  7
textstyle0
 50
0.0
 73
2
 44
1.0
  0
MTEXT
  5
245
100
AcDbEntity
  8
anotacoes
 62
256
370
-1
 48
1.0
  6
BYLAYER
100
AcDbMText
 10
-0.0000000000000289
 20
134.2225060000000099
 30
0.0
 40
5.0
 41
0.0
 71
7
 72
1
  1
Acr\U+00edlico 5mm opaco preto
  7
textstyle1
 50
0.0
 73
2
 44
1.0
  0
DIMENSION
  5
246
100
AcDbEntity
  8
medidas
 62
256
370
-1
 48
1.0
  6
BYLAYER
100
AcDbDimension
 10
-0.0000000000000284
 20
-10.0
 30
0.0
 11
171.7812240000000088
 21
-6.25
 31
0.0
 70
0
 71
8
 72
2
 74
0
 75
0
 41
1.0
 42
0.0
  1

  3
Standard
100
AcDbAlignedDimension
 13
-0.0000000000000284
 23
2.9999999999999982
 33
0.0
 14
343.5624480000000176
 24
3.0
 34
0.0
 50
0.0
100
AcDbRotatedDimension
1001
ACAD
1000
DSTYLE
1002
{
1070
144
1040
1.0
1070
40
1040
1.0
1002
}
  0
DIMENSION
  5
247
100
AcDbEntity
  8
medidas
 62
256
370
-1
 48
1.0
  6
BYLAYER
100
AcDbDimension
 10
-10.0
 20
0.0
 30
0.0
 11
-13.75
 21
67.1112530000000049
 31
0.0
 70
0
 71
8
 72
2
 74
0
 75
0
 41
1.0
 42
0.0
  1

  3
Standard
100
AcDbAlignedDimension
 13
3.0
 23
0.0
 33
0.0
 14
2.9999999999999716
 24
134.2225060000000099
 34
0.0
 50
90.0
100
AcDbRotatedDimension
1001
ACAD
1000
DSTYLE
1002
{
1070
144
1040
1.0
1070
40
1040
1.0
1002
}
  0
DIMENSION
  5
248
100
AcDbEntity
  8
medidas
 62
256
370
-1
 48
1.0
  6
BYLAYER
100
AcDbDimension
 10
0.0000000000000101
 20
150.0
 30
0.0
 11
112.8670660000000225
 21
153.7500000000000568
 31
0.0
 70
1
 71
8
 72
2
 74
0
 75
0
 41
1.0
 42
0.0
  1

  3
Standard
100
AcDbAlignedDimension
 13
0.0000000000000095
 23
160.0
 33
0.0
 14
225.7341320000000451
 24
160.0000000000001137
 34
0.0
1001
ACAD
1000
DSTYLE
1002
{
1070
144
1040
1.0
1070
40
1040
1.0
1002
}
  0
DIMENSION
  5
249
100
AcDbEntity
  8
medidas
 62
256
370
-1
 48
1.0
  6
BYLAYER
100
AcDbDimension
 10
-10.0000000000000018
 20
189.8947979999999518
 30
0.0
 11
-13.7500000000000036
 21
174.9473989999999617
 31
0.0
 70
1
 71
8
 72
2
 74
0
 75
0
 41
1.0
 42
0.0
  1

  3
Standard
100
AcDbAlignedDimension
 13
0.0000000000000113
 23
189.8947979999999518
 33
0.0
 14
0.0000000000000095
 24
160.0
 34
0.0
1001
ACAD
1000
DSTYLE
1002
{
1070
144
1040
1.0
1070
40
1040
1.0
1002
}
  0
ENDSEC
  0
SECTION
  2
OBJECTS
  0
DICTIONARY
  5
C
100
AcDbDictionary
280
0
281
1
  3
ACAD_GROUP
350
D
  3
ACAD_LAYOUT
350
1A
  3
ACAD_MLINESTYLE
350
17
  3
ACAD_PLOTSETTINGS
350
19
  3
ACAD_PLOTSTYLENAME
350
E
  3
AcDbVariableDictionary
350
24A
  3
QCAD_OBJECTS
350
24B
  0
DICTIONARY
  5
D
100
AcDbDictionary
280
0
281
1
  0
ACDBDICTIONARYWDFLT
  5
E
100
AcDbDictionary
281
1
  3
Normal
350
F
100
AcDbDictionaryWithDefault
340
F
  0
ACDBPLACEHOLDER
  5
F
  0
DICTIONARY
  5
17
100
AcDbDictionary
280
0
281
1
  3
Standard
350
18
  0
MLINESTYLE
  5
18
100
AcDbMlineStyle
  2
STANDARD
 70
0
  3

 62
256
 51
90.0
 52
90.0
 71
2
 49
0.5
 62
256
  6
BYLAYER
 49
-0.5
 62
256
  6
BYLAYER
  0
DICTIONARY
  5
19
100
AcDbDictionary
280
0
281
1
  0
DICTIONARY
  5
1A
100
AcDbDictionary
281
1
  3
Layout1
350
1E
  3
Layout2
350
26
  3
Model
350
22
  0
LAYOUT
  5
1E
100
AcDbPlotSettings
  1

  2
none_device
  4

  6

 40
0.0
 41
0.0
 42
0.0
 43
0.0
 44
0.0
 45
0.0
 46
0.0
 47
0.0
 48
0.0
 49
0.0
140
0.0
141
0.0
142
1.0
143
1.0
 70
688
 72
0
 73
0
 74
5
  7

 75
16
147
1.0
148
0.0
149
0.0
100
AcDbLayout
  1
Layout1
 70
1
 71
1
 10
0.0
 20
0.0
 11
420.0
 21
297.0
 12
0.0
 22
0.0
 32
0.0
 14
100000000000000000000.0
 24
100000000000000000000.0
 34
100000000000000000000.0
 15
-100000000000000000000.0
 25
-100000000000000000000.0
 35
-100000000000000000000.0
146
0.0
 13
0.0
 23
0.0
 33
0.0
 16
1.0
 26
0.0
 36
0.0
 17
0.0
 27
1.0
 37
0.0
 76
0
330
1B
  0
LAYOUT
  5
22
100
AcDbPlotSettings
  1

  2
none_device
  4

  6

 40
0.0
 41
0.0
 42
0.0
 43
0.0
 44
0.0
 45
0.0
 46
0.0
 47
0.0
 48
0.0
 49
0.0
140
0.0
141
0.0
142
1.0
143
1.0
 70
1712
 72
0
 73
0
 74
0
  7

 75
0
147
1.0
148
0.0
149
0.0
100
AcDbLayout
  1
Model
 70
1
 71
0
 10
0.0
 20
0.0
 11
12.0
 21
9.0
 12
0.0
 22
0.0
 32
0.0
 14
0.0
 24
0.0
 34
0.0
 15
0.0
 25
0.0
 35
0.0
146
0.0
 13
0.0
 23
0.0
 33
0.0
 16
1.0
 26
0.0
 36
0.0
 17
0.0
 27
1.0
 37
0.0
 76
0
330
1F
  0
LAYOUT
  5
26
100
AcDbPlotSettings
  1

  2
none_device
  4

  6

 40
0.0
 41
0.0
 42
0.0
 43
0.0
 44
0.0
 45
0.0
 46
0.0
 47
0.0
 48
0.0
 49
0.0
140
0.0
141
0.0
142
1.0
143
1.0
 70
688
 72
0
 73
0
 74
5
  7

 75
16
147
1.0
148
0.0
149
0.0
100
AcDbLayout
  1
Layout2
 70
1
 71
2
 10
0.0
 20
0.0
 11
12.0
 21
9.0
 12
0.0
 22
0.0
 32
0.0
 14
0.0
 24
0.0
 34
0.0
 15
0.0
 25
0.0
 35
0.0
146
0.0
 13
0.0
 23
0.0
 33
0.0
 16
1.0
 26
0.0
 36
0.0
 17
0.0
 27
1.0
 37
0.0
 76
0
330
23
  0
DICTIONARY
  5
24A
100
AcDbDictionary
281
1
  3
DIMASSOC
350
24D
  3
HIDETEXT
350
24C
  0
DICTIONARYVAR
  5
24C
100
DictionaryVariables
280
0
  1
2
  0
DICTIONARYVAR
  5
24D
100
DictionaryVariables
280
0
  1
1
  0
DICTIONARY
  5
24B
100
AcDbDictionary
281
1
  3
ColorSettings/BackgroundColor
350
24E
  3
ColorSettings/ColorMode
350
24F
  3
DimensionSettings/AngularFormat
350
250
  3
DimensionSettings/AngularPrecision
350
251
  3
DimensionSettings/DecimalPoint
350
252
  3
DimensionSettings/DimensionFont
350
253
  3
DimensionSettings/DimensionTextColor
350
254
  3
DimensionSettings/KeepProportions
350
255
  3
DimensionSettings/LinearFormat
350
256
  3
DimensionSettings/LinearPrecision
350
257
  3
Grid/DisplayGrid00
350
258
  3
Grid/DisplayGrid01
350
259
  3
Grid/DisplayGrid02
350
25A
  3
Grid/DisplayGrid03
350
25B
  3
Grid/GridSpacingX00
350
25C
  3
Grid/GridSpacingX01
350
25D
  3
Grid/GridSpacingX02
350
25E
  3
Grid/GridSpacingX03
350
25F
  3
Grid/GridSpacingY00
350
260
  3
Grid/GridSpacingY01
350
261
  3
Grid/GridSpacingY02
350
262
  3
Grid/GridSpacingY03
350
263
  3
Grid/IsometricGrid00
350
264
  3
Grid/IsometricGrid01
350
265
  3
Grid/IsometricGrid02
350
266
  3
Grid/IsometricGrid03
350
267
  3
Grid/IsometricProjection00
350
268
  3
Grid/IsometricProjection01
350
269
  3
Grid/IsometricProjection02
350
26A
  3
Grid/IsometricProjection03
350
26B
  3
Grid/MetaGridSpacingX00
350
26C
  3
Grid/MetaGridSpacingX01
350
26D
  3
Grid/MetaGridSpacingX02
350
26E
  3
Grid/MetaGridSpacingX03
350
26F
  3
Grid/MetaGridSpacingY00
350
270
  3
Grid/MetaGridSpacingY01
350
271
  3
Grid/MetaGridSpacingY02
350
272
  3
Grid/MetaGridSpacingY03
350
273
  3
MultiPageSettings/Columns
350
274
  3
MultiPageSettings/GlueMarginsBottom
350
275
  3
MultiPageSettings/GlueMarginsLeft
350
276
  3
MultiPageSettings/GlueMarginsRight
350
277
  3
MultiPageSettings/GlueMarginsTop
350
278
  3
MultiPageSettings/PrintCropMarks
350
279
  3
MultiPageSettings/Rows
350
27A
  3
PageSettings/OffsetX
350
27B
  3
PageSettings/OffsetY
350
27C
  3
PageSettings/PageOrientation
350
27D
  3
PageSettings/PaperHeight
350
27E
  3
PageSettings/PaperWidth
350
27F
  3
PageSettings/Scale
350
280
  3
PageSettings/ShowPaperBorders
350
281
  3
PageTagSettings/EnablePageTags
350
282
  3
PageTagSettings/TagAlignment
350
283
  3
PageTagSettings/TagFont
350
284
  3
PageTagSettings/TagPosition
350
285
  3
QCADVersion
350
286
  3
UnitSettings/PaperUnit
350
287
  3
ViewportCenter
350
288
  3
ViewportHeight
350
289
  3
ViewportWidth
350
28A
  0
XRECORD
  5
24E
330
24B
100
AcDbXrecord
280
1
1000
White
  0
XRECORD
  5
24F
330
24B
100
AcDbXrecord
280
1
1000
FullColor
  0
XRECORD
  5
250
330
24B
100
AcDbXrecord
280
1
 90
0
  0
XRECORD
  5
251
330
24B
100
AcDbXrecord
280
1
 90
0
  0
XRECORD
  5
252
330
24B
100
AcDbXrecord
280
1
 90
46
  0
XRECORD
  5
253
330
24B
100
AcDbXrecord
280
1
1000
Cantarell
  0
XRECORD
  5
254
330
24B
100
AcDbXrecord
280
1
1000
By Layer
  0
XRECORD
  5
255
330
24B
100
AcDbXrecord
280
1
290
1
  0
XRECORD
  5
256
330
24B
100
AcDbXrecord
280
1
 90
2
  0
XRECORD
  5
257
330
24B
100
AcDbXrecord
280
1
 90
4
  0
XRECORD
  5
258
330
24B
100
AcDbXrecord
280
1
290
1
  0
XRECORD
  5
259
330
24B
100
AcDbXrecord
280
1
290
1
  0
XRECORD
  5
25A
330
24B
100
AcDbXrecord
280
1
290
1
  0
XRECORD
  5
25B
330
24B
100
AcDbXrecord
280
1
290
1
  0
XRECORD
  5
25C
330
24B
100
AcDbXrecord
280
1
1000
auto
  0
XRECORD
  5
25D
330
24B
100
AcDbXrecord
280
1
1000
auto
  0
XRECORD
  5
25E
330
24B
100
AcDbXrecord
280
1
1000
auto
  0
XRECORD
  5
25F
330
24B
100
AcDbXrecord
280
1
1000
auto
  0
XRECORD
  5
260
330
24B
100
AcDbXrecord
280
1
1000
auto
  0
XRECORD
  5
261
330
24B
100
AcDbXrecord
280
1
1000
auto
  0
XRECORD
  5
262
330
24B
100
AcDbXrecord
280
1
1000
auto
  0
XRECORD
  5
263
330
24B
100
AcDbXrecord
280
1
1000
auto
  0
XRECORD
  5
264
330
24B
100
AcDbXrecord
280
1
290
0
  0
XRECORD
  5
265
330
24B
100
AcDbXrecord
280
1
290
0
  0
XRECORD
  5
266
330
24B
100
AcDbXrecord
280
1
290
0
  0
XRECORD
  5
267
330
24B
100
AcDbXrecord
280
1
290
0
  0
XRECORD
  5
268
330
24B
100
AcDbXrecord
280
1
 90
65537
  0
XRECORD
  5
269
330
24B
100
AcDbXrecord
280
1
 90
65537
  0
XRECORD
  5
26A
330
24B
100
AcDbXrecord
280
1
 90
65537
  0
XRECORD
  5
26B
330
24B
100
AcDbXrecord
280
1
 90
65537
  0
XRECORD
  5
26C
330
24B
100
AcDbXrecord
280
1
1000
auto
  0
XRECORD
  5
26D
330
24B
100
AcDbXrecord
280
1
1000
auto
  0
XRECORD
  5
26E
330
24B
100
AcDbXrecord
280
1
1000
auto
  0
XRECORD
  5
26F
330
24B
100
AcDbXrecord
280
1
1000
auto
  0
XRECORD
  5
270
330
24B
100
AcDbXrecord
280
1
1000
auto
  0
XRECORD
  5
271
330
24B
100
AcDbXrecord
280
1
1000
auto
  0
XRECORD
  5
272
330
24B
100
AcDbXrecord
280
1
1000
auto
  0
XRECORD
  5
273
330
24B
100
AcDbXrecord
280
1
1000
auto
  0
XRECORD
  5
274
330
24B
100
AcDbXrecord
280
1
 90
1
  0
XRECORD
  5
275
330
24B
100
AcDbXrecord
280
1
 40
10.0
  0
XRECORD
  5
276
330
24B
100
AcDbXrecord
280
1
 40
10.0
  0
XRECORD
  5
277
330
24B
100
AcDbXrecord
280
1
 40
10.0
  0
XRECORD
  5
278
330
24B
100
AcDbXrecord
280
1
 40
10.0
  0
XRECORD
  5
279
330
24B
100
AcDbXrecord
280
1
290
0
  0
XRECORD
  5
27A
330
24B
100
AcDbXrecord
280
1
 90
1
  0
XRECORD
  5
27B
330
24B
100
AcDbXrecord
280
1
 40
-29.2387976450216485
  0
XRECORD
  5
27C
330
24B
100
AcDbXrecord
280
1
 40
-44.2364217898659149
  0
XRECORD
  5
27D
330
24B
100
AcDbXrecord
280
1
1000
Landscape
  0
XRECORD
  5
27E
330
24B
100
AcDbXrecord
280
1
 40
297.0
  0
XRECORD
  5
27F
330
24B
100
AcDbXrecord
280
1
 40
210.0
  0
XRECORD
  5
280
330
24B
100
AcDbXrecord
280
1
1000
0.77
  0
XRECORD
  5
281
330
24B
100
AcDbXrecord
280
1
290
1
  0
XRECORD
  5
282
330
24B
100
AcDbXrecord
280
1
290
0
  0
XRECORD
  5
283
330
24B
100
AcDbXrecord
280
1
1000
Inside
  0
XRECORD
  5
284
330
24B
100
AcDbXrecord
280
1
1000
Arial,10,-1,5,50,0,0,0,0,0
  0
XRECORD
  5
285
330
24B
100
AcDbXrecord
280
1
1000
TopLeft
  0
XRECORD
  5
286
330
24B
100
AcDbXrecord
280
1
1000
3.26.1
  0
XRECORD
  5
287
330
24B
100
AcDbXrecord
280
1
 90
4
  0
XRECORD
  5
289
330
24B
100
AcDbXrecord
280
1
 40
280.5642633228840737
  0
XRECORD
  5
28A
330
24B
100
AcDbXrecord
280
1
 40
569.7492163009404749
  0
ENDSEC
  0
EOF
