<?xml version="1.0" encoding="UTF-8" standalone="no"?>
<svg
   xmlns:dc="http://purl.org/dc/elements/1.1/"
   xmlns:cc="http://creativecommons.org/ns#"
   xmlns:rdf="http://www.w3.org/1999/02/22-rdf-syntax-ns#"
   xmlns:svg="http://www.w3.org/2000/svg"
   xmlns="http://www.w3.org/2000/svg"
   xmlns:xlink="http://www.w3.org/1999/xlink"
   xmlns:sodipodi="http://sodipodi.sourceforge.net/DTD/sodipodi-0.dtd"
   xmlns:inkscape="http://www.inkscape.org/namespaces/inkscape"
   sodipodi:docname="key.svg"
   inkscape:version="1.0 (4035a4fb49, 2020-05-01)"
   id="svg8"
   version="1.1"
   viewBox="0 0 210 297"
   height="297mm"
   width="210mm">
  <defs
     id="defs2" />
  <sodipodi:namedview
     inkscape:object-paths="true"
     inkscape:window-maximized="0"
     inkscape:window-y="0"
     inkscape:window-x="0"
     inkscape:window-height="1080"
     inkscape:window-width="1920"
     inkscape:snap-object-midpoints="true"
     showgrid="false"
     inkscape:document-rotation="0"
     inkscape:current-layer="layer1"
     inkscape:document-units="mm"
     inkscape:cy="285.19368"
     inkscape:cx="246.78975"
     inkscape:zoom="5.6"
     inkscape:pageshadow="2"
     inkscape:pageopacity="0.0"
     borderopacity="1.0"
     bordercolor="#666666"
     pagecolor="#ffffff"
     id="base" />
  <metadata
     id="metadata5">
    <rdf:RDF>
      <cc:Work
         rdf:about="">
        <dc:format>image/svg+xml</dc:format>
        <dc:type
           rdf:resource="http://purl.org/dc/dcmitype/StillImage" />
        <dc:title></dc:title>
      </cc:Work>
    </rdf:RDF>
  </metadata>
  <g
     id="layer1"
     inkscape:groupmode="layer"
     inkscape:label="Layer 1">
    <g
       id="g1241">
      <g
         id="g1344">
        <rect
           style="fill:#cccccc;stroke:none;stroke-width:0.1;stroke-linecap:round;stroke-linejoin:round;stroke-miterlimit:4;stroke-dasharray:none;fill-opacity:1"
           id="rect1083"
           width="19"
           height="19"
           x="35.042526"
           y="51.143795" />
        <rect
           y="51.243797"
           x="35.142529"
           height="18.799999"
           width="18.799999"
           id="rect1337"
           style="fill:#ffffff;fill-opacity:1;stroke:none;stroke-width:0.1;stroke-linecap:round;stroke-linejoin:round;stroke-miterlimit:4;stroke-dasharray:none" />
      </g>
      <path
         sodipodi:nodetypes="ccc"
         id="path1085"
         d="m 42.057936,68.332167 -1.729398,-1.729395 -2.786014,-10e-7"
         style="fill:none;stroke:#008000;stroke-width:0.5;stroke-linecap:butt;stroke-linejoin:miter;stroke-miterlimit:4;stroke-dasharray:none;stroke-opacity:1" />
      <path
         style="fill:none;stroke:#008000;stroke-width:0.5;stroke-linecap:butt;stroke-linejoin:miter;stroke-miterlimit:4;stroke-dasharray:none;stroke-opacity:1"
         d="m 46.957938,65.032174 1.570595,1.570597 2.985587,0"
         id="path1087"
         sodipodi:nodetypes="ccc" />
      <rect
         style="fill:none;stroke:#cccccc;stroke-width:0.1;stroke-linecap:round;stroke-linejoin:round;stroke-miterlimit:4;stroke-dasharray:none"
         id="rect1089"
         width="14"
         height="14"
         x="37.542526"
         y="53.643795" />
      <circle
         r="2"
         cy="60.643795"
         cx="44.542526"
         id="circle1091"
         style="fill:#aa8800;stroke:none;stroke-width:0.1;stroke-linecap:round;stroke-linejoin:round;stroke-miterlimit:4;stroke-dasharray:none" />
      <circle
         r="1.5"
         style="fill:#aa8800;stroke:none;stroke-width:0.1;stroke-linecap:round;stroke-linejoin:round;stroke-miterlimit:4;stroke-dasharray:none"
         id="circle1093"
         cx="47.082527"
         cy="55.563793" />
      <circle
         cy="58.103794"
         cx="40.732525"
         id="circle1095"
         style="fill:#aa8800;stroke:none;stroke-width:0.1;stroke-linecap:round;stroke-linejoin:round;stroke-miterlimit:4;stroke-dasharray:none"
         r="1.5" />
      <path
         sodipodi:nodetypes="ccccc"
         d="m 49.357449,54.313723 v 2.500103 h 2.550232 v -2.500103 z"
         style="fill:#008000;stroke:none;stroke-width:0.1;stroke-linecap:round;stroke-linejoin:round;stroke-miterlimit:4;stroke-dasharray:none"
         id="path1097" />
      <path
         sodipodi:nodetypes="ccccc"
         id="path1099"
         style="fill:#008000;stroke:none;stroke-width:0.1;stroke-linecap:round;stroke-linejoin:round;stroke-miterlimit:4;stroke-dasharray:none"
         d="m 35.907411,56.853743 v 2.500104 h 2.550231 v -2.500104 z" />
      <rect
         y="64.582176"
         x="41.307938"
         height="0.89999998"
         width="1.5"
         id="rect1101"
         style="fill:#008000;stroke:none;stroke-width:0.1;stroke-linecap:round;stroke-linejoin:round;stroke-miterlimit:4;stroke-dasharray:none" />
      <rect
         style="fill:#008000;stroke:none;stroke-width:0.1;stroke-linecap:round;stroke-linejoin:round;stroke-miterlimit:4;stroke-dasharray:none"
         id="rect1103"
         width="1.5"
         height="0.89999998"
         x="46.207939"
         y="64.582176" />
      <rect
         style="fill:#008000;stroke:none;stroke-width:0.1;stroke-linecap:round;stroke-linejoin:round;stroke-miterlimit:4;stroke-dasharray:none"
         id="rect1105"
         width="1.5"
         height="0.89999998"
         x="41.307938"
         y="67.882172" />
      <rect
         y="67.882172"
         x="46.207939"
         height="0.89999998"
         width="1.5"
         id="rect1107"
         style="fill:#008000;stroke:none;stroke-width:0.1;stroke-linecap:round;stroke-linejoin:round;stroke-miterlimit:4;stroke-dasharray:none" />
      <path
         sodipodi:nodetypes="cccccc"
         id="path1109"
         d="m 51.51412,62.431976 h -4.61508 l -2.600197,2.600197 H 42.057936 L 39.45774,62.431976 h -1.915216"
         style="fill:none;stroke:#008000;stroke-width:0.5;stroke-linecap:butt;stroke-linejoin:miter;stroke-miterlimit:4;stroke-dasharray:none;stroke-opacity:1" />
      <rect
         y="64.182175"
         x="42.007938"
         height="5"
         width="5"
         id="rect1111"
         style="fill:none;stroke:#000000;stroke-width:0.1;stroke-linecap:round;stroke-linejoin:bevel;stroke-miterlimit:4;stroke-dasharray:none" />
      <path
         sodipodi:nodetypes="cc"
         d="M 47.007722,68.502004 46.32766,69.182065"
         style="fill:none;stroke:#000000;stroke-width:0.1;stroke-linecap:butt;stroke-linejoin:miter;stroke-miterlimit:4;stroke-dasharray:none;stroke-opacity:1"
         id="path1113" />
      <text
         id="text1117"
         y="65.546532"
         x="42.736431"
         style="font-style:normal;font-weight:normal;font-size:1.41111px;line-height:1.25;font-family:sans-serif;fill:#000000;fill-opacity:1;stroke:none;stroke-width:0.264583"
         xml:space="preserve"><tspan
           style="font-size:1.41111px;stroke-width:0.264583"
           y="65.546532"
           x="42.736431"
           id="tspan1115"
           sodipodi:role="line">1</tspan></text>
      <text
         xml:space="preserve"
         style="font-style:normal;font-weight:normal;font-size:1.41111px;line-height:1.25;font-family:sans-serif;fill:#000000;fill-opacity:1;stroke:none;stroke-width:0.264583"
         x="42.736431"
         y="68.846527"
         id="text1121"><tspan
           sodipodi:role="line"
           id="tspan1119"
           x="42.736431"
           y="68.846527"
           style="font-size:1.41111px;stroke-width:0.264583">2</tspan></text>
      <text
         xml:space="preserve"
         style="font-style:normal;font-weight:normal;font-size:1.41111px;line-height:1.25;font-family:sans-serif;fill:#000000;fill-opacity:1;stroke:none;stroke-width:0.264583"
         x="45.35685"
         y="65.546532"
         id="text1125"><tspan
           sodipodi:role="line"
           id="tspan1123"
           x="45.35685"
           y="65.546532"
           style="font-size:1.41111px;stroke-width:0.264583">4</tspan></text>
      <text
         id="text1129"
         y="68.846527"
         x="45.35685"
         style="font-style:normal;font-weight:normal;font-size:1.41111px;line-height:1.25;font-family:sans-serif;fill:#000000;fill-opacity:1;stroke:none;stroke-width:0.264583"
         xml:space="preserve"><tspan
           style="font-size:1.41111px;stroke-width:0.264583"
           y="68.846527"
           x="45.35685"
           id="tspan1127"
           sodipodi:role="line">3</tspan></text>
      <path
         id="path1131"
         style="fill:#aa8800;stroke:none;stroke-width:0.1;stroke-linecap:round;stroke-linejoin:round;stroke-miterlimit:4;stroke-dasharray:none"
         d="m 51.500168,61.43205 a 1,1 0 0 0 -0.985986,0.999939 1,1 0 0 0 0.999937,0.999938 1,1 0 0 0 0.99994,-0.999938 1,1 0 0 0 -0.99994,-0.999939 1,1 0 0 0 -0.01395,0 z m 0.01395,0.500226 a 0.5,0.5 0 0 1 0.499713,0.499713 0.5,0.5 0 0 1 -0.499713,0.500227 0.5,0.5 0 0 1 -0.500226,-0.500227 0.5,0.5 0 0 1 0.500226,-0.499713 z" />
      <path
         d="m 51.500168,65.602845 a 1,1 0 0 0 -0.985986,0.999939 1,1 0 0 0 0.999937,0.999938 1,1 0 0 0 0.99994,-0.999938 1,1 0 0 0 -0.99994,-0.999939 1,1 0 0 0 -0.01395,0 z m 0.01395,0.500226 a 0.5,0.5 0 0 1 0.499713,0.499713 0.5,0.5 0 0 1 -0.499713,0.500227 0.5,0.5 0 0 1 -0.500226,-0.500227 0.5,0.5 0 0 1 0.500226,-0.499713 z"
         style="fill:#aa8800;stroke:none;stroke-width:0.1;stroke-linecap:round;stroke-linejoin:round;stroke-miterlimit:4;stroke-dasharray:none"
         id="path1133" />
      <path
         id="path1135"
         style="fill:#aa8800;stroke:none;stroke-width:0.1;stroke-linecap:round;stroke-linejoin:round;stroke-miterlimit:4;stroke-dasharray:none"
         d="m 37.528572,65.602845 a 1,1 0 0 0 -0.985986,0.999939 1,1 0 0 0 0.999937,0.999938 1,1 0 0 0 0.99994,-0.999938 1,1 0 0 0 -0.99994,-0.999939 1,1 0 0 0 -0.01395,0 z m 0.01395,0.500226 a 0.5,0.5 0 0 1 0.499713,0.499713 0.5,0.5 0 0 1 -0.499713,0.500227 0.5,0.5 0 0 1 -0.500226,-0.500227 0.5,0.5 0 0 1 0.500226,-0.499713 z" />
      <text
         id="text1139"
         y="60.955967"
         x="50.078896"
         style="font-style:normal;font-weight:normal;font-size:1.41111px;line-height:1.25;font-family:sans-serif;fill:#000000;fill-opacity:1;stroke:none;stroke-width:0.264583"
         xml:space="preserve"><tspan
           style="font-size:1.41111px;stroke-width:0.264583"
           y="60.955967"
           x="50.078896"
           id="tspan1137"
           sodipodi:role="line">VCC</tspan></text>
      <text
         xml:space="preserve"
         style="font-style:normal;font-weight:normal;font-size:1.41111px;line-height:1.25;font-family:sans-serif;fill:#000000;fill-opacity:1;stroke:none;stroke-width:0.264583"
         x="35.425171"
         y="65.290703"
         id="text1143"><tspan
           sodipodi:role="line"
           id="tspan1141"
           x="35.425171"
           y="65.290703"
           style="font-size:1.41111px;stroke-width:0.264583">DOUT</tspan></text>
      <text
         xml:space="preserve"
         style="font-style:normal;font-weight:normal;font-size:1.41111px;line-height:1.25;font-family:sans-serif;fill:#000000;fill-opacity:1;stroke:none;stroke-width:0.264583"
         x="50.234959"
         y="65.291389"
         id="text1147"><tspan
           sodipodi:role="line"
           id="tspan1145"
           x="50.234959"
           y="65.291389"
           style="font-size:1.41111px;stroke-width:0.264583">DIN</tspan></text>
      <g
         transform="rotate(-90,36.950015,63.767438)"
         id="g1159">
        <path
           id="path1149"
           style="fill:#aa8800;stroke:none;stroke-width:0.1;stroke-linecap:round;stroke-linejoin:round;stroke-miterlimit:4;stroke-dasharray:none"
           d="m 47.059704,63.000024 a 1,1 0 0 0 -0.985986,0.999939 1,1 0 0 0 0.999937,0.999938 1,1 0 0 0 0.99994,-0.999938 1,1 0 0 0 -0.99994,-0.999939 1,1 0 0 0 -0.01395,0 z m 0.01395,0.500226 a 0.5,0.5 0 0 1 0.499713,0.499713 0.5,0.5 0 0 1 -0.499713,0.500227 0.5,0.5 0 0 1 -0.500226,-0.500227 0.5,0.5 0 0 1 0.500226,-0.499713 z" />
        <path
           d="m 47.059704,68.000024 a 1,1 0 0 0 -0.985986,0.999939 1,1 0 0 0 0.999937,0.999938 1,1 0 0 0 0.99994,-0.999938 1,1 0 0 0 -0.99994,-0.999939 1,1 0 0 0 -0.01395,0 z m 0.01395,0.500226 a 0.5,0.5 0 0 1 0.499713,0.499713 0.5,0.5 0 0 1 -0.499713,0.500227 0.5,0.5 0 0 1 -0.500226,-0.500227 0.5,0.5 0 0 1 0.500226,-0.499713 z"
           style="fill:#aa8800;stroke:none;stroke-width:0.1;stroke-linecap:round;stroke-linejoin:round;stroke-miterlimit:4;stroke-dasharray:none"
           id="path1151" />
        <g
           id="g1157"
           transform="matrix(1,0,0,-1,-0.08188494,133.12877)">
          <path
             id="path1153"
             d="m 46.375041,66.051855 h 1.561"
             style="fill:none;stroke:#000000;stroke-width:0.264583px;stroke-linecap:butt;stroke-linejoin:miter;stroke-opacity:1" />
          <path
             sodipodi:nodetypes="cccc"
             d="M 47.82165,67.20579 47.15554,66.051855 46.489433,67.20579 Z"
             style="fill:none;stroke:#000000;stroke-width:0.264583px;stroke-linecap:butt;stroke-linejoin:bevel;stroke-opacity:1"
             id="path1155" />
        </g>
      </g>
      <path
         d="m 37.528572,61.43205 a 1,1 0 0 0 -0.985986,0.999939 1,1 0 0 0 0.999937,0.999938 1,1 0 0 0 0.99994,-0.999938 1,1 0 0 0 -0.99994,-0.999939 1,1 0 0 0 -0.01395,0 z m 0.01395,0.500226 a 0.5,0.5 0 0 1 0.499713,0.499713 0.5,0.5 0 0 1 -0.499713,0.500227 0.5,0.5 0 0 1 -0.500226,-0.500227 0.5,0.5 0 0 1 0.500226,-0.499713 z"
         style="fill:#aa8800;stroke:none;stroke-width:0.1;stroke-linecap:round;stroke-linejoin:round;stroke-miterlimit:4;stroke-dasharray:none"
         id="path1329" />
      <text
         xml:space="preserve"
         style="font-style:normal;font-weight:normal;font-size:1.41111px;line-height:1.25;font-family:sans-serif;fill:#000000;fill-opacity:1;stroke:none;stroke-width:0.264583"
         x="36.1073"
         y="60.955967"
         id="text1333"><tspan
           sodipodi:role="line"
           id="tspan1331"
           x="36.1073"
           y="60.955967"
           style="font-size:1.41111px;stroke-width:0.264583">VCC</tspan></text>
    </g>
    <use
       height="100%"
       width="100%"
       transform="translate(19)"
       id="use1323"
       xlink:href="#g1241"
       y="0"
       x="0" />
  </g>
</svg>
