%TF.GenerationSoftware,KiCad,Pcbnew,5.1.8*%
%TF.CreationDate,2021-03-07T21:10:39-03:00*%
%TF.ProjectId,undiscipline-noled,756e6469-7363-4697-906c-696e652d6e6f,rev?*%
%TF.SameCoordinates,Original*%
%TF.FileFunction,Soldermask,Top*%
%TF.FilePolarity,Negative*%
%FSLAX46Y46*%
G04 Gerber Fmt 4.6, Leading zero omitted, Abs format (unit mm)*
G04 Created by KiCad (PCBNEW 5.1.8) date 2021-03-07 21:10:39*
%MOMM*%
%LPD*%
G01*
G04 APERTURE LIST*
%ADD10C,4.000000*%
%ADD11C,3.000000*%
%ADD12C,3.800000*%
%ADD13C,2.600000*%
%ADD14O,1.400000X1.400000*%
%ADD15C,1.400000*%
%ADD16O,1.600000X1.600000*%
%ADD17R,1.600000X1.600000*%
%ADD18R,1.700000X1.700000*%
%ADD19C,1.524000*%
%ADD20C,1.500000*%
%ADD21C,2.200000*%
%ADD22O,2.000000X2.000000*%
%ADD23R,2.000000X2.000000*%
%ADD24C,2.000000*%
%ADD25C,1.600000*%
G04 APERTURE END LIST*
D10*
%TO.C,SW75*%
X360750000Y-178750000D03*
D11*
X363290000Y-173670000D03*
X356940000Y-176210000D03*
%TD*%
D10*
%TO.C,SW74*%
X341750000Y-178750000D03*
D11*
X344290000Y-173670000D03*
X337940000Y-176210000D03*
%TD*%
D10*
%TO.C,SW73*%
X322750000Y-178750000D03*
D11*
X325290000Y-173670000D03*
X318940000Y-176210000D03*
%TD*%
D10*
%TO.C,SW72*%
X291875000Y-174000000D03*
D11*
X294415000Y-168920000D03*
X288065000Y-171460000D03*
%TD*%
D10*
%TO.C,SW71*%
X268125000Y-174000000D03*
D11*
X270665000Y-168920000D03*
X264315000Y-171460000D03*
%TD*%
D10*
%TO.C,SW70*%
X196875000Y-174000000D03*
D11*
X199415000Y-168920000D03*
X193065000Y-171460000D03*
%TD*%
D10*
%TO.C,SW69*%
X125625000Y-174000000D03*
D11*
X128165000Y-168920000D03*
X121815000Y-171460000D03*
%TD*%
D10*
%TO.C,SW68*%
X101875000Y-174000000D03*
D11*
X104415000Y-168920000D03*
X98065000Y-171460000D03*
%TD*%
D10*
%TO.C,SW67*%
X78125000Y-174000000D03*
D11*
X80665000Y-168920000D03*
X74315000Y-171460000D03*
%TD*%
D10*
%TO.C,SW66*%
X54375000Y-174000000D03*
D11*
X56915000Y-168920000D03*
X50565000Y-171460000D03*
%TD*%
D10*
%TO.C,SW65*%
X341750000Y-159750000D03*
D11*
X344290000Y-154670000D03*
X337940000Y-157210000D03*
%TD*%
D10*
%TO.C,SW64*%
X301375000Y-155000000D03*
D11*
X303915000Y-149920000D03*
X297565000Y-152460000D03*
%TD*%
D10*
%TO.C,SW63*%
X265750000Y-155000000D03*
D11*
X268290000Y-149920000D03*
X261940000Y-152460000D03*
%TD*%
D10*
%TO.C,SW62*%
X246750000Y-155000000D03*
D11*
X249290000Y-149920000D03*
X242940000Y-152460000D03*
%TD*%
D10*
%TO.C,SW61*%
X227750000Y-155000000D03*
D11*
X230290000Y-149920000D03*
X223940000Y-152460000D03*
%TD*%
D10*
%TO.C,SW60*%
X208750000Y-155000000D03*
D11*
X211290000Y-149920000D03*
X204940000Y-152460000D03*
%TD*%
D10*
%TO.C,SW59*%
X189750000Y-155000000D03*
D11*
X192290000Y-149920000D03*
X185940000Y-152460000D03*
%TD*%
D10*
%TO.C,SW58*%
X170750000Y-155000000D03*
D11*
X173290000Y-149920000D03*
X166940000Y-152460000D03*
%TD*%
D10*
%TO.C,SW57*%
X151750000Y-155000000D03*
D11*
X154290000Y-149920000D03*
X147940000Y-152460000D03*
%TD*%
D10*
%TO.C,SW56*%
X132750000Y-155000000D03*
D11*
X135290000Y-149920000D03*
X128940000Y-152460000D03*
%TD*%
D10*
%TO.C,SW55*%
X113750000Y-155000000D03*
D11*
X116290000Y-149920000D03*
X109940000Y-152460000D03*
%TD*%
D10*
%TO.C,SW54*%
X94750000Y-155000000D03*
D11*
X97290000Y-149920000D03*
X90940000Y-152460000D03*
%TD*%
D10*
%TO.C,SW53*%
X63875000Y-155000000D03*
D11*
X66415000Y-149920000D03*
X60065000Y-152460000D03*
%TD*%
D10*
%TO.C,SW52*%
X360750000Y-136000000D03*
D11*
X363290000Y-130920000D03*
X356940000Y-133460000D03*
%TD*%
D10*
%TO.C,SW51*%
X341750000Y-136000000D03*
D11*
X344290000Y-130920000D03*
X337940000Y-133460000D03*
%TD*%
D10*
%TO.C,SW50*%
X306125000Y-136000000D03*
D11*
X308665000Y-130920000D03*
X302315000Y-133460000D03*
%TD*%
D10*
%TO.C,SW49*%
X275250000Y-136000000D03*
D11*
X277790000Y-130920000D03*
X271440000Y-133460000D03*
%TD*%
D10*
%TO.C,SW48*%
X256250000Y-136000000D03*
D11*
X258790000Y-130920000D03*
X252440000Y-133460000D03*
%TD*%
D10*
%TO.C,SW47*%
X237250000Y-136000000D03*
D11*
X239790000Y-130920000D03*
X233440000Y-133460000D03*
%TD*%
D10*
%TO.C,SW46*%
X218250000Y-136000000D03*
D11*
X220790000Y-130920000D03*
X214440000Y-133460000D03*
%TD*%
D10*
%TO.C,SW45*%
X199250000Y-136000000D03*
D11*
X201790000Y-130920000D03*
X195440000Y-133460000D03*
%TD*%
D10*
%TO.C,SW44*%
X180250000Y-136000000D03*
D11*
X182790000Y-130920000D03*
X176440000Y-133460000D03*
%TD*%
D10*
%TO.C,SW43*%
X161250000Y-136000000D03*
D11*
X163790000Y-130920000D03*
X157440000Y-133460000D03*
%TD*%
D10*
%TO.C,SW42*%
X142250000Y-136000000D03*
D11*
X144790000Y-130920000D03*
X138440000Y-133460000D03*
%TD*%
D10*
%TO.C,SW41*%
X123250000Y-136000000D03*
D11*
X125790000Y-130920000D03*
X119440000Y-133460000D03*
%TD*%
D10*
%TO.C,SW40*%
X104250000Y-136000000D03*
D11*
X106790000Y-130920000D03*
X100440000Y-133460000D03*
%TD*%
D10*
%TO.C,SW39*%
X85250000Y-136000000D03*
D11*
X87790000Y-130920000D03*
X81440000Y-133460000D03*
%TD*%
D10*
%TO.C,SW38*%
X59125000Y-136000000D03*
D11*
X61665000Y-130920000D03*
X55315000Y-133460000D03*
%TD*%
D10*
%TO.C,SW37*%
X360750000Y-117000000D03*
D11*
X363290000Y-111920000D03*
X356940000Y-114460000D03*
%TD*%
D10*
%TO.C,SW36*%
X341750000Y-117000000D03*
D11*
X344290000Y-111920000D03*
X337940000Y-114460000D03*
%TD*%
D10*
%TO.C,SW35*%
X313250000Y-117000000D03*
D11*
X315790000Y-111920000D03*
X309440000Y-114460000D03*
%TD*%
D10*
%TO.C,SW34*%
X289500000Y-117000000D03*
D11*
X292040000Y-111920000D03*
X285690000Y-114460000D03*
%TD*%
D10*
%TO.C,SW33*%
X270500000Y-117000000D03*
D11*
X273040000Y-111920000D03*
X266690000Y-114460000D03*
%TD*%
D10*
%TO.C,SW32*%
X251500000Y-117000000D03*
D11*
X254040000Y-111920000D03*
X247690000Y-114460000D03*
%TD*%
D10*
%TO.C,SW31*%
X232500000Y-117000000D03*
D11*
X235040000Y-111920000D03*
X228690000Y-114460000D03*
%TD*%
D10*
%TO.C,SW30*%
X213500000Y-117000000D03*
D11*
X216040000Y-111920000D03*
X209690000Y-114460000D03*
%TD*%
D10*
%TO.C,SW29*%
X194500000Y-117000000D03*
D11*
X197040000Y-111920000D03*
X190690000Y-114460000D03*
%TD*%
D10*
%TO.C,SW28*%
X175500000Y-117000000D03*
D11*
X178040000Y-111920000D03*
X171690000Y-114460000D03*
%TD*%
D10*
%TO.C,SW27*%
X156500000Y-117000000D03*
D11*
X159040000Y-111920000D03*
X152690000Y-114460000D03*
%TD*%
D10*
%TO.C,SW26*%
X137500000Y-117000000D03*
D11*
X140040000Y-111920000D03*
X133690000Y-114460000D03*
%TD*%
D10*
%TO.C,SW25*%
X118500000Y-117000000D03*
D11*
X121040000Y-111920000D03*
X114690000Y-114460000D03*
%TD*%
D10*
%TO.C,SW24*%
X99500000Y-117000000D03*
D11*
X102040000Y-111920000D03*
X95690000Y-114460000D03*
%TD*%
D10*
%TO.C,SW23*%
X80500000Y-117000000D03*
D11*
X83040000Y-111920000D03*
X76690000Y-114460000D03*
%TD*%
D10*
%TO.C,SW22*%
X56750000Y-117000000D03*
D11*
X59290000Y-111920000D03*
X52940000Y-114460000D03*
%TD*%
D10*
%TO.C,SW21*%
X360750000Y-98000000D03*
D11*
X363290000Y-92920000D03*
X356940000Y-95460000D03*
%TD*%
D10*
%TO.C,SW20*%
X341750000Y-98000000D03*
D11*
X344290000Y-92920000D03*
X337940000Y-95460000D03*
%TD*%
D10*
%TO.C,SW19*%
X308500000Y-98000000D03*
D11*
X311040000Y-92920000D03*
X304690000Y-95460000D03*
%TD*%
D10*
%TO.C,SW18*%
X280000000Y-98000000D03*
D11*
X282540000Y-92920000D03*
X276190000Y-95460000D03*
%TD*%
D10*
%TO.C,SW17*%
X261000000Y-98000000D03*
D11*
X263540000Y-92920000D03*
X257190000Y-95460000D03*
%TD*%
D10*
%TO.C,SW16*%
X242000000Y-98000000D03*
D11*
X244540000Y-92920000D03*
X238190000Y-95460000D03*
%TD*%
D10*
%TO.C,SW15*%
X223000000Y-98000000D03*
D11*
X225540000Y-92920000D03*
X219190000Y-95460000D03*
%TD*%
D10*
%TO.C,SW14*%
X204000000Y-98000000D03*
D11*
X206540000Y-92920000D03*
X200190000Y-95460000D03*
%TD*%
D10*
%TO.C,SW13*%
X185000000Y-98000000D03*
D11*
X187540000Y-92920000D03*
X181190000Y-95460000D03*
%TD*%
D10*
%TO.C,SW12*%
X166000000Y-98000000D03*
D11*
X168540000Y-92920000D03*
X162190000Y-95460000D03*
%TD*%
D10*
%TO.C,SW11*%
X147000000Y-98000000D03*
D11*
X149540000Y-92920000D03*
X143190000Y-95460000D03*
%TD*%
D10*
%TO.C,SW10*%
X128000000Y-98000000D03*
D11*
X130540000Y-92920000D03*
X124190000Y-95460000D03*
%TD*%
D10*
%TO.C,SW9*%
X109000000Y-98000000D03*
D11*
X111540000Y-92920000D03*
X105190000Y-95460000D03*
%TD*%
D10*
%TO.C,SW8*%
X90000000Y-98000000D03*
D11*
X92540000Y-92920000D03*
X86190000Y-95460000D03*
%TD*%
D10*
%TO.C,SW7*%
X71000000Y-98000000D03*
D11*
X73540000Y-92920000D03*
X67190000Y-95460000D03*
%TD*%
D10*
%TO.C,SW6*%
X52000000Y-98000000D03*
D11*
X54540000Y-92920000D03*
X48190000Y-95460000D03*
%TD*%
D10*
%TO.C,SW5*%
X137500000Y-74250000D03*
D11*
X140040000Y-69170000D03*
X133690000Y-71710000D03*
%TD*%
D10*
%TO.C,SW4*%
X118500000Y-74250000D03*
D11*
X121040000Y-69170000D03*
X114690000Y-71710000D03*
%TD*%
D10*
%TO.C,SW3*%
X99500000Y-74250000D03*
D11*
X102040000Y-69170000D03*
X95690000Y-71710000D03*
%TD*%
D10*
%TO.C,SW2*%
X80500000Y-74250000D03*
D11*
X83040000Y-69170000D03*
X76690000Y-71710000D03*
%TD*%
D10*
%TO.C,SW1*%
X52000000Y-74250000D03*
D11*
X54540000Y-69170000D03*
X48190000Y-71710000D03*
%TD*%
D12*
%TO.C,H11*%
X251546666Y-63230000D03*
D13*
X251546666Y-63230000D03*
%TD*%
D12*
%TO.C,H10*%
X251546666Y-86125000D03*
D13*
X251546666Y-86125000D03*
%TD*%
D14*
%TO.C,R4*%
X304480000Y-63453000D03*
D15*
X299400000Y-63453000D03*
%TD*%
D12*
%TO.C,H9*%
X209000000Y-168000000D03*
D13*
X209000000Y-168000000D03*
%TD*%
D12*
%TO.C,H8*%
X371770000Y-189770000D03*
D13*
X371770000Y-189770000D03*
%TD*%
D12*
%TO.C,H7*%
X157453333Y-86125000D03*
D13*
X157453333Y-86125000D03*
%TD*%
D12*
%TO.C,H6*%
X371830000Y-86065000D03*
D13*
X371830000Y-86065000D03*
%TD*%
D12*
%TO.C,H5*%
X371830000Y-63230000D03*
D13*
X371830000Y-63230000D03*
%TD*%
D12*
%TO.C,H4*%
X40980000Y-86125000D03*
D13*
X40980000Y-86125000D03*
%TD*%
D12*
%TO.C,H3*%
X157453333Y-63230000D03*
D13*
X157453333Y-63230000D03*
%TD*%
D12*
%TO.C,H2*%
X40980000Y-63230000D03*
D13*
X40980000Y-63230000D03*
%TD*%
D12*
%TO.C,H1*%
X40980000Y-189770000D03*
D13*
X40980000Y-189770000D03*
%TD*%
D16*
%TO.C,U1*%
X316500000Y-64560000D03*
X364760000Y-79800000D03*
X319040000Y-64560000D03*
X362220000Y-79800000D03*
X321580000Y-64560000D03*
X359680000Y-79800000D03*
X324120000Y-64560000D03*
X357140000Y-79800000D03*
X326660000Y-64560000D03*
X354600000Y-79800000D03*
X329200000Y-64560000D03*
X352060000Y-79800000D03*
X331740000Y-64560000D03*
X349520000Y-79800000D03*
X334280000Y-64560000D03*
X346980000Y-79800000D03*
X336820000Y-64560000D03*
X344440000Y-79800000D03*
X339360000Y-64560000D03*
X341900000Y-79800000D03*
X341900000Y-64560000D03*
X339360000Y-79800000D03*
X344440000Y-64560000D03*
X336820000Y-79800000D03*
X346980000Y-64560000D03*
X334280000Y-79800000D03*
X349520000Y-64560000D03*
X331740000Y-79800000D03*
X352060000Y-64560000D03*
X329200000Y-79800000D03*
X354600000Y-64560000D03*
X326660000Y-79800000D03*
X357140000Y-64560000D03*
X324120000Y-79800000D03*
X359680000Y-64560000D03*
X321580000Y-79800000D03*
X362220000Y-64560000D03*
X319040000Y-79800000D03*
X364760000Y-64560000D03*
D17*
X316500000Y-79800000D03*
%TD*%
D11*
%TO.C,J2*%
X284150000Y-69050000D03*
X293150000Y-69050000D03*
D18*
X294200000Y-65730000D03*
X283100000Y-65730000D03*
D19*
X293730000Y-73860000D03*
X291190000Y-73860000D03*
X288650000Y-73860000D03*
X286110000Y-73860000D03*
X283570000Y-73860000D03*
%TD*%
D20*
%TO.C,Y1*%
X343620000Y-84856000D03*
X348500000Y-84856000D03*
%TD*%
D21*
%TO.C,REF\u002A\u002A*%
X73380000Y-164500000D03*
%TD*%
%TO.C,REF\u002A\u002A*%
X315450000Y-107600000D03*
%TD*%
%TO.C,REF\u002A\u002A*%
X210900000Y-107600000D03*
%TD*%
%TO.C,REF\u002A\u002A*%
X96900000Y-107600000D03*
%TD*%
D22*
%TO.C,D5*%
X129300000Y-76170000D03*
D23*
X129300000Y-81250000D03*
%TD*%
D22*
%TO.C,D4*%
X110300000Y-76170000D03*
D23*
X110300000Y-81250000D03*
%TD*%
D22*
%TO.C,D3*%
X91300000Y-76170000D03*
D23*
X91300000Y-81250000D03*
%TD*%
D22*
%TO.C,D2*%
X72300000Y-76170000D03*
D23*
X72300000Y-81250000D03*
%TD*%
D22*
%TO.C,D1*%
X43800000Y-76170000D03*
D23*
X43800000Y-81250000D03*
%TD*%
D22*
%TO.C,D75*%
X352550000Y-180970000D03*
D23*
X352550000Y-186050000D03*
%TD*%
D22*
%TO.C,D74*%
X333550000Y-180970000D03*
D23*
X333550000Y-186050000D03*
%TD*%
D22*
%TO.C,D73*%
X314550000Y-180970000D03*
D23*
X314550000Y-186050000D03*
%TD*%
D22*
%TO.C,D72*%
X283675000Y-175920000D03*
D23*
X283675000Y-181000000D03*
%TD*%
D22*
%TO.C,D71*%
X259925000Y-175920000D03*
D23*
X259925000Y-181000000D03*
%TD*%
D22*
%TO.C,D70*%
X188675000Y-175920000D03*
D23*
X188675000Y-181000000D03*
%TD*%
D22*
%TO.C,D69*%
X117425000Y-175920000D03*
D23*
X117425000Y-181000000D03*
%TD*%
D22*
%TO.C,D68*%
X93675000Y-175920000D03*
D23*
X93675000Y-181000000D03*
%TD*%
D22*
%TO.C,D67*%
X69925000Y-175920000D03*
D23*
X69925000Y-181000000D03*
%TD*%
D22*
%TO.C,D66*%
X46175000Y-175920000D03*
D23*
X46175000Y-181000000D03*
%TD*%
D22*
%TO.C,D65*%
X333550000Y-161970000D03*
D23*
X333550000Y-167050000D03*
%TD*%
D22*
%TO.C,D64*%
X293175000Y-156920000D03*
D23*
X293175000Y-162000000D03*
%TD*%
D22*
%TO.C,D63*%
X257550000Y-156920000D03*
D23*
X257550000Y-162000000D03*
%TD*%
D22*
%TO.C,D62*%
X238550000Y-156920000D03*
D23*
X238550000Y-162000000D03*
%TD*%
D22*
%TO.C,D61*%
X219550000Y-156920000D03*
D23*
X219550000Y-162000000D03*
%TD*%
D22*
%TO.C,D60*%
X200550000Y-156920000D03*
D23*
X200550000Y-162000000D03*
%TD*%
D22*
%TO.C,D59*%
X181550000Y-156920000D03*
D23*
X181550000Y-162000000D03*
%TD*%
D22*
%TO.C,D58*%
X162550000Y-156920000D03*
D23*
X162550000Y-162000000D03*
%TD*%
D22*
%TO.C,D57*%
X143550000Y-156920000D03*
D23*
X143550000Y-162000000D03*
%TD*%
D22*
%TO.C,D56*%
X124550000Y-156920000D03*
D23*
X124550000Y-162000000D03*
%TD*%
D22*
%TO.C,D55*%
X105550000Y-156920000D03*
D23*
X105550000Y-162000000D03*
%TD*%
D22*
%TO.C,D54*%
X86550000Y-156920000D03*
D23*
X86550000Y-162000000D03*
%TD*%
D22*
%TO.C,D53*%
X55675000Y-156920000D03*
D23*
X55675000Y-162000000D03*
%TD*%
D22*
%TO.C,D52*%
X352550000Y-137920000D03*
D23*
X352550000Y-143000000D03*
%TD*%
D22*
%TO.C,D51*%
X333550000Y-137920000D03*
D23*
X333550000Y-143000000D03*
%TD*%
D22*
%TO.C,D50*%
X297925000Y-137920000D03*
D23*
X297925000Y-143000000D03*
%TD*%
D22*
%TO.C,D49*%
X267050000Y-137920000D03*
D23*
X267050000Y-143000000D03*
%TD*%
D22*
%TO.C,D48*%
X248050000Y-137920000D03*
D23*
X248050000Y-143000000D03*
%TD*%
D22*
%TO.C,D47*%
X229050000Y-137920000D03*
D23*
X229050000Y-143000000D03*
%TD*%
D22*
%TO.C,D46*%
X210050000Y-137920000D03*
D23*
X210050000Y-143000000D03*
%TD*%
D22*
%TO.C,D45*%
X191050000Y-137920000D03*
D23*
X191050000Y-143000000D03*
%TD*%
D22*
%TO.C,D44*%
X172050000Y-137920000D03*
D23*
X172050000Y-143000000D03*
%TD*%
D22*
%TO.C,D43*%
X153050000Y-137920000D03*
D23*
X153050000Y-143000000D03*
%TD*%
D22*
%TO.C,D42*%
X134050000Y-137920000D03*
D23*
X134050000Y-143000000D03*
%TD*%
D22*
%TO.C,D41*%
X115050000Y-137920000D03*
D23*
X115050000Y-143000000D03*
%TD*%
D22*
%TO.C,D40*%
X96050000Y-137920000D03*
D23*
X96050000Y-143000000D03*
%TD*%
D22*
%TO.C,D39*%
X77050000Y-137920000D03*
D23*
X77050000Y-143000000D03*
%TD*%
D22*
%TO.C,D38*%
X50925000Y-137920000D03*
D23*
X50925000Y-143000000D03*
%TD*%
D22*
%TO.C,D37*%
X352550000Y-118920000D03*
D23*
X352550000Y-124000000D03*
%TD*%
D22*
%TO.C,D36*%
X333550000Y-118920000D03*
D23*
X333550000Y-124000000D03*
%TD*%
D22*
%TO.C,D35*%
X305050000Y-118920000D03*
D23*
X305050000Y-124000000D03*
%TD*%
D22*
%TO.C,D34*%
X281300000Y-118920000D03*
D23*
X281300000Y-124000000D03*
%TD*%
D22*
%TO.C,D33*%
X262300000Y-118920000D03*
D23*
X262300000Y-124000000D03*
%TD*%
D22*
%TO.C,D32*%
X243300000Y-118920000D03*
D23*
X243300000Y-124000000D03*
%TD*%
D22*
%TO.C,D31*%
X224300000Y-118920000D03*
D23*
X224300000Y-124000000D03*
%TD*%
D22*
%TO.C,D30*%
X205300000Y-118920000D03*
D23*
X205300000Y-124000000D03*
%TD*%
D22*
%TO.C,D29*%
X186300000Y-118920000D03*
D23*
X186300000Y-124000000D03*
%TD*%
D22*
%TO.C,D28*%
X167300000Y-118920000D03*
D23*
X167300000Y-124000000D03*
%TD*%
D22*
%TO.C,D27*%
X148300000Y-118920000D03*
D23*
X148300000Y-124000000D03*
%TD*%
D22*
%TO.C,D26*%
X129300000Y-118920000D03*
D23*
X129300000Y-124000000D03*
%TD*%
D22*
%TO.C,D25*%
X110300000Y-118920000D03*
D23*
X110300000Y-124000000D03*
%TD*%
D22*
%TO.C,D24*%
X91300000Y-118920000D03*
D23*
X91300000Y-124000000D03*
%TD*%
D22*
%TO.C,D23*%
X72300000Y-118920000D03*
D23*
X72300000Y-124000000D03*
%TD*%
D22*
%TO.C,D22*%
X48550000Y-118920000D03*
D23*
X48550000Y-124000000D03*
%TD*%
D22*
%TO.C,D21*%
X352550000Y-99920000D03*
D23*
X352550000Y-105000000D03*
%TD*%
D22*
%TO.C,D20*%
X333550000Y-99920000D03*
D23*
X333550000Y-105000000D03*
%TD*%
D22*
%TO.C,D19*%
X300300000Y-99920000D03*
D23*
X300300000Y-105000000D03*
%TD*%
D22*
%TO.C,D18*%
X271800000Y-99920000D03*
D23*
X271800000Y-105000000D03*
%TD*%
D22*
%TO.C,D17*%
X252800000Y-99920000D03*
D23*
X252800000Y-105000000D03*
%TD*%
D22*
%TO.C,D16*%
X233800000Y-99920000D03*
D23*
X233800000Y-105000000D03*
%TD*%
D22*
%TO.C,D15*%
X214800000Y-99920000D03*
D23*
X214800000Y-105000000D03*
%TD*%
D22*
%TO.C,D14*%
X195800000Y-99920000D03*
D23*
X195800000Y-105000000D03*
%TD*%
D22*
%TO.C,D13*%
X176800000Y-99920000D03*
D23*
X176800000Y-105000000D03*
%TD*%
D22*
%TO.C,D12*%
X157800000Y-99920000D03*
D23*
X157800000Y-105000000D03*
%TD*%
D22*
%TO.C,D11*%
X138800000Y-99920000D03*
D23*
X138800000Y-105000000D03*
%TD*%
D22*
%TO.C,D10*%
X119800000Y-99920000D03*
D23*
X119800000Y-105000000D03*
%TD*%
D22*
%TO.C,D9*%
X100800000Y-99920000D03*
D23*
X100800000Y-105000000D03*
%TD*%
D22*
%TO.C,D8*%
X81800000Y-99920000D03*
D23*
X81800000Y-105000000D03*
%TD*%
D22*
%TO.C,D7*%
X62800000Y-99920000D03*
D23*
X62800000Y-105000000D03*
%TD*%
D22*
%TO.C,D6*%
X43800000Y-99920000D03*
D23*
X43800000Y-105000000D03*
%TD*%
D15*
%TO.C,R3*%
X299400000Y-66328000D03*
D14*
X304480000Y-66328000D03*
%TD*%
D22*
%TO.C,D77*%
X274574000Y-75184000D03*
D23*
X279654000Y-75184000D03*
%TD*%
D22*
%TO.C,D76*%
X274574000Y-71628000D03*
D23*
X279654000Y-71628000D03*
%TD*%
D24*
%TO.C,SW_RESET1*%
X265888000Y-63832000D03*
X265888000Y-68332000D03*
X259388000Y-63832000D03*
X259388000Y-68332000D03*
%TD*%
%TO.C,SW_BOOT1*%
X277638000Y-63832000D03*
X277638000Y-68332000D03*
X271138000Y-63832000D03*
X271138000Y-68332000D03*
%TD*%
D15*
%TO.C,R2*%
X304480000Y-69203000D03*
D14*
X299400000Y-69203000D03*
%TD*%
D15*
%TO.C,R1*%
X304480000Y-72078000D03*
D14*
X299400000Y-72078000D03*
%TD*%
D25*
%TO.C,C5*%
X346884000Y-61722000D03*
X341884000Y-61722000D03*
%TD*%
%TO.C,C4*%
X331490466Y-87101534D03*
X335026000Y-83566000D03*
%TD*%
%TO.C,C3*%
X301940000Y-77684000D03*
D17*
X301940000Y-75184000D03*
%TD*%
D25*
%TO.C,C2*%
X338328000Y-83606000D03*
X338328000Y-86106000D03*
%TD*%
%TO.C,C1*%
X353822000Y-83606000D03*
X353822000Y-86106000D03*
%TD*%
X337566000Y-74168000D03*
M02*
