%TF.GenerationSoftware,KiCad,Pcbnew,5.1.8*%
%TF.CreationDate,2021-03-07T21:10:39-03:00*%
%TF.ProjectId,undiscipline-noled,756e6469-7363-4697-906c-696e652d6e6f,rev?*%
%TF.SameCoordinates,Original*%
%TF.FileFunction,Glue,Bot*%
%TF.FilePolarity,Positive*%
%FSLAX46Y46*%
G04 Gerber Fmt 4.6, Leading zero omitted, Abs format (unit mm)*
G04 Created by KiCad (PCBNEW 5.1.8) date 2021-03-07 21:10:39*
%MOMM*%
%LPD*%
G01*
G04 APERTURE LIST*
%ADD10R,2.550000X2.500000*%
G04 APERTURE END LIST*
D10*
%TO.C,SW75*%
X353390000Y-176210000D03*
X366840000Y-173670000D03*
%TD*%
%TO.C,SW74*%
X334390000Y-176210000D03*
X347840000Y-173670000D03*
%TD*%
%TO.C,SW73*%
X315390000Y-176210000D03*
X328840000Y-173670000D03*
%TD*%
%TO.C,SW72*%
X284515000Y-171460000D03*
X297965000Y-168920000D03*
%TD*%
%TO.C,SW71*%
X260765000Y-171460000D03*
X274215000Y-168920000D03*
%TD*%
%TO.C,SW70*%
X189515000Y-171460000D03*
X202965000Y-168920000D03*
%TD*%
%TO.C,SW69*%
X118265000Y-171460000D03*
X131715000Y-168920000D03*
%TD*%
%TO.C,SW68*%
X94515000Y-171460000D03*
X107965000Y-168920000D03*
%TD*%
%TO.C,SW67*%
X70765000Y-171460000D03*
X84215000Y-168920000D03*
%TD*%
%TO.C,SW66*%
X47015000Y-171460000D03*
X60465000Y-168920000D03*
%TD*%
%TO.C,SW65*%
X334390000Y-157210000D03*
X347840000Y-154670000D03*
%TD*%
%TO.C,SW64*%
X294015000Y-152460000D03*
X307465000Y-149920000D03*
%TD*%
%TO.C,SW63*%
X258390000Y-152460000D03*
X271840000Y-149920000D03*
%TD*%
%TO.C,SW62*%
X239390000Y-152460000D03*
X252840000Y-149920000D03*
%TD*%
%TO.C,SW61*%
X220390000Y-152460000D03*
X233840000Y-149920000D03*
%TD*%
%TO.C,SW60*%
X201390000Y-152460000D03*
X214840000Y-149920000D03*
%TD*%
%TO.C,SW59*%
X182390000Y-152460000D03*
X195840000Y-149920000D03*
%TD*%
%TO.C,SW58*%
X163390000Y-152460000D03*
X176840000Y-149920000D03*
%TD*%
%TO.C,SW57*%
X144390000Y-152460000D03*
X157840000Y-149920000D03*
%TD*%
%TO.C,SW56*%
X125390000Y-152460000D03*
X138840000Y-149920000D03*
%TD*%
%TO.C,SW55*%
X106390000Y-152460000D03*
X119840000Y-149920000D03*
%TD*%
%TO.C,SW54*%
X87390000Y-152460000D03*
X100840000Y-149920000D03*
%TD*%
%TO.C,SW53*%
X56515000Y-152460000D03*
X69965000Y-149920000D03*
%TD*%
%TO.C,SW52*%
X353390000Y-133460000D03*
X366840000Y-130920000D03*
%TD*%
%TO.C,SW51*%
X334390000Y-133460000D03*
X347840000Y-130920000D03*
%TD*%
%TO.C,SW50*%
X298765000Y-133460000D03*
X312215000Y-130920000D03*
%TD*%
%TO.C,SW49*%
X267890000Y-133460000D03*
X281340000Y-130920000D03*
%TD*%
%TO.C,SW48*%
X248890000Y-133460000D03*
X262340000Y-130920000D03*
%TD*%
%TO.C,SW47*%
X229890000Y-133460000D03*
X243340000Y-130920000D03*
%TD*%
%TO.C,SW46*%
X210890000Y-133460000D03*
X224340000Y-130920000D03*
%TD*%
%TO.C,SW45*%
X191890000Y-133460000D03*
X205340000Y-130920000D03*
%TD*%
%TO.C,SW44*%
X172890000Y-133460000D03*
X186340000Y-130920000D03*
%TD*%
%TO.C,SW43*%
X153890000Y-133460000D03*
X167340000Y-130920000D03*
%TD*%
%TO.C,SW42*%
X134890000Y-133460000D03*
X148340000Y-130920000D03*
%TD*%
%TO.C,SW41*%
X115890000Y-133460000D03*
X129340000Y-130920000D03*
%TD*%
%TO.C,SW40*%
X96890000Y-133460000D03*
X110340000Y-130920000D03*
%TD*%
%TO.C,SW39*%
X77890000Y-133460000D03*
X91340000Y-130920000D03*
%TD*%
%TO.C,SW38*%
X51765000Y-133460000D03*
X65215000Y-130920000D03*
%TD*%
%TO.C,SW37*%
X353390000Y-114460000D03*
X366840000Y-111920000D03*
%TD*%
%TO.C,SW36*%
X334390000Y-114460000D03*
X347840000Y-111920000D03*
%TD*%
%TO.C,SW35*%
X305890000Y-114460000D03*
X319340000Y-111920000D03*
%TD*%
%TO.C,SW34*%
X282140000Y-114460000D03*
X295590000Y-111920000D03*
%TD*%
%TO.C,SW33*%
X263140000Y-114460000D03*
X276590000Y-111920000D03*
%TD*%
%TO.C,SW32*%
X244140000Y-114460000D03*
X257590000Y-111920000D03*
%TD*%
%TO.C,SW31*%
X225140000Y-114460000D03*
X238590000Y-111920000D03*
%TD*%
%TO.C,SW30*%
X206140000Y-114460000D03*
X219590000Y-111920000D03*
%TD*%
%TO.C,SW29*%
X187140000Y-114460000D03*
X200590000Y-111920000D03*
%TD*%
%TO.C,SW28*%
X168140000Y-114460000D03*
X181590000Y-111920000D03*
%TD*%
%TO.C,SW27*%
X149140000Y-114460000D03*
X162590000Y-111920000D03*
%TD*%
%TO.C,SW26*%
X130140000Y-114460000D03*
X143590000Y-111920000D03*
%TD*%
%TO.C,SW25*%
X111140000Y-114460000D03*
X124590000Y-111920000D03*
%TD*%
%TO.C,SW24*%
X92140000Y-114460000D03*
X105590000Y-111920000D03*
%TD*%
%TO.C,SW23*%
X73140000Y-114460000D03*
X86590000Y-111920000D03*
%TD*%
%TO.C,SW22*%
X49390000Y-114460000D03*
X62840000Y-111920000D03*
%TD*%
%TO.C,SW21*%
X353390000Y-95460000D03*
X366840000Y-92920000D03*
%TD*%
%TO.C,SW20*%
X334390000Y-95460000D03*
X347840000Y-92920000D03*
%TD*%
%TO.C,SW19*%
X301140000Y-95460000D03*
X314590000Y-92920000D03*
%TD*%
%TO.C,SW18*%
X272640000Y-95460000D03*
X286090000Y-92920000D03*
%TD*%
%TO.C,SW17*%
X253640000Y-95460000D03*
X267090000Y-92920000D03*
%TD*%
%TO.C,SW16*%
X234640000Y-95460000D03*
X248090000Y-92920000D03*
%TD*%
%TO.C,SW15*%
X215640000Y-95460000D03*
X229090000Y-92920000D03*
%TD*%
%TO.C,SW14*%
X196640000Y-95460000D03*
X210090000Y-92920000D03*
%TD*%
%TO.C,SW13*%
X177640000Y-95460000D03*
X191090000Y-92920000D03*
%TD*%
%TO.C,SW12*%
X158640000Y-95460000D03*
X172090000Y-92920000D03*
%TD*%
%TO.C,SW11*%
X139640000Y-95460000D03*
X153090000Y-92920000D03*
%TD*%
%TO.C,SW10*%
X120640000Y-95460000D03*
X134090000Y-92920000D03*
%TD*%
%TO.C,SW9*%
X101640000Y-95460000D03*
X115090000Y-92920000D03*
%TD*%
%TO.C,SW8*%
X82640000Y-95460000D03*
X96090000Y-92920000D03*
%TD*%
%TO.C,SW7*%
X63640000Y-95460000D03*
X77090000Y-92920000D03*
%TD*%
%TO.C,SW6*%
X44640000Y-95460000D03*
X58090000Y-92920000D03*
%TD*%
%TO.C,SW5*%
X130140000Y-71710000D03*
X143590000Y-69170000D03*
%TD*%
%TO.C,SW4*%
X111140000Y-71710000D03*
X124590000Y-69170000D03*
%TD*%
%TO.C,SW3*%
X92140000Y-71710000D03*
X105590000Y-69170000D03*
%TD*%
%TO.C,SW2*%
X73140000Y-71710000D03*
X86590000Y-69170000D03*
%TD*%
%TO.C,SW1*%
X44640000Y-71710000D03*
X58090000Y-69170000D03*
%TD*%
M02*
