%TF.GenerationSoftware,KiCad,Pcbnew,5.1.8*%
%TF.CreationDate,2021-03-07T21:10:39-03:00*%
%TF.ProjectId,undiscipline-noled,756e6469-7363-4697-906c-696e652d6e6f,rev?*%
%TF.SameCoordinates,Original*%
%TF.FileFunction,Legend,Top*%
%TF.FilePolarity,Positive*%
%FSLAX46Y46*%
G04 Gerber Fmt 4.6, Leading zero omitted, Abs format (unit mm)*
G04 Created by KiCad (PCBNEW 5.1.8) date 2021-03-07 21:10:39*
%MOMM*%
%LPD*%
G01*
G04 APERTURE LIST*
%ADD10C,0.120000*%
%ADD11C,0.150000*%
G04 APERTURE END LIST*
D10*
%TO.C,SW75*%
X362899998Y-181064998D02*
G75*
G02*
X358600002Y-181064998I-2149998J2314998D01*
G01*
X356000000Y-182275000D02*
X356000000Y-185475000D01*
X354250000Y-185475000D02*
X356000000Y-185475000D01*
X354250000Y-172025000D02*
X354250000Y-185475000D01*
X367250000Y-172025000D02*
X367250000Y-185475000D01*
X354250000Y-172025000D02*
X367250000Y-172025000D01*
X356000000Y-182275000D02*
X358600001Y-182275000D01*
X365500000Y-182275000D02*
X365500000Y-185475000D01*
X365500000Y-185475000D02*
X367250000Y-185475000D01*
X362899999Y-181064999D02*
X362899999Y-182275000D01*
X358600001Y-181064999D02*
X358600001Y-182275000D01*
X362899999Y-182275000D02*
X365500000Y-182275000D01*
%TO.C,SW74*%
X343899998Y-181064998D02*
G75*
G02*
X339600002Y-181064998I-2149998J2314998D01*
G01*
X337000000Y-182275000D02*
X337000000Y-185475000D01*
X335250000Y-185475000D02*
X337000000Y-185475000D01*
X335250000Y-172025000D02*
X335250000Y-185475000D01*
X348250000Y-172025000D02*
X348250000Y-185475000D01*
X335250000Y-172025000D02*
X348250000Y-172025000D01*
X337000000Y-182275000D02*
X339600001Y-182275000D01*
X346500000Y-182275000D02*
X346500000Y-185475000D01*
X346500000Y-185475000D02*
X348250000Y-185475000D01*
X343899999Y-181064999D02*
X343899999Y-182275000D01*
X339600001Y-181064999D02*
X339600001Y-182275000D01*
X343899999Y-182275000D02*
X346500000Y-182275000D01*
%TO.C,SW73*%
X324899998Y-181064998D02*
G75*
G02*
X320600002Y-181064998I-2149998J2314998D01*
G01*
X318000000Y-182275000D02*
X318000000Y-185475000D01*
X316250000Y-185475000D02*
X318000000Y-185475000D01*
X316250000Y-172025000D02*
X316250000Y-185475000D01*
X329250000Y-172025000D02*
X329250000Y-185475000D01*
X316250000Y-172025000D02*
X329250000Y-172025000D01*
X318000000Y-182275000D02*
X320600001Y-182275000D01*
X327500000Y-182275000D02*
X327500000Y-185475000D01*
X327500000Y-185475000D02*
X329250000Y-185475000D01*
X324899999Y-181064999D02*
X324899999Y-182275000D01*
X320600001Y-181064999D02*
X320600001Y-182275000D01*
X324899999Y-182275000D02*
X327500000Y-182275000D01*
%TO.C,SW72*%
X294024998Y-176314998D02*
G75*
G02*
X289725002Y-176314998I-2149998J2314998D01*
G01*
X287125000Y-177525000D02*
X287125000Y-180725000D01*
X285375000Y-180725000D02*
X287125000Y-180725000D01*
X285375000Y-167275000D02*
X285375000Y-180725000D01*
X298375000Y-167275000D02*
X298375000Y-180725000D01*
X285375000Y-167275000D02*
X298375000Y-167275000D01*
X287125000Y-177525000D02*
X289725001Y-177525000D01*
X296625000Y-177525000D02*
X296625000Y-180725000D01*
X296625000Y-180725000D02*
X298375000Y-180725000D01*
X294024999Y-176314999D02*
X294024999Y-177525000D01*
X289725001Y-176314999D02*
X289725001Y-177525000D01*
X294024999Y-177525000D02*
X296625000Y-177525000D01*
%TO.C,SW71*%
X270274998Y-176314998D02*
G75*
G02*
X265975002Y-176314998I-2149998J2314998D01*
G01*
X263375000Y-177525000D02*
X263375000Y-180725000D01*
X261625000Y-180725000D02*
X263375000Y-180725000D01*
X261625000Y-167275000D02*
X261625000Y-180725000D01*
X274625000Y-167275000D02*
X274625000Y-180725000D01*
X261625000Y-167275000D02*
X274625000Y-167275000D01*
X263375000Y-177525000D02*
X265975001Y-177525000D01*
X272875000Y-177525000D02*
X272875000Y-180725000D01*
X272875000Y-180725000D02*
X274625000Y-180725000D01*
X270274999Y-176314999D02*
X270274999Y-177525000D01*
X265975001Y-176314999D02*
X265975001Y-177525000D01*
X270274999Y-177525000D02*
X272875000Y-177525000D01*
%TO.C,SW70*%
X199024998Y-176314998D02*
G75*
G02*
X194725002Y-176314998I-2149998J2314998D01*
G01*
X192125000Y-177525000D02*
X192125000Y-180725000D01*
X190375000Y-180725000D02*
X192125000Y-180725000D01*
X190375000Y-167275000D02*
X190375000Y-180725000D01*
X203375000Y-167275000D02*
X203375000Y-180725000D01*
X190375000Y-167275000D02*
X203375000Y-167275000D01*
X192125000Y-177525000D02*
X194725001Y-177525000D01*
X201625000Y-177525000D02*
X201625000Y-180725000D01*
X201625000Y-180725000D02*
X203375000Y-180725000D01*
X199024999Y-176314999D02*
X199024999Y-177525000D01*
X194725001Y-176314999D02*
X194725001Y-177525000D01*
X199024999Y-177525000D02*
X201625000Y-177525000D01*
%TO.C,SW69*%
X127774998Y-176314998D02*
G75*
G02*
X123475002Y-176314998I-2149998J2314998D01*
G01*
X120875000Y-177525000D02*
X120875000Y-180725000D01*
X119125000Y-180725000D02*
X120875000Y-180725000D01*
X119125000Y-167275000D02*
X119125000Y-180725000D01*
X132125000Y-167275000D02*
X132125000Y-180725000D01*
X119125000Y-167275000D02*
X132125000Y-167275000D01*
X120875000Y-177525000D02*
X123475001Y-177525000D01*
X130375000Y-177525000D02*
X130375000Y-180725000D01*
X130375000Y-180725000D02*
X132125000Y-180725000D01*
X127774999Y-176314999D02*
X127774999Y-177525000D01*
X123475001Y-176314999D02*
X123475001Y-177525000D01*
X127774999Y-177525000D02*
X130375000Y-177525000D01*
%TO.C,SW68*%
X104024998Y-176314998D02*
G75*
G02*
X99725002Y-176314998I-2149998J2314998D01*
G01*
X97125000Y-177525000D02*
X97125000Y-180725000D01*
X95375000Y-180725000D02*
X97125000Y-180725000D01*
X95375000Y-167275000D02*
X95375000Y-180725000D01*
X108375000Y-167275000D02*
X108375000Y-180725000D01*
X95375000Y-167275000D02*
X108375000Y-167275000D01*
X97125000Y-177525000D02*
X99725001Y-177525000D01*
X106625000Y-177525000D02*
X106625000Y-180725000D01*
X106625000Y-180725000D02*
X108375000Y-180725000D01*
X104024999Y-176314999D02*
X104024999Y-177525000D01*
X99725001Y-176314999D02*
X99725001Y-177525000D01*
X104024999Y-177525000D02*
X106625000Y-177525000D01*
%TO.C,SW67*%
X80274998Y-176314998D02*
G75*
G02*
X75975002Y-176314998I-2149998J2314998D01*
G01*
X73375000Y-177525000D02*
X73375000Y-180725000D01*
X71625000Y-180725000D02*
X73375000Y-180725000D01*
X71625000Y-167275000D02*
X71625000Y-180725000D01*
X84625000Y-167275000D02*
X84625000Y-180725000D01*
X71625000Y-167275000D02*
X84625000Y-167275000D01*
X73375000Y-177525000D02*
X75975001Y-177525000D01*
X82875000Y-177525000D02*
X82875000Y-180725000D01*
X82875000Y-180725000D02*
X84625000Y-180725000D01*
X80274999Y-176314999D02*
X80274999Y-177525000D01*
X75975001Y-176314999D02*
X75975001Y-177525000D01*
X80274999Y-177525000D02*
X82875000Y-177525000D01*
%TO.C,SW66*%
X56524998Y-176314998D02*
G75*
G02*
X52225002Y-176314998I-2149998J2314998D01*
G01*
X49625000Y-177525000D02*
X49625000Y-180725000D01*
X47875000Y-180725000D02*
X49625000Y-180725000D01*
X47875000Y-167275000D02*
X47875000Y-180725000D01*
X60875000Y-167275000D02*
X60875000Y-180725000D01*
X47875000Y-167275000D02*
X60875000Y-167275000D01*
X49625000Y-177525000D02*
X52225001Y-177525000D01*
X59125000Y-177525000D02*
X59125000Y-180725000D01*
X59125000Y-180725000D02*
X60875000Y-180725000D01*
X56524999Y-176314999D02*
X56524999Y-177525000D01*
X52225001Y-176314999D02*
X52225001Y-177525000D01*
X56524999Y-177525000D02*
X59125000Y-177525000D01*
%TO.C,SW65*%
X343899998Y-162064998D02*
G75*
G02*
X339600002Y-162064998I-2149998J2314998D01*
G01*
X337000000Y-163275000D02*
X337000000Y-166475000D01*
X335250000Y-166475000D02*
X337000000Y-166475000D01*
X335250000Y-153025000D02*
X335250000Y-166475000D01*
X348250000Y-153025000D02*
X348250000Y-166475000D01*
X335250000Y-153025000D02*
X348250000Y-153025000D01*
X337000000Y-163275000D02*
X339600001Y-163275000D01*
X346500000Y-163275000D02*
X346500000Y-166475000D01*
X346500000Y-166475000D02*
X348250000Y-166475000D01*
X343899999Y-162064999D02*
X343899999Y-163275000D01*
X339600001Y-162064999D02*
X339600001Y-163275000D01*
X343899999Y-163275000D02*
X346500000Y-163275000D01*
%TO.C,SW64*%
X303524998Y-157314998D02*
G75*
G02*
X299225002Y-157314998I-2149998J2314998D01*
G01*
X296625000Y-158525000D02*
X296625000Y-161725000D01*
X294875000Y-161725000D02*
X296625000Y-161725000D01*
X294875000Y-148275000D02*
X294875000Y-161725000D01*
X307875000Y-148275000D02*
X307875000Y-161725000D01*
X294875000Y-148275000D02*
X307875000Y-148275000D01*
X296625000Y-158525000D02*
X299225001Y-158525000D01*
X306125000Y-158525000D02*
X306125000Y-161725000D01*
X306125000Y-161725000D02*
X307875000Y-161725000D01*
X303524999Y-157314999D02*
X303524999Y-158525000D01*
X299225001Y-157314999D02*
X299225001Y-158525000D01*
X303524999Y-158525000D02*
X306125000Y-158525000D01*
%TO.C,SW63*%
X267899998Y-157314998D02*
G75*
G02*
X263600002Y-157314998I-2149998J2314998D01*
G01*
X261000000Y-158525000D02*
X261000000Y-161725000D01*
X259250000Y-161725000D02*
X261000000Y-161725000D01*
X259250000Y-148275000D02*
X259250000Y-161725000D01*
X272250000Y-148275000D02*
X272250000Y-161725000D01*
X259250000Y-148275000D02*
X272250000Y-148275000D01*
X261000000Y-158525000D02*
X263600001Y-158525000D01*
X270500000Y-158525000D02*
X270500000Y-161725000D01*
X270500000Y-161725000D02*
X272250000Y-161725000D01*
X267899999Y-157314999D02*
X267899999Y-158525000D01*
X263600001Y-157314999D02*
X263600001Y-158525000D01*
X267899999Y-158525000D02*
X270500000Y-158525000D01*
%TO.C,SW62*%
X248899998Y-157314998D02*
G75*
G02*
X244600002Y-157314998I-2149998J2314998D01*
G01*
X242000000Y-158525000D02*
X242000000Y-161725000D01*
X240250000Y-161725000D02*
X242000000Y-161725000D01*
X240250000Y-148275000D02*
X240250000Y-161725000D01*
X253250000Y-148275000D02*
X253250000Y-161725000D01*
X240250000Y-148275000D02*
X253250000Y-148275000D01*
X242000000Y-158525000D02*
X244600001Y-158525000D01*
X251500000Y-158525000D02*
X251500000Y-161725000D01*
X251500000Y-161725000D02*
X253250000Y-161725000D01*
X248899999Y-157314999D02*
X248899999Y-158525000D01*
X244600001Y-157314999D02*
X244600001Y-158525000D01*
X248899999Y-158525000D02*
X251500000Y-158525000D01*
%TO.C,SW61*%
X229899998Y-157314998D02*
G75*
G02*
X225600002Y-157314998I-2149998J2314998D01*
G01*
X223000000Y-158525000D02*
X223000000Y-161725000D01*
X221250000Y-161725000D02*
X223000000Y-161725000D01*
X221250000Y-148275000D02*
X221250000Y-161725000D01*
X234250000Y-148275000D02*
X234250000Y-161725000D01*
X221250000Y-148275000D02*
X234250000Y-148275000D01*
X223000000Y-158525000D02*
X225600001Y-158525000D01*
X232500000Y-158525000D02*
X232500000Y-161725000D01*
X232500000Y-161725000D02*
X234250000Y-161725000D01*
X229899999Y-157314999D02*
X229899999Y-158525000D01*
X225600001Y-157314999D02*
X225600001Y-158525000D01*
X229899999Y-158525000D02*
X232500000Y-158525000D01*
%TO.C,SW60*%
X210899998Y-157314998D02*
G75*
G02*
X206600002Y-157314998I-2149998J2314998D01*
G01*
X204000000Y-158525000D02*
X204000000Y-161725000D01*
X202250000Y-161725000D02*
X204000000Y-161725000D01*
X202250000Y-148275000D02*
X202250000Y-161725000D01*
X215250000Y-148275000D02*
X215250000Y-161725000D01*
X202250000Y-148275000D02*
X215250000Y-148275000D01*
X204000000Y-158525000D02*
X206600001Y-158525000D01*
X213500000Y-158525000D02*
X213500000Y-161725000D01*
X213500000Y-161725000D02*
X215250000Y-161725000D01*
X210899999Y-157314999D02*
X210899999Y-158525000D01*
X206600001Y-157314999D02*
X206600001Y-158525000D01*
X210899999Y-158525000D02*
X213500000Y-158525000D01*
%TO.C,SW59*%
X191899998Y-157314998D02*
G75*
G02*
X187600002Y-157314998I-2149998J2314998D01*
G01*
X185000000Y-158525000D02*
X185000000Y-161725000D01*
X183250000Y-161725000D02*
X185000000Y-161725000D01*
X183250000Y-148275000D02*
X183250000Y-161725000D01*
X196250000Y-148275000D02*
X196250000Y-161725000D01*
X183250000Y-148275000D02*
X196250000Y-148275000D01*
X185000000Y-158525000D02*
X187600001Y-158525000D01*
X194500000Y-158525000D02*
X194500000Y-161725000D01*
X194500000Y-161725000D02*
X196250000Y-161725000D01*
X191899999Y-157314999D02*
X191899999Y-158525000D01*
X187600001Y-157314999D02*
X187600001Y-158525000D01*
X191899999Y-158525000D02*
X194500000Y-158525000D01*
%TO.C,SW58*%
X172899998Y-157314998D02*
G75*
G02*
X168600002Y-157314998I-2149998J2314998D01*
G01*
X166000000Y-158525000D02*
X166000000Y-161725000D01*
X164250000Y-161725000D02*
X166000000Y-161725000D01*
X164250000Y-148275000D02*
X164250000Y-161725000D01*
X177250000Y-148275000D02*
X177250000Y-161725000D01*
X164250000Y-148275000D02*
X177250000Y-148275000D01*
X166000000Y-158525000D02*
X168600001Y-158525000D01*
X175500000Y-158525000D02*
X175500000Y-161725000D01*
X175500000Y-161725000D02*
X177250000Y-161725000D01*
X172899999Y-157314999D02*
X172899999Y-158525000D01*
X168600001Y-157314999D02*
X168600001Y-158525000D01*
X172899999Y-158525000D02*
X175500000Y-158525000D01*
%TO.C,SW57*%
X153899998Y-157314998D02*
G75*
G02*
X149600002Y-157314998I-2149998J2314998D01*
G01*
X147000000Y-158525000D02*
X147000000Y-161725000D01*
X145250000Y-161725000D02*
X147000000Y-161725000D01*
X145250000Y-148275000D02*
X145250000Y-161725000D01*
X158250000Y-148275000D02*
X158250000Y-161725000D01*
X145250000Y-148275000D02*
X158250000Y-148275000D01*
X147000000Y-158525000D02*
X149600001Y-158525000D01*
X156500000Y-158525000D02*
X156500000Y-161725000D01*
X156500000Y-161725000D02*
X158250000Y-161725000D01*
X153899999Y-157314999D02*
X153899999Y-158525000D01*
X149600001Y-157314999D02*
X149600001Y-158525000D01*
X153899999Y-158525000D02*
X156500000Y-158525000D01*
%TO.C,SW56*%
X134899998Y-157314998D02*
G75*
G02*
X130600002Y-157314998I-2149998J2314998D01*
G01*
X128000000Y-158525000D02*
X128000000Y-161725000D01*
X126250000Y-161725000D02*
X128000000Y-161725000D01*
X126250000Y-148275000D02*
X126250000Y-161725000D01*
X139250000Y-148275000D02*
X139250000Y-161725000D01*
X126250000Y-148275000D02*
X139250000Y-148275000D01*
X128000000Y-158525000D02*
X130600001Y-158525000D01*
X137500000Y-158525000D02*
X137500000Y-161725000D01*
X137500000Y-161725000D02*
X139250000Y-161725000D01*
X134899999Y-157314999D02*
X134899999Y-158525000D01*
X130600001Y-157314999D02*
X130600001Y-158525000D01*
X134899999Y-158525000D02*
X137500000Y-158525000D01*
%TO.C,SW55*%
X115899998Y-157314998D02*
G75*
G02*
X111600002Y-157314998I-2149998J2314998D01*
G01*
X109000000Y-158525000D02*
X109000000Y-161725000D01*
X107250000Y-161725000D02*
X109000000Y-161725000D01*
X107250000Y-148275000D02*
X107250000Y-161725000D01*
X120250000Y-148275000D02*
X120250000Y-161725000D01*
X107250000Y-148275000D02*
X120250000Y-148275000D01*
X109000000Y-158525000D02*
X111600001Y-158525000D01*
X118500000Y-158525000D02*
X118500000Y-161725000D01*
X118500000Y-161725000D02*
X120250000Y-161725000D01*
X115899999Y-157314999D02*
X115899999Y-158525000D01*
X111600001Y-157314999D02*
X111600001Y-158525000D01*
X115899999Y-158525000D02*
X118500000Y-158525000D01*
%TO.C,SW54*%
X96899998Y-157314998D02*
G75*
G02*
X92600002Y-157314998I-2149998J2314998D01*
G01*
X90000000Y-158525000D02*
X90000000Y-161725000D01*
X88250000Y-161725000D02*
X90000000Y-161725000D01*
X88250000Y-148275000D02*
X88250000Y-161725000D01*
X101250000Y-148275000D02*
X101250000Y-161725000D01*
X88250000Y-148275000D02*
X101250000Y-148275000D01*
X90000000Y-158525000D02*
X92600001Y-158525000D01*
X99500000Y-158525000D02*
X99500000Y-161725000D01*
X99500000Y-161725000D02*
X101250000Y-161725000D01*
X96899999Y-157314999D02*
X96899999Y-158525000D01*
X92600001Y-157314999D02*
X92600001Y-158525000D01*
X96899999Y-158525000D02*
X99500000Y-158525000D01*
%TO.C,SW53*%
X66024998Y-157314998D02*
G75*
G02*
X61725002Y-157314998I-2149998J2314998D01*
G01*
X59125000Y-158525000D02*
X59125000Y-161725000D01*
X57375000Y-161725000D02*
X59125000Y-161725000D01*
X57375000Y-148275000D02*
X57375000Y-161725000D01*
X70375000Y-148275000D02*
X70375000Y-161725000D01*
X57375000Y-148275000D02*
X70375000Y-148275000D01*
X59125000Y-158525000D02*
X61725001Y-158525000D01*
X68625000Y-158525000D02*
X68625000Y-161725000D01*
X68625000Y-161725000D02*
X70375000Y-161725000D01*
X66024999Y-157314999D02*
X66024999Y-158525000D01*
X61725001Y-157314999D02*
X61725001Y-158525000D01*
X66024999Y-158525000D02*
X68625000Y-158525000D01*
%TO.C,SW52*%
X362899998Y-138314998D02*
G75*
G02*
X358600002Y-138314998I-2149998J2314998D01*
G01*
X356000000Y-139525000D02*
X356000000Y-142725000D01*
X354250000Y-142725000D02*
X356000000Y-142725000D01*
X354250000Y-129275000D02*
X354250000Y-142725000D01*
X367250000Y-129275000D02*
X367250000Y-142725000D01*
X354250000Y-129275000D02*
X367250000Y-129275000D01*
X356000000Y-139525000D02*
X358600001Y-139525000D01*
X365500000Y-139525000D02*
X365500000Y-142725000D01*
X365500000Y-142725000D02*
X367250000Y-142725000D01*
X362899999Y-138314999D02*
X362899999Y-139525000D01*
X358600001Y-138314999D02*
X358600001Y-139525000D01*
X362899999Y-139525000D02*
X365500000Y-139525000D01*
%TO.C,SW51*%
X343899998Y-138314998D02*
G75*
G02*
X339600002Y-138314998I-2149998J2314998D01*
G01*
X337000000Y-139525000D02*
X337000000Y-142725000D01*
X335250000Y-142725000D02*
X337000000Y-142725000D01*
X335250000Y-129275000D02*
X335250000Y-142725000D01*
X348250000Y-129275000D02*
X348250000Y-142725000D01*
X335250000Y-129275000D02*
X348250000Y-129275000D01*
X337000000Y-139525000D02*
X339600001Y-139525000D01*
X346500000Y-139525000D02*
X346500000Y-142725000D01*
X346500000Y-142725000D02*
X348250000Y-142725000D01*
X343899999Y-138314999D02*
X343899999Y-139525000D01*
X339600001Y-138314999D02*
X339600001Y-139525000D01*
X343899999Y-139525000D02*
X346500000Y-139525000D01*
%TO.C,SW50*%
X308274998Y-138314998D02*
G75*
G02*
X303975002Y-138314998I-2149998J2314998D01*
G01*
X301375000Y-139525000D02*
X301375000Y-142725000D01*
X299625000Y-142725000D02*
X301375000Y-142725000D01*
X299625000Y-129275000D02*
X299625000Y-142725000D01*
X312625000Y-129275000D02*
X312625000Y-142725000D01*
X299625000Y-129275000D02*
X312625000Y-129275000D01*
X301375000Y-139525000D02*
X303975001Y-139525000D01*
X310875000Y-139525000D02*
X310875000Y-142725000D01*
X310875000Y-142725000D02*
X312625000Y-142725000D01*
X308274999Y-138314999D02*
X308274999Y-139525000D01*
X303975001Y-138314999D02*
X303975001Y-139525000D01*
X308274999Y-139525000D02*
X310875000Y-139525000D01*
%TO.C,SW49*%
X277399998Y-138314998D02*
G75*
G02*
X273100002Y-138314998I-2149998J2314998D01*
G01*
X270500000Y-139525000D02*
X270500000Y-142725000D01*
X268750000Y-142725000D02*
X270500000Y-142725000D01*
X268750000Y-129275000D02*
X268750000Y-142725000D01*
X281750000Y-129275000D02*
X281750000Y-142725000D01*
X268750000Y-129275000D02*
X281750000Y-129275000D01*
X270500000Y-139525000D02*
X273100001Y-139525000D01*
X280000000Y-139525000D02*
X280000000Y-142725000D01*
X280000000Y-142725000D02*
X281750000Y-142725000D01*
X277399999Y-138314999D02*
X277399999Y-139525000D01*
X273100001Y-138314999D02*
X273100001Y-139525000D01*
X277399999Y-139525000D02*
X280000000Y-139525000D01*
%TO.C,SW48*%
X258399998Y-138314998D02*
G75*
G02*
X254100002Y-138314998I-2149998J2314998D01*
G01*
X251500000Y-139525000D02*
X251500000Y-142725000D01*
X249750000Y-142725000D02*
X251500000Y-142725000D01*
X249750000Y-129275000D02*
X249750000Y-142725000D01*
X262750000Y-129275000D02*
X262750000Y-142725000D01*
X249750000Y-129275000D02*
X262750000Y-129275000D01*
X251500000Y-139525000D02*
X254100001Y-139525000D01*
X261000000Y-139525000D02*
X261000000Y-142725000D01*
X261000000Y-142725000D02*
X262750000Y-142725000D01*
X258399999Y-138314999D02*
X258399999Y-139525000D01*
X254100001Y-138314999D02*
X254100001Y-139525000D01*
X258399999Y-139525000D02*
X261000000Y-139525000D01*
%TO.C,SW47*%
X239399998Y-138314998D02*
G75*
G02*
X235100002Y-138314998I-2149998J2314998D01*
G01*
X232500000Y-139525000D02*
X232500000Y-142725000D01*
X230750000Y-142725000D02*
X232500000Y-142725000D01*
X230750000Y-129275000D02*
X230750000Y-142725000D01*
X243750000Y-129275000D02*
X243750000Y-142725000D01*
X230750000Y-129275000D02*
X243750000Y-129275000D01*
X232500000Y-139525000D02*
X235100001Y-139525000D01*
X242000000Y-139525000D02*
X242000000Y-142725000D01*
X242000000Y-142725000D02*
X243750000Y-142725000D01*
X239399999Y-138314999D02*
X239399999Y-139525000D01*
X235100001Y-138314999D02*
X235100001Y-139525000D01*
X239399999Y-139525000D02*
X242000000Y-139525000D01*
%TO.C,SW46*%
X220399998Y-138314998D02*
G75*
G02*
X216100002Y-138314998I-2149998J2314998D01*
G01*
X213500000Y-139525000D02*
X213500000Y-142725000D01*
X211750000Y-142725000D02*
X213500000Y-142725000D01*
X211750000Y-129275000D02*
X211750000Y-142725000D01*
X224750000Y-129275000D02*
X224750000Y-142725000D01*
X211750000Y-129275000D02*
X224750000Y-129275000D01*
X213500000Y-139525000D02*
X216100001Y-139525000D01*
X223000000Y-139525000D02*
X223000000Y-142725000D01*
X223000000Y-142725000D02*
X224750000Y-142725000D01*
X220399999Y-138314999D02*
X220399999Y-139525000D01*
X216100001Y-138314999D02*
X216100001Y-139525000D01*
X220399999Y-139525000D02*
X223000000Y-139525000D01*
%TO.C,SW45*%
X201399998Y-138314998D02*
G75*
G02*
X197100002Y-138314998I-2149998J2314998D01*
G01*
X194500000Y-139525000D02*
X194500000Y-142725000D01*
X192750000Y-142725000D02*
X194500000Y-142725000D01*
X192750000Y-129275000D02*
X192750000Y-142725000D01*
X205750000Y-129275000D02*
X205750000Y-142725000D01*
X192750000Y-129275000D02*
X205750000Y-129275000D01*
X194500000Y-139525000D02*
X197100001Y-139525000D01*
X204000000Y-139525000D02*
X204000000Y-142725000D01*
X204000000Y-142725000D02*
X205750000Y-142725000D01*
X201399999Y-138314999D02*
X201399999Y-139525000D01*
X197100001Y-138314999D02*
X197100001Y-139525000D01*
X201399999Y-139525000D02*
X204000000Y-139525000D01*
%TO.C,SW44*%
X182399998Y-138314998D02*
G75*
G02*
X178100002Y-138314998I-2149998J2314998D01*
G01*
X175500000Y-139525000D02*
X175500000Y-142725000D01*
X173750000Y-142725000D02*
X175500000Y-142725000D01*
X173750000Y-129275000D02*
X173750000Y-142725000D01*
X186750000Y-129275000D02*
X186750000Y-142725000D01*
X173750000Y-129275000D02*
X186750000Y-129275000D01*
X175500000Y-139525000D02*
X178100001Y-139525000D01*
X185000000Y-139525000D02*
X185000000Y-142725000D01*
X185000000Y-142725000D02*
X186750000Y-142725000D01*
X182399999Y-138314999D02*
X182399999Y-139525000D01*
X178100001Y-138314999D02*
X178100001Y-139525000D01*
X182399999Y-139525000D02*
X185000000Y-139525000D01*
%TO.C,SW43*%
X163399998Y-138314998D02*
G75*
G02*
X159100002Y-138314998I-2149998J2314998D01*
G01*
X156500000Y-139525000D02*
X156500000Y-142725000D01*
X154750000Y-142725000D02*
X156500000Y-142725000D01*
X154750000Y-129275000D02*
X154750000Y-142725000D01*
X167750000Y-129275000D02*
X167750000Y-142725000D01*
X154750000Y-129275000D02*
X167750000Y-129275000D01*
X156500000Y-139525000D02*
X159100001Y-139525000D01*
X166000000Y-139525000D02*
X166000000Y-142725000D01*
X166000000Y-142725000D02*
X167750000Y-142725000D01*
X163399999Y-138314999D02*
X163399999Y-139525000D01*
X159100001Y-138314999D02*
X159100001Y-139525000D01*
X163399999Y-139525000D02*
X166000000Y-139525000D01*
%TO.C,SW42*%
X144399998Y-138314998D02*
G75*
G02*
X140100002Y-138314998I-2149998J2314998D01*
G01*
X137500000Y-139525000D02*
X137500000Y-142725000D01*
X135750000Y-142725000D02*
X137500000Y-142725000D01*
X135750000Y-129275000D02*
X135750000Y-142725000D01*
X148750000Y-129275000D02*
X148750000Y-142725000D01*
X135750000Y-129275000D02*
X148750000Y-129275000D01*
X137500000Y-139525000D02*
X140100001Y-139525000D01*
X147000000Y-139525000D02*
X147000000Y-142725000D01*
X147000000Y-142725000D02*
X148750000Y-142725000D01*
X144399999Y-138314999D02*
X144399999Y-139525000D01*
X140100001Y-138314999D02*
X140100001Y-139525000D01*
X144399999Y-139525000D02*
X147000000Y-139525000D01*
%TO.C,SW41*%
X125399998Y-138314998D02*
G75*
G02*
X121100002Y-138314998I-2149998J2314998D01*
G01*
X118500000Y-139525000D02*
X118500000Y-142725000D01*
X116750000Y-142725000D02*
X118500000Y-142725000D01*
X116750000Y-129275000D02*
X116750000Y-142725000D01*
X129750000Y-129275000D02*
X129750000Y-142725000D01*
X116750000Y-129275000D02*
X129750000Y-129275000D01*
X118500000Y-139525000D02*
X121100001Y-139525000D01*
X128000000Y-139525000D02*
X128000000Y-142725000D01*
X128000000Y-142725000D02*
X129750000Y-142725000D01*
X125399999Y-138314999D02*
X125399999Y-139525000D01*
X121100001Y-138314999D02*
X121100001Y-139525000D01*
X125399999Y-139525000D02*
X128000000Y-139525000D01*
%TO.C,SW40*%
X106399998Y-138314998D02*
G75*
G02*
X102100002Y-138314998I-2149998J2314998D01*
G01*
X99500000Y-139525000D02*
X99500000Y-142725000D01*
X97750000Y-142725000D02*
X99500000Y-142725000D01*
X97750000Y-129275000D02*
X97750000Y-142725000D01*
X110750000Y-129275000D02*
X110750000Y-142725000D01*
X97750000Y-129275000D02*
X110750000Y-129275000D01*
X99500000Y-139525000D02*
X102100001Y-139525000D01*
X109000000Y-139525000D02*
X109000000Y-142725000D01*
X109000000Y-142725000D02*
X110750000Y-142725000D01*
X106399999Y-138314999D02*
X106399999Y-139525000D01*
X102100001Y-138314999D02*
X102100001Y-139525000D01*
X106399999Y-139525000D02*
X109000000Y-139525000D01*
%TO.C,SW39*%
X87399998Y-138314998D02*
G75*
G02*
X83100002Y-138314998I-2149998J2314998D01*
G01*
X80500000Y-139525000D02*
X80500000Y-142725000D01*
X78750000Y-142725000D02*
X80500000Y-142725000D01*
X78750000Y-129275000D02*
X78750000Y-142725000D01*
X91750000Y-129275000D02*
X91750000Y-142725000D01*
X78750000Y-129275000D02*
X91750000Y-129275000D01*
X80500000Y-139525000D02*
X83100001Y-139525000D01*
X90000000Y-139525000D02*
X90000000Y-142725000D01*
X90000000Y-142725000D02*
X91750000Y-142725000D01*
X87399999Y-138314999D02*
X87399999Y-139525000D01*
X83100001Y-138314999D02*
X83100001Y-139525000D01*
X87399999Y-139525000D02*
X90000000Y-139525000D01*
%TO.C,SW38*%
X61274998Y-138314998D02*
G75*
G02*
X56975002Y-138314998I-2149998J2314998D01*
G01*
X54375000Y-139525000D02*
X54375000Y-142725000D01*
X52625000Y-142725000D02*
X54375000Y-142725000D01*
X52625000Y-129275000D02*
X52625000Y-142725000D01*
X65625000Y-129275000D02*
X65625000Y-142725000D01*
X52625000Y-129275000D02*
X65625000Y-129275000D01*
X54375000Y-139525000D02*
X56975001Y-139525000D01*
X63875000Y-139525000D02*
X63875000Y-142725000D01*
X63875000Y-142725000D02*
X65625000Y-142725000D01*
X61274999Y-138314999D02*
X61274999Y-139525000D01*
X56975001Y-138314999D02*
X56975001Y-139525000D01*
X61274999Y-139525000D02*
X63875000Y-139525000D01*
%TO.C,SW37*%
X362899998Y-119314998D02*
G75*
G02*
X358600002Y-119314998I-2149998J2314998D01*
G01*
X356000000Y-120525000D02*
X356000000Y-123725000D01*
X354250000Y-123725000D02*
X356000000Y-123725000D01*
X354250000Y-110275000D02*
X354250000Y-123725000D01*
X367250000Y-110275000D02*
X367250000Y-123725000D01*
X354250000Y-110275000D02*
X367250000Y-110275000D01*
X356000000Y-120525000D02*
X358600001Y-120525000D01*
X365500000Y-120525000D02*
X365500000Y-123725000D01*
X365500000Y-123725000D02*
X367250000Y-123725000D01*
X362899999Y-119314999D02*
X362899999Y-120525000D01*
X358600001Y-119314999D02*
X358600001Y-120525000D01*
X362899999Y-120525000D02*
X365500000Y-120525000D01*
%TO.C,SW36*%
X343899998Y-119314998D02*
G75*
G02*
X339600002Y-119314998I-2149998J2314998D01*
G01*
X337000000Y-120525000D02*
X337000000Y-123725000D01*
X335250000Y-123725000D02*
X337000000Y-123725000D01*
X335250000Y-110275000D02*
X335250000Y-123725000D01*
X348250000Y-110275000D02*
X348250000Y-123725000D01*
X335250000Y-110275000D02*
X348250000Y-110275000D01*
X337000000Y-120525000D02*
X339600001Y-120525000D01*
X346500000Y-120525000D02*
X346500000Y-123725000D01*
X346500000Y-123725000D02*
X348250000Y-123725000D01*
X343899999Y-119314999D02*
X343899999Y-120525000D01*
X339600001Y-119314999D02*
X339600001Y-120525000D01*
X343899999Y-120525000D02*
X346500000Y-120525000D01*
%TO.C,SW35*%
X315399998Y-119314998D02*
G75*
G02*
X311100002Y-119314998I-2149998J2314998D01*
G01*
X308500000Y-120525000D02*
X308500000Y-123725000D01*
X306750000Y-123725000D02*
X308500000Y-123725000D01*
X306750000Y-110275000D02*
X306750000Y-123725000D01*
X319750000Y-110275000D02*
X319750000Y-123725000D01*
X306750000Y-110275000D02*
X319750000Y-110275000D01*
X308500000Y-120525000D02*
X311100001Y-120525000D01*
X318000000Y-120525000D02*
X318000000Y-123725000D01*
X318000000Y-123725000D02*
X319750000Y-123725000D01*
X315399999Y-119314999D02*
X315399999Y-120525000D01*
X311100001Y-119314999D02*
X311100001Y-120525000D01*
X315399999Y-120525000D02*
X318000000Y-120525000D01*
%TO.C,SW34*%
X291649998Y-119314998D02*
G75*
G02*
X287350002Y-119314998I-2149998J2314998D01*
G01*
X284750000Y-120525000D02*
X284750000Y-123725000D01*
X283000000Y-123725000D02*
X284750000Y-123725000D01*
X283000000Y-110275000D02*
X283000000Y-123725000D01*
X296000000Y-110275000D02*
X296000000Y-123725000D01*
X283000000Y-110275000D02*
X296000000Y-110275000D01*
X284750000Y-120525000D02*
X287350001Y-120525000D01*
X294250000Y-120525000D02*
X294250000Y-123725000D01*
X294250000Y-123725000D02*
X296000000Y-123725000D01*
X291649999Y-119314999D02*
X291649999Y-120525000D01*
X287350001Y-119314999D02*
X287350001Y-120525000D01*
X291649999Y-120525000D02*
X294250000Y-120525000D01*
%TO.C,SW33*%
X272649998Y-119314998D02*
G75*
G02*
X268350002Y-119314998I-2149998J2314998D01*
G01*
X265750000Y-120525000D02*
X265750000Y-123725000D01*
X264000000Y-123725000D02*
X265750000Y-123725000D01*
X264000000Y-110275000D02*
X264000000Y-123725000D01*
X277000000Y-110275000D02*
X277000000Y-123725000D01*
X264000000Y-110275000D02*
X277000000Y-110275000D01*
X265750000Y-120525000D02*
X268350001Y-120525000D01*
X275250000Y-120525000D02*
X275250000Y-123725000D01*
X275250000Y-123725000D02*
X277000000Y-123725000D01*
X272649999Y-119314999D02*
X272649999Y-120525000D01*
X268350001Y-119314999D02*
X268350001Y-120525000D01*
X272649999Y-120525000D02*
X275250000Y-120525000D01*
%TO.C,SW32*%
X253649998Y-119314998D02*
G75*
G02*
X249350002Y-119314998I-2149998J2314998D01*
G01*
X246750000Y-120525000D02*
X246750000Y-123725000D01*
X245000000Y-123725000D02*
X246750000Y-123725000D01*
X245000000Y-110275000D02*
X245000000Y-123725000D01*
X258000000Y-110275000D02*
X258000000Y-123725000D01*
X245000000Y-110275000D02*
X258000000Y-110275000D01*
X246750000Y-120525000D02*
X249350001Y-120525000D01*
X256250000Y-120525000D02*
X256250000Y-123725000D01*
X256250000Y-123725000D02*
X258000000Y-123725000D01*
X253649999Y-119314999D02*
X253649999Y-120525000D01*
X249350001Y-119314999D02*
X249350001Y-120525000D01*
X253649999Y-120525000D02*
X256250000Y-120525000D01*
%TO.C,SW31*%
X234649998Y-119314998D02*
G75*
G02*
X230350002Y-119314998I-2149998J2314998D01*
G01*
X227750000Y-120525000D02*
X227750000Y-123725000D01*
X226000000Y-123725000D02*
X227750000Y-123725000D01*
X226000000Y-110275000D02*
X226000000Y-123725000D01*
X239000000Y-110275000D02*
X239000000Y-123725000D01*
X226000000Y-110275000D02*
X239000000Y-110275000D01*
X227750000Y-120525000D02*
X230350001Y-120525000D01*
X237250000Y-120525000D02*
X237250000Y-123725000D01*
X237250000Y-123725000D02*
X239000000Y-123725000D01*
X234649999Y-119314999D02*
X234649999Y-120525000D01*
X230350001Y-119314999D02*
X230350001Y-120525000D01*
X234649999Y-120525000D02*
X237250000Y-120525000D01*
%TO.C,SW30*%
X215649998Y-119314998D02*
G75*
G02*
X211350002Y-119314998I-2149998J2314998D01*
G01*
X208750000Y-120525000D02*
X208750000Y-123725000D01*
X207000000Y-123725000D02*
X208750000Y-123725000D01*
X207000000Y-110275000D02*
X207000000Y-123725000D01*
X220000000Y-110275000D02*
X220000000Y-123725000D01*
X207000000Y-110275000D02*
X220000000Y-110275000D01*
X208750000Y-120525000D02*
X211350001Y-120525000D01*
X218250000Y-120525000D02*
X218250000Y-123725000D01*
X218250000Y-123725000D02*
X220000000Y-123725000D01*
X215649999Y-119314999D02*
X215649999Y-120525000D01*
X211350001Y-119314999D02*
X211350001Y-120525000D01*
X215649999Y-120525000D02*
X218250000Y-120525000D01*
%TO.C,SW29*%
X196649998Y-119314998D02*
G75*
G02*
X192350002Y-119314998I-2149998J2314998D01*
G01*
X189750000Y-120525000D02*
X189750000Y-123725000D01*
X188000000Y-123725000D02*
X189750000Y-123725000D01*
X188000000Y-110275000D02*
X188000000Y-123725000D01*
X201000000Y-110275000D02*
X201000000Y-123725000D01*
X188000000Y-110275000D02*
X201000000Y-110275000D01*
X189750000Y-120525000D02*
X192350001Y-120525000D01*
X199250000Y-120525000D02*
X199250000Y-123725000D01*
X199250000Y-123725000D02*
X201000000Y-123725000D01*
X196649999Y-119314999D02*
X196649999Y-120525000D01*
X192350001Y-119314999D02*
X192350001Y-120525000D01*
X196649999Y-120525000D02*
X199250000Y-120525000D01*
%TO.C,SW28*%
X177649998Y-119314998D02*
G75*
G02*
X173350002Y-119314998I-2149998J2314998D01*
G01*
X170750000Y-120525000D02*
X170750000Y-123725000D01*
X169000000Y-123725000D02*
X170750000Y-123725000D01*
X169000000Y-110275000D02*
X169000000Y-123725000D01*
X182000000Y-110275000D02*
X182000000Y-123725000D01*
X169000000Y-110275000D02*
X182000000Y-110275000D01*
X170750000Y-120525000D02*
X173350001Y-120525000D01*
X180250000Y-120525000D02*
X180250000Y-123725000D01*
X180250000Y-123725000D02*
X182000000Y-123725000D01*
X177649999Y-119314999D02*
X177649999Y-120525000D01*
X173350001Y-119314999D02*
X173350001Y-120525000D01*
X177649999Y-120525000D02*
X180250000Y-120525000D01*
%TO.C,SW27*%
X158649998Y-119314998D02*
G75*
G02*
X154350002Y-119314998I-2149998J2314998D01*
G01*
X151750000Y-120525000D02*
X151750000Y-123725000D01*
X150000000Y-123725000D02*
X151750000Y-123725000D01*
X150000000Y-110275000D02*
X150000000Y-123725000D01*
X163000000Y-110275000D02*
X163000000Y-123725000D01*
X150000000Y-110275000D02*
X163000000Y-110275000D01*
X151750000Y-120525000D02*
X154350001Y-120525000D01*
X161250000Y-120525000D02*
X161250000Y-123725000D01*
X161250000Y-123725000D02*
X163000000Y-123725000D01*
X158649999Y-119314999D02*
X158649999Y-120525000D01*
X154350001Y-119314999D02*
X154350001Y-120525000D01*
X158649999Y-120525000D02*
X161250000Y-120525000D01*
%TO.C,SW26*%
X139649998Y-119314998D02*
G75*
G02*
X135350002Y-119314998I-2149998J2314998D01*
G01*
X132750000Y-120525000D02*
X132750000Y-123725000D01*
X131000000Y-123725000D02*
X132750000Y-123725000D01*
X131000000Y-110275000D02*
X131000000Y-123725000D01*
X144000000Y-110275000D02*
X144000000Y-123725000D01*
X131000000Y-110275000D02*
X144000000Y-110275000D01*
X132750000Y-120525000D02*
X135350001Y-120525000D01*
X142250000Y-120525000D02*
X142250000Y-123725000D01*
X142250000Y-123725000D02*
X144000000Y-123725000D01*
X139649999Y-119314999D02*
X139649999Y-120525000D01*
X135350001Y-119314999D02*
X135350001Y-120525000D01*
X139649999Y-120525000D02*
X142250000Y-120525000D01*
%TO.C,SW25*%
X120649998Y-119314998D02*
G75*
G02*
X116350002Y-119314998I-2149998J2314998D01*
G01*
X113750000Y-120525000D02*
X113750000Y-123725000D01*
X112000000Y-123725000D02*
X113750000Y-123725000D01*
X112000000Y-110275000D02*
X112000000Y-123725000D01*
X125000000Y-110275000D02*
X125000000Y-123725000D01*
X112000000Y-110275000D02*
X125000000Y-110275000D01*
X113750000Y-120525000D02*
X116350001Y-120525000D01*
X123250000Y-120525000D02*
X123250000Y-123725000D01*
X123250000Y-123725000D02*
X125000000Y-123725000D01*
X120649999Y-119314999D02*
X120649999Y-120525000D01*
X116350001Y-119314999D02*
X116350001Y-120525000D01*
X120649999Y-120525000D02*
X123250000Y-120525000D01*
%TO.C,SW24*%
X101649998Y-119314998D02*
G75*
G02*
X97350002Y-119314998I-2149998J2314998D01*
G01*
X94750000Y-120525000D02*
X94750000Y-123725000D01*
X93000000Y-123725000D02*
X94750000Y-123725000D01*
X93000000Y-110275000D02*
X93000000Y-123725000D01*
X106000000Y-110275000D02*
X106000000Y-123725000D01*
X93000000Y-110275000D02*
X106000000Y-110275000D01*
X94750000Y-120525000D02*
X97350001Y-120525000D01*
X104250000Y-120525000D02*
X104250000Y-123725000D01*
X104250000Y-123725000D02*
X106000000Y-123725000D01*
X101649999Y-119314999D02*
X101649999Y-120525000D01*
X97350001Y-119314999D02*
X97350001Y-120525000D01*
X101649999Y-120525000D02*
X104250000Y-120525000D01*
%TO.C,SW23*%
X82649998Y-119314998D02*
G75*
G02*
X78350002Y-119314998I-2149998J2314998D01*
G01*
X75750000Y-120525000D02*
X75750000Y-123725000D01*
X74000000Y-123725000D02*
X75750000Y-123725000D01*
X74000000Y-110275000D02*
X74000000Y-123725000D01*
X87000000Y-110275000D02*
X87000000Y-123725000D01*
X74000000Y-110275000D02*
X87000000Y-110275000D01*
X75750000Y-120525000D02*
X78350001Y-120525000D01*
X85250000Y-120525000D02*
X85250000Y-123725000D01*
X85250000Y-123725000D02*
X87000000Y-123725000D01*
X82649999Y-119314999D02*
X82649999Y-120525000D01*
X78350001Y-119314999D02*
X78350001Y-120525000D01*
X82649999Y-120525000D02*
X85250000Y-120525000D01*
%TO.C,SW22*%
X58899998Y-119314998D02*
G75*
G02*
X54600002Y-119314998I-2149998J2314998D01*
G01*
X52000000Y-120525000D02*
X52000000Y-123725000D01*
X50250000Y-123725000D02*
X52000000Y-123725000D01*
X50250000Y-110275000D02*
X50250000Y-123725000D01*
X63250000Y-110275000D02*
X63250000Y-123725000D01*
X50250000Y-110275000D02*
X63250000Y-110275000D01*
X52000000Y-120525000D02*
X54600001Y-120525000D01*
X61500000Y-120525000D02*
X61500000Y-123725000D01*
X61500000Y-123725000D02*
X63250000Y-123725000D01*
X58899999Y-119314999D02*
X58899999Y-120525000D01*
X54600001Y-119314999D02*
X54600001Y-120525000D01*
X58899999Y-120525000D02*
X61500000Y-120525000D01*
%TO.C,SW21*%
X362899998Y-100314998D02*
G75*
G02*
X358600002Y-100314998I-2149998J2314998D01*
G01*
X356000000Y-101525000D02*
X356000000Y-104725000D01*
X354250000Y-104725000D02*
X356000000Y-104725000D01*
X354250000Y-91275000D02*
X354250000Y-104725000D01*
X367250000Y-91275000D02*
X367250000Y-104725000D01*
X354250000Y-91275000D02*
X367250000Y-91275000D01*
X356000000Y-101525000D02*
X358600001Y-101525000D01*
X365500000Y-101525000D02*
X365500000Y-104725000D01*
X365500000Y-104725000D02*
X367250000Y-104725000D01*
X362899999Y-100314999D02*
X362899999Y-101525000D01*
X358600001Y-100314999D02*
X358600001Y-101525000D01*
X362899999Y-101525000D02*
X365500000Y-101525000D01*
%TO.C,SW20*%
X343899998Y-100314998D02*
G75*
G02*
X339600002Y-100314998I-2149998J2314998D01*
G01*
X337000000Y-101525000D02*
X337000000Y-104725000D01*
X335250000Y-104725000D02*
X337000000Y-104725000D01*
X335250000Y-91275000D02*
X335250000Y-104725000D01*
X348250000Y-91275000D02*
X348250000Y-104725000D01*
X335250000Y-91275000D02*
X348250000Y-91275000D01*
X337000000Y-101525000D02*
X339600001Y-101525000D01*
X346500000Y-101525000D02*
X346500000Y-104725000D01*
X346500000Y-104725000D02*
X348250000Y-104725000D01*
X343899999Y-100314999D02*
X343899999Y-101525000D01*
X339600001Y-100314999D02*
X339600001Y-101525000D01*
X343899999Y-101525000D02*
X346500000Y-101525000D01*
%TO.C,SW19*%
X310649998Y-100314998D02*
G75*
G02*
X306350002Y-100314998I-2149998J2314998D01*
G01*
X303750000Y-101525000D02*
X303750000Y-104725000D01*
X302000000Y-104725000D02*
X303750000Y-104725000D01*
X302000000Y-91275000D02*
X302000000Y-104725000D01*
X315000000Y-91275000D02*
X315000000Y-104725000D01*
X302000000Y-91275000D02*
X315000000Y-91275000D01*
X303750000Y-101525000D02*
X306350001Y-101525000D01*
X313250000Y-101525000D02*
X313250000Y-104725000D01*
X313250000Y-104725000D02*
X315000000Y-104725000D01*
X310649999Y-100314999D02*
X310649999Y-101525000D01*
X306350001Y-100314999D02*
X306350001Y-101525000D01*
X310649999Y-101525000D02*
X313250000Y-101525000D01*
%TO.C,SW18*%
X282149998Y-100314998D02*
G75*
G02*
X277850002Y-100314998I-2149998J2314998D01*
G01*
X275250000Y-101525000D02*
X275250000Y-104725000D01*
X273500000Y-104725000D02*
X275250000Y-104725000D01*
X273500000Y-91275000D02*
X273500000Y-104725000D01*
X286500000Y-91275000D02*
X286500000Y-104725000D01*
X273500000Y-91275000D02*
X286500000Y-91275000D01*
X275250000Y-101525000D02*
X277850001Y-101525000D01*
X284750000Y-101525000D02*
X284750000Y-104725000D01*
X284750000Y-104725000D02*
X286500000Y-104725000D01*
X282149999Y-100314999D02*
X282149999Y-101525000D01*
X277850001Y-100314999D02*
X277850001Y-101525000D01*
X282149999Y-101525000D02*
X284750000Y-101525000D01*
%TO.C,SW17*%
X263149998Y-100314998D02*
G75*
G02*
X258850002Y-100314998I-2149998J2314998D01*
G01*
X256250000Y-101525000D02*
X256250000Y-104725000D01*
X254500000Y-104725000D02*
X256250000Y-104725000D01*
X254500000Y-91275000D02*
X254500000Y-104725000D01*
X267500000Y-91275000D02*
X267500000Y-104725000D01*
X254500000Y-91275000D02*
X267500000Y-91275000D01*
X256250000Y-101525000D02*
X258850001Y-101525000D01*
X265750000Y-101525000D02*
X265750000Y-104725000D01*
X265750000Y-104725000D02*
X267500000Y-104725000D01*
X263149999Y-100314999D02*
X263149999Y-101525000D01*
X258850001Y-100314999D02*
X258850001Y-101525000D01*
X263149999Y-101525000D02*
X265750000Y-101525000D01*
%TO.C,SW16*%
X244149998Y-100314998D02*
G75*
G02*
X239850002Y-100314998I-2149998J2314998D01*
G01*
X237250000Y-101525000D02*
X237250000Y-104725000D01*
X235500000Y-104725000D02*
X237250000Y-104725000D01*
X235500000Y-91275000D02*
X235500000Y-104725000D01*
X248500000Y-91275000D02*
X248500000Y-104725000D01*
X235500000Y-91275000D02*
X248500000Y-91275000D01*
X237250000Y-101525000D02*
X239850001Y-101525000D01*
X246750000Y-101525000D02*
X246750000Y-104725000D01*
X246750000Y-104725000D02*
X248500000Y-104725000D01*
X244149999Y-100314999D02*
X244149999Y-101525000D01*
X239850001Y-100314999D02*
X239850001Y-101525000D01*
X244149999Y-101525000D02*
X246750000Y-101525000D01*
%TO.C,SW15*%
X225149998Y-100314998D02*
G75*
G02*
X220850002Y-100314998I-2149998J2314998D01*
G01*
X218250000Y-101525000D02*
X218250000Y-104725000D01*
X216500000Y-104725000D02*
X218250000Y-104725000D01*
X216500000Y-91275000D02*
X216500000Y-104725000D01*
X229500000Y-91275000D02*
X229500000Y-104725000D01*
X216500000Y-91275000D02*
X229500000Y-91275000D01*
X218250000Y-101525000D02*
X220850001Y-101525000D01*
X227750000Y-101525000D02*
X227750000Y-104725000D01*
X227750000Y-104725000D02*
X229500000Y-104725000D01*
X225149999Y-100314999D02*
X225149999Y-101525000D01*
X220850001Y-100314999D02*
X220850001Y-101525000D01*
X225149999Y-101525000D02*
X227750000Y-101525000D01*
%TO.C,SW14*%
X206149998Y-100314998D02*
G75*
G02*
X201850002Y-100314998I-2149998J2314998D01*
G01*
X199250000Y-101525000D02*
X199250000Y-104725000D01*
X197500000Y-104725000D02*
X199250000Y-104725000D01*
X197500000Y-91275000D02*
X197500000Y-104725000D01*
X210500000Y-91275000D02*
X210500000Y-104725000D01*
X197500000Y-91275000D02*
X210500000Y-91275000D01*
X199250000Y-101525000D02*
X201850001Y-101525000D01*
X208750000Y-101525000D02*
X208750000Y-104725000D01*
X208750000Y-104725000D02*
X210500000Y-104725000D01*
X206149999Y-100314999D02*
X206149999Y-101525000D01*
X201850001Y-100314999D02*
X201850001Y-101525000D01*
X206149999Y-101525000D02*
X208750000Y-101525000D01*
%TO.C,SW13*%
X187149998Y-100314998D02*
G75*
G02*
X182850002Y-100314998I-2149998J2314998D01*
G01*
X180250000Y-101525000D02*
X180250000Y-104725000D01*
X178500000Y-104725000D02*
X180250000Y-104725000D01*
X178500000Y-91275000D02*
X178500000Y-104725000D01*
X191500000Y-91275000D02*
X191500000Y-104725000D01*
X178500000Y-91275000D02*
X191500000Y-91275000D01*
X180250000Y-101525000D02*
X182850001Y-101525000D01*
X189750000Y-101525000D02*
X189750000Y-104725000D01*
X189750000Y-104725000D02*
X191500000Y-104725000D01*
X187149999Y-100314999D02*
X187149999Y-101525000D01*
X182850001Y-100314999D02*
X182850001Y-101525000D01*
X187149999Y-101525000D02*
X189750000Y-101525000D01*
%TO.C,SW12*%
X168149998Y-100314998D02*
G75*
G02*
X163850002Y-100314998I-2149998J2314998D01*
G01*
X161250000Y-101525000D02*
X161250000Y-104725000D01*
X159500000Y-104725000D02*
X161250000Y-104725000D01*
X159500000Y-91275000D02*
X159500000Y-104725000D01*
X172500000Y-91275000D02*
X172500000Y-104725000D01*
X159500000Y-91275000D02*
X172500000Y-91275000D01*
X161250000Y-101525000D02*
X163850001Y-101525000D01*
X170750000Y-101525000D02*
X170750000Y-104725000D01*
X170750000Y-104725000D02*
X172500000Y-104725000D01*
X168149999Y-100314999D02*
X168149999Y-101525000D01*
X163850001Y-100314999D02*
X163850001Y-101525000D01*
X168149999Y-101525000D02*
X170750000Y-101525000D01*
%TO.C,SW11*%
X149149998Y-100314998D02*
G75*
G02*
X144850002Y-100314998I-2149998J2314998D01*
G01*
X142250000Y-101525000D02*
X142250000Y-104725000D01*
X140500000Y-104725000D02*
X142250000Y-104725000D01*
X140500000Y-91275000D02*
X140500000Y-104725000D01*
X153500000Y-91275000D02*
X153500000Y-104725000D01*
X140500000Y-91275000D02*
X153500000Y-91275000D01*
X142250000Y-101525000D02*
X144850001Y-101525000D01*
X151750000Y-101525000D02*
X151750000Y-104725000D01*
X151750000Y-104725000D02*
X153500000Y-104725000D01*
X149149999Y-100314999D02*
X149149999Y-101525000D01*
X144850001Y-100314999D02*
X144850001Y-101525000D01*
X149149999Y-101525000D02*
X151750000Y-101525000D01*
%TO.C,SW10*%
X130149998Y-100314998D02*
G75*
G02*
X125850002Y-100314998I-2149998J2314998D01*
G01*
X123250000Y-101525000D02*
X123250000Y-104725000D01*
X121500000Y-104725000D02*
X123250000Y-104725000D01*
X121500000Y-91275000D02*
X121500000Y-104725000D01*
X134500000Y-91275000D02*
X134500000Y-104725000D01*
X121500000Y-91275000D02*
X134500000Y-91275000D01*
X123250000Y-101525000D02*
X125850001Y-101525000D01*
X132750000Y-101525000D02*
X132750000Y-104725000D01*
X132750000Y-104725000D02*
X134500000Y-104725000D01*
X130149999Y-100314999D02*
X130149999Y-101525000D01*
X125850001Y-100314999D02*
X125850001Y-101525000D01*
X130149999Y-101525000D02*
X132750000Y-101525000D01*
%TO.C,SW9*%
X111149998Y-100314998D02*
G75*
G02*
X106850002Y-100314998I-2149998J2314998D01*
G01*
X104250000Y-101525000D02*
X104250000Y-104725000D01*
X102500000Y-104725000D02*
X104250000Y-104725000D01*
X102500000Y-91275000D02*
X102500000Y-104725000D01*
X115500000Y-91275000D02*
X115500000Y-104725000D01*
X102500000Y-91275000D02*
X115500000Y-91275000D01*
X104250000Y-101525000D02*
X106850001Y-101525000D01*
X113750000Y-101525000D02*
X113750000Y-104725000D01*
X113750000Y-104725000D02*
X115500000Y-104725000D01*
X111149999Y-100314999D02*
X111149999Y-101525000D01*
X106850001Y-100314999D02*
X106850001Y-101525000D01*
X111149999Y-101525000D02*
X113750000Y-101525000D01*
%TO.C,SW8*%
X92149998Y-100314998D02*
G75*
G02*
X87850002Y-100314998I-2149998J2314998D01*
G01*
X85250000Y-101525000D02*
X85250000Y-104725000D01*
X83500000Y-104725000D02*
X85250000Y-104725000D01*
X83500000Y-91275000D02*
X83500000Y-104725000D01*
X96500000Y-91275000D02*
X96500000Y-104725000D01*
X83500000Y-91275000D02*
X96500000Y-91275000D01*
X85250000Y-101525000D02*
X87850001Y-101525000D01*
X94750000Y-101525000D02*
X94750000Y-104725000D01*
X94750000Y-104725000D02*
X96500000Y-104725000D01*
X92149999Y-100314999D02*
X92149999Y-101525000D01*
X87850001Y-100314999D02*
X87850001Y-101525000D01*
X92149999Y-101525000D02*
X94750000Y-101525000D01*
%TO.C,SW7*%
X73149998Y-100314998D02*
G75*
G02*
X68850002Y-100314998I-2149998J2314998D01*
G01*
X66250000Y-101525000D02*
X66250000Y-104725000D01*
X64500000Y-104725000D02*
X66250000Y-104725000D01*
X64500000Y-91275000D02*
X64500000Y-104725000D01*
X77500000Y-91275000D02*
X77500000Y-104725000D01*
X64500000Y-91275000D02*
X77500000Y-91275000D01*
X66250000Y-101525000D02*
X68850001Y-101525000D01*
X75750000Y-101525000D02*
X75750000Y-104725000D01*
X75750000Y-104725000D02*
X77500000Y-104725000D01*
X73149999Y-100314999D02*
X73149999Y-101525000D01*
X68850001Y-100314999D02*
X68850001Y-101525000D01*
X73149999Y-101525000D02*
X75750000Y-101525000D01*
%TO.C,SW6*%
X54149998Y-100314998D02*
G75*
G02*
X49850002Y-100314998I-2149998J2314998D01*
G01*
X47250000Y-101525000D02*
X47250000Y-104725000D01*
X45500000Y-104725000D02*
X47250000Y-104725000D01*
X45500000Y-91275000D02*
X45500000Y-104725000D01*
X58500000Y-91275000D02*
X58500000Y-104725000D01*
X45500000Y-91275000D02*
X58500000Y-91275000D01*
X47250000Y-101525000D02*
X49850001Y-101525000D01*
X56750000Y-101525000D02*
X56750000Y-104725000D01*
X56750000Y-104725000D02*
X58500000Y-104725000D01*
X54149999Y-100314999D02*
X54149999Y-101525000D01*
X49850001Y-100314999D02*
X49850001Y-101525000D01*
X54149999Y-101525000D02*
X56750000Y-101525000D01*
%TO.C,SW5*%
X139649998Y-76564998D02*
G75*
G02*
X135350002Y-76564998I-2149998J2314998D01*
G01*
X132750000Y-77775000D02*
X132750000Y-80975000D01*
X131000000Y-80975000D02*
X132750000Y-80975000D01*
X131000000Y-67525000D02*
X131000000Y-80975000D01*
X144000000Y-67525000D02*
X144000000Y-80975000D01*
X131000000Y-67525000D02*
X144000000Y-67525000D01*
X132750000Y-77775000D02*
X135350001Y-77775000D01*
X142250000Y-77775000D02*
X142250000Y-80975000D01*
X142250000Y-80975000D02*
X144000000Y-80975000D01*
X139649999Y-76564999D02*
X139649999Y-77775000D01*
X135350001Y-76564999D02*
X135350001Y-77775000D01*
X139649999Y-77775000D02*
X142250000Y-77775000D01*
%TO.C,SW4*%
X120649998Y-76564998D02*
G75*
G02*
X116350002Y-76564998I-2149998J2314998D01*
G01*
X113750000Y-77775000D02*
X113750000Y-80975000D01*
X112000000Y-80975000D02*
X113750000Y-80975000D01*
X112000000Y-67525000D02*
X112000000Y-80975000D01*
X125000000Y-67525000D02*
X125000000Y-80975000D01*
X112000000Y-67525000D02*
X125000000Y-67525000D01*
X113750000Y-77775000D02*
X116350001Y-77775000D01*
X123250000Y-77775000D02*
X123250000Y-80975000D01*
X123250000Y-80975000D02*
X125000000Y-80975000D01*
X120649999Y-76564999D02*
X120649999Y-77775000D01*
X116350001Y-76564999D02*
X116350001Y-77775000D01*
X120649999Y-77775000D02*
X123250000Y-77775000D01*
%TO.C,SW3*%
X101649998Y-76564998D02*
G75*
G02*
X97350002Y-76564998I-2149998J2314998D01*
G01*
X94750000Y-77775000D02*
X94750000Y-80975000D01*
X93000000Y-80975000D02*
X94750000Y-80975000D01*
X93000000Y-67525000D02*
X93000000Y-80975000D01*
X106000000Y-67525000D02*
X106000000Y-80975000D01*
X93000000Y-67525000D02*
X106000000Y-67525000D01*
X94750000Y-77775000D02*
X97350001Y-77775000D01*
X104250000Y-77775000D02*
X104250000Y-80975000D01*
X104250000Y-80975000D02*
X106000000Y-80975000D01*
X101649999Y-76564999D02*
X101649999Y-77775000D01*
X97350001Y-76564999D02*
X97350001Y-77775000D01*
X101649999Y-77775000D02*
X104250000Y-77775000D01*
%TO.C,SW2*%
X82649998Y-76564998D02*
G75*
G02*
X78350002Y-76564998I-2149998J2314998D01*
G01*
X75750000Y-77775000D02*
X75750000Y-80975000D01*
X74000000Y-80975000D02*
X75750000Y-80975000D01*
X74000000Y-67525000D02*
X74000000Y-80975000D01*
X87000000Y-67525000D02*
X87000000Y-80975000D01*
X74000000Y-67525000D02*
X87000000Y-67525000D01*
X75750000Y-77775000D02*
X78350001Y-77775000D01*
X85250000Y-77775000D02*
X85250000Y-80975000D01*
X85250000Y-80975000D02*
X87000000Y-80975000D01*
X82649999Y-76564999D02*
X82649999Y-77775000D01*
X78350001Y-76564999D02*
X78350001Y-77775000D01*
X82649999Y-77775000D02*
X85250000Y-77775000D01*
%TO.C,SW1*%
X54149998Y-76564998D02*
G75*
G02*
X49850002Y-76564998I-2149998J2314998D01*
G01*
X47250000Y-77775000D02*
X47250000Y-80975000D01*
X45500000Y-80975000D02*
X47250000Y-80975000D01*
X45500000Y-67525000D02*
X45500000Y-80975000D01*
X58500000Y-67525000D02*
X58500000Y-80975000D01*
X45500000Y-67525000D02*
X58500000Y-67525000D01*
X47250000Y-77775000D02*
X49850001Y-77775000D01*
X56750000Y-77775000D02*
X56750000Y-80975000D01*
X56750000Y-80975000D02*
X58500000Y-80975000D01*
X54149999Y-76564999D02*
X54149999Y-77775000D01*
X49850001Y-76564999D02*
X49850001Y-77775000D01*
X54149999Y-77775000D02*
X56750000Y-77775000D01*
%TO.C,R4*%
X300020000Y-62533000D02*
X303860000Y-62533000D01*
X300020000Y-64373000D02*
X303860000Y-64373000D01*
%TO.C,U1*%
X315170000Y-65720000D02*
X315170000Y-71180000D01*
X366090000Y-65720000D02*
X315170000Y-65720000D01*
X366090000Y-78640000D02*
X366090000Y-65720000D01*
X315170000Y-78640000D02*
X366090000Y-78640000D01*
X315170000Y-73180000D02*
X315170000Y-78640000D01*
X315170000Y-71180000D02*
G75*
G02*
X315170000Y-73180000I0J-1000000D01*
G01*
%TO.C,J2*%
X295300000Y-75350000D02*
X295300000Y-59750000D01*
X282000000Y-75350000D02*
X295300000Y-75350000D01*
X282000000Y-75350000D02*
X282000000Y-59750000D01*
X295300000Y-59750000D02*
X293050000Y-59750000D01*
X284250000Y-60750000D02*
X293050000Y-60750000D01*
X293050000Y-59750000D02*
X293050000Y-60750000D01*
X284250000Y-59750000D02*
X284250000Y-60750000D01*
X284250000Y-59750000D02*
X282000000Y-59750000D01*
%TO.C,Y1*%
X349260000Y-82331000D02*
X342860000Y-82331000D01*
X349260000Y-87381000D02*
X342860000Y-87381000D01*
X342860000Y-82331000D02*
G75*
G03*
X342860000Y-87381000I0J-2525000D01*
G01*
X349260000Y-82331000D02*
G75*
G02*
X349260000Y-87381000I0J-2525000D01*
G01*
%TO.C,R3*%
X300020000Y-65408000D02*
X303860000Y-65408000D01*
X300020000Y-67248000D02*
X303860000Y-67248000D01*
%TO.C,D77*%
X278354000Y-76604000D02*
X278354000Y-73764000D01*
X278114000Y-76604000D02*
X278114000Y-73764000D01*
X278234000Y-76604000D02*
X278234000Y-73764000D01*
X275394000Y-73764000D02*
X275394000Y-73944000D01*
X278834000Y-73764000D02*
X275394000Y-73764000D01*
X278834000Y-73944000D02*
X278834000Y-73764000D01*
X275394000Y-76604000D02*
X275394000Y-76424000D01*
X278834000Y-76604000D02*
X275394000Y-76604000D01*
X278834000Y-76424000D02*
X278834000Y-76604000D01*
%TO.C,D76*%
X278354000Y-73048000D02*
X278354000Y-70208000D01*
X278114000Y-73048000D02*
X278114000Y-70208000D01*
X278234000Y-73048000D02*
X278234000Y-70208000D01*
X275394000Y-70208000D02*
X275394000Y-70388000D01*
X278834000Y-70208000D02*
X275394000Y-70208000D01*
X278834000Y-70388000D02*
X278834000Y-70208000D01*
X275394000Y-73048000D02*
X275394000Y-72868000D01*
X278834000Y-73048000D02*
X275394000Y-73048000D01*
X278834000Y-72868000D02*
X278834000Y-73048000D01*
%TO.C,SW_RESET1*%
X266138000Y-66832000D02*
X266138000Y-65332000D01*
X264888000Y-62832000D02*
X260388000Y-62832000D01*
X259138000Y-65332000D02*
X259138000Y-66832000D01*
X260388000Y-69332000D02*
X264888000Y-69332000D01*
%TO.C,SW_BOOT1*%
X277888000Y-66832000D02*
X277888000Y-65332000D01*
X276638000Y-62832000D02*
X272138000Y-62832000D01*
X270888000Y-65332000D02*
X270888000Y-66832000D01*
X272138000Y-69332000D02*
X276638000Y-69332000D01*
%TO.C,R2*%
X303860000Y-70123000D02*
X300020000Y-70123000D01*
X303860000Y-68283000D02*
X300020000Y-68283000D01*
%TO.C,R1*%
X303860000Y-72998000D02*
X300020000Y-72998000D01*
X303860000Y-71158000D02*
X300020000Y-71158000D01*
%TO.C,C4*%
X330907103Y-86192902D02*
X330896496Y-86182295D01*
X332409705Y-87695504D02*
X332399098Y-87684897D01*
X334117368Y-82982637D02*
X334106761Y-82972030D01*
X335619970Y-84485239D02*
X335609363Y-84474632D01*
X334106761Y-82972030D02*
X330896496Y-86182295D01*
X335619970Y-84485239D02*
X332409705Y-87695504D01*
%TO.C,C3*%
X303665000Y-73879225D02*
X303165000Y-73879225D01*
X303415000Y-73629225D02*
X303415000Y-74129225D01*
X302224000Y-79035000D02*
X301656000Y-79035000D01*
X302458000Y-78995000D02*
X301422000Y-78995000D01*
X302617000Y-78955000D02*
X301263000Y-78955000D01*
X302745000Y-78915000D02*
X301135000Y-78915000D01*
X302855000Y-78875000D02*
X301025000Y-78875000D01*
X302951000Y-78835000D02*
X300929000Y-78835000D01*
X303038000Y-78795000D02*
X300842000Y-78795000D01*
X303118000Y-78755000D02*
X300762000Y-78755000D01*
X300900000Y-78715000D02*
X300689000Y-78715000D01*
X303191000Y-78715000D02*
X302980000Y-78715000D01*
X300900000Y-78675000D02*
X300621000Y-78675000D01*
X303259000Y-78675000D02*
X302980000Y-78675000D01*
X300900000Y-78635000D02*
X300557000Y-78635000D01*
X303323000Y-78635000D02*
X302980000Y-78635000D01*
X300900000Y-78595000D02*
X300497000Y-78595000D01*
X303383000Y-78595000D02*
X302980000Y-78595000D01*
X300900000Y-78555000D02*
X300440000Y-78555000D01*
X303440000Y-78555000D02*
X302980000Y-78555000D01*
X300900000Y-78515000D02*
X300386000Y-78515000D01*
X303494000Y-78515000D02*
X302980000Y-78515000D01*
X300900000Y-78475000D02*
X300335000Y-78475000D01*
X303545000Y-78475000D02*
X302980000Y-78475000D01*
X300900000Y-78435000D02*
X300287000Y-78435000D01*
X303593000Y-78435000D02*
X302980000Y-78435000D01*
X300900000Y-78395000D02*
X300241000Y-78395000D01*
X303639000Y-78395000D02*
X302980000Y-78395000D01*
X300900000Y-78355000D02*
X300197000Y-78355000D01*
X303683000Y-78355000D02*
X302980000Y-78355000D01*
X300900000Y-78315000D02*
X300155000Y-78315000D01*
X303725000Y-78315000D02*
X302980000Y-78315000D01*
X300900000Y-78275000D02*
X300114000Y-78275000D01*
X303766000Y-78275000D02*
X302980000Y-78275000D01*
X300900000Y-78235000D02*
X300076000Y-78235000D01*
X303804000Y-78235000D02*
X302980000Y-78235000D01*
X300900000Y-78195000D02*
X300039000Y-78195000D01*
X303841000Y-78195000D02*
X302980000Y-78195000D01*
X300900000Y-78155000D02*
X300003000Y-78155000D01*
X303877000Y-78155000D02*
X302980000Y-78155000D01*
X300900000Y-78115000D02*
X299969000Y-78115000D01*
X303911000Y-78115000D02*
X302980000Y-78115000D01*
X300900000Y-78075000D02*
X299936000Y-78075000D01*
X303944000Y-78075000D02*
X302980000Y-78075000D01*
X300900000Y-78035000D02*
X299905000Y-78035000D01*
X303975000Y-78035000D02*
X302980000Y-78035000D01*
X300900000Y-77995000D02*
X299875000Y-77995000D01*
X304005000Y-77995000D02*
X302980000Y-77995000D01*
X300900000Y-77955000D02*
X299845000Y-77955000D01*
X304035000Y-77955000D02*
X302980000Y-77955000D01*
X300900000Y-77915000D02*
X299818000Y-77915000D01*
X304062000Y-77915000D02*
X302980000Y-77915000D01*
X300900000Y-77875000D02*
X299791000Y-77875000D01*
X304089000Y-77875000D02*
X302980000Y-77875000D01*
X300900000Y-77835000D02*
X299765000Y-77835000D01*
X304115000Y-77835000D02*
X302980000Y-77835000D01*
X300900000Y-77795000D02*
X299740000Y-77795000D01*
X304140000Y-77795000D02*
X302980000Y-77795000D01*
X300900000Y-77755000D02*
X299716000Y-77755000D01*
X304164000Y-77755000D02*
X302980000Y-77755000D01*
X300900000Y-77715000D02*
X299693000Y-77715000D01*
X304187000Y-77715000D02*
X302980000Y-77715000D01*
X300900000Y-77675000D02*
X299672000Y-77675000D01*
X304208000Y-77675000D02*
X302980000Y-77675000D01*
X300900000Y-77635000D02*
X299650000Y-77635000D01*
X304230000Y-77635000D02*
X302980000Y-77635000D01*
X300900000Y-77595000D02*
X299630000Y-77595000D01*
X304250000Y-77595000D02*
X302980000Y-77595000D01*
X300900000Y-77555000D02*
X299611000Y-77555000D01*
X304269000Y-77555000D02*
X302980000Y-77555000D01*
X300900000Y-77515000D02*
X299592000Y-77515000D01*
X304288000Y-77515000D02*
X302980000Y-77515000D01*
X300900000Y-77475000D02*
X299575000Y-77475000D01*
X304305000Y-77475000D02*
X302980000Y-77475000D01*
X300900000Y-77435000D02*
X299558000Y-77435000D01*
X304322000Y-77435000D02*
X302980000Y-77435000D01*
X300900000Y-77395000D02*
X299542000Y-77395000D01*
X304338000Y-77395000D02*
X302980000Y-77395000D01*
X300900000Y-77355000D02*
X299526000Y-77355000D01*
X304354000Y-77355000D02*
X302980000Y-77355000D01*
X300900000Y-77315000D02*
X299512000Y-77315000D01*
X304368000Y-77315000D02*
X302980000Y-77315000D01*
X300900000Y-77275000D02*
X299498000Y-77275000D01*
X304382000Y-77275000D02*
X302980000Y-77275000D01*
X300900000Y-77235000D02*
X299485000Y-77235000D01*
X304395000Y-77235000D02*
X302980000Y-77235000D01*
X300900000Y-77195000D02*
X299472000Y-77195000D01*
X304408000Y-77195000D02*
X302980000Y-77195000D01*
X300900000Y-77155000D02*
X299460000Y-77155000D01*
X304420000Y-77155000D02*
X302980000Y-77155000D01*
X300900000Y-77114000D02*
X299449000Y-77114000D01*
X304431000Y-77114000D02*
X302980000Y-77114000D01*
X300900000Y-77074000D02*
X299439000Y-77074000D01*
X304441000Y-77074000D02*
X302980000Y-77074000D01*
X300900000Y-77034000D02*
X299429000Y-77034000D01*
X304451000Y-77034000D02*
X302980000Y-77034000D01*
X300900000Y-76994000D02*
X299420000Y-76994000D01*
X304460000Y-76994000D02*
X302980000Y-76994000D01*
X300900000Y-76954000D02*
X299412000Y-76954000D01*
X304468000Y-76954000D02*
X302980000Y-76954000D01*
X300900000Y-76914000D02*
X299404000Y-76914000D01*
X304476000Y-76914000D02*
X302980000Y-76914000D01*
X300900000Y-76874000D02*
X299397000Y-76874000D01*
X304483000Y-76874000D02*
X302980000Y-76874000D01*
X300900000Y-76834000D02*
X299390000Y-76834000D01*
X304490000Y-76834000D02*
X302980000Y-76834000D01*
X300900000Y-76794000D02*
X299384000Y-76794000D01*
X304496000Y-76794000D02*
X302980000Y-76794000D01*
X300900000Y-76754000D02*
X299379000Y-76754000D01*
X304501000Y-76754000D02*
X302980000Y-76754000D01*
X300900000Y-76714000D02*
X299375000Y-76714000D01*
X304505000Y-76714000D02*
X302980000Y-76714000D01*
X300900000Y-76674000D02*
X299371000Y-76674000D01*
X304509000Y-76674000D02*
X302980000Y-76674000D01*
X304513000Y-76634000D02*
X299367000Y-76634000D01*
X304516000Y-76594000D02*
X299364000Y-76594000D01*
X304518000Y-76554000D02*
X299362000Y-76554000D01*
X304519000Y-76514000D02*
X299361000Y-76514000D01*
X304520000Y-76474000D02*
X299360000Y-76474000D01*
X304520000Y-76434000D02*
X299360000Y-76434000D01*
X304560000Y-76434000D02*
G75*
G03*
X304560000Y-76434000I-2620000J0D01*
G01*
%TO.C,C2*%
X339123000Y-82836000D02*
X339748000Y-82836000D01*
X336908000Y-82836000D02*
X337533000Y-82836000D01*
X339123000Y-86876000D02*
X339748000Y-86876000D01*
X336908000Y-86876000D02*
X337533000Y-86876000D01*
X339748000Y-86876000D02*
X339748000Y-82836000D01*
X336908000Y-86876000D02*
X336908000Y-82836000D01*
%TO.C,C1*%
X354617000Y-82836000D02*
X355242000Y-82836000D01*
X352402000Y-82836000D02*
X353027000Y-82836000D01*
X354617000Y-86876000D02*
X355242000Y-86876000D01*
X352402000Y-86876000D02*
X353027000Y-86876000D01*
X355242000Y-86876000D02*
X355242000Y-82836000D01*
X352402000Y-86876000D02*
X352402000Y-82836000D01*
%TO.C,SW75*%
D11*
X358940476Y-187909761D02*
X359083333Y-187957380D01*
X359321428Y-187957380D01*
X359416666Y-187909761D01*
X359464285Y-187862142D01*
X359511904Y-187766904D01*
X359511904Y-187671666D01*
X359464285Y-187576428D01*
X359416666Y-187528809D01*
X359321428Y-187481190D01*
X359130952Y-187433571D01*
X359035714Y-187385952D01*
X358988095Y-187338333D01*
X358940476Y-187243095D01*
X358940476Y-187147857D01*
X358988095Y-187052619D01*
X359035714Y-187005000D01*
X359130952Y-186957380D01*
X359369047Y-186957380D01*
X359511904Y-187005000D01*
X359845238Y-186957380D02*
X360083333Y-187957380D01*
X360273809Y-187243095D01*
X360464285Y-187957380D01*
X360702380Y-186957380D01*
X360988095Y-186957380D02*
X361654761Y-186957380D01*
X361226190Y-187957380D01*
X362511904Y-186957380D02*
X362035714Y-186957380D01*
X361988095Y-187433571D01*
X362035714Y-187385952D01*
X362130952Y-187338333D01*
X362369047Y-187338333D01*
X362464285Y-187385952D01*
X362511904Y-187433571D01*
X362559523Y-187528809D01*
X362559523Y-187766904D01*
X362511904Y-187862142D01*
X362464285Y-187909761D01*
X362369047Y-187957380D01*
X362130952Y-187957380D01*
X362035714Y-187909761D01*
X361988095Y-187862142D01*
%TO.C,SW74*%
X339940476Y-187909761D02*
X340083333Y-187957380D01*
X340321428Y-187957380D01*
X340416666Y-187909761D01*
X340464285Y-187862142D01*
X340511904Y-187766904D01*
X340511904Y-187671666D01*
X340464285Y-187576428D01*
X340416666Y-187528809D01*
X340321428Y-187481190D01*
X340130952Y-187433571D01*
X340035714Y-187385952D01*
X339988095Y-187338333D01*
X339940476Y-187243095D01*
X339940476Y-187147857D01*
X339988095Y-187052619D01*
X340035714Y-187005000D01*
X340130952Y-186957380D01*
X340369047Y-186957380D01*
X340511904Y-187005000D01*
X340845238Y-186957380D02*
X341083333Y-187957380D01*
X341273809Y-187243095D01*
X341464285Y-187957380D01*
X341702380Y-186957380D01*
X341988095Y-186957380D02*
X342654761Y-186957380D01*
X342226190Y-187957380D01*
X343464285Y-187290714D02*
X343464285Y-187957380D01*
X343226190Y-186909761D02*
X342988095Y-187624047D01*
X343607142Y-187624047D01*
%TO.C,SW73*%
X320940476Y-187909761D02*
X321083333Y-187957380D01*
X321321428Y-187957380D01*
X321416666Y-187909761D01*
X321464285Y-187862142D01*
X321511904Y-187766904D01*
X321511904Y-187671666D01*
X321464285Y-187576428D01*
X321416666Y-187528809D01*
X321321428Y-187481190D01*
X321130952Y-187433571D01*
X321035714Y-187385952D01*
X320988095Y-187338333D01*
X320940476Y-187243095D01*
X320940476Y-187147857D01*
X320988095Y-187052619D01*
X321035714Y-187005000D01*
X321130952Y-186957380D01*
X321369047Y-186957380D01*
X321511904Y-187005000D01*
X321845238Y-186957380D02*
X322083333Y-187957380D01*
X322273809Y-187243095D01*
X322464285Y-187957380D01*
X322702380Y-186957380D01*
X322988095Y-186957380D02*
X323654761Y-186957380D01*
X323226190Y-187957380D01*
X323940476Y-186957380D02*
X324559523Y-186957380D01*
X324226190Y-187338333D01*
X324369047Y-187338333D01*
X324464285Y-187385952D01*
X324511904Y-187433571D01*
X324559523Y-187528809D01*
X324559523Y-187766904D01*
X324511904Y-187862142D01*
X324464285Y-187909761D01*
X324369047Y-187957380D01*
X324083333Y-187957380D01*
X323988095Y-187909761D01*
X323940476Y-187862142D01*
%TO.C,SW72*%
X290065476Y-183159761D02*
X290208333Y-183207380D01*
X290446428Y-183207380D01*
X290541666Y-183159761D01*
X290589285Y-183112142D01*
X290636904Y-183016904D01*
X290636904Y-182921666D01*
X290589285Y-182826428D01*
X290541666Y-182778809D01*
X290446428Y-182731190D01*
X290255952Y-182683571D01*
X290160714Y-182635952D01*
X290113095Y-182588333D01*
X290065476Y-182493095D01*
X290065476Y-182397857D01*
X290113095Y-182302619D01*
X290160714Y-182255000D01*
X290255952Y-182207380D01*
X290494047Y-182207380D01*
X290636904Y-182255000D01*
X290970238Y-182207380D02*
X291208333Y-183207380D01*
X291398809Y-182493095D01*
X291589285Y-183207380D01*
X291827380Y-182207380D01*
X292113095Y-182207380D02*
X292779761Y-182207380D01*
X292351190Y-183207380D01*
X293113095Y-182302619D02*
X293160714Y-182255000D01*
X293255952Y-182207380D01*
X293494047Y-182207380D01*
X293589285Y-182255000D01*
X293636904Y-182302619D01*
X293684523Y-182397857D01*
X293684523Y-182493095D01*
X293636904Y-182635952D01*
X293065476Y-183207380D01*
X293684523Y-183207380D01*
%TO.C,SW71*%
X266315476Y-183159761D02*
X266458333Y-183207380D01*
X266696428Y-183207380D01*
X266791666Y-183159761D01*
X266839285Y-183112142D01*
X266886904Y-183016904D01*
X266886904Y-182921666D01*
X266839285Y-182826428D01*
X266791666Y-182778809D01*
X266696428Y-182731190D01*
X266505952Y-182683571D01*
X266410714Y-182635952D01*
X266363095Y-182588333D01*
X266315476Y-182493095D01*
X266315476Y-182397857D01*
X266363095Y-182302619D01*
X266410714Y-182255000D01*
X266505952Y-182207380D01*
X266744047Y-182207380D01*
X266886904Y-182255000D01*
X267220238Y-182207380D02*
X267458333Y-183207380D01*
X267648809Y-182493095D01*
X267839285Y-183207380D01*
X268077380Y-182207380D01*
X268363095Y-182207380D02*
X269029761Y-182207380D01*
X268601190Y-183207380D01*
X269934523Y-183207380D02*
X269363095Y-183207380D01*
X269648809Y-183207380D02*
X269648809Y-182207380D01*
X269553571Y-182350238D01*
X269458333Y-182445476D01*
X269363095Y-182493095D01*
%TO.C,SW70*%
X195065476Y-183159761D02*
X195208333Y-183207380D01*
X195446428Y-183207380D01*
X195541666Y-183159761D01*
X195589285Y-183112142D01*
X195636904Y-183016904D01*
X195636904Y-182921666D01*
X195589285Y-182826428D01*
X195541666Y-182778809D01*
X195446428Y-182731190D01*
X195255952Y-182683571D01*
X195160714Y-182635952D01*
X195113095Y-182588333D01*
X195065476Y-182493095D01*
X195065476Y-182397857D01*
X195113095Y-182302619D01*
X195160714Y-182255000D01*
X195255952Y-182207380D01*
X195494047Y-182207380D01*
X195636904Y-182255000D01*
X195970238Y-182207380D02*
X196208333Y-183207380D01*
X196398809Y-182493095D01*
X196589285Y-183207380D01*
X196827380Y-182207380D01*
X197113095Y-182207380D02*
X197779761Y-182207380D01*
X197351190Y-183207380D01*
X198351190Y-182207380D02*
X198446428Y-182207380D01*
X198541666Y-182255000D01*
X198589285Y-182302619D01*
X198636904Y-182397857D01*
X198684523Y-182588333D01*
X198684523Y-182826428D01*
X198636904Y-183016904D01*
X198589285Y-183112142D01*
X198541666Y-183159761D01*
X198446428Y-183207380D01*
X198351190Y-183207380D01*
X198255952Y-183159761D01*
X198208333Y-183112142D01*
X198160714Y-183016904D01*
X198113095Y-182826428D01*
X198113095Y-182588333D01*
X198160714Y-182397857D01*
X198208333Y-182302619D01*
X198255952Y-182255000D01*
X198351190Y-182207380D01*
%TO.C,SW69*%
X123815476Y-183159761D02*
X123958333Y-183207380D01*
X124196428Y-183207380D01*
X124291666Y-183159761D01*
X124339285Y-183112142D01*
X124386904Y-183016904D01*
X124386904Y-182921666D01*
X124339285Y-182826428D01*
X124291666Y-182778809D01*
X124196428Y-182731190D01*
X124005952Y-182683571D01*
X123910714Y-182635952D01*
X123863095Y-182588333D01*
X123815476Y-182493095D01*
X123815476Y-182397857D01*
X123863095Y-182302619D01*
X123910714Y-182255000D01*
X124005952Y-182207380D01*
X124244047Y-182207380D01*
X124386904Y-182255000D01*
X124720238Y-182207380D02*
X124958333Y-183207380D01*
X125148809Y-182493095D01*
X125339285Y-183207380D01*
X125577380Y-182207380D01*
X126386904Y-182207380D02*
X126196428Y-182207380D01*
X126101190Y-182255000D01*
X126053571Y-182302619D01*
X125958333Y-182445476D01*
X125910714Y-182635952D01*
X125910714Y-183016904D01*
X125958333Y-183112142D01*
X126005952Y-183159761D01*
X126101190Y-183207380D01*
X126291666Y-183207380D01*
X126386904Y-183159761D01*
X126434523Y-183112142D01*
X126482142Y-183016904D01*
X126482142Y-182778809D01*
X126434523Y-182683571D01*
X126386904Y-182635952D01*
X126291666Y-182588333D01*
X126101190Y-182588333D01*
X126005952Y-182635952D01*
X125958333Y-182683571D01*
X125910714Y-182778809D01*
X126958333Y-183207380D02*
X127148809Y-183207380D01*
X127244047Y-183159761D01*
X127291666Y-183112142D01*
X127386904Y-182969285D01*
X127434523Y-182778809D01*
X127434523Y-182397857D01*
X127386904Y-182302619D01*
X127339285Y-182255000D01*
X127244047Y-182207380D01*
X127053571Y-182207380D01*
X126958333Y-182255000D01*
X126910714Y-182302619D01*
X126863095Y-182397857D01*
X126863095Y-182635952D01*
X126910714Y-182731190D01*
X126958333Y-182778809D01*
X127053571Y-182826428D01*
X127244047Y-182826428D01*
X127339285Y-182778809D01*
X127386904Y-182731190D01*
X127434523Y-182635952D01*
%TO.C,SW68*%
X100065476Y-183159761D02*
X100208333Y-183207380D01*
X100446428Y-183207380D01*
X100541666Y-183159761D01*
X100589285Y-183112142D01*
X100636904Y-183016904D01*
X100636904Y-182921666D01*
X100589285Y-182826428D01*
X100541666Y-182778809D01*
X100446428Y-182731190D01*
X100255952Y-182683571D01*
X100160714Y-182635952D01*
X100113095Y-182588333D01*
X100065476Y-182493095D01*
X100065476Y-182397857D01*
X100113095Y-182302619D01*
X100160714Y-182255000D01*
X100255952Y-182207380D01*
X100494047Y-182207380D01*
X100636904Y-182255000D01*
X100970238Y-182207380D02*
X101208333Y-183207380D01*
X101398809Y-182493095D01*
X101589285Y-183207380D01*
X101827380Y-182207380D01*
X102636904Y-182207380D02*
X102446428Y-182207380D01*
X102351190Y-182255000D01*
X102303571Y-182302619D01*
X102208333Y-182445476D01*
X102160714Y-182635952D01*
X102160714Y-183016904D01*
X102208333Y-183112142D01*
X102255952Y-183159761D01*
X102351190Y-183207380D01*
X102541666Y-183207380D01*
X102636904Y-183159761D01*
X102684523Y-183112142D01*
X102732142Y-183016904D01*
X102732142Y-182778809D01*
X102684523Y-182683571D01*
X102636904Y-182635952D01*
X102541666Y-182588333D01*
X102351190Y-182588333D01*
X102255952Y-182635952D01*
X102208333Y-182683571D01*
X102160714Y-182778809D01*
X103303571Y-182635952D02*
X103208333Y-182588333D01*
X103160714Y-182540714D01*
X103113095Y-182445476D01*
X103113095Y-182397857D01*
X103160714Y-182302619D01*
X103208333Y-182255000D01*
X103303571Y-182207380D01*
X103494047Y-182207380D01*
X103589285Y-182255000D01*
X103636904Y-182302619D01*
X103684523Y-182397857D01*
X103684523Y-182445476D01*
X103636904Y-182540714D01*
X103589285Y-182588333D01*
X103494047Y-182635952D01*
X103303571Y-182635952D01*
X103208333Y-182683571D01*
X103160714Y-182731190D01*
X103113095Y-182826428D01*
X103113095Y-183016904D01*
X103160714Y-183112142D01*
X103208333Y-183159761D01*
X103303571Y-183207380D01*
X103494047Y-183207380D01*
X103589285Y-183159761D01*
X103636904Y-183112142D01*
X103684523Y-183016904D01*
X103684523Y-182826428D01*
X103636904Y-182731190D01*
X103589285Y-182683571D01*
X103494047Y-182635952D01*
%TO.C,SW67*%
X76315476Y-183159761D02*
X76458333Y-183207380D01*
X76696428Y-183207380D01*
X76791666Y-183159761D01*
X76839285Y-183112142D01*
X76886904Y-183016904D01*
X76886904Y-182921666D01*
X76839285Y-182826428D01*
X76791666Y-182778809D01*
X76696428Y-182731190D01*
X76505952Y-182683571D01*
X76410714Y-182635952D01*
X76363095Y-182588333D01*
X76315476Y-182493095D01*
X76315476Y-182397857D01*
X76363095Y-182302619D01*
X76410714Y-182255000D01*
X76505952Y-182207380D01*
X76744047Y-182207380D01*
X76886904Y-182255000D01*
X77220238Y-182207380D02*
X77458333Y-183207380D01*
X77648809Y-182493095D01*
X77839285Y-183207380D01*
X78077380Y-182207380D01*
X78886904Y-182207380D02*
X78696428Y-182207380D01*
X78601190Y-182255000D01*
X78553571Y-182302619D01*
X78458333Y-182445476D01*
X78410714Y-182635952D01*
X78410714Y-183016904D01*
X78458333Y-183112142D01*
X78505952Y-183159761D01*
X78601190Y-183207380D01*
X78791666Y-183207380D01*
X78886904Y-183159761D01*
X78934523Y-183112142D01*
X78982142Y-183016904D01*
X78982142Y-182778809D01*
X78934523Y-182683571D01*
X78886904Y-182635952D01*
X78791666Y-182588333D01*
X78601190Y-182588333D01*
X78505952Y-182635952D01*
X78458333Y-182683571D01*
X78410714Y-182778809D01*
X79315476Y-182207380D02*
X79982142Y-182207380D01*
X79553571Y-183207380D01*
%TO.C,SW66*%
X52565476Y-183159761D02*
X52708333Y-183207380D01*
X52946428Y-183207380D01*
X53041666Y-183159761D01*
X53089285Y-183112142D01*
X53136904Y-183016904D01*
X53136904Y-182921666D01*
X53089285Y-182826428D01*
X53041666Y-182778809D01*
X52946428Y-182731190D01*
X52755952Y-182683571D01*
X52660714Y-182635952D01*
X52613095Y-182588333D01*
X52565476Y-182493095D01*
X52565476Y-182397857D01*
X52613095Y-182302619D01*
X52660714Y-182255000D01*
X52755952Y-182207380D01*
X52994047Y-182207380D01*
X53136904Y-182255000D01*
X53470238Y-182207380D02*
X53708333Y-183207380D01*
X53898809Y-182493095D01*
X54089285Y-183207380D01*
X54327380Y-182207380D01*
X55136904Y-182207380D02*
X54946428Y-182207380D01*
X54851190Y-182255000D01*
X54803571Y-182302619D01*
X54708333Y-182445476D01*
X54660714Y-182635952D01*
X54660714Y-183016904D01*
X54708333Y-183112142D01*
X54755952Y-183159761D01*
X54851190Y-183207380D01*
X55041666Y-183207380D01*
X55136904Y-183159761D01*
X55184523Y-183112142D01*
X55232142Y-183016904D01*
X55232142Y-182778809D01*
X55184523Y-182683571D01*
X55136904Y-182635952D01*
X55041666Y-182588333D01*
X54851190Y-182588333D01*
X54755952Y-182635952D01*
X54708333Y-182683571D01*
X54660714Y-182778809D01*
X56089285Y-182207380D02*
X55898809Y-182207380D01*
X55803571Y-182255000D01*
X55755952Y-182302619D01*
X55660714Y-182445476D01*
X55613095Y-182635952D01*
X55613095Y-183016904D01*
X55660714Y-183112142D01*
X55708333Y-183159761D01*
X55803571Y-183207380D01*
X55994047Y-183207380D01*
X56089285Y-183159761D01*
X56136904Y-183112142D01*
X56184523Y-183016904D01*
X56184523Y-182778809D01*
X56136904Y-182683571D01*
X56089285Y-182635952D01*
X55994047Y-182588333D01*
X55803571Y-182588333D01*
X55708333Y-182635952D01*
X55660714Y-182683571D01*
X55613095Y-182778809D01*
%TO.C,SW65*%
X339940476Y-168909761D02*
X340083333Y-168957380D01*
X340321428Y-168957380D01*
X340416666Y-168909761D01*
X340464285Y-168862142D01*
X340511904Y-168766904D01*
X340511904Y-168671666D01*
X340464285Y-168576428D01*
X340416666Y-168528809D01*
X340321428Y-168481190D01*
X340130952Y-168433571D01*
X340035714Y-168385952D01*
X339988095Y-168338333D01*
X339940476Y-168243095D01*
X339940476Y-168147857D01*
X339988095Y-168052619D01*
X340035714Y-168005000D01*
X340130952Y-167957380D01*
X340369047Y-167957380D01*
X340511904Y-168005000D01*
X340845238Y-167957380D02*
X341083333Y-168957380D01*
X341273809Y-168243095D01*
X341464285Y-168957380D01*
X341702380Y-167957380D01*
X342511904Y-167957380D02*
X342321428Y-167957380D01*
X342226190Y-168005000D01*
X342178571Y-168052619D01*
X342083333Y-168195476D01*
X342035714Y-168385952D01*
X342035714Y-168766904D01*
X342083333Y-168862142D01*
X342130952Y-168909761D01*
X342226190Y-168957380D01*
X342416666Y-168957380D01*
X342511904Y-168909761D01*
X342559523Y-168862142D01*
X342607142Y-168766904D01*
X342607142Y-168528809D01*
X342559523Y-168433571D01*
X342511904Y-168385952D01*
X342416666Y-168338333D01*
X342226190Y-168338333D01*
X342130952Y-168385952D01*
X342083333Y-168433571D01*
X342035714Y-168528809D01*
X343511904Y-167957380D02*
X343035714Y-167957380D01*
X342988095Y-168433571D01*
X343035714Y-168385952D01*
X343130952Y-168338333D01*
X343369047Y-168338333D01*
X343464285Y-168385952D01*
X343511904Y-168433571D01*
X343559523Y-168528809D01*
X343559523Y-168766904D01*
X343511904Y-168862142D01*
X343464285Y-168909761D01*
X343369047Y-168957380D01*
X343130952Y-168957380D01*
X343035714Y-168909761D01*
X342988095Y-168862142D01*
%TO.C,SW64*%
X299565476Y-164159761D02*
X299708333Y-164207380D01*
X299946428Y-164207380D01*
X300041666Y-164159761D01*
X300089285Y-164112142D01*
X300136904Y-164016904D01*
X300136904Y-163921666D01*
X300089285Y-163826428D01*
X300041666Y-163778809D01*
X299946428Y-163731190D01*
X299755952Y-163683571D01*
X299660714Y-163635952D01*
X299613095Y-163588333D01*
X299565476Y-163493095D01*
X299565476Y-163397857D01*
X299613095Y-163302619D01*
X299660714Y-163255000D01*
X299755952Y-163207380D01*
X299994047Y-163207380D01*
X300136904Y-163255000D01*
X300470238Y-163207380D02*
X300708333Y-164207380D01*
X300898809Y-163493095D01*
X301089285Y-164207380D01*
X301327380Y-163207380D01*
X302136904Y-163207380D02*
X301946428Y-163207380D01*
X301851190Y-163255000D01*
X301803571Y-163302619D01*
X301708333Y-163445476D01*
X301660714Y-163635952D01*
X301660714Y-164016904D01*
X301708333Y-164112142D01*
X301755952Y-164159761D01*
X301851190Y-164207380D01*
X302041666Y-164207380D01*
X302136904Y-164159761D01*
X302184523Y-164112142D01*
X302232142Y-164016904D01*
X302232142Y-163778809D01*
X302184523Y-163683571D01*
X302136904Y-163635952D01*
X302041666Y-163588333D01*
X301851190Y-163588333D01*
X301755952Y-163635952D01*
X301708333Y-163683571D01*
X301660714Y-163778809D01*
X303089285Y-163540714D02*
X303089285Y-164207380D01*
X302851190Y-163159761D02*
X302613095Y-163874047D01*
X303232142Y-163874047D01*
%TO.C,SW63*%
X263940476Y-164159761D02*
X264083333Y-164207380D01*
X264321428Y-164207380D01*
X264416666Y-164159761D01*
X264464285Y-164112142D01*
X264511904Y-164016904D01*
X264511904Y-163921666D01*
X264464285Y-163826428D01*
X264416666Y-163778809D01*
X264321428Y-163731190D01*
X264130952Y-163683571D01*
X264035714Y-163635952D01*
X263988095Y-163588333D01*
X263940476Y-163493095D01*
X263940476Y-163397857D01*
X263988095Y-163302619D01*
X264035714Y-163255000D01*
X264130952Y-163207380D01*
X264369047Y-163207380D01*
X264511904Y-163255000D01*
X264845238Y-163207380D02*
X265083333Y-164207380D01*
X265273809Y-163493095D01*
X265464285Y-164207380D01*
X265702380Y-163207380D01*
X266511904Y-163207380D02*
X266321428Y-163207380D01*
X266226190Y-163255000D01*
X266178571Y-163302619D01*
X266083333Y-163445476D01*
X266035714Y-163635952D01*
X266035714Y-164016904D01*
X266083333Y-164112142D01*
X266130952Y-164159761D01*
X266226190Y-164207380D01*
X266416666Y-164207380D01*
X266511904Y-164159761D01*
X266559523Y-164112142D01*
X266607142Y-164016904D01*
X266607142Y-163778809D01*
X266559523Y-163683571D01*
X266511904Y-163635952D01*
X266416666Y-163588333D01*
X266226190Y-163588333D01*
X266130952Y-163635952D01*
X266083333Y-163683571D01*
X266035714Y-163778809D01*
X266940476Y-163207380D02*
X267559523Y-163207380D01*
X267226190Y-163588333D01*
X267369047Y-163588333D01*
X267464285Y-163635952D01*
X267511904Y-163683571D01*
X267559523Y-163778809D01*
X267559523Y-164016904D01*
X267511904Y-164112142D01*
X267464285Y-164159761D01*
X267369047Y-164207380D01*
X267083333Y-164207380D01*
X266988095Y-164159761D01*
X266940476Y-164112142D01*
%TO.C,SW62*%
X244940476Y-164159761D02*
X245083333Y-164207380D01*
X245321428Y-164207380D01*
X245416666Y-164159761D01*
X245464285Y-164112142D01*
X245511904Y-164016904D01*
X245511904Y-163921666D01*
X245464285Y-163826428D01*
X245416666Y-163778809D01*
X245321428Y-163731190D01*
X245130952Y-163683571D01*
X245035714Y-163635952D01*
X244988095Y-163588333D01*
X244940476Y-163493095D01*
X244940476Y-163397857D01*
X244988095Y-163302619D01*
X245035714Y-163255000D01*
X245130952Y-163207380D01*
X245369047Y-163207380D01*
X245511904Y-163255000D01*
X245845238Y-163207380D02*
X246083333Y-164207380D01*
X246273809Y-163493095D01*
X246464285Y-164207380D01*
X246702380Y-163207380D01*
X247511904Y-163207380D02*
X247321428Y-163207380D01*
X247226190Y-163255000D01*
X247178571Y-163302619D01*
X247083333Y-163445476D01*
X247035714Y-163635952D01*
X247035714Y-164016904D01*
X247083333Y-164112142D01*
X247130952Y-164159761D01*
X247226190Y-164207380D01*
X247416666Y-164207380D01*
X247511904Y-164159761D01*
X247559523Y-164112142D01*
X247607142Y-164016904D01*
X247607142Y-163778809D01*
X247559523Y-163683571D01*
X247511904Y-163635952D01*
X247416666Y-163588333D01*
X247226190Y-163588333D01*
X247130952Y-163635952D01*
X247083333Y-163683571D01*
X247035714Y-163778809D01*
X247988095Y-163302619D02*
X248035714Y-163255000D01*
X248130952Y-163207380D01*
X248369047Y-163207380D01*
X248464285Y-163255000D01*
X248511904Y-163302619D01*
X248559523Y-163397857D01*
X248559523Y-163493095D01*
X248511904Y-163635952D01*
X247940476Y-164207380D01*
X248559523Y-164207380D01*
%TO.C,SW61*%
X225940476Y-164159761D02*
X226083333Y-164207380D01*
X226321428Y-164207380D01*
X226416666Y-164159761D01*
X226464285Y-164112142D01*
X226511904Y-164016904D01*
X226511904Y-163921666D01*
X226464285Y-163826428D01*
X226416666Y-163778809D01*
X226321428Y-163731190D01*
X226130952Y-163683571D01*
X226035714Y-163635952D01*
X225988095Y-163588333D01*
X225940476Y-163493095D01*
X225940476Y-163397857D01*
X225988095Y-163302619D01*
X226035714Y-163255000D01*
X226130952Y-163207380D01*
X226369047Y-163207380D01*
X226511904Y-163255000D01*
X226845238Y-163207380D02*
X227083333Y-164207380D01*
X227273809Y-163493095D01*
X227464285Y-164207380D01*
X227702380Y-163207380D01*
X228511904Y-163207380D02*
X228321428Y-163207380D01*
X228226190Y-163255000D01*
X228178571Y-163302619D01*
X228083333Y-163445476D01*
X228035714Y-163635952D01*
X228035714Y-164016904D01*
X228083333Y-164112142D01*
X228130952Y-164159761D01*
X228226190Y-164207380D01*
X228416666Y-164207380D01*
X228511904Y-164159761D01*
X228559523Y-164112142D01*
X228607142Y-164016904D01*
X228607142Y-163778809D01*
X228559523Y-163683571D01*
X228511904Y-163635952D01*
X228416666Y-163588333D01*
X228226190Y-163588333D01*
X228130952Y-163635952D01*
X228083333Y-163683571D01*
X228035714Y-163778809D01*
X229559523Y-164207380D02*
X228988095Y-164207380D01*
X229273809Y-164207380D02*
X229273809Y-163207380D01*
X229178571Y-163350238D01*
X229083333Y-163445476D01*
X228988095Y-163493095D01*
%TO.C,SW60*%
X206940476Y-164159761D02*
X207083333Y-164207380D01*
X207321428Y-164207380D01*
X207416666Y-164159761D01*
X207464285Y-164112142D01*
X207511904Y-164016904D01*
X207511904Y-163921666D01*
X207464285Y-163826428D01*
X207416666Y-163778809D01*
X207321428Y-163731190D01*
X207130952Y-163683571D01*
X207035714Y-163635952D01*
X206988095Y-163588333D01*
X206940476Y-163493095D01*
X206940476Y-163397857D01*
X206988095Y-163302619D01*
X207035714Y-163255000D01*
X207130952Y-163207380D01*
X207369047Y-163207380D01*
X207511904Y-163255000D01*
X207845238Y-163207380D02*
X208083333Y-164207380D01*
X208273809Y-163493095D01*
X208464285Y-164207380D01*
X208702380Y-163207380D01*
X209511904Y-163207380D02*
X209321428Y-163207380D01*
X209226190Y-163255000D01*
X209178571Y-163302619D01*
X209083333Y-163445476D01*
X209035714Y-163635952D01*
X209035714Y-164016904D01*
X209083333Y-164112142D01*
X209130952Y-164159761D01*
X209226190Y-164207380D01*
X209416666Y-164207380D01*
X209511904Y-164159761D01*
X209559523Y-164112142D01*
X209607142Y-164016904D01*
X209607142Y-163778809D01*
X209559523Y-163683571D01*
X209511904Y-163635952D01*
X209416666Y-163588333D01*
X209226190Y-163588333D01*
X209130952Y-163635952D01*
X209083333Y-163683571D01*
X209035714Y-163778809D01*
X210226190Y-163207380D02*
X210321428Y-163207380D01*
X210416666Y-163255000D01*
X210464285Y-163302619D01*
X210511904Y-163397857D01*
X210559523Y-163588333D01*
X210559523Y-163826428D01*
X210511904Y-164016904D01*
X210464285Y-164112142D01*
X210416666Y-164159761D01*
X210321428Y-164207380D01*
X210226190Y-164207380D01*
X210130952Y-164159761D01*
X210083333Y-164112142D01*
X210035714Y-164016904D01*
X209988095Y-163826428D01*
X209988095Y-163588333D01*
X210035714Y-163397857D01*
X210083333Y-163302619D01*
X210130952Y-163255000D01*
X210226190Y-163207380D01*
%TO.C,SW59*%
X187940476Y-164159761D02*
X188083333Y-164207380D01*
X188321428Y-164207380D01*
X188416666Y-164159761D01*
X188464285Y-164112142D01*
X188511904Y-164016904D01*
X188511904Y-163921666D01*
X188464285Y-163826428D01*
X188416666Y-163778809D01*
X188321428Y-163731190D01*
X188130952Y-163683571D01*
X188035714Y-163635952D01*
X187988095Y-163588333D01*
X187940476Y-163493095D01*
X187940476Y-163397857D01*
X187988095Y-163302619D01*
X188035714Y-163255000D01*
X188130952Y-163207380D01*
X188369047Y-163207380D01*
X188511904Y-163255000D01*
X188845238Y-163207380D02*
X189083333Y-164207380D01*
X189273809Y-163493095D01*
X189464285Y-164207380D01*
X189702380Y-163207380D01*
X190559523Y-163207380D02*
X190083333Y-163207380D01*
X190035714Y-163683571D01*
X190083333Y-163635952D01*
X190178571Y-163588333D01*
X190416666Y-163588333D01*
X190511904Y-163635952D01*
X190559523Y-163683571D01*
X190607142Y-163778809D01*
X190607142Y-164016904D01*
X190559523Y-164112142D01*
X190511904Y-164159761D01*
X190416666Y-164207380D01*
X190178571Y-164207380D01*
X190083333Y-164159761D01*
X190035714Y-164112142D01*
X191083333Y-164207380D02*
X191273809Y-164207380D01*
X191369047Y-164159761D01*
X191416666Y-164112142D01*
X191511904Y-163969285D01*
X191559523Y-163778809D01*
X191559523Y-163397857D01*
X191511904Y-163302619D01*
X191464285Y-163255000D01*
X191369047Y-163207380D01*
X191178571Y-163207380D01*
X191083333Y-163255000D01*
X191035714Y-163302619D01*
X190988095Y-163397857D01*
X190988095Y-163635952D01*
X191035714Y-163731190D01*
X191083333Y-163778809D01*
X191178571Y-163826428D01*
X191369047Y-163826428D01*
X191464285Y-163778809D01*
X191511904Y-163731190D01*
X191559523Y-163635952D01*
%TO.C,SW58*%
X168940476Y-164159761D02*
X169083333Y-164207380D01*
X169321428Y-164207380D01*
X169416666Y-164159761D01*
X169464285Y-164112142D01*
X169511904Y-164016904D01*
X169511904Y-163921666D01*
X169464285Y-163826428D01*
X169416666Y-163778809D01*
X169321428Y-163731190D01*
X169130952Y-163683571D01*
X169035714Y-163635952D01*
X168988095Y-163588333D01*
X168940476Y-163493095D01*
X168940476Y-163397857D01*
X168988095Y-163302619D01*
X169035714Y-163255000D01*
X169130952Y-163207380D01*
X169369047Y-163207380D01*
X169511904Y-163255000D01*
X169845238Y-163207380D02*
X170083333Y-164207380D01*
X170273809Y-163493095D01*
X170464285Y-164207380D01*
X170702380Y-163207380D01*
X171559523Y-163207380D02*
X171083333Y-163207380D01*
X171035714Y-163683571D01*
X171083333Y-163635952D01*
X171178571Y-163588333D01*
X171416666Y-163588333D01*
X171511904Y-163635952D01*
X171559523Y-163683571D01*
X171607142Y-163778809D01*
X171607142Y-164016904D01*
X171559523Y-164112142D01*
X171511904Y-164159761D01*
X171416666Y-164207380D01*
X171178571Y-164207380D01*
X171083333Y-164159761D01*
X171035714Y-164112142D01*
X172178571Y-163635952D02*
X172083333Y-163588333D01*
X172035714Y-163540714D01*
X171988095Y-163445476D01*
X171988095Y-163397857D01*
X172035714Y-163302619D01*
X172083333Y-163255000D01*
X172178571Y-163207380D01*
X172369047Y-163207380D01*
X172464285Y-163255000D01*
X172511904Y-163302619D01*
X172559523Y-163397857D01*
X172559523Y-163445476D01*
X172511904Y-163540714D01*
X172464285Y-163588333D01*
X172369047Y-163635952D01*
X172178571Y-163635952D01*
X172083333Y-163683571D01*
X172035714Y-163731190D01*
X171988095Y-163826428D01*
X171988095Y-164016904D01*
X172035714Y-164112142D01*
X172083333Y-164159761D01*
X172178571Y-164207380D01*
X172369047Y-164207380D01*
X172464285Y-164159761D01*
X172511904Y-164112142D01*
X172559523Y-164016904D01*
X172559523Y-163826428D01*
X172511904Y-163731190D01*
X172464285Y-163683571D01*
X172369047Y-163635952D01*
%TO.C,SW57*%
X149940476Y-164159761D02*
X150083333Y-164207380D01*
X150321428Y-164207380D01*
X150416666Y-164159761D01*
X150464285Y-164112142D01*
X150511904Y-164016904D01*
X150511904Y-163921666D01*
X150464285Y-163826428D01*
X150416666Y-163778809D01*
X150321428Y-163731190D01*
X150130952Y-163683571D01*
X150035714Y-163635952D01*
X149988095Y-163588333D01*
X149940476Y-163493095D01*
X149940476Y-163397857D01*
X149988095Y-163302619D01*
X150035714Y-163255000D01*
X150130952Y-163207380D01*
X150369047Y-163207380D01*
X150511904Y-163255000D01*
X150845238Y-163207380D02*
X151083333Y-164207380D01*
X151273809Y-163493095D01*
X151464285Y-164207380D01*
X151702380Y-163207380D01*
X152559523Y-163207380D02*
X152083333Y-163207380D01*
X152035714Y-163683571D01*
X152083333Y-163635952D01*
X152178571Y-163588333D01*
X152416666Y-163588333D01*
X152511904Y-163635952D01*
X152559523Y-163683571D01*
X152607142Y-163778809D01*
X152607142Y-164016904D01*
X152559523Y-164112142D01*
X152511904Y-164159761D01*
X152416666Y-164207380D01*
X152178571Y-164207380D01*
X152083333Y-164159761D01*
X152035714Y-164112142D01*
X152940476Y-163207380D02*
X153607142Y-163207380D01*
X153178571Y-164207380D01*
%TO.C,SW56*%
X130940476Y-164159761D02*
X131083333Y-164207380D01*
X131321428Y-164207380D01*
X131416666Y-164159761D01*
X131464285Y-164112142D01*
X131511904Y-164016904D01*
X131511904Y-163921666D01*
X131464285Y-163826428D01*
X131416666Y-163778809D01*
X131321428Y-163731190D01*
X131130952Y-163683571D01*
X131035714Y-163635952D01*
X130988095Y-163588333D01*
X130940476Y-163493095D01*
X130940476Y-163397857D01*
X130988095Y-163302619D01*
X131035714Y-163255000D01*
X131130952Y-163207380D01*
X131369047Y-163207380D01*
X131511904Y-163255000D01*
X131845238Y-163207380D02*
X132083333Y-164207380D01*
X132273809Y-163493095D01*
X132464285Y-164207380D01*
X132702380Y-163207380D01*
X133559523Y-163207380D02*
X133083333Y-163207380D01*
X133035714Y-163683571D01*
X133083333Y-163635952D01*
X133178571Y-163588333D01*
X133416666Y-163588333D01*
X133511904Y-163635952D01*
X133559523Y-163683571D01*
X133607142Y-163778809D01*
X133607142Y-164016904D01*
X133559523Y-164112142D01*
X133511904Y-164159761D01*
X133416666Y-164207380D01*
X133178571Y-164207380D01*
X133083333Y-164159761D01*
X133035714Y-164112142D01*
X134464285Y-163207380D02*
X134273809Y-163207380D01*
X134178571Y-163255000D01*
X134130952Y-163302619D01*
X134035714Y-163445476D01*
X133988095Y-163635952D01*
X133988095Y-164016904D01*
X134035714Y-164112142D01*
X134083333Y-164159761D01*
X134178571Y-164207380D01*
X134369047Y-164207380D01*
X134464285Y-164159761D01*
X134511904Y-164112142D01*
X134559523Y-164016904D01*
X134559523Y-163778809D01*
X134511904Y-163683571D01*
X134464285Y-163635952D01*
X134369047Y-163588333D01*
X134178571Y-163588333D01*
X134083333Y-163635952D01*
X134035714Y-163683571D01*
X133988095Y-163778809D01*
%TO.C,SW55*%
X111940476Y-164159761D02*
X112083333Y-164207380D01*
X112321428Y-164207380D01*
X112416666Y-164159761D01*
X112464285Y-164112142D01*
X112511904Y-164016904D01*
X112511904Y-163921666D01*
X112464285Y-163826428D01*
X112416666Y-163778809D01*
X112321428Y-163731190D01*
X112130952Y-163683571D01*
X112035714Y-163635952D01*
X111988095Y-163588333D01*
X111940476Y-163493095D01*
X111940476Y-163397857D01*
X111988095Y-163302619D01*
X112035714Y-163255000D01*
X112130952Y-163207380D01*
X112369047Y-163207380D01*
X112511904Y-163255000D01*
X112845238Y-163207380D02*
X113083333Y-164207380D01*
X113273809Y-163493095D01*
X113464285Y-164207380D01*
X113702380Y-163207380D01*
X114559523Y-163207380D02*
X114083333Y-163207380D01*
X114035714Y-163683571D01*
X114083333Y-163635952D01*
X114178571Y-163588333D01*
X114416666Y-163588333D01*
X114511904Y-163635952D01*
X114559523Y-163683571D01*
X114607142Y-163778809D01*
X114607142Y-164016904D01*
X114559523Y-164112142D01*
X114511904Y-164159761D01*
X114416666Y-164207380D01*
X114178571Y-164207380D01*
X114083333Y-164159761D01*
X114035714Y-164112142D01*
X115511904Y-163207380D02*
X115035714Y-163207380D01*
X114988095Y-163683571D01*
X115035714Y-163635952D01*
X115130952Y-163588333D01*
X115369047Y-163588333D01*
X115464285Y-163635952D01*
X115511904Y-163683571D01*
X115559523Y-163778809D01*
X115559523Y-164016904D01*
X115511904Y-164112142D01*
X115464285Y-164159761D01*
X115369047Y-164207380D01*
X115130952Y-164207380D01*
X115035714Y-164159761D01*
X114988095Y-164112142D01*
%TO.C,SW54*%
X92940476Y-164159761D02*
X93083333Y-164207380D01*
X93321428Y-164207380D01*
X93416666Y-164159761D01*
X93464285Y-164112142D01*
X93511904Y-164016904D01*
X93511904Y-163921666D01*
X93464285Y-163826428D01*
X93416666Y-163778809D01*
X93321428Y-163731190D01*
X93130952Y-163683571D01*
X93035714Y-163635952D01*
X92988095Y-163588333D01*
X92940476Y-163493095D01*
X92940476Y-163397857D01*
X92988095Y-163302619D01*
X93035714Y-163255000D01*
X93130952Y-163207380D01*
X93369047Y-163207380D01*
X93511904Y-163255000D01*
X93845238Y-163207380D02*
X94083333Y-164207380D01*
X94273809Y-163493095D01*
X94464285Y-164207380D01*
X94702380Y-163207380D01*
X95559523Y-163207380D02*
X95083333Y-163207380D01*
X95035714Y-163683571D01*
X95083333Y-163635952D01*
X95178571Y-163588333D01*
X95416666Y-163588333D01*
X95511904Y-163635952D01*
X95559523Y-163683571D01*
X95607142Y-163778809D01*
X95607142Y-164016904D01*
X95559523Y-164112142D01*
X95511904Y-164159761D01*
X95416666Y-164207380D01*
X95178571Y-164207380D01*
X95083333Y-164159761D01*
X95035714Y-164112142D01*
X96464285Y-163540714D02*
X96464285Y-164207380D01*
X96226190Y-163159761D02*
X95988095Y-163874047D01*
X96607142Y-163874047D01*
%TO.C,SW53*%
X62065476Y-164159761D02*
X62208333Y-164207380D01*
X62446428Y-164207380D01*
X62541666Y-164159761D01*
X62589285Y-164112142D01*
X62636904Y-164016904D01*
X62636904Y-163921666D01*
X62589285Y-163826428D01*
X62541666Y-163778809D01*
X62446428Y-163731190D01*
X62255952Y-163683571D01*
X62160714Y-163635952D01*
X62113095Y-163588333D01*
X62065476Y-163493095D01*
X62065476Y-163397857D01*
X62113095Y-163302619D01*
X62160714Y-163255000D01*
X62255952Y-163207380D01*
X62494047Y-163207380D01*
X62636904Y-163255000D01*
X62970238Y-163207380D02*
X63208333Y-164207380D01*
X63398809Y-163493095D01*
X63589285Y-164207380D01*
X63827380Y-163207380D01*
X64684523Y-163207380D02*
X64208333Y-163207380D01*
X64160714Y-163683571D01*
X64208333Y-163635952D01*
X64303571Y-163588333D01*
X64541666Y-163588333D01*
X64636904Y-163635952D01*
X64684523Y-163683571D01*
X64732142Y-163778809D01*
X64732142Y-164016904D01*
X64684523Y-164112142D01*
X64636904Y-164159761D01*
X64541666Y-164207380D01*
X64303571Y-164207380D01*
X64208333Y-164159761D01*
X64160714Y-164112142D01*
X65065476Y-163207380D02*
X65684523Y-163207380D01*
X65351190Y-163588333D01*
X65494047Y-163588333D01*
X65589285Y-163635952D01*
X65636904Y-163683571D01*
X65684523Y-163778809D01*
X65684523Y-164016904D01*
X65636904Y-164112142D01*
X65589285Y-164159761D01*
X65494047Y-164207380D01*
X65208333Y-164207380D01*
X65113095Y-164159761D01*
X65065476Y-164112142D01*
%TO.C,SW52*%
X358940476Y-145159761D02*
X359083333Y-145207380D01*
X359321428Y-145207380D01*
X359416666Y-145159761D01*
X359464285Y-145112142D01*
X359511904Y-145016904D01*
X359511904Y-144921666D01*
X359464285Y-144826428D01*
X359416666Y-144778809D01*
X359321428Y-144731190D01*
X359130952Y-144683571D01*
X359035714Y-144635952D01*
X358988095Y-144588333D01*
X358940476Y-144493095D01*
X358940476Y-144397857D01*
X358988095Y-144302619D01*
X359035714Y-144255000D01*
X359130952Y-144207380D01*
X359369047Y-144207380D01*
X359511904Y-144255000D01*
X359845238Y-144207380D02*
X360083333Y-145207380D01*
X360273809Y-144493095D01*
X360464285Y-145207380D01*
X360702380Y-144207380D01*
X361559523Y-144207380D02*
X361083333Y-144207380D01*
X361035714Y-144683571D01*
X361083333Y-144635952D01*
X361178571Y-144588333D01*
X361416666Y-144588333D01*
X361511904Y-144635952D01*
X361559523Y-144683571D01*
X361607142Y-144778809D01*
X361607142Y-145016904D01*
X361559523Y-145112142D01*
X361511904Y-145159761D01*
X361416666Y-145207380D01*
X361178571Y-145207380D01*
X361083333Y-145159761D01*
X361035714Y-145112142D01*
X361988095Y-144302619D02*
X362035714Y-144255000D01*
X362130952Y-144207380D01*
X362369047Y-144207380D01*
X362464285Y-144255000D01*
X362511904Y-144302619D01*
X362559523Y-144397857D01*
X362559523Y-144493095D01*
X362511904Y-144635952D01*
X361940476Y-145207380D01*
X362559523Y-145207380D01*
%TO.C,SW51*%
X339940476Y-145159761D02*
X340083333Y-145207380D01*
X340321428Y-145207380D01*
X340416666Y-145159761D01*
X340464285Y-145112142D01*
X340511904Y-145016904D01*
X340511904Y-144921666D01*
X340464285Y-144826428D01*
X340416666Y-144778809D01*
X340321428Y-144731190D01*
X340130952Y-144683571D01*
X340035714Y-144635952D01*
X339988095Y-144588333D01*
X339940476Y-144493095D01*
X339940476Y-144397857D01*
X339988095Y-144302619D01*
X340035714Y-144255000D01*
X340130952Y-144207380D01*
X340369047Y-144207380D01*
X340511904Y-144255000D01*
X340845238Y-144207380D02*
X341083333Y-145207380D01*
X341273809Y-144493095D01*
X341464285Y-145207380D01*
X341702380Y-144207380D01*
X342559523Y-144207380D02*
X342083333Y-144207380D01*
X342035714Y-144683571D01*
X342083333Y-144635952D01*
X342178571Y-144588333D01*
X342416666Y-144588333D01*
X342511904Y-144635952D01*
X342559523Y-144683571D01*
X342607142Y-144778809D01*
X342607142Y-145016904D01*
X342559523Y-145112142D01*
X342511904Y-145159761D01*
X342416666Y-145207380D01*
X342178571Y-145207380D01*
X342083333Y-145159761D01*
X342035714Y-145112142D01*
X343559523Y-145207380D02*
X342988095Y-145207380D01*
X343273809Y-145207380D02*
X343273809Y-144207380D01*
X343178571Y-144350238D01*
X343083333Y-144445476D01*
X342988095Y-144493095D01*
%TO.C,SW50*%
X304315476Y-145159761D02*
X304458333Y-145207380D01*
X304696428Y-145207380D01*
X304791666Y-145159761D01*
X304839285Y-145112142D01*
X304886904Y-145016904D01*
X304886904Y-144921666D01*
X304839285Y-144826428D01*
X304791666Y-144778809D01*
X304696428Y-144731190D01*
X304505952Y-144683571D01*
X304410714Y-144635952D01*
X304363095Y-144588333D01*
X304315476Y-144493095D01*
X304315476Y-144397857D01*
X304363095Y-144302619D01*
X304410714Y-144255000D01*
X304505952Y-144207380D01*
X304744047Y-144207380D01*
X304886904Y-144255000D01*
X305220238Y-144207380D02*
X305458333Y-145207380D01*
X305648809Y-144493095D01*
X305839285Y-145207380D01*
X306077380Y-144207380D01*
X306934523Y-144207380D02*
X306458333Y-144207380D01*
X306410714Y-144683571D01*
X306458333Y-144635952D01*
X306553571Y-144588333D01*
X306791666Y-144588333D01*
X306886904Y-144635952D01*
X306934523Y-144683571D01*
X306982142Y-144778809D01*
X306982142Y-145016904D01*
X306934523Y-145112142D01*
X306886904Y-145159761D01*
X306791666Y-145207380D01*
X306553571Y-145207380D01*
X306458333Y-145159761D01*
X306410714Y-145112142D01*
X307601190Y-144207380D02*
X307696428Y-144207380D01*
X307791666Y-144255000D01*
X307839285Y-144302619D01*
X307886904Y-144397857D01*
X307934523Y-144588333D01*
X307934523Y-144826428D01*
X307886904Y-145016904D01*
X307839285Y-145112142D01*
X307791666Y-145159761D01*
X307696428Y-145207380D01*
X307601190Y-145207380D01*
X307505952Y-145159761D01*
X307458333Y-145112142D01*
X307410714Y-145016904D01*
X307363095Y-144826428D01*
X307363095Y-144588333D01*
X307410714Y-144397857D01*
X307458333Y-144302619D01*
X307505952Y-144255000D01*
X307601190Y-144207380D01*
%TO.C,SW49*%
X273440476Y-145159761D02*
X273583333Y-145207380D01*
X273821428Y-145207380D01*
X273916666Y-145159761D01*
X273964285Y-145112142D01*
X274011904Y-145016904D01*
X274011904Y-144921666D01*
X273964285Y-144826428D01*
X273916666Y-144778809D01*
X273821428Y-144731190D01*
X273630952Y-144683571D01*
X273535714Y-144635952D01*
X273488095Y-144588333D01*
X273440476Y-144493095D01*
X273440476Y-144397857D01*
X273488095Y-144302619D01*
X273535714Y-144255000D01*
X273630952Y-144207380D01*
X273869047Y-144207380D01*
X274011904Y-144255000D01*
X274345238Y-144207380D02*
X274583333Y-145207380D01*
X274773809Y-144493095D01*
X274964285Y-145207380D01*
X275202380Y-144207380D01*
X276011904Y-144540714D02*
X276011904Y-145207380D01*
X275773809Y-144159761D02*
X275535714Y-144874047D01*
X276154761Y-144874047D01*
X276583333Y-145207380D02*
X276773809Y-145207380D01*
X276869047Y-145159761D01*
X276916666Y-145112142D01*
X277011904Y-144969285D01*
X277059523Y-144778809D01*
X277059523Y-144397857D01*
X277011904Y-144302619D01*
X276964285Y-144255000D01*
X276869047Y-144207380D01*
X276678571Y-144207380D01*
X276583333Y-144255000D01*
X276535714Y-144302619D01*
X276488095Y-144397857D01*
X276488095Y-144635952D01*
X276535714Y-144731190D01*
X276583333Y-144778809D01*
X276678571Y-144826428D01*
X276869047Y-144826428D01*
X276964285Y-144778809D01*
X277011904Y-144731190D01*
X277059523Y-144635952D01*
%TO.C,SW48*%
X254440476Y-145159761D02*
X254583333Y-145207380D01*
X254821428Y-145207380D01*
X254916666Y-145159761D01*
X254964285Y-145112142D01*
X255011904Y-145016904D01*
X255011904Y-144921666D01*
X254964285Y-144826428D01*
X254916666Y-144778809D01*
X254821428Y-144731190D01*
X254630952Y-144683571D01*
X254535714Y-144635952D01*
X254488095Y-144588333D01*
X254440476Y-144493095D01*
X254440476Y-144397857D01*
X254488095Y-144302619D01*
X254535714Y-144255000D01*
X254630952Y-144207380D01*
X254869047Y-144207380D01*
X255011904Y-144255000D01*
X255345238Y-144207380D02*
X255583333Y-145207380D01*
X255773809Y-144493095D01*
X255964285Y-145207380D01*
X256202380Y-144207380D01*
X257011904Y-144540714D02*
X257011904Y-145207380D01*
X256773809Y-144159761D02*
X256535714Y-144874047D01*
X257154761Y-144874047D01*
X257678571Y-144635952D02*
X257583333Y-144588333D01*
X257535714Y-144540714D01*
X257488095Y-144445476D01*
X257488095Y-144397857D01*
X257535714Y-144302619D01*
X257583333Y-144255000D01*
X257678571Y-144207380D01*
X257869047Y-144207380D01*
X257964285Y-144255000D01*
X258011904Y-144302619D01*
X258059523Y-144397857D01*
X258059523Y-144445476D01*
X258011904Y-144540714D01*
X257964285Y-144588333D01*
X257869047Y-144635952D01*
X257678571Y-144635952D01*
X257583333Y-144683571D01*
X257535714Y-144731190D01*
X257488095Y-144826428D01*
X257488095Y-145016904D01*
X257535714Y-145112142D01*
X257583333Y-145159761D01*
X257678571Y-145207380D01*
X257869047Y-145207380D01*
X257964285Y-145159761D01*
X258011904Y-145112142D01*
X258059523Y-145016904D01*
X258059523Y-144826428D01*
X258011904Y-144731190D01*
X257964285Y-144683571D01*
X257869047Y-144635952D01*
%TO.C,SW47*%
X235440476Y-145159761D02*
X235583333Y-145207380D01*
X235821428Y-145207380D01*
X235916666Y-145159761D01*
X235964285Y-145112142D01*
X236011904Y-145016904D01*
X236011904Y-144921666D01*
X235964285Y-144826428D01*
X235916666Y-144778809D01*
X235821428Y-144731190D01*
X235630952Y-144683571D01*
X235535714Y-144635952D01*
X235488095Y-144588333D01*
X235440476Y-144493095D01*
X235440476Y-144397857D01*
X235488095Y-144302619D01*
X235535714Y-144255000D01*
X235630952Y-144207380D01*
X235869047Y-144207380D01*
X236011904Y-144255000D01*
X236345238Y-144207380D02*
X236583333Y-145207380D01*
X236773809Y-144493095D01*
X236964285Y-145207380D01*
X237202380Y-144207380D01*
X238011904Y-144540714D02*
X238011904Y-145207380D01*
X237773809Y-144159761D02*
X237535714Y-144874047D01*
X238154761Y-144874047D01*
X238440476Y-144207380D02*
X239107142Y-144207380D01*
X238678571Y-145207380D01*
%TO.C,SW46*%
X216440476Y-145159761D02*
X216583333Y-145207380D01*
X216821428Y-145207380D01*
X216916666Y-145159761D01*
X216964285Y-145112142D01*
X217011904Y-145016904D01*
X217011904Y-144921666D01*
X216964285Y-144826428D01*
X216916666Y-144778809D01*
X216821428Y-144731190D01*
X216630952Y-144683571D01*
X216535714Y-144635952D01*
X216488095Y-144588333D01*
X216440476Y-144493095D01*
X216440476Y-144397857D01*
X216488095Y-144302619D01*
X216535714Y-144255000D01*
X216630952Y-144207380D01*
X216869047Y-144207380D01*
X217011904Y-144255000D01*
X217345238Y-144207380D02*
X217583333Y-145207380D01*
X217773809Y-144493095D01*
X217964285Y-145207380D01*
X218202380Y-144207380D01*
X219011904Y-144540714D02*
X219011904Y-145207380D01*
X218773809Y-144159761D02*
X218535714Y-144874047D01*
X219154761Y-144874047D01*
X219964285Y-144207380D02*
X219773809Y-144207380D01*
X219678571Y-144255000D01*
X219630952Y-144302619D01*
X219535714Y-144445476D01*
X219488095Y-144635952D01*
X219488095Y-145016904D01*
X219535714Y-145112142D01*
X219583333Y-145159761D01*
X219678571Y-145207380D01*
X219869047Y-145207380D01*
X219964285Y-145159761D01*
X220011904Y-145112142D01*
X220059523Y-145016904D01*
X220059523Y-144778809D01*
X220011904Y-144683571D01*
X219964285Y-144635952D01*
X219869047Y-144588333D01*
X219678571Y-144588333D01*
X219583333Y-144635952D01*
X219535714Y-144683571D01*
X219488095Y-144778809D01*
%TO.C,SW45*%
X197440476Y-145159761D02*
X197583333Y-145207380D01*
X197821428Y-145207380D01*
X197916666Y-145159761D01*
X197964285Y-145112142D01*
X198011904Y-145016904D01*
X198011904Y-144921666D01*
X197964285Y-144826428D01*
X197916666Y-144778809D01*
X197821428Y-144731190D01*
X197630952Y-144683571D01*
X197535714Y-144635952D01*
X197488095Y-144588333D01*
X197440476Y-144493095D01*
X197440476Y-144397857D01*
X197488095Y-144302619D01*
X197535714Y-144255000D01*
X197630952Y-144207380D01*
X197869047Y-144207380D01*
X198011904Y-144255000D01*
X198345238Y-144207380D02*
X198583333Y-145207380D01*
X198773809Y-144493095D01*
X198964285Y-145207380D01*
X199202380Y-144207380D01*
X200011904Y-144540714D02*
X200011904Y-145207380D01*
X199773809Y-144159761D02*
X199535714Y-144874047D01*
X200154761Y-144874047D01*
X201011904Y-144207380D02*
X200535714Y-144207380D01*
X200488095Y-144683571D01*
X200535714Y-144635952D01*
X200630952Y-144588333D01*
X200869047Y-144588333D01*
X200964285Y-144635952D01*
X201011904Y-144683571D01*
X201059523Y-144778809D01*
X201059523Y-145016904D01*
X201011904Y-145112142D01*
X200964285Y-145159761D01*
X200869047Y-145207380D01*
X200630952Y-145207380D01*
X200535714Y-145159761D01*
X200488095Y-145112142D01*
%TO.C,SW44*%
X178440476Y-145159761D02*
X178583333Y-145207380D01*
X178821428Y-145207380D01*
X178916666Y-145159761D01*
X178964285Y-145112142D01*
X179011904Y-145016904D01*
X179011904Y-144921666D01*
X178964285Y-144826428D01*
X178916666Y-144778809D01*
X178821428Y-144731190D01*
X178630952Y-144683571D01*
X178535714Y-144635952D01*
X178488095Y-144588333D01*
X178440476Y-144493095D01*
X178440476Y-144397857D01*
X178488095Y-144302619D01*
X178535714Y-144255000D01*
X178630952Y-144207380D01*
X178869047Y-144207380D01*
X179011904Y-144255000D01*
X179345238Y-144207380D02*
X179583333Y-145207380D01*
X179773809Y-144493095D01*
X179964285Y-145207380D01*
X180202380Y-144207380D01*
X181011904Y-144540714D02*
X181011904Y-145207380D01*
X180773809Y-144159761D02*
X180535714Y-144874047D01*
X181154761Y-144874047D01*
X181964285Y-144540714D02*
X181964285Y-145207380D01*
X181726190Y-144159761D02*
X181488095Y-144874047D01*
X182107142Y-144874047D01*
%TO.C,SW43*%
X159440476Y-145159761D02*
X159583333Y-145207380D01*
X159821428Y-145207380D01*
X159916666Y-145159761D01*
X159964285Y-145112142D01*
X160011904Y-145016904D01*
X160011904Y-144921666D01*
X159964285Y-144826428D01*
X159916666Y-144778809D01*
X159821428Y-144731190D01*
X159630952Y-144683571D01*
X159535714Y-144635952D01*
X159488095Y-144588333D01*
X159440476Y-144493095D01*
X159440476Y-144397857D01*
X159488095Y-144302619D01*
X159535714Y-144255000D01*
X159630952Y-144207380D01*
X159869047Y-144207380D01*
X160011904Y-144255000D01*
X160345238Y-144207380D02*
X160583333Y-145207380D01*
X160773809Y-144493095D01*
X160964285Y-145207380D01*
X161202380Y-144207380D01*
X162011904Y-144540714D02*
X162011904Y-145207380D01*
X161773809Y-144159761D02*
X161535714Y-144874047D01*
X162154761Y-144874047D01*
X162440476Y-144207380D02*
X163059523Y-144207380D01*
X162726190Y-144588333D01*
X162869047Y-144588333D01*
X162964285Y-144635952D01*
X163011904Y-144683571D01*
X163059523Y-144778809D01*
X163059523Y-145016904D01*
X163011904Y-145112142D01*
X162964285Y-145159761D01*
X162869047Y-145207380D01*
X162583333Y-145207380D01*
X162488095Y-145159761D01*
X162440476Y-145112142D01*
%TO.C,SW42*%
X140440476Y-145159761D02*
X140583333Y-145207380D01*
X140821428Y-145207380D01*
X140916666Y-145159761D01*
X140964285Y-145112142D01*
X141011904Y-145016904D01*
X141011904Y-144921666D01*
X140964285Y-144826428D01*
X140916666Y-144778809D01*
X140821428Y-144731190D01*
X140630952Y-144683571D01*
X140535714Y-144635952D01*
X140488095Y-144588333D01*
X140440476Y-144493095D01*
X140440476Y-144397857D01*
X140488095Y-144302619D01*
X140535714Y-144255000D01*
X140630952Y-144207380D01*
X140869047Y-144207380D01*
X141011904Y-144255000D01*
X141345238Y-144207380D02*
X141583333Y-145207380D01*
X141773809Y-144493095D01*
X141964285Y-145207380D01*
X142202380Y-144207380D01*
X143011904Y-144540714D02*
X143011904Y-145207380D01*
X142773809Y-144159761D02*
X142535714Y-144874047D01*
X143154761Y-144874047D01*
X143488095Y-144302619D02*
X143535714Y-144255000D01*
X143630952Y-144207380D01*
X143869047Y-144207380D01*
X143964285Y-144255000D01*
X144011904Y-144302619D01*
X144059523Y-144397857D01*
X144059523Y-144493095D01*
X144011904Y-144635952D01*
X143440476Y-145207380D01*
X144059523Y-145207380D01*
%TO.C,SW41*%
X121440476Y-145159761D02*
X121583333Y-145207380D01*
X121821428Y-145207380D01*
X121916666Y-145159761D01*
X121964285Y-145112142D01*
X122011904Y-145016904D01*
X122011904Y-144921666D01*
X121964285Y-144826428D01*
X121916666Y-144778809D01*
X121821428Y-144731190D01*
X121630952Y-144683571D01*
X121535714Y-144635952D01*
X121488095Y-144588333D01*
X121440476Y-144493095D01*
X121440476Y-144397857D01*
X121488095Y-144302619D01*
X121535714Y-144255000D01*
X121630952Y-144207380D01*
X121869047Y-144207380D01*
X122011904Y-144255000D01*
X122345238Y-144207380D02*
X122583333Y-145207380D01*
X122773809Y-144493095D01*
X122964285Y-145207380D01*
X123202380Y-144207380D01*
X124011904Y-144540714D02*
X124011904Y-145207380D01*
X123773809Y-144159761D02*
X123535714Y-144874047D01*
X124154761Y-144874047D01*
X125059523Y-145207380D02*
X124488095Y-145207380D01*
X124773809Y-145207380D02*
X124773809Y-144207380D01*
X124678571Y-144350238D01*
X124583333Y-144445476D01*
X124488095Y-144493095D01*
%TO.C,SW40*%
X102440476Y-145159761D02*
X102583333Y-145207380D01*
X102821428Y-145207380D01*
X102916666Y-145159761D01*
X102964285Y-145112142D01*
X103011904Y-145016904D01*
X103011904Y-144921666D01*
X102964285Y-144826428D01*
X102916666Y-144778809D01*
X102821428Y-144731190D01*
X102630952Y-144683571D01*
X102535714Y-144635952D01*
X102488095Y-144588333D01*
X102440476Y-144493095D01*
X102440476Y-144397857D01*
X102488095Y-144302619D01*
X102535714Y-144255000D01*
X102630952Y-144207380D01*
X102869047Y-144207380D01*
X103011904Y-144255000D01*
X103345238Y-144207380D02*
X103583333Y-145207380D01*
X103773809Y-144493095D01*
X103964285Y-145207380D01*
X104202380Y-144207380D01*
X105011904Y-144540714D02*
X105011904Y-145207380D01*
X104773809Y-144159761D02*
X104535714Y-144874047D01*
X105154761Y-144874047D01*
X105726190Y-144207380D02*
X105821428Y-144207380D01*
X105916666Y-144255000D01*
X105964285Y-144302619D01*
X106011904Y-144397857D01*
X106059523Y-144588333D01*
X106059523Y-144826428D01*
X106011904Y-145016904D01*
X105964285Y-145112142D01*
X105916666Y-145159761D01*
X105821428Y-145207380D01*
X105726190Y-145207380D01*
X105630952Y-145159761D01*
X105583333Y-145112142D01*
X105535714Y-145016904D01*
X105488095Y-144826428D01*
X105488095Y-144588333D01*
X105535714Y-144397857D01*
X105583333Y-144302619D01*
X105630952Y-144255000D01*
X105726190Y-144207380D01*
%TO.C,SW39*%
X83440476Y-145159761D02*
X83583333Y-145207380D01*
X83821428Y-145207380D01*
X83916666Y-145159761D01*
X83964285Y-145112142D01*
X84011904Y-145016904D01*
X84011904Y-144921666D01*
X83964285Y-144826428D01*
X83916666Y-144778809D01*
X83821428Y-144731190D01*
X83630952Y-144683571D01*
X83535714Y-144635952D01*
X83488095Y-144588333D01*
X83440476Y-144493095D01*
X83440476Y-144397857D01*
X83488095Y-144302619D01*
X83535714Y-144255000D01*
X83630952Y-144207380D01*
X83869047Y-144207380D01*
X84011904Y-144255000D01*
X84345238Y-144207380D02*
X84583333Y-145207380D01*
X84773809Y-144493095D01*
X84964285Y-145207380D01*
X85202380Y-144207380D01*
X85488095Y-144207380D02*
X86107142Y-144207380D01*
X85773809Y-144588333D01*
X85916666Y-144588333D01*
X86011904Y-144635952D01*
X86059523Y-144683571D01*
X86107142Y-144778809D01*
X86107142Y-145016904D01*
X86059523Y-145112142D01*
X86011904Y-145159761D01*
X85916666Y-145207380D01*
X85630952Y-145207380D01*
X85535714Y-145159761D01*
X85488095Y-145112142D01*
X86583333Y-145207380D02*
X86773809Y-145207380D01*
X86869047Y-145159761D01*
X86916666Y-145112142D01*
X87011904Y-144969285D01*
X87059523Y-144778809D01*
X87059523Y-144397857D01*
X87011904Y-144302619D01*
X86964285Y-144255000D01*
X86869047Y-144207380D01*
X86678571Y-144207380D01*
X86583333Y-144255000D01*
X86535714Y-144302619D01*
X86488095Y-144397857D01*
X86488095Y-144635952D01*
X86535714Y-144731190D01*
X86583333Y-144778809D01*
X86678571Y-144826428D01*
X86869047Y-144826428D01*
X86964285Y-144778809D01*
X87011904Y-144731190D01*
X87059523Y-144635952D01*
%TO.C,SW38*%
X57315476Y-145159761D02*
X57458333Y-145207380D01*
X57696428Y-145207380D01*
X57791666Y-145159761D01*
X57839285Y-145112142D01*
X57886904Y-145016904D01*
X57886904Y-144921666D01*
X57839285Y-144826428D01*
X57791666Y-144778809D01*
X57696428Y-144731190D01*
X57505952Y-144683571D01*
X57410714Y-144635952D01*
X57363095Y-144588333D01*
X57315476Y-144493095D01*
X57315476Y-144397857D01*
X57363095Y-144302619D01*
X57410714Y-144255000D01*
X57505952Y-144207380D01*
X57744047Y-144207380D01*
X57886904Y-144255000D01*
X58220238Y-144207380D02*
X58458333Y-145207380D01*
X58648809Y-144493095D01*
X58839285Y-145207380D01*
X59077380Y-144207380D01*
X59363095Y-144207380D02*
X59982142Y-144207380D01*
X59648809Y-144588333D01*
X59791666Y-144588333D01*
X59886904Y-144635952D01*
X59934523Y-144683571D01*
X59982142Y-144778809D01*
X59982142Y-145016904D01*
X59934523Y-145112142D01*
X59886904Y-145159761D01*
X59791666Y-145207380D01*
X59505952Y-145207380D01*
X59410714Y-145159761D01*
X59363095Y-145112142D01*
X60553571Y-144635952D02*
X60458333Y-144588333D01*
X60410714Y-144540714D01*
X60363095Y-144445476D01*
X60363095Y-144397857D01*
X60410714Y-144302619D01*
X60458333Y-144255000D01*
X60553571Y-144207380D01*
X60744047Y-144207380D01*
X60839285Y-144255000D01*
X60886904Y-144302619D01*
X60934523Y-144397857D01*
X60934523Y-144445476D01*
X60886904Y-144540714D01*
X60839285Y-144588333D01*
X60744047Y-144635952D01*
X60553571Y-144635952D01*
X60458333Y-144683571D01*
X60410714Y-144731190D01*
X60363095Y-144826428D01*
X60363095Y-145016904D01*
X60410714Y-145112142D01*
X60458333Y-145159761D01*
X60553571Y-145207380D01*
X60744047Y-145207380D01*
X60839285Y-145159761D01*
X60886904Y-145112142D01*
X60934523Y-145016904D01*
X60934523Y-144826428D01*
X60886904Y-144731190D01*
X60839285Y-144683571D01*
X60744047Y-144635952D01*
%TO.C,SW37*%
X358940476Y-126159761D02*
X359083333Y-126207380D01*
X359321428Y-126207380D01*
X359416666Y-126159761D01*
X359464285Y-126112142D01*
X359511904Y-126016904D01*
X359511904Y-125921666D01*
X359464285Y-125826428D01*
X359416666Y-125778809D01*
X359321428Y-125731190D01*
X359130952Y-125683571D01*
X359035714Y-125635952D01*
X358988095Y-125588333D01*
X358940476Y-125493095D01*
X358940476Y-125397857D01*
X358988095Y-125302619D01*
X359035714Y-125255000D01*
X359130952Y-125207380D01*
X359369047Y-125207380D01*
X359511904Y-125255000D01*
X359845238Y-125207380D02*
X360083333Y-126207380D01*
X360273809Y-125493095D01*
X360464285Y-126207380D01*
X360702380Y-125207380D01*
X360988095Y-125207380D02*
X361607142Y-125207380D01*
X361273809Y-125588333D01*
X361416666Y-125588333D01*
X361511904Y-125635952D01*
X361559523Y-125683571D01*
X361607142Y-125778809D01*
X361607142Y-126016904D01*
X361559523Y-126112142D01*
X361511904Y-126159761D01*
X361416666Y-126207380D01*
X361130952Y-126207380D01*
X361035714Y-126159761D01*
X360988095Y-126112142D01*
X361940476Y-125207380D02*
X362607142Y-125207380D01*
X362178571Y-126207380D01*
%TO.C,SW36*%
X339940476Y-126159761D02*
X340083333Y-126207380D01*
X340321428Y-126207380D01*
X340416666Y-126159761D01*
X340464285Y-126112142D01*
X340511904Y-126016904D01*
X340511904Y-125921666D01*
X340464285Y-125826428D01*
X340416666Y-125778809D01*
X340321428Y-125731190D01*
X340130952Y-125683571D01*
X340035714Y-125635952D01*
X339988095Y-125588333D01*
X339940476Y-125493095D01*
X339940476Y-125397857D01*
X339988095Y-125302619D01*
X340035714Y-125255000D01*
X340130952Y-125207380D01*
X340369047Y-125207380D01*
X340511904Y-125255000D01*
X340845238Y-125207380D02*
X341083333Y-126207380D01*
X341273809Y-125493095D01*
X341464285Y-126207380D01*
X341702380Y-125207380D01*
X341988095Y-125207380D02*
X342607142Y-125207380D01*
X342273809Y-125588333D01*
X342416666Y-125588333D01*
X342511904Y-125635952D01*
X342559523Y-125683571D01*
X342607142Y-125778809D01*
X342607142Y-126016904D01*
X342559523Y-126112142D01*
X342511904Y-126159761D01*
X342416666Y-126207380D01*
X342130952Y-126207380D01*
X342035714Y-126159761D01*
X341988095Y-126112142D01*
X343464285Y-125207380D02*
X343273809Y-125207380D01*
X343178571Y-125255000D01*
X343130952Y-125302619D01*
X343035714Y-125445476D01*
X342988095Y-125635952D01*
X342988095Y-126016904D01*
X343035714Y-126112142D01*
X343083333Y-126159761D01*
X343178571Y-126207380D01*
X343369047Y-126207380D01*
X343464285Y-126159761D01*
X343511904Y-126112142D01*
X343559523Y-126016904D01*
X343559523Y-125778809D01*
X343511904Y-125683571D01*
X343464285Y-125635952D01*
X343369047Y-125588333D01*
X343178571Y-125588333D01*
X343083333Y-125635952D01*
X343035714Y-125683571D01*
X342988095Y-125778809D01*
%TO.C,SW35*%
X311440476Y-126159761D02*
X311583333Y-126207380D01*
X311821428Y-126207380D01*
X311916666Y-126159761D01*
X311964285Y-126112142D01*
X312011904Y-126016904D01*
X312011904Y-125921666D01*
X311964285Y-125826428D01*
X311916666Y-125778809D01*
X311821428Y-125731190D01*
X311630952Y-125683571D01*
X311535714Y-125635952D01*
X311488095Y-125588333D01*
X311440476Y-125493095D01*
X311440476Y-125397857D01*
X311488095Y-125302619D01*
X311535714Y-125255000D01*
X311630952Y-125207380D01*
X311869047Y-125207380D01*
X312011904Y-125255000D01*
X312345238Y-125207380D02*
X312583333Y-126207380D01*
X312773809Y-125493095D01*
X312964285Y-126207380D01*
X313202380Y-125207380D01*
X313488095Y-125207380D02*
X314107142Y-125207380D01*
X313773809Y-125588333D01*
X313916666Y-125588333D01*
X314011904Y-125635952D01*
X314059523Y-125683571D01*
X314107142Y-125778809D01*
X314107142Y-126016904D01*
X314059523Y-126112142D01*
X314011904Y-126159761D01*
X313916666Y-126207380D01*
X313630952Y-126207380D01*
X313535714Y-126159761D01*
X313488095Y-126112142D01*
X315011904Y-125207380D02*
X314535714Y-125207380D01*
X314488095Y-125683571D01*
X314535714Y-125635952D01*
X314630952Y-125588333D01*
X314869047Y-125588333D01*
X314964285Y-125635952D01*
X315011904Y-125683571D01*
X315059523Y-125778809D01*
X315059523Y-126016904D01*
X315011904Y-126112142D01*
X314964285Y-126159761D01*
X314869047Y-126207380D01*
X314630952Y-126207380D01*
X314535714Y-126159761D01*
X314488095Y-126112142D01*
%TO.C,SW34*%
X287690476Y-126159761D02*
X287833333Y-126207380D01*
X288071428Y-126207380D01*
X288166666Y-126159761D01*
X288214285Y-126112142D01*
X288261904Y-126016904D01*
X288261904Y-125921666D01*
X288214285Y-125826428D01*
X288166666Y-125778809D01*
X288071428Y-125731190D01*
X287880952Y-125683571D01*
X287785714Y-125635952D01*
X287738095Y-125588333D01*
X287690476Y-125493095D01*
X287690476Y-125397857D01*
X287738095Y-125302619D01*
X287785714Y-125255000D01*
X287880952Y-125207380D01*
X288119047Y-125207380D01*
X288261904Y-125255000D01*
X288595238Y-125207380D02*
X288833333Y-126207380D01*
X289023809Y-125493095D01*
X289214285Y-126207380D01*
X289452380Y-125207380D01*
X289738095Y-125207380D02*
X290357142Y-125207380D01*
X290023809Y-125588333D01*
X290166666Y-125588333D01*
X290261904Y-125635952D01*
X290309523Y-125683571D01*
X290357142Y-125778809D01*
X290357142Y-126016904D01*
X290309523Y-126112142D01*
X290261904Y-126159761D01*
X290166666Y-126207380D01*
X289880952Y-126207380D01*
X289785714Y-126159761D01*
X289738095Y-126112142D01*
X291214285Y-125540714D02*
X291214285Y-126207380D01*
X290976190Y-125159761D02*
X290738095Y-125874047D01*
X291357142Y-125874047D01*
%TO.C,SW33*%
X268690476Y-126159761D02*
X268833333Y-126207380D01*
X269071428Y-126207380D01*
X269166666Y-126159761D01*
X269214285Y-126112142D01*
X269261904Y-126016904D01*
X269261904Y-125921666D01*
X269214285Y-125826428D01*
X269166666Y-125778809D01*
X269071428Y-125731190D01*
X268880952Y-125683571D01*
X268785714Y-125635952D01*
X268738095Y-125588333D01*
X268690476Y-125493095D01*
X268690476Y-125397857D01*
X268738095Y-125302619D01*
X268785714Y-125255000D01*
X268880952Y-125207380D01*
X269119047Y-125207380D01*
X269261904Y-125255000D01*
X269595238Y-125207380D02*
X269833333Y-126207380D01*
X270023809Y-125493095D01*
X270214285Y-126207380D01*
X270452380Y-125207380D01*
X270738095Y-125207380D02*
X271357142Y-125207380D01*
X271023809Y-125588333D01*
X271166666Y-125588333D01*
X271261904Y-125635952D01*
X271309523Y-125683571D01*
X271357142Y-125778809D01*
X271357142Y-126016904D01*
X271309523Y-126112142D01*
X271261904Y-126159761D01*
X271166666Y-126207380D01*
X270880952Y-126207380D01*
X270785714Y-126159761D01*
X270738095Y-126112142D01*
X271690476Y-125207380D02*
X272309523Y-125207380D01*
X271976190Y-125588333D01*
X272119047Y-125588333D01*
X272214285Y-125635952D01*
X272261904Y-125683571D01*
X272309523Y-125778809D01*
X272309523Y-126016904D01*
X272261904Y-126112142D01*
X272214285Y-126159761D01*
X272119047Y-126207380D01*
X271833333Y-126207380D01*
X271738095Y-126159761D01*
X271690476Y-126112142D01*
%TO.C,SW32*%
X249690476Y-126159761D02*
X249833333Y-126207380D01*
X250071428Y-126207380D01*
X250166666Y-126159761D01*
X250214285Y-126112142D01*
X250261904Y-126016904D01*
X250261904Y-125921666D01*
X250214285Y-125826428D01*
X250166666Y-125778809D01*
X250071428Y-125731190D01*
X249880952Y-125683571D01*
X249785714Y-125635952D01*
X249738095Y-125588333D01*
X249690476Y-125493095D01*
X249690476Y-125397857D01*
X249738095Y-125302619D01*
X249785714Y-125255000D01*
X249880952Y-125207380D01*
X250119047Y-125207380D01*
X250261904Y-125255000D01*
X250595238Y-125207380D02*
X250833333Y-126207380D01*
X251023809Y-125493095D01*
X251214285Y-126207380D01*
X251452380Y-125207380D01*
X251738095Y-125207380D02*
X252357142Y-125207380D01*
X252023809Y-125588333D01*
X252166666Y-125588333D01*
X252261904Y-125635952D01*
X252309523Y-125683571D01*
X252357142Y-125778809D01*
X252357142Y-126016904D01*
X252309523Y-126112142D01*
X252261904Y-126159761D01*
X252166666Y-126207380D01*
X251880952Y-126207380D01*
X251785714Y-126159761D01*
X251738095Y-126112142D01*
X252738095Y-125302619D02*
X252785714Y-125255000D01*
X252880952Y-125207380D01*
X253119047Y-125207380D01*
X253214285Y-125255000D01*
X253261904Y-125302619D01*
X253309523Y-125397857D01*
X253309523Y-125493095D01*
X253261904Y-125635952D01*
X252690476Y-126207380D01*
X253309523Y-126207380D01*
%TO.C,SW31*%
X230690476Y-126159761D02*
X230833333Y-126207380D01*
X231071428Y-126207380D01*
X231166666Y-126159761D01*
X231214285Y-126112142D01*
X231261904Y-126016904D01*
X231261904Y-125921666D01*
X231214285Y-125826428D01*
X231166666Y-125778809D01*
X231071428Y-125731190D01*
X230880952Y-125683571D01*
X230785714Y-125635952D01*
X230738095Y-125588333D01*
X230690476Y-125493095D01*
X230690476Y-125397857D01*
X230738095Y-125302619D01*
X230785714Y-125255000D01*
X230880952Y-125207380D01*
X231119047Y-125207380D01*
X231261904Y-125255000D01*
X231595238Y-125207380D02*
X231833333Y-126207380D01*
X232023809Y-125493095D01*
X232214285Y-126207380D01*
X232452380Y-125207380D01*
X232738095Y-125207380D02*
X233357142Y-125207380D01*
X233023809Y-125588333D01*
X233166666Y-125588333D01*
X233261904Y-125635952D01*
X233309523Y-125683571D01*
X233357142Y-125778809D01*
X233357142Y-126016904D01*
X233309523Y-126112142D01*
X233261904Y-126159761D01*
X233166666Y-126207380D01*
X232880952Y-126207380D01*
X232785714Y-126159761D01*
X232738095Y-126112142D01*
X234309523Y-126207380D02*
X233738095Y-126207380D01*
X234023809Y-126207380D02*
X234023809Y-125207380D01*
X233928571Y-125350238D01*
X233833333Y-125445476D01*
X233738095Y-125493095D01*
%TO.C,SW30*%
X211690476Y-126159761D02*
X211833333Y-126207380D01*
X212071428Y-126207380D01*
X212166666Y-126159761D01*
X212214285Y-126112142D01*
X212261904Y-126016904D01*
X212261904Y-125921666D01*
X212214285Y-125826428D01*
X212166666Y-125778809D01*
X212071428Y-125731190D01*
X211880952Y-125683571D01*
X211785714Y-125635952D01*
X211738095Y-125588333D01*
X211690476Y-125493095D01*
X211690476Y-125397857D01*
X211738095Y-125302619D01*
X211785714Y-125255000D01*
X211880952Y-125207380D01*
X212119047Y-125207380D01*
X212261904Y-125255000D01*
X212595238Y-125207380D02*
X212833333Y-126207380D01*
X213023809Y-125493095D01*
X213214285Y-126207380D01*
X213452380Y-125207380D01*
X213738095Y-125207380D02*
X214357142Y-125207380D01*
X214023809Y-125588333D01*
X214166666Y-125588333D01*
X214261904Y-125635952D01*
X214309523Y-125683571D01*
X214357142Y-125778809D01*
X214357142Y-126016904D01*
X214309523Y-126112142D01*
X214261904Y-126159761D01*
X214166666Y-126207380D01*
X213880952Y-126207380D01*
X213785714Y-126159761D01*
X213738095Y-126112142D01*
X214976190Y-125207380D02*
X215071428Y-125207380D01*
X215166666Y-125255000D01*
X215214285Y-125302619D01*
X215261904Y-125397857D01*
X215309523Y-125588333D01*
X215309523Y-125826428D01*
X215261904Y-126016904D01*
X215214285Y-126112142D01*
X215166666Y-126159761D01*
X215071428Y-126207380D01*
X214976190Y-126207380D01*
X214880952Y-126159761D01*
X214833333Y-126112142D01*
X214785714Y-126016904D01*
X214738095Y-125826428D01*
X214738095Y-125588333D01*
X214785714Y-125397857D01*
X214833333Y-125302619D01*
X214880952Y-125255000D01*
X214976190Y-125207380D01*
%TO.C,SW29*%
X192690476Y-126159761D02*
X192833333Y-126207380D01*
X193071428Y-126207380D01*
X193166666Y-126159761D01*
X193214285Y-126112142D01*
X193261904Y-126016904D01*
X193261904Y-125921666D01*
X193214285Y-125826428D01*
X193166666Y-125778809D01*
X193071428Y-125731190D01*
X192880952Y-125683571D01*
X192785714Y-125635952D01*
X192738095Y-125588333D01*
X192690476Y-125493095D01*
X192690476Y-125397857D01*
X192738095Y-125302619D01*
X192785714Y-125255000D01*
X192880952Y-125207380D01*
X193119047Y-125207380D01*
X193261904Y-125255000D01*
X193595238Y-125207380D02*
X193833333Y-126207380D01*
X194023809Y-125493095D01*
X194214285Y-126207380D01*
X194452380Y-125207380D01*
X194785714Y-125302619D02*
X194833333Y-125255000D01*
X194928571Y-125207380D01*
X195166666Y-125207380D01*
X195261904Y-125255000D01*
X195309523Y-125302619D01*
X195357142Y-125397857D01*
X195357142Y-125493095D01*
X195309523Y-125635952D01*
X194738095Y-126207380D01*
X195357142Y-126207380D01*
X195833333Y-126207380D02*
X196023809Y-126207380D01*
X196119047Y-126159761D01*
X196166666Y-126112142D01*
X196261904Y-125969285D01*
X196309523Y-125778809D01*
X196309523Y-125397857D01*
X196261904Y-125302619D01*
X196214285Y-125255000D01*
X196119047Y-125207380D01*
X195928571Y-125207380D01*
X195833333Y-125255000D01*
X195785714Y-125302619D01*
X195738095Y-125397857D01*
X195738095Y-125635952D01*
X195785714Y-125731190D01*
X195833333Y-125778809D01*
X195928571Y-125826428D01*
X196119047Y-125826428D01*
X196214285Y-125778809D01*
X196261904Y-125731190D01*
X196309523Y-125635952D01*
%TO.C,SW28*%
X173690476Y-126159761D02*
X173833333Y-126207380D01*
X174071428Y-126207380D01*
X174166666Y-126159761D01*
X174214285Y-126112142D01*
X174261904Y-126016904D01*
X174261904Y-125921666D01*
X174214285Y-125826428D01*
X174166666Y-125778809D01*
X174071428Y-125731190D01*
X173880952Y-125683571D01*
X173785714Y-125635952D01*
X173738095Y-125588333D01*
X173690476Y-125493095D01*
X173690476Y-125397857D01*
X173738095Y-125302619D01*
X173785714Y-125255000D01*
X173880952Y-125207380D01*
X174119047Y-125207380D01*
X174261904Y-125255000D01*
X174595238Y-125207380D02*
X174833333Y-126207380D01*
X175023809Y-125493095D01*
X175214285Y-126207380D01*
X175452380Y-125207380D01*
X175785714Y-125302619D02*
X175833333Y-125255000D01*
X175928571Y-125207380D01*
X176166666Y-125207380D01*
X176261904Y-125255000D01*
X176309523Y-125302619D01*
X176357142Y-125397857D01*
X176357142Y-125493095D01*
X176309523Y-125635952D01*
X175738095Y-126207380D01*
X176357142Y-126207380D01*
X176928571Y-125635952D02*
X176833333Y-125588333D01*
X176785714Y-125540714D01*
X176738095Y-125445476D01*
X176738095Y-125397857D01*
X176785714Y-125302619D01*
X176833333Y-125255000D01*
X176928571Y-125207380D01*
X177119047Y-125207380D01*
X177214285Y-125255000D01*
X177261904Y-125302619D01*
X177309523Y-125397857D01*
X177309523Y-125445476D01*
X177261904Y-125540714D01*
X177214285Y-125588333D01*
X177119047Y-125635952D01*
X176928571Y-125635952D01*
X176833333Y-125683571D01*
X176785714Y-125731190D01*
X176738095Y-125826428D01*
X176738095Y-126016904D01*
X176785714Y-126112142D01*
X176833333Y-126159761D01*
X176928571Y-126207380D01*
X177119047Y-126207380D01*
X177214285Y-126159761D01*
X177261904Y-126112142D01*
X177309523Y-126016904D01*
X177309523Y-125826428D01*
X177261904Y-125731190D01*
X177214285Y-125683571D01*
X177119047Y-125635952D01*
%TO.C,SW27*%
X154690476Y-126159761D02*
X154833333Y-126207380D01*
X155071428Y-126207380D01*
X155166666Y-126159761D01*
X155214285Y-126112142D01*
X155261904Y-126016904D01*
X155261904Y-125921666D01*
X155214285Y-125826428D01*
X155166666Y-125778809D01*
X155071428Y-125731190D01*
X154880952Y-125683571D01*
X154785714Y-125635952D01*
X154738095Y-125588333D01*
X154690476Y-125493095D01*
X154690476Y-125397857D01*
X154738095Y-125302619D01*
X154785714Y-125255000D01*
X154880952Y-125207380D01*
X155119047Y-125207380D01*
X155261904Y-125255000D01*
X155595238Y-125207380D02*
X155833333Y-126207380D01*
X156023809Y-125493095D01*
X156214285Y-126207380D01*
X156452380Y-125207380D01*
X156785714Y-125302619D02*
X156833333Y-125255000D01*
X156928571Y-125207380D01*
X157166666Y-125207380D01*
X157261904Y-125255000D01*
X157309523Y-125302619D01*
X157357142Y-125397857D01*
X157357142Y-125493095D01*
X157309523Y-125635952D01*
X156738095Y-126207380D01*
X157357142Y-126207380D01*
X157690476Y-125207380D02*
X158357142Y-125207380D01*
X157928571Y-126207380D01*
%TO.C,SW26*%
X135690476Y-126159761D02*
X135833333Y-126207380D01*
X136071428Y-126207380D01*
X136166666Y-126159761D01*
X136214285Y-126112142D01*
X136261904Y-126016904D01*
X136261904Y-125921666D01*
X136214285Y-125826428D01*
X136166666Y-125778809D01*
X136071428Y-125731190D01*
X135880952Y-125683571D01*
X135785714Y-125635952D01*
X135738095Y-125588333D01*
X135690476Y-125493095D01*
X135690476Y-125397857D01*
X135738095Y-125302619D01*
X135785714Y-125255000D01*
X135880952Y-125207380D01*
X136119047Y-125207380D01*
X136261904Y-125255000D01*
X136595238Y-125207380D02*
X136833333Y-126207380D01*
X137023809Y-125493095D01*
X137214285Y-126207380D01*
X137452380Y-125207380D01*
X137785714Y-125302619D02*
X137833333Y-125255000D01*
X137928571Y-125207380D01*
X138166666Y-125207380D01*
X138261904Y-125255000D01*
X138309523Y-125302619D01*
X138357142Y-125397857D01*
X138357142Y-125493095D01*
X138309523Y-125635952D01*
X137738095Y-126207380D01*
X138357142Y-126207380D01*
X139214285Y-125207380D02*
X139023809Y-125207380D01*
X138928571Y-125255000D01*
X138880952Y-125302619D01*
X138785714Y-125445476D01*
X138738095Y-125635952D01*
X138738095Y-126016904D01*
X138785714Y-126112142D01*
X138833333Y-126159761D01*
X138928571Y-126207380D01*
X139119047Y-126207380D01*
X139214285Y-126159761D01*
X139261904Y-126112142D01*
X139309523Y-126016904D01*
X139309523Y-125778809D01*
X139261904Y-125683571D01*
X139214285Y-125635952D01*
X139119047Y-125588333D01*
X138928571Y-125588333D01*
X138833333Y-125635952D01*
X138785714Y-125683571D01*
X138738095Y-125778809D01*
%TO.C,SW25*%
X116690476Y-126159761D02*
X116833333Y-126207380D01*
X117071428Y-126207380D01*
X117166666Y-126159761D01*
X117214285Y-126112142D01*
X117261904Y-126016904D01*
X117261904Y-125921666D01*
X117214285Y-125826428D01*
X117166666Y-125778809D01*
X117071428Y-125731190D01*
X116880952Y-125683571D01*
X116785714Y-125635952D01*
X116738095Y-125588333D01*
X116690476Y-125493095D01*
X116690476Y-125397857D01*
X116738095Y-125302619D01*
X116785714Y-125255000D01*
X116880952Y-125207380D01*
X117119047Y-125207380D01*
X117261904Y-125255000D01*
X117595238Y-125207380D02*
X117833333Y-126207380D01*
X118023809Y-125493095D01*
X118214285Y-126207380D01*
X118452380Y-125207380D01*
X118785714Y-125302619D02*
X118833333Y-125255000D01*
X118928571Y-125207380D01*
X119166666Y-125207380D01*
X119261904Y-125255000D01*
X119309523Y-125302619D01*
X119357142Y-125397857D01*
X119357142Y-125493095D01*
X119309523Y-125635952D01*
X118738095Y-126207380D01*
X119357142Y-126207380D01*
X120261904Y-125207380D02*
X119785714Y-125207380D01*
X119738095Y-125683571D01*
X119785714Y-125635952D01*
X119880952Y-125588333D01*
X120119047Y-125588333D01*
X120214285Y-125635952D01*
X120261904Y-125683571D01*
X120309523Y-125778809D01*
X120309523Y-126016904D01*
X120261904Y-126112142D01*
X120214285Y-126159761D01*
X120119047Y-126207380D01*
X119880952Y-126207380D01*
X119785714Y-126159761D01*
X119738095Y-126112142D01*
%TO.C,SW24*%
X97690476Y-126159761D02*
X97833333Y-126207380D01*
X98071428Y-126207380D01*
X98166666Y-126159761D01*
X98214285Y-126112142D01*
X98261904Y-126016904D01*
X98261904Y-125921666D01*
X98214285Y-125826428D01*
X98166666Y-125778809D01*
X98071428Y-125731190D01*
X97880952Y-125683571D01*
X97785714Y-125635952D01*
X97738095Y-125588333D01*
X97690476Y-125493095D01*
X97690476Y-125397857D01*
X97738095Y-125302619D01*
X97785714Y-125255000D01*
X97880952Y-125207380D01*
X98119047Y-125207380D01*
X98261904Y-125255000D01*
X98595238Y-125207380D02*
X98833333Y-126207380D01*
X99023809Y-125493095D01*
X99214285Y-126207380D01*
X99452380Y-125207380D01*
X99785714Y-125302619D02*
X99833333Y-125255000D01*
X99928571Y-125207380D01*
X100166666Y-125207380D01*
X100261904Y-125255000D01*
X100309523Y-125302619D01*
X100357142Y-125397857D01*
X100357142Y-125493095D01*
X100309523Y-125635952D01*
X99738095Y-126207380D01*
X100357142Y-126207380D01*
X101214285Y-125540714D02*
X101214285Y-126207380D01*
X100976190Y-125159761D02*
X100738095Y-125874047D01*
X101357142Y-125874047D01*
%TO.C,SW23*%
X78690476Y-126159761D02*
X78833333Y-126207380D01*
X79071428Y-126207380D01*
X79166666Y-126159761D01*
X79214285Y-126112142D01*
X79261904Y-126016904D01*
X79261904Y-125921666D01*
X79214285Y-125826428D01*
X79166666Y-125778809D01*
X79071428Y-125731190D01*
X78880952Y-125683571D01*
X78785714Y-125635952D01*
X78738095Y-125588333D01*
X78690476Y-125493095D01*
X78690476Y-125397857D01*
X78738095Y-125302619D01*
X78785714Y-125255000D01*
X78880952Y-125207380D01*
X79119047Y-125207380D01*
X79261904Y-125255000D01*
X79595238Y-125207380D02*
X79833333Y-126207380D01*
X80023809Y-125493095D01*
X80214285Y-126207380D01*
X80452380Y-125207380D01*
X80785714Y-125302619D02*
X80833333Y-125255000D01*
X80928571Y-125207380D01*
X81166666Y-125207380D01*
X81261904Y-125255000D01*
X81309523Y-125302619D01*
X81357142Y-125397857D01*
X81357142Y-125493095D01*
X81309523Y-125635952D01*
X80738095Y-126207380D01*
X81357142Y-126207380D01*
X81690476Y-125207380D02*
X82309523Y-125207380D01*
X81976190Y-125588333D01*
X82119047Y-125588333D01*
X82214285Y-125635952D01*
X82261904Y-125683571D01*
X82309523Y-125778809D01*
X82309523Y-126016904D01*
X82261904Y-126112142D01*
X82214285Y-126159761D01*
X82119047Y-126207380D01*
X81833333Y-126207380D01*
X81738095Y-126159761D01*
X81690476Y-126112142D01*
%TO.C,SW22*%
X54940476Y-126159761D02*
X55083333Y-126207380D01*
X55321428Y-126207380D01*
X55416666Y-126159761D01*
X55464285Y-126112142D01*
X55511904Y-126016904D01*
X55511904Y-125921666D01*
X55464285Y-125826428D01*
X55416666Y-125778809D01*
X55321428Y-125731190D01*
X55130952Y-125683571D01*
X55035714Y-125635952D01*
X54988095Y-125588333D01*
X54940476Y-125493095D01*
X54940476Y-125397857D01*
X54988095Y-125302619D01*
X55035714Y-125255000D01*
X55130952Y-125207380D01*
X55369047Y-125207380D01*
X55511904Y-125255000D01*
X55845238Y-125207380D02*
X56083333Y-126207380D01*
X56273809Y-125493095D01*
X56464285Y-126207380D01*
X56702380Y-125207380D01*
X57035714Y-125302619D02*
X57083333Y-125255000D01*
X57178571Y-125207380D01*
X57416666Y-125207380D01*
X57511904Y-125255000D01*
X57559523Y-125302619D01*
X57607142Y-125397857D01*
X57607142Y-125493095D01*
X57559523Y-125635952D01*
X56988095Y-126207380D01*
X57607142Y-126207380D01*
X57988095Y-125302619D02*
X58035714Y-125255000D01*
X58130952Y-125207380D01*
X58369047Y-125207380D01*
X58464285Y-125255000D01*
X58511904Y-125302619D01*
X58559523Y-125397857D01*
X58559523Y-125493095D01*
X58511904Y-125635952D01*
X57940476Y-126207380D01*
X58559523Y-126207380D01*
%TO.C,SW21*%
X358940476Y-107159761D02*
X359083333Y-107207380D01*
X359321428Y-107207380D01*
X359416666Y-107159761D01*
X359464285Y-107112142D01*
X359511904Y-107016904D01*
X359511904Y-106921666D01*
X359464285Y-106826428D01*
X359416666Y-106778809D01*
X359321428Y-106731190D01*
X359130952Y-106683571D01*
X359035714Y-106635952D01*
X358988095Y-106588333D01*
X358940476Y-106493095D01*
X358940476Y-106397857D01*
X358988095Y-106302619D01*
X359035714Y-106255000D01*
X359130952Y-106207380D01*
X359369047Y-106207380D01*
X359511904Y-106255000D01*
X359845238Y-106207380D02*
X360083333Y-107207380D01*
X360273809Y-106493095D01*
X360464285Y-107207380D01*
X360702380Y-106207380D01*
X361035714Y-106302619D02*
X361083333Y-106255000D01*
X361178571Y-106207380D01*
X361416666Y-106207380D01*
X361511904Y-106255000D01*
X361559523Y-106302619D01*
X361607142Y-106397857D01*
X361607142Y-106493095D01*
X361559523Y-106635952D01*
X360988095Y-107207380D01*
X361607142Y-107207380D01*
X362559523Y-107207380D02*
X361988095Y-107207380D01*
X362273809Y-107207380D02*
X362273809Y-106207380D01*
X362178571Y-106350238D01*
X362083333Y-106445476D01*
X361988095Y-106493095D01*
%TO.C,SW20*%
X339940476Y-107159761D02*
X340083333Y-107207380D01*
X340321428Y-107207380D01*
X340416666Y-107159761D01*
X340464285Y-107112142D01*
X340511904Y-107016904D01*
X340511904Y-106921666D01*
X340464285Y-106826428D01*
X340416666Y-106778809D01*
X340321428Y-106731190D01*
X340130952Y-106683571D01*
X340035714Y-106635952D01*
X339988095Y-106588333D01*
X339940476Y-106493095D01*
X339940476Y-106397857D01*
X339988095Y-106302619D01*
X340035714Y-106255000D01*
X340130952Y-106207380D01*
X340369047Y-106207380D01*
X340511904Y-106255000D01*
X340845238Y-106207380D02*
X341083333Y-107207380D01*
X341273809Y-106493095D01*
X341464285Y-107207380D01*
X341702380Y-106207380D01*
X342035714Y-106302619D02*
X342083333Y-106255000D01*
X342178571Y-106207380D01*
X342416666Y-106207380D01*
X342511904Y-106255000D01*
X342559523Y-106302619D01*
X342607142Y-106397857D01*
X342607142Y-106493095D01*
X342559523Y-106635952D01*
X341988095Y-107207380D01*
X342607142Y-107207380D01*
X343226190Y-106207380D02*
X343321428Y-106207380D01*
X343416666Y-106255000D01*
X343464285Y-106302619D01*
X343511904Y-106397857D01*
X343559523Y-106588333D01*
X343559523Y-106826428D01*
X343511904Y-107016904D01*
X343464285Y-107112142D01*
X343416666Y-107159761D01*
X343321428Y-107207380D01*
X343226190Y-107207380D01*
X343130952Y-107159761D01*
X343083333Y-107112142D01*
X343035714Y-107016904D01*
X342988095Y-106826428D01*
X342988095Y-106588333D01*
X343035714Y-106397857D01*
X343083333Y-106302619D01*
X343130952Y-106255000D01*
X343226190Y-106207380D01*
%TO.C,SW19*%
X306690476Y-107159761D02*
X306833333Y-107207380D01*
X307071428Y-107207380D01*
X307166666Y-107159761D01*
X307214285Y-107112142D01*
X307261904Y-107016904D01*
X307261904Y-106921666D01*
X307214285Y-106826428D01*
X307166666Y-106778809D01*
X307071428Y-106731190D01*
X306880952Y-106683571D01*
X306785714Y-106635952D01*
X306738095Y-106588333D01*
X306690476Y-106493095D01*
X306690476Y-106397857D01*
X306738095Y-106302619D01*
X306785714Y-106255000D01*
X306880952Y-106207380D01*
X307119047Y-106207380D01*
X307261904Y-106255000D01*
X307595238Y-106207380D02*
X307833333Y-107207380D01*
X308023809Y-106493095D01*
X308214285Y-107207380D01*
X308452380Y-106207380D01*
X309357142Y-107207380D02*
X308785714Y-107207380D01*
X309071428Y-107207380D02*
X309071428Y-106207380D01*
X308976190Y-106350238D01*
X308880952Y-106445476D01*
X308785714Y-106493095D01*
X309833333Y-107207380D02*
X310023809Y-107207380D01*
X310119047Y-107159761D01*
X310166666Y-107112142D01*
X310261904Y-106969285D01*
X310309523Y-106778809D01*
X310309523Y-106397857D01*
X310261904Y-106302619D01*
X310214285Y-106255000D01*
X310119047Y-106207380D01*
X309928571Y-106207380D01*
X309833333Y-106255000D01*
X309785714Y-106302619D01*
X309738095Y-106397857D01*
X309738095Y-106635952D01*
X309785714Y-106731190D01*
X309833333Y-106778809D01*
X309928571Y-106826428D01*
X310119047Y-106826428D01*
X310214285Y-106778809D01*
X310261904Y-106731190D01*
X310309523Y-106635952D01*
%TO.C,SW18*%
X278190476Y-107159761D02*
X278333333Y-107207380D01*
X278571428Y-107207380D01*
X278666666Y-107159761D01*
X278714285Y-107112142D01*
X278761904Y-107016904D01*
X278761904Y-106921666D01*
X278714285Y-106826428D01*
X278666666Y-106778809D01*
X278571428Y-106731190D01*
X278380952Y-106683571D01*
X278285714Y-106635952D01*
X278238095Y-106588333D01*
X278190476Y-106493095D01*
X278190476Y-106397857D01*
X278238095Y-106302619D01*
X278285714Y-106255000D01*
X278380952Y-106207380D01*
X278619047Y-106207380D01*
X278761904Y-106255000D01*
X279095238Y-106207380D02*
X279333333Y-107207380D01*
X279523809Y-106493095D01*
X279714285Y-107207380D01*
X279952380Y-106207380D01*
X280857142Y-107207380D02*
X280285714Y-107207380D01*
X280571428Y-107207380D02*
X280571428Y-106207380D01*
X280476190Y-106350238D01*
X280380952Y-106445476D01*
X280285714Y-106493095D01*
X281428571Y-106635952D02*
X281333333Y-106588333D01*
X281285714Y-106540714D01*
X281238095Y-106445476D01*
X281238095Y-106397857D01*
X281285714Y-106302619D01*
X281333333Y-106255000D01*
X281428571Y-106207380D01*
X281619047Y-106207380D01*
X281714285Y-106255000D01*
X281761904Y-106302619D01*
X281809523Y-106397857D01*
X281809523Y-106445476D01*
X281761904Y-106540714D01*
X281714285Y-106588333D01*
X281619047Y-106635952D01*
X281428571Y-106635952D01*
X281333333Y-106683571D01*
X281285714Y-106731190D01*
X281238095Y-106826428D01*
X281238095Y-107016904D01*
X281285714Y-107112142D01*
X281333333Y-107159761D01*
X281428571Y-107207380D01*
X281619047Y-107207380D01*
X281714285Y-107159761D01*
X281761904Y-107112142D01*
X281809523Y-107016904D01*
X281809523Y-106826428D01*
X281761904Y-106731190D01*
X281714285Y-106683571D01*
X281619047Y-106635952D01*
%TO.C,SW17*%
X259190476Y-107159761D02*
X259333333Y-107207380D01*
X259571428Y-107207380D01*
X259666666Y-107159761D01*
X259714285Y-107112142D01*
X259761904Y-107016904D01*
X259761904Y-106921666D01*
X259714285Y-106826428D01*
X259666666Y-106778809D01*
X259571428Y-106731190D01*
X259380952Y-106683571D01*
X259285714Y-106635952D01*
X259238095Y-106588333D01*
X259190476Y-106493095D01*
X259190476Y-106397857D01*
X259238095Y-106302619D01*
X259285714Y-106255000D01*
X259380952Y-106207380D01*
X259619047Y-106207380D01*
X259761904Y-106255000D01*
X260095238Y-106207380D02*
X260333333Y-107207380D01*
X260523809Y-106493095D01*
X260714285Y-107207380D01*
X260952380Y-106207380D01*
X261857142Y-107207380D02*
X261285714Y-107207380D01*
X261571428Y-107207380D02*
X261571428Y-106207380D01*
X261476190Y-106350238D01*
X261380952Y-106445476D01*
X261285714Y-106493095D01*
X262190476Y-106207380D02*
X262857142Y-106207380D01*
X262428571Y-107207380D01*
%TO.C,SW16*%
X240190476Y-107159761D02*
X240333333Y-107207380D01*
X240571428Y-107207380D01*
X240666666Y-107159761D01*
X240714285Y-107112142D01*
X240761904Y-107016904D01*
X240761904Y-106921666D01*
X240714285Y-106826428D01*
X240666666Y-106778809D01*
X240571428Y-106731190D01*
X240380952Y-106683571D01*
X240285714Y-106635952D01*
X240238095Y-106588333D01*
X240190476Y-106493095D01*
X240190476Y-106397857D01*
X240238095Y-106302619D01*
X240285714Y-106255000D01*
X240380952Y-106207380D01*
X240619047Y-106207380D01*
X240761904Y-106255000D01*
X241095238Y-106207380D02*
X241333333Y-107207380D01*
X241523809Y-106493095D01*
X241714285Y-107207380D01*
X241952380Y-106207380D01*
X242857142Y-107207380D02*
X242285714Y-107207380D01*
X242571428Y-107207380D02*
X242571428Y-106207380D01*
X242476190Y-106350238D01*
X242380952Y-106445476D01*
X242285714Y-106493095D01*
X243714285Y-106207380D02*
X243523809Y-106207380D01*
X243428571Y-106255000D01*
X243380952Y-106302619D01*
X243285714Y-106445476D01*
X243238095Y-106635952D01*
X243238095Y-107016904D01*
X243285714Y-107112142D01*
X243333333Y-107159761D01*
X243428571Y-107207380D01*
X243619047Y-107207380D01*
X243714285Y-107159761D01*
X243761904Y-107112142D01*
X243809523Y-107016904D01*
X243809523Y-106778809D01*
X243761904Y-106683571D01*
X243714285Y-106635952D01*
X243619047Y-106588333D01*
X243428571Y-106588333D01*
X243333333Y-106635952D01*
X243285714Y-106683571D01*
X243238095Y-106778809D01*
%TO.C,SW15*%
X221190476Y-107159761D02*
X221333333Y-107207380D01*
X221571428Y-107207380D01*
X221666666Y-107159761D01*
X221714285Y-107112142D01*
X221761904Y-107016904D01*
X221761904Y-106921666D01*
X221714285Y-106826428D01*
X221666666Y-106778809D01*
X221571428Y-106731190D01*
X221380952Y-106683571D01*
X221285714Y-106635952D01*
X221238095Y-106588333D01*
X221190476Y-106493095D01*
X221190476Y-106397857D01*
X221238095Y-106302619D01*
X221285714Y-106255000D01*
X221380952Y-106207380D01*
X221619047Y-106207380D01*
X221761904Y-106255000D01*
X222095238Y-106207380D02*
X222333333Y-107207380D01*
X222523809Y-106493095D01*
X222714285Y-107207380D01*
X222952380Y-106207380D01*
X223857142Y-107207380D02*
X223285714Y-107207380D01*
X223571428Y-107207380D02*
X223571428Y-106207380D01*
X223476190Y-106350238D01*
X223380952Y-106445476D01*
X223285714Y-106493095D01*
X224761904Y-106207380D02*
X224285714Y-106207380D01*
X224238095Y-106683571D01*
X224285714Y-106635952D01*
X224380952Y-106588333D01*
X224619047Y-106588333D01*
X224714285Y-106635952D01*
X224761904Y-106683571D01*
X224809523Y-106778809D01*
X224809523Y-107016904D01*
X224761904Y-107112142D01*
X224714285Y-107159761D01*
X224619047Y-107207380D01*
X224380952Y-107207380D01*
X224285714Y-107159761D01*
X224238095Y-107112142D01*
%TO.C,SW14*%
X202190476Y-107159761D02*
X202333333Y-107207380D01*
X202571428Y-107207380D01*
X202666666Y-107159761D01*
X202714285Y-107112142D01*
X202761904Y-107016904D01*
X202761904Y-106921666D01*
X202714285Y-106826428D01*
X202666666Y-106778809D01*
X202571428Y-106731190D01*
X202380952Y-106683571D01*
X202285714Y-106635952D01*
X202238095Y-106588333D01*
X202190476Y-106493095D01*
X202190476Y-106397857D01*
X202238095Y-106302619D01*
X202285714Y-106255000D01*
X202380952Y-106207380D01*
X202619047Y-106207380D01*
X202761904Y-106255000D01*
X203095238Y-106207380D02*
X203333333Y-107207380D01*
X203523809Y-106493095D01*
X203714285Y-107207380D01*
X203952380Y-106207380D01*
X204857142Y-107207380D02*
X204285714Y-107207380D01*
X204571428Y-107207380D02*
X204571428Y-106207380D01*
X204476190Y-106350238D01*
X204380952Y-106445476D01*
X204285714Y-106493095D01*
X205714285Y-106540714D02*
X205714285Y-107207380D01*
X205476190Y-106159761D02*
X205238095Y-106874047D01*
X205857142Y-106874047D01*
%TO.C,SW13*%
X183190476Y-107159761D02*
X183333333Y-107207380D01*
X183571428Y-107207380D01*
X183666666Y-107159761D01*
X183714285Y-107112142D01*
X183761904Y-107016904D01*
X183761904Y-106921666D01*
X183714285Y-106826428D01*
X183666666Y-106778809D01*
X183571428Y-106731190D01*
X183380952Y-106683571D01*
X183285714Y-106635952D01*
X183238095Y-106588333D01*
X183190476Y-106493095D01*
X183190476Y-106397857D01*
X183238095Y-106302619D01*
X183285714Y-106255000D01*
X183380952Y-106207380D01*
X183619047Y-106207380D01*
X183761904Y-106255000D01*
X184095238Y-106207380D02*
X184333333Y-107207380D01*
X184523809Y-106493095D01*
X184714285Y-107207380D01*
X184952380Y-106207380D01*
X185857142Y-107207380D02*
X185285714Y-107207380D01*
X185571428Y-107207380D02*
X185571428Y-106207380D01*
X185476190Y-106350238D01*
X185380952Y-106445476D01*
X185285714Y-106493095D01*
X186190476Y-106207380D02*
X186809523Y-106207380D01*
X186476190Y-106588333D01*
X186619047Y-106588333D01*
X186714285Y-106635952D01*
X186761904Y-106683571D01*
X186809523Y-106778809D01*
X186809523Y-107016904D01*
X186761904Y-107112142D01*
X186714285Y-107159761D01*
X186619047Y-107207380D01*
X186333333Y-107207380D01*
X186238095Y-107159761D01*
X186190476Y-107112142D01*
%TO.C,SW12*%
X164190476Y-107159761D02*
X164333333Y-107207380D01*
X164571428Y-107207380D01*
X164666666Y-107159761D01*
X164714285Y-107112142D01*
X164761904Y-107016904D01*
X164761904Y-106921666D01*
X164714285Y-106826428D01*
X164666666Y-106778809D01*
X164571428Y-106731190D01*
X164380952Y-106683571D01*
X164285714Y-106635952D01*
X164238095Y-106588333D01*
X164190476Y-106493095D01*
X164190476Y-106397857D01*
X164238095Y-106302619D01*
X164285714Y-106255000D01*
X164380952Y-106207380D01*
X164619047Y-106207380D01*
X164761904Y-106255000D01*
X165095238Y-106207380D02*
X165333333Y-107207380D01*
X165523809Y-106493095D01*
X165714285Y-107207380D01*
X165952380Y-106207380D01*
X166857142Y-107207380D02*
X166285714Y-107207380D01*
X166571428Y-107207380D02*
X166571428Y-106207380D01*
X166476190Y-106350238D01*
X166380952Y-106445476D01*
X166285714Y-106493095D01*
X167238095Y-106302619D02*
X167285714Y-106255000D01*
X167380952Y-106207380D01*
X167619047Y-106207380D01*
X167714285Y-106255000D01*
X167761904Y-106302619D01*
X167809523Y-106397857D01*
X167809523Y-106493095D01*
X167761904Y-106635952D01*
X167190476Y-107207380D01*
X167809523Y-107207380D01*
%TO.C,SW11*%
X145190476Y-107159761D02*
X145333333Y-107207380D01*
X145571428Y-107207380D01*
X145666666Y-107159761D01*
X145714285Y-107112142D01*
X145761904Y-107016904D01*
X145761904Y-106921666D01*
X145714285Y-106826428D01*
X145666666Y-106778809D01*
X145571428Y-106731190D01*
X145380952Y-106683571D01*
X145285714Y-106635952D01*
X145238095Y-106588333D01*
X145190476Y-106493095D01*
X145190476Y-106397857D01*
X145238095Y-106302619D01*
X145285714Y-106255000D01*
X145380952Y-106207380D01*
X145619047Y-106207380D01*
X145761904Y-106255000D01*
X146095238Y-106207380D02*
X146333333Y-107207380D01*
X146523809Y-106493095D01*
X146714285Y-107207380D01*
X146952380Y-106207380D01*
X147857142Y-107207380D02*
X147285714Y-107207380D01*
X147571428Y-107207380D02*
X147571428Y-106207380D01*
X147476190Y-106350238D01*
X147380952Y-106445476D01*
X147285714Y-106493095D01*
X148809523Y-107207380D02*
X148238095Y-107207380D01*
X148523809Y-107207380D02*
X148523809Y-106207380D01*
X148428571Y-106350238D01*
X148333333Y-106445476D01*
X148238095Y-106493095D01*
%TO.C,SW10*%
X126190476Y-107159761D02*
X126333333Y-107207380D01*
X126571428Y-107207380D01*
X126666666Y-107159761D01*
X126714285Y-107112142D01*
X126761904Y-107016904D01*
X126761904Y-106921666D01*
X126714285Y-106826428D01*
X126666666Y-106778809D01*
X126571428Y-106731190D01*
X126380952Y-106683571D01*
X126285714Y-106635952D01*
X126238095Y-106588333D01*
X126190476Y-106493095D01*
X126190476Y-106397857D01*
X126238095Y-106302619D01*
X126285714Y-106255000D01*
X126380952Y-106207380D01*
X126619047Y-106207380D01*
X126761904Y-106255000D01*
X127095238Y-106207380D02*
X127333333Y-107207380D01*
X127523809Y-106493095D01*
X127714285Y-107207380D01*
X127952380Y-106207380D01*
X128857142Y-107207380D02*
X128285714Y-107207380D01*
X128571428Y-107207380D02*
X128571428Y-106207380D01*
X128476190Y-106350238D01*
X128380952Y-106445476D01*
X128285714Y-106493095D01*
X129476190Y-106207380D02*
X129571428Y-106207380D01*
X129666666Y-106255000D01*
X129714285Y-106302619D01*
X129761904Y-106397857D01*
X129809523Y-106588333D01*
X129809523Y-106826428D01*
X129761904Y-107016904D01*
X129714285Y-107112142D01*
X129666666Y-107159761D01*
X129571428Y-107207380D01*
X129476190Y-107207380D01*
X129380952Y-107159761D01*
X129333333Y-107112142D01*
X129285714Y-107016904D01*
X129238095Y-106826428D01*
X129238095Y-106588333D01*
X129285714Y-106397857D01*
X129333333Y-106302619D01*
X129380952Y-106255000D01*
X129476190Y-106207380D01*
%TO.C,SW9*%
X107666666Y-107159761D02*
X107809523Y-107207380D01*
X108047619Y-107207380D01*
X108142857Y-107159761D01*
X108190476Y-107112142D01*
X108238095Y-107016904D01*
X108238095Y-106921666D01*
X108190476Y-106826428D01*
X108142857Y-106778809D01*
X108047619Y-106731190D01*
X107857142Y-106683571D01*
X107761904Y-106635952D01*
X107714285Y-106588333D01*
X107666666Y-106493095D01*
X107666666Y-106397857D01*
X107714285Y-106302619D01*
X107761904Y-106255000D01*
X107857142Y-106207380D01*
X108095238Y-106207380D01*
X108238095Y-106255000D01*
X108571428Y-106207380D02*
X108809523Y-107207380D01*
X109000000Y-106493095D01*
X109190476Y-107207380D01*
X109428571Y-106207380D01*
X109857142Y-107207380D02*
X110047619Y-107207380D01*
X110142857Y-107159761D01*
X110190476Y-107112142D01*
X110285714Y-106969285D01*
X110333333Y-106778809D01*
X110333333Y-106397857D01*
X110285714Y-106302619D01*
X110238095Y-106255000D01*
X110142857Y-106207380D01*
X109952380Y-106207380D01*
X109857142Y-106255000D01*
X109809523Y-106302619D01*
X109761904Y-106397857D01*
X109761904Y-106635952D01*
X109809523Y-106731190D01*
X109857142Y-106778809D01*
X109952380Y-106826428D01*
X110142857Y-106826428D01*
X110238095Y-106778809D01*
X110285714Y-106731190D01*
X110333333Y-106635952D01*
%TO.C,SW8*%
X88666666Y-107159761D02*
X88809523Y-107207380D01*
X89047619Y-107207380D01*
X89142857Y-107159761D01*
X89190476Y-107112142D01*
X89238095Y-107016904D01*
X89238095Y-106921666D01*
X89190476Y-106826428D01*
X89142857Y-106778809D01*
X89047619Y-106731190D01*
X88857142Y-106683571D01*
X88761904Y-106635952D01*
X88714285Y-106588333D01*
X88666666Y-106493095D01*
X88666666Y-106397857D01*
X88714285Y-106302619D01*
X88761904Y-106255000D01*
X88857142Y-106207380D01*
X89095238Y-106207380D01*
X89238095Y-106255000D01*
X89571428Y-106207380D02*
X89809523Y-107207380D01*
X90000000Y-106493095D01*
X90190476Y-107207380D01*
X90428571Y-106207380D01*
X90952380Y-106635952D02*
X90857142Y-106588333D01*
X90809523Y-106540714D01*
X90761904Y-106445476D01*
X90761904Y-106397857D01*
X90809523Y-106302619D01*
X90857142Y-106255000D01*
X90952380Y-106207380D01*
X91142857Y-106207380D01*
X91238095Y-106255000D01*
X91285714Y-106302619D01*
X91333333Y-106397857D01*
X91333333Y-106445476D01*
X91285714Y-106540714D01*
X91238095Y-106588333D01*
X91142857Y-106635952D01*
X90952380Y-106635952D01*
X90857142Y-106683571D01*
X90809523Y-106731190D01*
X90761904Y-106826428D01*
X90761904Y-107016904D01*
X90809523Y-107112142D01*
X90857142Y-107159761D01*
X90952380Y-107207380D01*
X91142857Y-107207380D01*
X91238095Y-107159761D01*
X91285714Y-107112142D01*
X91333333Y-107016904D01*
X91333333Y-106826428D01*
X91285714Y-106731190D01*
X91238095Y-106683571D01*
X91142857Y-106635952D01*
%TO.C,SW7*%
X69666666Y-107159761D02*
X69809523Y-107207380D01*
X70047619Y-107207380D01*
X70142857Y-107159761D01*
X70190476Y-107112142D01*
X70238095Y-107016904D01*
X70238095Y-106921666D01*
X70190476Y-106826428D01*
X70142857Y-106778809D01*
X70047619Y-106731190D01*
X69857142Y-106683571D01*
X69761904Y-106635952D01*
X69714285Y-106588333D01*
X69666666Y-106493095D01*
X69666666Y-106397857D01*
X69714285Y-106302619D01*
X69761904Y-106255000D01*
X69857142Y-106207380D01*
X70095238Y-106207380D01*
X70238095Y-106255000D01*
X70571428Y-106207380D02*
X70809523Y-107207380D01*
X71000000Y-106493095D01*
X71190476Y-107207380D01*
X71428571Y-106207380D01*
X71714285Y-106207380D02*
X72380952Y-106207380D01*
X71952380Y-107207380D01*
%TO.C,SW6*%
X50666666Y-107159761D02*
X50809523Y-107207380D01*
X51047619Y-107207380D01*
X51142857Y-107159761D01*
X51190476Y-107112142D01*
X51238095Y-107016904D01*
X51238095Y-106921666D01*
X51190476Y-106826428D01*
X51142857Y-106778809D01*
X51047619Y-106731190D01*
X50857142Y-106683571D01*
X50761904Y-106635952D01*
X50714285Y-106588333D01*
X50666666Y-106493095D01*
X50666666Y-106397857D01*
X50714285Y-106302619D01*
X50761904Y-106255000D01*
X50857142Y-106207380D01*
X51095238Y-106207380D01*
X51238095Y-106255000D01*
X51571428Y-106207380D02*
X51809523Y-107207380D01*
X52000000Y-106493095D01*
X52190476Y-107207380D01*
X52428571Y-106207380D01*
X53238095Y-106207380D02*
X53047619Y-106207380D01*
X52952380Y-106255000D01*
X52904761Y-106302619D01*
X52809523Y-106445476D01*
X52761904Y-106635952D01*
X52761904Y-107016904D01*
X52809523Y-107112142D01*
X52857142Y-107159761D01*
X52952380Y-107207380D01*
X53142857Y-107207380D01*
X53238095Y-107159761D01*
X53285714Y-107112142D01*
X53333333Y-107016904D01*
X53333333Y-106778809D01*
X53285714Y-106683571D01*
X53238095Y-106635952D01*
X53142857Y-106588333D01*
X52952380Y-106588333D01*
X52857142Y-106635952D01*
X52809523Y-106683571D01*
X52761904Y-106778809D01*
%TO.C,SW5*%
X136166666Y-83409761D02*
X136309523Y-83457380D01*
X136547619Y-83457380D01*
X136642857Y-83409761D01*
X136690476Y-83362142D01*
X136738095Y-83266904D01*
X136738095Y-83171666D01*
X136690476Y-83076428D01*
X136642857Y-83028809D01*
X136547619Y-82981190D01*
X136357142Y-82933571D01*
X136261904Y-82885952D01*
X136214285Y-82838333D01*
X136166666Y-82743095D01*
X136166666Y-82647857D01*
X136214285Y-82552619D01*
X136261904Y-82505000D01*
X136357142Y-82457380D01*
X136595238Y-82457380D01*
X136738095Y-82505000D01*
X137071428Y-82457380D02*
X137309523Y-83457380D01*
X137500000Y-82743095D01*
X137690476Y-83457380D01*
X137928571Y-82457380D01*
X138785714Y-82457380D02*
X138309523Y-82457380D01*
X138261904Y-82933571D01*
X138309523Y-82885952D01*
X138404761Y-82838333D01*
X138642857Y-82838333D01*
X138738095Y-82885952D01*
X138785714Y-82933571D01*
X138833333Y-83028809D01*
X138833333Y-83266904D01*
X138785714Y-83362142D01*
X138738095Y-83409761D01*
X138642857Y-83457380D01*
X138404761Y-83457380D01*
X138309523Y-83409761D01*
X138261904Y-83362142D01*
%TO.C,SW4*%
X117166666Y-83409761D02*
X117309523Y-83457380D01*
X117547619Y-83457380D01*
X117642857Y-83409761D01*
X117690476Y-83362142D01*
X117738095Y-83266904D01*
X117738095Y-83171666D01*
X117690476Y-83076428D01*
X117642857Y-83028809D01*
X117547619Y-82981190D01*
X117357142Y-82933571D01*
X117261904Y-82885952D01*
X117214285Y-82838333D01*
X117166666Y-82743095D01*
X117166666Y-82647857D01*
X117214285Y-82552619D01*
X117261904Y-82505000D01*
X117357142Y-82457380D01*
X117595238Y-82457380D01*
X117738095Y-82505000D01*
X118071428Y-82457380D02*
X118309523Y-83457380D01*
X118500000Y-82743095D01*
X118690476Y-83457380D01*
X118928571Y-82457380D01*
X119738095Y-82790714D02*
X119738095Y-83457380D01*
X119500000Y-82409761D02*
X119261904Y-83124047D01*
X119880952Y-83124047D01*
%TO.C,SW3*%
X98166666Y-83409761D02*
X98309523Y-83457380D01*
X98547619Y-83457380D01*
X98642857Y-83409761D01*
X98690476Y-83362142D01*
X98738095Y-83266904D01*
X98738095Y-83171666D01*
X98690476Y-83076428D01*
X98642857Y-83028809D01*
X98547619Y-82981190D01*
X98357142Y-82933571D01*
X98261904Y-82885952D01*
X98214285Y-82838333D01*
X98166666Y-82743095D01*
X98166666Y-82647857D01*
X98214285Y-82552619D01*
X98261904Y-82505000D01*
X98357142Y-82457380D01*
X98595238Y-82457380D01*
X98738095Y-82505000D01*
X99071428Y-82457380D02*
X99309523Y-83457380D01*
X99500000Y-82743095D01*
X99690476Y-83457380D01*
X99928571Y-82457380D01*
X100214285Y-82457380D02*
X100833333Y-82457380D01*
X100500000Y-82838333D01*
X100642857Y-82838333D01*
X100738095Y-82885952D01*
X100785714Y-82933571D01*
X100833333Y-83028809D01*
X100833333Y-83266904D01*
X100785714Y-83362142D01*
X100738095Y-83409761D01*
X100642857Y-83457380D01*
X100357142Y-83457380D01*
X100261904Y-83409761D01*
X100214285Y-83362142D01*
%TO.C,SW2*%
X79166666Y-83409761D02*
X79309523Y-83457380D01*
X79547619Y-83457380D01*
X79642857Y-83409761D01*
X79690476Y-83362142D01*
X79738095Y-83266904D01*
X79738095Y-83171666D01*
X79690476Y-83076428D01*
X79642857Y-83028809D01*
X79547619Y-82981190D01*
X79357142Y-82933571D01*
X79261904Y-82885952D01*
X79214285Y-82838333D01*
X79166666Y-82743095D01*
X79166666Y-82647857D01*
X79214285Y-82552619D01*
X79261904Y-82505000D01*
X79357142Y-82457380D01*
X79595238Y-82457380D01*
X79738095Y-82505000D01*
X80071428Y-82457380D02*
X80309523Y-83457380D01*
X80500000Y-82743095D01*
X80690476Y-83457380D01*
X80928571Y-82457380D01*
X81261904Y-82552619D02*
X81309523Y-82505000D01*
X81404761Y-82457380D01*
X81642857Y-82457380D01*
X81738095Y-82505000D01*
X81785714Y-82552619D01*
X81833333Y-82647857D01*
X81833333Y-82743095D01*
X81785714Y-82885952D01*
X81214285Y-83457380D01*
X81833333Y-83457380D01*
%TO.C,SW1*%
X50666666Y-83409761D02*
X50809523Y-83457380D01*
X51047619Y-83457380D01*
X51142857Y-83409761D01*
X51190476Y-83362142D01*
X51238095Y-83266904D01*
X51238095Y-83171666D01*
X51190476Y-83076428D01*
X51142857Y-83028809D01*
X51047619Y-82981190D01*
X50857142Y-82933571D01*
X50761904Y-82885952D01*
X50714285Y-82838333D01*
X50666666Y-82743095D01*
X50666666Y-82647857D01*
X50714285Y-82552619D01*
X50761904Y-82505000D01*
X50857142Y-82457380D01*
X51095238Y-82457380D01*
X51238095Y-82505000D01*
X51571428Y-82457380D02*
X51809523Y-83457380D01*
X52000000Y-82743095D01*
X52190476Y-83457380D01*
X52428571Y-82457380D01*
X53333333Y-83457380D02*
X52761904Y-83457380D01*
X53047619Y-83457380D02*
X53047619Y-82457380D01*
X52952380Y-82600238D01*
X52857142Y-82695476D01*
X52761904Y-82743095D01*
%TO.C,H11*%
X250308570Y-60782380D02*
X250308570Y-59782380D01*
X250308570Y-60258571D02*
X250879999Y-60258571D01*
X250879999Y-60782380D02*
X250879999Y-59782380D01*
X251879999Y-60782380D02*
X251308570Y-60782380D01*
X251594285Y-60782380D02*
X251594285Y-59782380D01*
X251499046Y-59925238D01*
X251403808Y-60020476D01*
X251308570Y-60068095D01*
X252832380Y-60782380D02*
X252260951Y-60782380D01*
X252546666Y-60782380D02*
X252546666Y-59782380D01*
X252451427Y-59925238D01*
X252356189Y-60020476D01*
X252260951Y-60068095D01*
%TO.C,H10*%
X250308570Y-83677380D02*
X250308570Y-82677380D01*
X250308570Y-83153571D02*
X250879999Y-83153571D01*
X250879999Y-83677380D02*
X250879999Y-82677380D01*
X251879999Y-83677380D02*
X251308570Y-83677380D01*
X251594285Y-83677380D02*
X251594285Y-82677380D01*
X251499046Y-82820238D01*
X251403808Y-82915476D01*
X251308570Y-82963095D01*
X252499046Y-82677380D02*
X252594285Y-82677380D01*
X252689523Y-82725000D01*
X252737142Y-82772619D01*
X252784761Y-82867857D01*
X252832380Y-83058333D01*
X252832380Y-83296428D01*
X252784761Y-83486904D01*
X252737142Y-83582142D01*
X252689523Y-83629761D01*
X252594285Y-83677380D01*
X252499046Y-83677380D01*
X252403808Y-83629761D01*
X252356189Y-83582142D01*
X252308570Y-83486904D01*
X252260951Y-83296428D01*
X252260951Y-83058333D01*
X252308570Y-82867857D01*
X252356189Y-82772619D01*
X252403808Y-82725000D01*
X252499046Y-82677380D01*
%TO.C,R4*%
X301773333Y-63905380D02*
X301440000Y-63429190D01*
X301201904Y-63905380D02*
X301201904Y-62905380D01*
X301582857Y-62905380D01*
X301678095Y-62953000D01*
X301725714Y-63000619D01*
X301773333Y-63095857D01*
X301773333Y-63238714D01*
X301725714Y-63333952D01*
X301678095Y-63381571D01*
X301582857Y-63429190D01*
X301201904Y-63429190D01*
X302630476Y-63238714D02*
X302630476Y-63905380D01*
X302392380Y-62857761D02*
X302154285Y-63572047D01*
X302773333Y-63572047D01*
%TO.C,H9*%
X208238095Y-171648380D02*
X208238095Y-170648380D01*
X208238095Y-171124571D02*
X208809523Y-171124571D01*
X208809523Y-171648380D02*
X208809523Y-170648380D01*
X209333333Y-171648380D02*
X209523809Y-171648380D01*
X209619047Y-171600761D01*
X209666666Y-171553142D01*
X209761904Y-171410285D01*
X209809523Y-171219809D01*
X209809523Y-170838857D01*
X209761904Y-170743619D01*
X209714285Y-170696000D01*
X209619047Y-170648380D01*
X209428571Y-170648380D01*
X209333333Y-170696000D01*
X209285714Y-170743619D01*
X209238095Y-170838857D01*
X209238095Y-171076952D01*
X209285714Y-171172190D01*
X209333333Y-171219809D01*
X209428571Y-171267428D01*
X209619047Y-171267428D01*
X209714285Y-171219809D01*
X209761904Y-171172190D01*
X209809523Y-171076952D01*
%TO.C,H8*%
X371008095Y-187322380D02*
X371008095Y-186322380D01*
X371008095Y-186798571D02*
X371579523Y-186798571D01*
X371579523Y-187322380D02*
X371579523Y-186322380D01*
X372198571Y-186750952D02*
X372103333Y-186703333D01*
X372055714Y-186655714D01*
X372008095Y-186560476D01*
X372008095Y-186512857D01*
X372055714Y-186417619D01*
X372103333Y-186370000D01*
X372198571Y-186322380D01*
X372389047Y-186322380D01*
X372484285Y-186370000D01*
X372531904Y-186417619D01*
X372579523Y-186512857D01*
X372579523Y-186560476D01*
X372531904Y-186655714D01*
X372484285Y-186703333D01*
X372389047Y-186750952D01*
X372198571Y-186750952D01*
X372103333Y-186798571D01*
X372055714Y-186846190D01*
X372008095Y-186941428D01*
X372008095Y-187131904D01*
X372055714Y-187227142D01*
X372103333Y-187274761D01*
X372198571Y-187322380D01*
X372389047Y-187322380D01*
X372484285Y-187274761D01*
X372531904Y-187227142D01*
X372579523Y-187131904D01*
X372579523Y-186941428D01*
X372531904Y-186846190D01*
X372484285Y-186798571D01*
X372389047Y-186750952D01*
%TO.C,H7*%
X156691428Y-83677380D02*
X156691428Y-82677380D01*
X156691428Y-83153571D02*
X157262856Y-83153571D01*
X157262856Y-83677380D02*
X157262856Y-82677380D01*
X157643809Y-82677380D02*
X158310475Y-82677380D01*
X157881904Y-83677380D01*
%TO.C,H6*%
X371068095Y-83617380D02*
X371068095Y-82617380D01*
X371068095Y-83093571D02*
X371639523Y-83093571D01*
X371639523Y-83617380D02*
X371639523Y-82617380D01*
X372544285Y-82617380D02*
X372353809Y-82617380D01*
X372258571Y-82665000D01*
X372210952Y-82712619D01*
X372115714Y-82855476D01*
X372068095Y-83045952D01*
X372068095Y-83426904D01*
X372115714Y-83522142D01*
X372163333Y-83569761D01*
X372258571Y-83617380D01*
X372449047Y-83617380D01*
X372544285Y-83569761D01*
X372591904Y-83522142D01*
X372639523Y-83426904D01*
X372639523Y-83188809D01*
X372591904Y-83093571D01*
X372544285Y-83045952D01*
X372449047Y-82998333D01*
X372258571Y-82998333D01*
X372163333Y-83045952D01*
X372115714Y-83093571D01*
X372068095Y-83188809D01*
%TO.C,H5*%
X371068095Y-67000380D02*
X371068095Y-66000380D01*
X371068095Y-66476571D02*
X371639523Y-66476571D01*
X371639523Y-67000380D02*
X371639523Y-66000380D01*
X372591904Y-66000380D02*
X372115714Y-66000380D01*
X372068095Y-66476571D01*
X372115714Y-66428952D01*
X372210952Y-66381333D01*
X372449047Y-66381333D01*
X372544285Y-66428952D01*
X372591904Y-66476571D01*
X372639523Y-66571809D01*
X372639523Y-66809904D01*
X372591904Y-66905142D01*
X372544285Y-66952761D01*
X372449047Y-67000380D01*
X372210952Y-67000380D01*
X372115714Y-66952761D01*
X372068095Y-66905142D01*
%TO.C,H4*%
X40218095Y-83677380D02*
X40218095Y-82677380D01*
X40218095Y-83153571D02*
X40789523Y-83153571D01*
X40789523Y-83677380D02*
X40789523Y-82677380D01*
X41694285Y-83010714D02*
X41694285Y-83677380D01*
X41456190Y-82629761D02*
X41218095Y-83344047D01*
X41837142Y-83344047D01*
%TO.C,H3*%
X156718095Y-67000380D02*
X156718095Y-66000380D01*
X156718095Y-66476571D02*
X157289523Y-66476571D01*
X157289523Y-67000380D02*
X157289523Y-66000380D01*
X157670476Y-66000380D02*
X158289523Y-66000380D01*
X157956190Y-66381333D01*
X158099047Y-66381333D01*
X158194285Y-66428952D01*
X158241904Y-66476571D01*
X158289523Y-66571809D01*
X158289523Y-66809904D01*
X158241904Y-66905142D01*
X158194285Y-66952761D01*
X158099047Y-67000380D01*
X157813333Y-67000380D01*
X157718095Y-66952761D01*
X157670476Y-66905142D01*
%TO.C,H2*%
X40218095Y-67000380D02*
X40218095Y-66000380D01*
X40218095Y-66476571D02*
X40789523Y-66476571D01*
X40789523Y-67000380D02*
X40789523Y-66000380D01*
X41218095Y-66095619D02*
X41265714Y-66048000D01*
X41360952Y-66000380D01*
X41599047Y-66000380D01*
X41694285Y-66048000D01*
X41741904Y-66095619D01*
X41789523Y-66190857D01*
X41789523Y-66286095D01*
X41741904Y-66428952D01*
X41170476Y-67000380D01*
X41789523Y-67000380D01*
%TO.C,H1*%
X40218095Y-187322380D02*
X40218095Y-186322380D01*
X40218095Y-186798571D02*
X40789523Y-186798571D01*
X40789523Y-187322380D02*
X40789523Y-186322380D01*
X41789523Y-187322380D02*
X41218095Y-187322380D01*
X41503809Y-187322380D02*
X41503809Y-186322380D01*
X41408571Y-186465238D01*
X41313333Y-186560476D01*
X41218095Y-186608095D01*
%TO.C,U1*%
X316452380Y-68761904D02*
X317261904Y-68761904D01*
X317357142Y-68714285D01*
X317404761Y-68666666D01*
X317452380Y-68571428D01*
X317452380Y-68380952D01*
X317404761Y-68285714D01*
X317357142Y-68238095D01*
X317261904Y-68190476D01*
X316452380Y-68190476D01*
X317452380Y-67190476D02*
X317452380Y-67761904D01*
X317452380Y-67476190D02*
X316452380Y-67476190D01*
X316595238Y-67571428D01*
X316690476Y-67666666D01*
X316738095Y-67761904D01*
%TO.C,J2*%
X288316666Y-65238380D02*
X288316666Y-65952666D01*
X288269047Y-66095523D01*
X288173809Y-66190761D01*
X288030952Y-66238380D01*
X287935714Y-66238380D01*
X288745238Y-65333619D02*
X288792857Y-65286000D01*
X288888095Y-65238380D01*
X289126190Y-65238380D01*
X289221428Y-65286000D01*
X289269047Y-65333619D01*
X289316666Y-65428857D01*
X289316666Y-65524095D01*
X289269047Y-65666952D01*
X288697619Y-66238380D01*
X289316666Y-66238380D01*
X282960476Y-75780000D02*
X282884285Y-75741904D01*
X282770000Y-75741904D01*
X282655714Y-75780000D01*
X282579523Y-75856190D01*
X282541428Y-75932380D01*
X282503333Y-76084761D01*
X282503333Y-76199047D01*
X282541428Y-76351428D01*
X282579523Y-76427619D01*
X282655714Y-76503809D01*
X282770000Y-76541904D01*
X282846190Y-76541904D01*
X282960476Y-76503809D01*
X282998571Y-76465714D01*
X282998571Y-76199047D01*
X282846190Y-76199047D01*
X283341428Y-76541904D02*
X283341428Y-75741904D01*
X283798571Y-76541904D01*
X283798571Y-75741904D01*
X284179523Y-76541904D02*
X284179523Y-75741904D01*
X284370000Y-75741904D01*
X284484285Y-75780000D01*
X284560476Y-75856190D01*
X284598571Y-75932380D01*
X284636666Y-76084761D01*
X284636666Y-76199047D01*
X284598571Y-76351428D01*
X284560476Y-76427619D01*
X284484285Y-76503809D01*
X284370000Y-76541904D01*
X284179523Y-76541904D01*
X285710000Y-76541904D02*
X285710000Y-75741904D01*
X286090952Y-76541904D02*
X286090952Y-75741904D01*
X286281428Y-75741904D01*
X286395714Y-75780000D01*
X286471904Y-75856190D01*
X286510000Y-75932380D01*
X286548095Y-76084761D01*
X286548095Y-76199047D01*
X286510000Y-76351428D01*
X286471904Y-76427619D01*
X286395714Y-76503809D01*
X286281428Y-76541904D01*
X286090952Y-76541904D01*
X287945238Y-76541904D02*
X287945238Y-75741904D01*
X288135714Y-75741904D01*
X288250000Y-75780000D01*
X288326190Y-75856190D01*
X288364285Y-75932380D01*
X288402380Y-76084761D01*
X288402380Y-76199047D01*
X288364285Y-76351428D01*
X288326190Y-76427619D01*
X288250000Y-76503809D01*
X288135714Y-76541904D01*
X287945238Y-76541904D01*
X288745238Y-76237142D02*
X289354761Y-76237142D01*
X289050000Y-76541904D02*
X289050000Y-75932380D01*
X290485238Y-76541904D02*
X290485238Y-75741904D01*
X290675714Y-75741904D01*
X290790000Y-75780000D01*
X290866190Y-75856190D01*
X290904285Y-75932380D01*
X290942380Y-76084761D01*
X290942380Y-76199047D01*
X290904285Y-76351428D01*
X290866190Y-76427619D01*
X290790000Y-76503809D01*
X290675714Y-76541904D01*
X290485238Y-76541904D01*
X291285238Y-76237142D02*
X291894761Y-76237142D01*
X292263333Y-75741904D02*
X292530000Y-76541904D01*
X292796666Y-75741904D01*
X293330000Y-76122857D02*
X293444285Y-76160952D01*
X293482380Y-76199047D01*
X293520476Y-76275238D01*
X293520476Y-76389523D01*
X293482380Y-76465714D01*
X293444285Y-76503809D01*
X293368095Y-76541904D01*
X293063333Y-76541904D01*
X293063333Y-75741904D01*
X293330000Y-75741904D01*
X293406190Y-75780000D01*
X293444285Y-75818095D01*
X293482380Y-75894285D01*
X293482380Y-75970476D01*
X293444285Y-76046666D01*
X293406190Y-76084761D01*
X293330000Y-76122857D01*
X293063333Y-76122857D01*
X293863333Y-75741904D02*
X293863333Y-76389523D01*
X293901428Y-76465714D01*
X293939523Y-76503809D01*
X294015714Y-76541904D01*
X294168095Y-76541904D01*
X294244285Y-76503809D01*
X294282380Y-76465714D01*
X294320476Y-76389523D01*
X294320476Y-75741904D01*
X294663333Y-76503809D02*
X294777619Y-76541904D01*
X294968095Y-76541904D01*
X295044285Y-76503809D01*
X295082380Y-76465714D01*
X295120476Y-76389523D01*
X295120476Y-76313333D01*
X295082380Y-76237142D01*
X295044285Y-76199047D01*
X294968095Y-76160952D01*
X294815714Y-76122857D01*
X294739523Y-76084761D01*
X294701428Y-76046666D01*
X294663333Y-75970476D01*
X294663333Y-75894285D01*
X294701428Y-75818095D01*
X294739523Y-75780000D01*
X294815714Y-75741904D01*
X295006190Y-75741904D01*
X295120476Y-75780000D01*
%TO.C,Y1*%
X345583809Y-84812190D02*
X345583809Y-85288380D01*
X345250476Y-84288380D02*
X345583809Y-84812190D01*
X345917142Y-84288380D01*
X346774285Y-85288380D02*
X346202857Y-85288380D01*
X346488571Y-85288380D02*
X346488571Y-84288380D01*
X346393333Y-84431238D01*
X346298095Y-84526476D01*
X346202857Y-84574095D01*
%TO.C,R3*%
X301643333Y-66780380D02*
X301310000Y-66304190D01*
X301071904Y-66780380D02*
X301071904Y-65780380D01*
X301452857Y-65780380D01*
X301548095Y-65828000D01*
X301595714Y-65875619D01*
X301643333Y-65970857D01*
X301643333Y-66113714D01*
X301595714Y-66208952D01*
X301548095Y-66256571D01*
X301452857Y-66304190D01*
X301071904Y-66304190D01*
X301976666Y-65780380D02*
X302595714Y-65780380D01*
X302262380Y-66161333D01*
X302405238Y-66161333D01*
X302500476Y-66208952D01*
X302548095Y-66256571D01*
X302595714Y-66351809D01*
X302595714Y-66589904D01*
X302548095Y-66685142D01*
X302500476Y-66732761D01*
X302405238Y-66780380D01*
X302119523Y-66780380D01*
X302024285Y-66732761D01*
X301976666Y-66685142D01*
%TO.C,D77*%
X270565714Y-75516380D02*
X270565714Y-74516380D01*
X270803809Y-74516380D01*
X270946666Y-74564000D01*
X271041904Y-74659238D01*
X271089523Y-74754476D01*
X271137142Y-74944952D01*
X271137142Y-75087809D01*
X271089523Y-75278285D01*
X271041904Y-75373523D01*
X270946666Y-75468761D01*
X270803809Y-75516380D01*
X270565714Y-75516380D01*
X271470476Y-74516380D02*
X272137142Y-74516380D01*
X271708571Y-75516380D01*
X272422857Y-74516380D02*
X273089523Y-74516380D01*
X272660952Y-75516380D01*
%TO.C,D76*%
X270565714Y-71960380D02*
X270565714Y-70960380D01*
X270803809Y-70960380D01*
X270946666Y-71008000D01*
X271041904Y-71103238D01*
X271089523Y-71198476D01*
X271137142Y-71388952D01*
X271137142Y-71531809D01*
X271089523Y-71722285D01*
X271041904Y-71817523D01*
X270946666Y-71912761D01*
X270803809Y-71960380D01*
X270565714Y-71960380D01*
X271470476Y-70960380D02*
X272137142Y-70960380D01*
X271708571Y-71960380D01*
X272946666Y-70960380D02*
X272756190Y-70960380D01*
X272660952Y-71008000D01*
X272613333Y-71055619D01*
X272518095Y-71198476D01*
X272470476Y-71388952D01*
X272470476Y-71769904D01*
X272518095Y-71865142D01*
X272565714Y-71912761D01*
X272660952Y-71960380D01*
X272851428Y-71960380D01*
X272946666Y-71912761D01*
X272994285Y-71865142D01*
X273041904Y-71769904D01*
X273041904Y-71531809D01*
X272994285Y-71436571D01*
X272946666Y-71388952D01*
X272851428Y-71341333D01*
X272660952Y-71341333D01*
X272565714Y-71388952D01*
X272518095Y-71436571D01*
X272470476Y-71531809D01*
%TO.C,SW_RESET1*%
X258661809Y-62236761D02*
X258804666Y-62284380D01*
X259042761Y-62284380D01*
X259138000Y-62236761D01*
X259185619Y-62189142D01*
X259233238Y-62093904D01*
X259233238Y-61998666D01*
X259185619Y-61903428D01*
X259138000Y-61855809D01*
X259042761Y-61808190D01*
X258852285Y-61760571D01*
X258757047Y-61712952D01*
X258709428Y-61665333D01*
X258661809Y-61570095D01*
X258661809Y-61474857D01*
X258709428Y-61379619D01*
X258757047Y-61332000D01*
X258852285Y-61284380D01*
X259090380Y-61284380D01*
X259233238Y-61332000D01*
X259566571Y-61284380D02*
X259804666Y-62284380D01*
X259995142Y-61570095D01*
X260185619Y-62284380D01*
X260423714Y-61284380D01*
X260566571Y-62379619D02*
X261328476Y-62379619D01*
X262138000Y-62284380D02*
X261804666Y-61808190D01*
X261566571Y-62284380D02*
X261566571Y-61284380D01*
X261947523Y-61284380D01*
X262042761Y-61332000D01*
X262090380Y-61379619D01*
X262138000Y-61474857D01*
X262138000Y-61617714D01*
X262090380Y-61712952D01*
X262042761Y-61760571D01*
X261947523Y-61808190D01*
X261566571Y-61808190D01*
X262566571Y-61760571D02*
X262899904Y-61760571D01*
X263042761Y-62284380D02*
X262566571Y-62284380D01*
X262566571Y-61284380D01*
X263042761Y-61284380D01*
X263423714Y-62236761D02*
X263566571Y-62284380D01*
X263804666Y-62284380D01*
X263899904Y-62236761D01*
X263947523Y-62189142D01*
X263995142Y-62093904D01*
X263995142Y-61998666D01*
X263947523Y-61903428D01*
X263899904Y-61855809D01*
X263804666Y-61808190D01*
X263614190Y-61760571D01*
X263518952Y-61712952D01*
X263471333Y-61665333D01*
X263423714Y-61570095D01*
X263423714Y-61474857D01*
X263471333Y-61379619D01*
X263518952Y-61332000D01*
X263614190Y-61284380D01*
X263852285Y-61284380D01*
X263995142Y-61332000D01*
X264423714Y-61760571D02*
X264757047Y-61760571D01*
X264899904Y-62284380D02*
X264423714Y-62284380D01*
X264423714Y-61284380D01*
X264899904Y-61284380D01*
X265185619Y-61284380D02*
X265757047Y-61284380D01*
X265471333Y-62284380D02*
X265471333Y-61284380D01*
X266614190Y-62284380D02*
X266042761Y-62284380D01*
X266328476Y-62284380D02*
X266328476Y-61284380D01*
X266233238Y-61427238D01*
X266138000Y-61522476D01*
X266042761Y-61570095D01*
%TO.C,SW_BOOT1*%
X270745142Y-62236761D02*
X270888000Y-62284380D01*
X271126095Y-62284380D01*
X271221333Y-62236761D01*
X271268952Y-62189142D01*
X271316571Y-62093904D01*
X271316571Y-61998666D01*
X271268952Y-61903428D01*
X271221333Y-61855809D01*
X271126095Y-61808190D01*
X270935619Y-61760571D01*
X270840380Y-61712952D01*
X270792761Y-61665333D01*
X270745142Y-61570095D01*
X270745142Y-61474857D01*
X270792761Y-61379619D01*
X270840380Y-61332000D01*
X270935619Y-61284380D01*
X271173714Y-61284380D01*
X271316571Y-61332000D01*
X271649904Y-61284380D02*
X271888000Y-62284380D01*
X272078476Y-61570095D01*
X272268952Y-62284380D01*
X272507047Y-61284380D01*
X272649904Y-62379619D02*
X273411809Y-62379619D01*
X273983238Y-61760571D02*
X274126095Y-61808190D01*
X274173714Y-61855809D01*
X274221333Y-61951047D01*
X274221333Y-62093904D01*
X274173714Y-62189142D01*
X274126095Y-62236761D01*
X274030857Y-62284380D01*
X273649904Y-62284380D01*
X273649904Y-61284380D01*
X273983238Y-61284380D01*
X274078476Y-61332000D01*
X274126095Y-61379619D01*
X274173714Y-61474857D01*
X274173714Y-61570095D01*
X274126095Y-61665333D01*
X274078476Y-61712952D01*
X273983238Y-61760571D01*
X273649904Y-61760571D01*
X274840380Y-61284380D02*
X275030857Y-61284380D01*
X275126095Y-61332000D01*
X275221333Y-61427238D01*
X275268952Y-61617714D01*
X275268952Y-61951047D01*
X275221333Y-62141523D01*
X275126095Y-62236761D01*
X275030857Y-62284380D01*
X274840380Y-62284380D01*
X274745142Y-62236761D01*
X274649904Y-62141523D01*
X274602285Y-61951047D01*
X274602285Y-61617714D01*
X274649904Y-61427238D01*
X274745142Y-61332000D01*
X274840380Y-61284380D01*
X275888000Y-61284380D02*
X276078476Y-61284380D01*
X276173714Y-61332000D01*
X276268952Y-61427238D01*
X276316571Y-61617714D01*
X276316571Y-61951047D01*
X276268952Y-62141523D01*
X276173714Y-62236761D01*
X276078476Y-62284380D01*
X275888000Y-62284380D01*
X275792761Y-62236761D01*
X275697523Y-62141523D01*
X275649904Y-61951047D01*
X275649904Y-61617714D01*
X275697523Y-61427238D01*
X275792761Y-61332000D01*
X275888000Y-61284380D01*
X276602285Y-61284380D02*
X277173714Y-61284380D01*
X276888000Y-62284380D02*
X276888000Y-61284380D01*
X278030857Y-62284380D02*
X277459428Y-62284380D01*
X277745142Y-62284380D02*
X277745142Y-61284380D01*
X277649904Y-61427238D01*
X277554666Y-61522476D01*
X277459428Y-61570095D01*
%TO.C,R2*%
X301563333Y-69755380D02*
X301230000Y-69279190D01*
X300991904Y-69755380D02*
X300991904Y-68755380D01*
X301372857Y-68755380D01*
X301468095Y-68803000D01*
X301515714Y-68850619D01*
X301563333Y-68945857D01*
X301563333Y-69088714D01*
X301515714Y-69183952D01*
X301468095Y-69231571D01*
X301372857Y-69279190D01*
X300991904Y-69279190D01*
X301944285Y-68850619D02*
X301991904Y-68803000D01*
X302087142Y-68755380D01*
X302325238Y-68755380D01*
X302420476Y-68803000D01*
X302468095Y-68850619D01*
X302515714Y-68945857D01*
X302515714Y-69041095D01*
X302468095Y-69183952D01*
X301896666Y-69755380D01*
X302515714Y-69755380D01*
%TO.C,R1*%
X301643333Y-72530380D02*
X301310000Y-72054190D01*
X301071904Y-72530380D02*
X301071904Y-71530380D01*
X301452857Y-71530380D01*
X301548095Y-71578000D01*
X301595714Y-71625619D01*
X301643333Y-71720857D01*
X301643333Y-71863714D01*
X301595714Y-71958952D01*
X301548095Y-72006571D01*
X301452857Y-72054190D01*
X301071904Y-72054190D01*
X302595714Y-72530380D02*
X302024285Y-72530380D01*
X302310000Y-72530380D02*
X302310000Y-71530380D01*
X302214761Y-71673238D01*
X302119523Y-71768476D01*
X302024285Y-71816095D01*
%TO.C,C4*%
X333382687Y-85714389D02*
X333382687Y-85781732D01*
X333315343Y-85916419D01*
X333248000Y-85983763D01*
X333113312Y-86051106D01*
X332978625Y-86051106D01*
X332877610Y-86017435D01*
X332709251Y-85916419D01*
X332608236Y-85815404D01*
X332507221Y-85647045D01*
X332473549Y-85546030D01*
X332473549Y-85411343D01*
X332540893Y-85276656D01*
X332608236Y-85209312D01*
X332742923Y-85141969D01*
X332810267Y-85141969D01*
X333584717Y-84704236D02*
X334056122Y-85175641D01*
X333146984Y-84603221D02*
X333483702Y-85276656D01*
X333921435Y-84838923D01*
%TO.C,C3*%
X301839333Y-80481142D02*
X301791714Y-80528761D01*
X301648857Y-80576380D01*
X301553619Y-80576380D01*
X301410761Y-80528761D01*
X301315523Y-80433523D01*
X301267904Y-80338285D01*
X301220285Y-80147809D01*
X301220285Y-80004952D01*
X301267904Y-79814476D01*
X301315523Y-79719238D01*
X301410761Y-79624000D01*
X301553619Y-79576380D01*
X301648857Y-79576380D01*
X301791714Y-79624000D01*
X301839333Y-79671619D01*
X302172666Y-79576380D02*
X302791714Y-79576380D01*
X302458380Y-79957333D01*
X302601238Y-79957333D01*
X302696476Y-80004952D01*
X302744095Y-80052571D01*
X302791714Y-80147809D01*
X302791714Y-80385904D01*
X302744095Y-80481142D01*
X302696476Y-80528761D01*
X302601238Y-80576380D01*
X302315523Y-80576380D01*
X302220285Y-80528761D01*
X302172666Y-80481142D01*
%TO.C,C2*%
X338161333Y-88495142D02*
X338113714Y-88542761D01*
X337970857Y-88590380D01*
X337875619Y-88590380D01*
X337732761Y-88542761D01*
X337637523Y-88447523D01*
X337589904Y-88352285D01*
X337542285Y-88161809D01*
X337542285Y-88018952D01*
X337589904Y-87828476D01*
X337637523Y-87733238D01*
X337732761Y-87638000D01*
X337875619Y-87590380D01*
X337970857Y-87590380D01*
X338113714Y-87638000D01*
X338161333Y-87685619D01*
X338542285Y-87685619D02*
X338589904Y-87638000D01*
X338685142Y-87590380D01*
X338923238Y-87590380D01*
X339018476Y-87638000D01*
X339066095Y-87685619D01*
X339113714Y-87780857D01*
X339113714Y-87876095D01*
X339066095Y-88018952D01*
X338494666Y-88590380D01*
X339113714Y-88590380D01*
%TO.C,C1*%
X356449333Y-85193142D02*
X356401714Y-85240761D01*
X356258857Y-85288380D01*
X356163619Y-85288380D01*
X356020761Y-85240761D01*
X355925523Y-85145523D01*
X355877904Y-85050285D01*
X355830285Y-84859809D01*
X355830285Y-84716952D01*
X355877904Y-84526476D01*
X355925523Y-84431238D01*
X356020761Y-84336000D01*
X356163619Y-84288380D01*
X356258857Y-84288380D01*
X356401714Y-84336000D01*
X356449333Y-84383619D01*
X357401714Y-85288380D02*
X356830285Y-85288380D01*
X357116000Y-85288380D02*
X357116000Y-84288380D01*
X357020761Y-84431238D01*
X356925523Y-84526476D01*
X356830285Y-84574095D01*
%TD*%
M02*
