  0
SECTION
  2
HEADER
  9
$ANGBASE
  50
0.0
  9
$ANGDIR
  70
1
  9
$MEASUREMENT
  70
0
  0
ENDSEC
  0
SECTION
  2
TABLES
  0
TABLE
  2
LTYPE
  70
4
  0
LTYPE
  5
40F
  2
CONTINUOUS
  70
0
  3
Solid line
  72
65
  73
0
  40
0.0
  0
LTYPE
  5
410
  2
DASHDOT
 70
0
  3
Dash Dot ____ _ ____ _
 72
65
 73
4
 40
2.0
 49
1.25
 49
-0.25
 49
0.25
 49
-0.25
  0
LTYPE
  5
411
  2
DASHED
 70
0
  3
Dashed __ __ __ __ __
 72
65
 73
2
 40
0.75
 49
0.5
 49
-0.25
  0
LTYPE
  5
43B
  2
DOTTED
 70
0
  3
Dotted .  .  .  .
 72
65
 73
2
 40
0.2
 49
0.0
 49
-0.2
  0
ENDTAB
  0
TABLE
  2
STYLE
  70
4
  0
STYLE
  2
KICAD
  70
0
  40
0
  41
1
  42
1
  50
0
  71
0
  3
isocp.shx
  0
STYLE
  2
KICADB
  70
0
  40
0
  41
1
  42
1
  50
0
  71
0
  3
isocp.shx
  0
STYLE
  2
KICADI
  70
0
  40
0
  41
1
  42
1
  50
15
  71
0
  3
isocp.shx
  0
STYLE
  2
KICADBI
  70
0
  40
0
  41
1
  42
1
  50
15
  71
0
  3
isocp.shx
  0
ENDTAB
  0
TABLE
  2
LAYER
  70
1
  0
LAYER
  2
BLACK
  70
0
  62
7
  6
CONTINUOUS
  0
ENDTAB
  0
ENDSEC
  0
SECTION
  2
ENTITIES
0
LINE
8
BLACK
6
CONTINUOUS
10
15.0074
20
-3.07805
11
15.0074
21
-3.07805
0
LINE
8
BLACK
6
CONTINUOUS
10
15.0074
20
-3.07805
11
15.0076
21
-3.07807
0
LINE
8
BLACK
6
CONTINUOUS
10
15.0076
20
-3.07807
11
15.0078
21
-3.07812
0
LINE
8
BLACK
6
CONTINUOUS
10
15.0078
20
-3.07812
11
15.0079
21
-3.07821
0
LINE
8
BLACK
6
CONTINUOUS
10
15.0079
20
-3.07821
11
15.0081
21
-3.07834
0
LINE
8
BLACK
6
CONTINUOUS
10
15.0081
20
-3.07834
11
15.0082
21
-3.07849
0
LINE
8
BLACK
6
CONTINUOUS
10
15.0082
20
-3.07849
11
15.0083
21
-3.07866
0
LINE
8
BLACK
6
CONTINUOUS
10
15.0083
20
-3.07866
11
15.0084
21
-3.07884
0
LINE
8
BLACK
6
CONTINUOUS
10
15.0084
20
-3.07884
11
15.0084
21
-3.07904
0
LINE
8
BLACK
6
CONTINUOUS
10
15.0084
20
-3.07904
11
15.0084
21
-3.07908
0
LINE
8
BLACK
6
CONTINUOUS
10
15.0084
20
-3.07908
11
15.0084
21
-8.36334
0
LINE
8
BLACK
6
CONTINUOUS
10
15.0084
20
-8.36334
11
15.0084
21
-8.36339
0
LINE
8
BLACK
6
CONTINUOUS
10
15.0084
20
-8.36339
11
15.0084
21
-8.36343
0
LINE
8
BLACK
6
CONTINUOUS
10
15.0084
20
-8.36343
11
15.0084
21
-8.36358
0
LINE
8
BLACK
6
CONTINUOUS
10
15.0084
20
-8.36358
11
15.0083
21
-8.36376
0
LINE
8
BLACK
6
CONTINUOUS
10
15.0083
20
-8.36376
11
15.0082
21
-8.36394
0
LINE
8
BLACK
6
CONTINUOUS
10
15.0082
20
-8.36394
11
15.0081
21
-8.36409
0
LINE
8
BLACK
6
CONTINUOUS
10
15.0081
20
-8.36409
11
15.0079
21
-8.36421
0
LINE
8
BLACK
6
CONTINUOUS
10
15.0079
20
-8.36421
11
15.0078
21
-8.3643
0
LINE
8
BLACK
6
CONTINUOUS
10
15.0078
20
-8.3643
11
15.0076
21
-8.36436
0
LINE
8
BLACK
6
CONTINUOUS
10
15.0076
20
-8.36436
11
15.0074
21
-8.36437
0
LINE
8
BLACK
6
CONTINUOUS
10
15.0074
20
-8.36437
11
15.0073
21
-8.36437
0
LINE
8
BLACK
6
CONTINUOUS
10
15.0073
20
-8.36437
11
1.48135
21
-8.36437
0
LINE
8
BLACK
6
CONTINUOUS
10
1.48135
20
-8.36437
11
1.4813
21
-8.36437
0
LINE
8
BLACK
6
CONTINUOUS
10
1.4813
20
-8.36437
11
1.48125
21
-8.36437
0
LINE
8
BLACK
6
CONTINUOUS
10
1.48125
20
-8.36437
11
1.48125
21
-8.36437
0
LINE
8
BLACK
6
CONTINUOUS
10
1.48125
20
-8.36437
11
1.48111
21
-8.36436
0
LINE
8
BLACK
6
CONTINUOUS
10
1.48111
20
-8.36436
11
1.48092
21
-8.3643
0
LINE
8
BLACK
6
CONTINUOUS
10
1.48092
20
-8.3643
11
1.48075
21
-8.36421
0
LINE
8
BLACK
6
CONTINUOUS
10
1.48075
20
-8.36421
11
1.4806
21
-8.36409
0
LINE
8
BLACK
6
CONTINUOUS
10
1.4806
20
-8.36409
11
1.48048
21
-8.36394
0
LINE
8
BLACK
6
CONTINUOUS
10
1.48048
20
-8.36394
11
1.48039
21
-8.36376
0
LINE
8
BLACK
6
CONTINUOUS
10
1.48039
20
-8.36376
11
1.48033
21
-8.36358
0
LINE
8
BLACK
6
CONTINUOUS
10
1.48033
20
-8.36358
11
1.48031
21
-8.36339
0
LINE
8
BLACK
6
CONTINUOUS
10
1.48031
20
-8.36339
11
1.48032
21
-8.36334
0
LINE
8
BLACK
6
CONTINUOUS
10
1.48032
20
-8.36334
11
1.48031
21
-3.07908
0
LINE
8
BLACK
6
CONTINUOUS
10
1.48031
20
-3.07908
11
1.48031
21
-3.07904
0
LINE
8
BLACK
6
CONTINUOUS
10
1.48031
20
-3.07904
11
1.48033
21
-3.07884
0
LINE
8
BLACK
6
CONTINUOUS
10
1.48033
20
-3.07884
11
1.48039
21
-3.07866
0
LINE
8
BLACK
6
CONTINUOUS
10
1.48039
20
-3.07866
11
1.48048
21
-3.07849
0
LINE
8
BLACK
6
CONTINUOUS
10
1.48048
20
-3.07849
11
1.4806
21
-3.07834
0
LINE
8
BLACK
6
CONTINUOUS
10
1.4806
20
-3.07834
11
1.48075
21
-3.07821
0
LINE
8
BLACK
6
CONTINUOUS
10
1.48075
20
-3.07821
11
1.48092
21
-3.07812
0
LINE
8
BLACK
6
CONTINUOUS
10
1.48092
20
-3.07812
11
1.48111
21
-3.07807
0
LINE
8
BLACK
6
CONTINUOUS
10
1.48111
20
-3.07807
11
1.48125
21
-3.07805
0
LINE
8
BLACK
6
CONTINUOUS
10
1.48125
20
-3.07805
11
1.4813
21
-3.07805
0
LINE
8
BLACK
6
CONTINUOUS
10
1.4813
20
-3.07805
11
1.48135
21
-3.07805
0
LINE
8
BLACK
6
CONTINUOUS
10
1.48135
20
-3.07805
11
15.0073
21
-3.07805
0
LINE
8
BLACK
6
CONTINUOUS
10
15.0073
20
-3.07805
11
15.0074
21
-3.07805
0
LINE
8
BLACK
6
CONTINUOUS
10
15.0074
20
-3.07805
11
15.0074
21
-3.07805
0
LINE
8
BLACK
6
CONTINUOUS
10
1.48228
20
-3.08002
11
1.48228
21
-8.3624
0
LINE
8
BLACK
6
CONTINUOUS
10
1.48228
20
-8.3624
11
15.0064
21
-8.3624
0
LINE
8
BLACK
6
CONTINUOUS
10
15.0064
20
-8.3624
11
15.0064
21
-3.08002
0
LINE
8
BLACK
6
CONTINUOUS
10
15.0064
20
-3.08002
11
1.48228
21
-3.08002
  0
ENDSEC
  0
EOF
